<?xml version="1.0" encoding="UTF-8"?>
<svg width="175.56" height="153.71" version="1.1" viewBox="0 0 351.12 307.41" xmlns="http://www.w3.org/2000/svg" xmlns:cc="http://creativecommons.org/ns#" xmlns:dc="http://purl.org/dc/elements/1.1/" xmlns:rdf="http://www.w3.org/1999/02/22-rdf-syntax-ns#" xmlns:xlink="http://www.w3.org/1999/xlink">
  <title>Laptop</title>
  <metadata>
    <rdf:RDF>
      <cc:Work rdf:about="">
        <dc:format>image/svg+xml</dc:format>
        <dc:type rdf:resource="http://purl.org/dc/dcmitype/StillImage"/>
        <dc:title>Laptop</dc:title>
        <cc:license rdf:resource="http://creativecommons.org/publicdomain/zero/1.0/"/>
        <dc:source>Pixabay image 158648</dc:source>
        <dc:creator>
          <cc:Agent>
            <dc:title>seth.fischer.nz</dc:title>
          </cc:Agent>
        </dc:creator>
      </cc:Work>
      <cc:License rdf:about="http://creativecommons.org/publicdomain/zero/1.0/">
        <cc:permits rdf:resource="http://creativecommons.org/ns#Reproduction"/>
        <cc:permits rdf:resource="http://creativecommons.org/ns#Distribution"/>
        <cc:permits rdf:resource="http://creativecommons.org/ns#DerivativeWorks"/>
      </cc:License>
    </rdf:RDF>
  </metadata>
  <defs>
    <filter id="fl" x="-.01523" y="-.056711" width="1.0305" height="1.1134">
      <feGaussianBlur stdDeviation=".319"/>
    </filter>
    <filter id="e" x="-.0022606" y="-.045569" width="1.0045" height="1.0911"/>
    <linearGradient id="fm" x1="406.76" x2="417.91" y1="180.19" y2="122.6" gradientTransform="matrix(1.347 0 0 1.347 -376.97 -123.77)" gradientUnits="userSpaceOnUse">
      <stop stop-color="#1d1d1d" offset="0"/>
      <stop stop-color="#393939" offset=".25"/>
      <stop stop-color="#565656" offset=".5"/>
      <stop stop-color="#808080" offset=".808"/>
      <stop stop-color="#bfbfbf" offset="1"/>
    </linearGradient>
    <linearGradient id="fn" x1="406.76" x2="417.91" y1="180.19" y2="122.6" gradientTransform="matrix(1.347 0 0 1.347 -376.97 -123.77)" gradientUnits="userSpaceOnUse">
      <stop stop-color="#212121" offset="0"/>
      <stop stop-color="#1b1b1b" offset="0"/>
      <stop stop-color="#373737" offset="0"/>
      <stop stop-color="#545454" offset="1"/>
    </linearGradient>
    <linearGradient id="d" x2="0" y1="304.27" y2="293.91" gradientUnits="userSpaceOnUse">
      <stop stop-color="#1d1d1d" offset="0"/>
      <stop stop-color="#393939" offset=".084"/>
      <stop stop-color="#565656" offset=".155"/>
      <stop stop-color="#808080" offset=".855"/>
      <stop stop-color="#bfbfbf" offset="1"/>
    </linearGradient>
    <linearGradient id="c" x2="0" y1="239.02" y2="294.03" gradientUnits="userSpaceOnUse">
      <stop stop-color="#1d1d1d" offset="0"/>
      <stop stop-color="#393939" offset=".25"/>
      <stop stop-color="#565656" offset=".5"/>
      <stop stop-color="#808080" offset=".971"/>
      <stop stop-color="#bfbfbf" offset="1"/>
    </linearGradient>
    <linearGradient id="dj" x2="0" y1="304.27" y2="293.91" gradientUnits="userSpaceOnUse" xlink:href="#d"/>
    <linearGradient id="dk" x2="0" y1="239.02" y2="294.03" gradientUnits="userSpaceOnUse" xlink:href="#c"/>
    <linearGradient id="dl" x2="0" y1="239.02" y2="294.03" gradientTransform="matrix(1.347 0 0 1.347 -376.97 -123.77)" gradientUnits="userSpaceOnUse" xlink:href="#c"/>
    <linearGradient id="dm" x2="0" y1="304.27" y2="293.91" gradientTransform="matrix(1.347 0 0 1.347 -376.97 -123.77)" gradientUnits="userSpaceOnUse" xlink:href="#d"/>
  </defs>
  <path transform="matrix(1.347 0 0 1.347 -376.97 -123.77)" d="m522.57 293.82c4.0024 0 4.0233 10.926-4.7114 10.926-72.56-0.0514-145.84 0.1028-218.4-0.0771-5.1908-0.2836-4.147-9.2257-4.147-9.2257s-0.0449-1.6567 1.2433-1.6567c78.343 0.0429 158.43-0.0336 226.01 0.0336z" fill="url(#dj)" filter="url(#e)" stroke="#000"/>
  <path transform="matrix(1.347 0 0 1.347 -376.97 -123.77)" d="m321.9 239.56h183.85c3.0779 0 5.2468 1.0499 5.5558 2.2674l13.696 53.967c0.1354 0.5335 0.1105 0.8552 0 1-0.1991 0.2603 0.2843 0.9344-1.0677-1.901-0.4087-0.8571-15.564-0.9148-18.183-0.9148h-183.85c-2.6586 0-25.294 3.1282-25.294 3.1282l-0.7589-1.1339-0.3118-1.5844 20.809-52.561c0.4624-1.168 2.4779-2.2674 5.5558-2.2674z" fill="url(#dk)" filter="url(#e)" stroke="#000"/>
  <path d="m56.631 20.674h247.65a7.4837 7.4248 0 0 1 7.4837 7.4248v163.35a7.4837 7.4248 0 0 1-7.4837 7.4248h-247.65a7.4837 7.4248 0 0 1-7.4837-7.4248v-163.35a7.4837 7.4248 0 0 1 7.4837-7.4248" stroke="#333" stroke-width="1.347"/>
  <path d="m56.631 198.92h247.65c4.1459 0 7.0674 1.4142 7.4837 3.0542l18.449 72.694c0.18239 0.71862 0.14885 1.152 0 1.347-0.26818 0.35062 0.38296 1.2586-1.4382-2.5606-0.55052-1.1545-20.965-1.2322-24.492-1.2322h-247.65c-3.5811 0-34.793 3.853-34.793 3.853s-0.89481-1.0416-0.81184-1.2568l28.121-72.844c0.60938-1.5786 3.3377-3.0542 7.4837-3.0542z" fill="#808080" opacity=".406" stroke-width="1.347"/>
  <path d="m56.631 198.92h247.65c4.1459 0 7.0674 1.4142 7.4837 3.0542l18.449 72.694c0.18239 0.71862 0.14885 1.152 0 1.347-0.26818 0.35062 0.38296 1.2586-1.4382-2.5606-0.55052-1.1545-20.965-1.2322-24.492-1.2322h-247.65c-3.5811 0-34.071 4.2137-34.071 4.2137l-1.0222-1.5274-0.41999-2.1342 28.03-70.8c0.62285-1.5733 3.3377-3.0542 7.4837-3.0542z" fill="url(#dl)" stroke-width="1.347"/>
  <path d="m326.93 274.98c0.4798 0 2.5301-0.3478 3.0364-1.0532 0.85103-1.1855-1.7366-6.9066 0.40571-2.0342s-0.82961 14.836-9.7884 14.836c-97.738-0.0552-196.45 0.11045-294.18-0.083-6.992-0.30496-5.9467-14.54-5.9467-14.54s0.30038 2.8377 2.0356 2.8377c105.53 0.0461 304.44 0.0361 304.44 0.0361z" stroke-width="1.347"/>
  <path d="m326.93 272.01c5.3912 0 5.4194 14.717-6.3463 14.717-97.738-0.0692-196.45 0.13847-294.18-0.10385-6.992-0.38201-5.586-12.427-5.586-12.427s-0.06048-2.2316 1.6747-2.2316c105.53 0.0578 213.41-0.0453 304.44 0.0452z" fill="url(#dm)" stroke-width="1.347"/>
  <path d="m55.459 206.65a2.0412 1.9844 0 0 0-1.4733 1.2277l-13.47 32.739a2.0412 1.9844 0 0 0 1.8943 2.7009h269.4a2.0412 1.9844 0 0 0 2.0205-2.3736l-6.735-32.739a2.0412 1.9844 0 0 0-2.0205-1.5551h-249.2a2.0412 1.9844 0 0 0-0.42094 0z" fill="#1a1a1a" stroke="#000" stroke-width="1.3281"/>
  <g stroke-width="1.347">
    <path d="m64.142 208.24c-3.7339 0-7.497 0.0607-7.8949 0.17807-0.35386 0.1044-0.7426 0.62164-1.0482 1.3861-0.40828 1.0212-0.3781 1.254 0.18386 1.3734 0.89912 0.191 14.082 0.19464 15.208 4e-3 0.75216-0.12716 0.91987-0.30119 1.3056-1.3734 0.2756-0.76604 0.28098-1.2861 0.0067-1.3905-0.30873-0.11732-4.0258-0.17807-7.7597-0.17807l-2.7e-5 5e-5"/>
    <path d="m63.979 207.32c-3.7339 0-7.497 0.0608-7.8949 0.17807-0.35386 0.1044-0.7426 0.62164-1.0482 1.3861-0.40828 1.0212-0.3781 1.254 0.18386 1.3734 0.89912 0.191 14.082 0.19464 15.208 4e-3 0.75216-0.12716 0.91987-0.30119 1.3056-1.3734 0.2756-0.76604 0.28098-1.2861 0.0067-1.3905-0.30873-0.11732-4.0258-0.17807-7.7597-0.17807l-2.7e-5 5e-5" fill="#545454"/>
  </g>
  <g stroke-width="1.347">
    <path d="m81.882 208.26c-3.5044 5e-3 -6.9687 0.0628-7.3253 0.16932-0.35655 0.10655-0.71526 0.62164-0.98722 1.3862-0.36329 1.0212-0.32288 1.254 0.24435 1.3734 0.90586 0.19073 13.673 0.19423 14.789 4e-3 0.74853-0.12743 0.90653-0.30025 1.2534-1.3954 0.34685-1.0951 0.29782-1.2646-0.36571-1.3904-0.55442-0.10507-4.1038-0.15302-7.6081-0.14763l-2.7e-5 5e-5"/>
    <path d="m81.753 207.3c-3.5044 5e-3 -6.9687 0.0628-7.3253 0.16932-0.35655 0.10655-0.71526 0.62164-0.98722 1.3862-0.36329 1.0212-0.32288 1.254 0.24435 1.3734 0.90586 0.19073 13.673 0.19423 14.789 4e-3 0.74853-0.12743 0.90653-0.30025 1.2534-1.3954 0.34685-1.0951 0.29782-1.2646-0.36571-1.3904-0.55442-0.10507-4.1038-0.15302-7.6081-0.14763l-2.7e-5 5e-5" fill="#545454"/>
  </g>
  <g stroke-width="1.347">
    <path d="m99.961 208.26c-4.8567 0-7.127 0.0486-7.5117 0.16501-0.34483 0.10439-0.68845 0.62164-0.92754 1.3862-0.31937 1.0212-0.26886 1.254 0.30348 1.3734 0.38794 0.081 3.6492 0.14736 7.4688 0.14978 5.6146 3e-3 6.9016-0.0368 7.4974-0.2201 0.53139-0.16352 0.79271-0.50593 1.0156-1.3205 0.42942-1.5693 0.61046-1.5337-7.8464-1.5337"/>
    <path d="m99.831 207.3c-4.8567 0-7.127 0.0486-7.5117 0.16501-0.34483 0.10439-0.68845 0.62164-0.92754 1.3862-0.31937 1.0212-0.26886 1.254 0.30348 1.3734 0.38794 0.081 3.6492 0.14736 7.4688 0.14978 5.6146 3e-3 6.9016-0.0368 7.4974-0.2201 0.53139-0.16352 0.79271-0.50593 1.0156-1.3205 0.42942-1.5693 0.61046-1.5337-7.8464-1.5337" fill="#545454"/>
  </g>
  <g stroke-width="1.347">
    <path d="m117.85 208.26c-4.8567 0-7.1248 0.0486-7.5045 0.16501-0.34039 0.10439-0.66165 0.62164-0.86787 1.3862-0.27533 1.0212-0.21498 1.254 0.36261 1.3734 0.39144 0.081 3.6555 0.14736 7.4753 0.14978 5.6147 3e-3 6.9-0.0368 7.488-0.2201 0.52426-0.16352 0.77103-0.50593 0.9588-1.3205 0.3618-1.5693 0.54432-1.5337-7.9124-1.5337"/>
    <path d="m117.72 207.3c-4.8567 0-7.1248 0.0486-7.5045 0.16501-0.34039 0.10439-0.66165 0.62164-0.86787 1.3862-0.27533 1.0212-0.21498 1.254 0.36261 1.3734 0.39144 0.081 3.6555 0.14736 7.4753 0.14978 5.6147 3e-3 6.9-0.0368 7.488-0.2201 0.52426-0.16352 0.77103-0.50593 0.9588-1.3205 0.3618-1.5693 0.54432-1.5337-7.9124-1.5337" fill="#545454"/>
  </g>
  <g stroke-width="1.347">
    <path d="m135.73 208.26c-4.8567 0-7.1228 0.0486-7.4974 0.16501-0.33446 0.10385-0.63471 0.62056-0.80416 1.3687-0.16945 0.74813-0.10305 1.2681 0.18615 1.3733 0.32436 0.118 2.584 0.17174 7.4768 0.17174 5.8131 0 7.1344-0.0409 7.7151-0.22454 0.51725-0.16353 0.74921-0.50593 0.90196-1.3205 0.29432-1.5692 0.47832-1.5337-7.9784-1.5337"/>
    <path d="m135.6 207.3c-4.8567 0-7.1228 0.0486-7.4974 0.16501-0.33446 0.10385-0.63471 0.62056-0.80416 1.3687-0.16945 0.74813-0.10305 1.2681 0.18615 1.3733 0.32436 0.118 2.584 0.17174 7.4768 0.17174 5.8131 0 7.1344-0.041 7.7151-0.22454 0.51725-0.16353 0.74921-0.50593 0.90196-1.3205 0.29432-1.5692 0.47832-1.5337-7.9784-1.5337" fill="#545454"/>
  </g>
  <g stroke-width="1.347">
    <path d="m153.61 208.26c-4.8567 0-7.1206 0.0486-7.4903 0.16501-0.32988 0.10385-0.6079 0.62056-0.74516 1.3687-0.13726 0.74813-0.0485 1.2681 0.24529 1.3733 0.32947 0.118 2.5914 0.17174 7.4842 0.17174 5.8131 0 7.1326-0.0409 7.7054-0.22454 0.51024-0.16353 0.72738-0.50593 0.8451-1.3205 0.2267-1.5692 0.41232-1.5337-8.0444-1.5337"/>
    <path d="m153.48 207.3c-4.8567 0-7.1206 0.0486-7.4903 0.16501-0.32988 0.10385-0.6079 0.62056-0.74516 1.3687-0.13726 0.74813-0.0485 1.2681 0.24529 1.3733 0.32947 0.118 2.5914 0.17174 7.4842 0.17174 5.8131 0 7.1326-0.041 7.7054-0.22454 0.51024-0.16353 0.72738-0.50593 0.8451-1.3205 0.2267-1.5692 0.41232-1.5337-8.0444-1.5337" fill="#545454"/>
  </g>
  <g stroke-width="1.347">
    <path d="m168.69 208.26c-5.5758 0.0206-5.5895 0.18952-5.7796 1.5337-0.21889 1.5468-0.22226 1.545 8.1611 1.545 5.8678 0 7.1827-0.0408 7.7481-0.22454 0.50324-0.16353 0.70556-0.50593 0.78827-1.3205 0.15921-1.5705 0.3618-1.5337-8.1626-1.5337h-2.7554"/>
    <path d="m168.56 207.3c-5.5758 0.0206-5.5895 0.18952-5.7796 1.5337-0.21889 1.5468-0.22226 1.545 8.1611 1.545 5.8678 0 7.1827-0.0408 7.7481-0.22454 0.50324-0.16353 0.70556-0.50593 0.78827-1.3205 0.15921-1.5705 0.3618-1.5337-8.1626-1.5337h-2.7554" fill="#545454"/>
  </g>
  <g stroke-width="1.347">
    <path d="m186.65 208.26c-5.6598 0.019-5.6577 0.17322-5.7833 1.4506-0.16124 1.6381-0.22415 1.6281 8.2195 1.6281 5.8678 0 7.181-0.0408 7.7385-0.22454 0.49623-0.16353 0.68387-0.50593 0.73142-1.3205 0.0915-1.5682 0.27156-1.5337-8.1246-1.5337h-2.7813"/>
    <path d="m186.52 207.3c-5.6598 0.019-5.6577 0.17322-5.7833 1.4506-0.16124 1.6381-0.22415 1.6281 8.2195 1.6281 5.8678 0 7.181-0.0408 7.7385-0.22454 0.49623-0.16353 0.68387-0.50593 0.73142-1.3205 0.0915-1.5682 0.27156-1.5337-8.1246-1.5337h-2.7813" fill="#545454"/>
  </g>
  <g stroke-width="1.347">
    <path d="m204.42 208.26c-5.6566 0.0149-5.5323 0.15598-5.6064 1.4944-0.0888 1.6039-0.20474 1.5843 8.3313 1.5843 5.8304 0 7.1403-0.0408 7.6895-0.22454 0.48909-0.16353 0.66205-0.50593 0.67444-1.3205 0.024-1.5703 0.22279-1.5337-8.2946-1.5337h-2.7944v-1e-5"/>
    <path d="m204.29 207.3c-5.6566 0.0149-5.5323 0.15598-5.6064 1.4944-0.0888 1.6039-0.20474 1.5843 8.3313 1.5843 5.8304 0 7.1403-0.0408 7.6895-0.22454 0.48909-0.16353 0.66205-0.50593 0.67444-1.3205 0.024-1.5703 0.22279-1.5337-8.2946-1.5337h-2.7944v-1e-5" fill="#545454"/>
  </g>
  <g stroke-width="1.347">
    <path d="m222.3 208.26c-5.6559 0.0149-5.5257 0.15598-5.5421 1.4944-0.0197 1.6013-0.13187 1.5843 8.2816 1.5843 5.8512 0 7.037-0.0362 7.6796-0.2333 0.61167-0.18763 0.75971-0.4468 0.73533-1.3248-0.0432-1.5569 0.14898-1.5205-8.3603-1.5205h-2.7944v-1e-5"/>
    <path d="m222.18 207.3c-5.6559 0.0149-5.5257 0.15598-5.5421 1.4944-0.0197 1.6013-0.13187 1.5843 8.2816 1.5843 5.8512 0 7.037-0.0362 7.6796-0.2333 0.61167-0.18763 0.75971-0.4468 0.73533-1.3248-0.0432-1.5569 0.14898-1.5205-8.3603-1.5205h-2.7944v-1e-5" fill="#545454"/>
  </g>
  <g stroke-width="1.347">
    <path d="m240.17 208.26c-5.6674 0.0144-5.5057 0.15908-5.4634 1.5337 0.0486 1.58-0.13591 1.545 8.3224 1.545 5.8838 0 7.0612-0.0361 7.6958-0.2333 0.60359-0.18763 0.74045-0.4468 0.67822-1.3248-0.11019-1.5569 0.0835-1.5205-8.4258-1.5205h-2.8073"/>
    <path d="m240.04 207.3c-5.6674 0.0144-5.5057 0.15908-5.4634 1.5337 0.0486 1.58-0.13591 1.545 8.3224 1.545 5.8838 0 7.0612-0.0361 7.6958-0.2333 0.60359-0.18763 0.74045-0.4468 0.67822-1.3248-0.11019-1.5569 0.0835-1.5205-8.4258-1.5205h-2.8073" fill="#545454"/>
  </g>
  <g stroke-width="1.347">
    <path d="m258.04 208.26c-5.6412 0.0146-5.4859 0.15962-5.3845 1.5337 0.11665 1.58-0.0694 1.545 8.389 1.545 5.8838 0 7.0598-0.0361 7.6857-0.2333 0.59133-0.18629 0.72118-0.4468 0.62514-1.2898-0.17983-1.5788-0.0694-1.5555-8.5342-1.5555h-2.7813"/>
    <path d="m257.91 207.3c-5.6412 0.0145-5.4859 0.15962-5.3845 1.5337 0.11665 1.58-0.0694 1.545 8.389 1.545 5.8838 0 7.0598-0.0361 7.6857-0.2333 0.59133-0.18629 0.72118-0.4468 0.62514-1.2898-0.17983-1.5788-0.0694-1.5555-8.5342-1.5555h-2.7813" fill="#545454"/>
  </g>
  <g stroke-width="1.347">
    <path d="m275.96 208.26c-5.6706 0.0144-5.505 0.15895-5.3444 1.5337 0.18495 1.5823-0.0272 1.545 8.5603 1.545 6.83 0 7.0926-0.0145 7.6758-0.31695 0.39669-0.20582 0.55631-0.62339 0.46148-1.2281-0.24098-1.5354-0.23707-1.5337-8.5587-1.5337h-2.7944"/>
    <path d="m275.83 207.3c-5.6706 0.0144-5.505 0.15895-5.3444 1.5337 0.18495 1.5823-0.0272 1.545 8.5603 1.545 6.83 0 7.0926-0.0145 7.6758-0.31695 0.39669-0.20582 0.55631-0.62339 0.46148-1.2281-0.24098-1.5354-0.23707-1.5337-8.5587-1.5337h-2.7944" fill="#545454"/>
  </g>
  <g stroke-width="1.347">
    <path d="m293.83 208.26c-5.6803 0.0143-5.4983 0.15868-5.2784 1.5337 0.2531 1.5826 0.0496 1.545 8.653 1.545 6.9948 0 7.08-4e-3 7.6586-0.33459 0.73479-0.41973 0.39063-1.9852-0.53463-2.4313-0.63107-0.30428-0.83783-0.31277-7.6782-0.31277h-2.8204"/>
    <path d="m293.7 207.3c-5.6803 0.0143-5.4983 0.15868-5.2784 1.5337 0.2531 1.5826 0.0496 1.545 8.653 1.545 6.9948 0 7.08-4e-3 7.6586-0.33459 0.73479-0.41973 0.39063-1.9852-0.53463-2.4313-0.63107-0.30428-0.83783-0.31277-7.6782-0.31277h-2.8204" fill="#545454"/>
  </g>
  <g stroke-width="1.347">
    <path d="m151.79 211.76-2.8579 4e-3c-5.2385 0-6.5041 0.0384-7.0804 0.22091-0.57625 0.18252-0.77197 0.60386-1.1056 2.3374-0.33648 1.7479-0.30173 2.173 0.20879 2.3591 0.51051 0.18616 1.805 0.23061 7.3593 0.23061 5.5544 0 6.8596-0.0431 7.4394-0.23061 0.57975-0.1875 0.75782-0.61382 1.0282-2.3636 0.36544-2.366 0.75473-2.5493-4.9916-2.5582v5e-5"/>
    <path d="m151.66 210.8-2.8579 4e-3c-5.2385 0-6.5041 0.0384-7.0804 0.22091-0.57625 0.18252-0.77197 0.60386-1.1056 2.3374-0.33648 1.7479-0.30173 2.173 0.20879 2.3591 0.51051 0.18616 1.805 0.23061 7.3593 0.23061 5.5544 0 6.8596-0.0431 7.4394-0.23061 0.57975-0.1875 0.75782-0.61382 1.0282-2.3636 0.36544-2.366 0.75473-2.5493-4.9916-2.5582v5e-5" fill="#545454"/>
  </g>
  <g stroke-width="1.347">
    <path d="m64.977 211.76-2.8589 4e-3c-5.2385 0-6.5121 0.0384-7.1262 0.22091-0.6141 0.18252-0.89858 0.6075-1.6188 2.409-0.78086 1.9532-0.8051 2.2297-0.20084 2.36 0.38309 0.0826 3.616 0.15127 7.3421 0.15369 5.4962 3e-3 6.7866-0.0383 7.4058-0.22603 0.61922-0.18777 0.88511-0.61382 1.5181-2.3636 0.85588-2.366 1.2832-2.5493-4.4613-2.5582l-1.3e-5 5e-5"/>
    <path d="m64.848 210.8-2.8589 4e-3c-5.2385 0-6.5121 0.0384-7.1262 0.22091-0.6141 0.18252-0.89858 0.6075-1.6188 2.409-0.78086 1.9532-0.8051 2.2297-0.20084 2.36 0.38309 0.0826 3.616 0.15127 7.3421 0.15369 5.4962 3e-3 6.7866-0.0383 7.4058-0.22603 0.61922-0.18777 0.88511-0.61382 1.5181-2.3636 0.85588-2.366 1.2832-2.5493-4.4613-2.5582l-1.3e-5 5e-5" fill="#545454"/>
  </g>
  <g stroke-width="1.347">
    <path d="m76.858 211.76c-5.5456 0.0135-5.319 0.21283-6.1812 2.6164-0.60709 1.6922-0.6405 2.1155-0.16245 2.3011 0.48223 0.1871 1.7476 0.23061 7.1617 0.23061 3.7227 0 6.9609-0.069 7.453-0.15369 0.80335-0.13834 0.92485-0.31965 1.6035-2.4359 0.67202-2.0953 0.66771-2.2772-0.0392-2.4125-0.42969-0.0823-3.5293-0.14574-7.0829-0.14574h-2.7523"/>
    <path d="m76.729 210.8c-5.5456 0.0135-5.319 0.21283-6.1812 2.6164-0.60709 1.6922-0.6405 2.1155-0.16245 2.3011 0.48223 0.1871 1.7476 0.23061 7.1617 0.23061 3.7227 0 6.9609-0.069 7.453-0.15369 0.80335-0.13834 0.92485-0.31965 1.6035-2.4359 0.67202-2.0953 0.66771-2.2772-0.0392-2.4125-0.42969-0.0823-3.5293-0.14574-7.0829-0.14574h-2.7523" fill="#545454"/>
  </g>
  <g stroke-width="1.347">
    <path d="m97.181 211.76c-3.5537 0-6.6936 0.0634-7.1757 0.14575-0.79298 0.13537-0.91259 0.31492-1.5756 2.408-0.64171 2.0262-0.64548 2.3052-0.02869 2.4359 0.38996 0.0826 3.6285 0.15127 7.3548 0.15369 5.4963 3e-3 6.7834-0.0382 7.3869-0.22602 0.59632-0.18548 0.83272-0.60885 1.3042-2.3011 0.76483-2.7446 1.1149-2.6164-7.2659-2.6164"/>
    <path d="m97.051 210.8c-3.5537 0-6.6936 0.0634-7.1757 0.14575-0.79298 0.13537-0.91259 0.31492-1.5756 2.408-0.64171 2.0262-0.64548 2.3052-0.02869 2.4359 0.38996 0.0826 3.6285 0.15127 7.3548 0.15369 5.4963 3e-3 6.7834-0.0383 7.3869-0.22602 0.59632-0.18548 0.83272-0.60885 1.3042-2.3011 0.76483-2.7446 1.1149-2.6164-7.2659-2.6164" fill="#545454"/>
  </g>
  <g stroke-width="1.347">
    <path d="m111.82 211.76c-5.7501 9e-3 -5.4397 0.19222-6.0919 2.5582-0.48236 1.7498-0.48357 2.1774 0.0121 2.3636 0.4957 0.18616 1.7667 0.23061 7.1809 0.23061 3.7227 0 6.9552-0.069 7.4402-0.15369 0.78988-0.13807 0.89818-0.31951 1.383-2.36 0.42848-1.8034 0.41662-2.2305-0.0823-2.4134-0.49893-0.18292-1.7469-0.2209-6.9854-0.2209l-2.856-4e-3 1e-5 -4e-5"/>
    <path d="m111.7 210.8c-5.7501 9e-3 -5.4397 0.19222-6.0919 2.5582-0.48236 1.7498-0.48357 2.1774 0.0121 2.3636 0.4957 0.18616 1.7667 0.23061 7.1809 0.23061 3.7227 0 6.9552-0.069 7.4402-0.15369 0.78988-0.13807 0.89818-0.31951 1.383-2.36 0.42848-1.8034 0.41662-2.2305-0.0823-2.4134-0.49893-0.18292-1.7469-0.2209-6.9854-0.2209l-2.856-4e-3 1e-5 -4e-5" fill="#545454"/>
  </g>
  <g stroke-width="1.347">
    <path d="m166.42 211.76c-3.2402 0.0108-6.4552 0.0812-6.9497 0.19868-0.72657 0.17269-0.83433 0.40747-1.1145 2.4354-0.23882 1.7309-0.18427 2.2976 0.2364 2.3916 0.89306 0.19935 14.092 0.15881 14.715-0.0453 0.36665-0.12029 0.60291-0.87192 0.78072-2.4402 0.23505-2.0718 0.19208-2.2506-0.5423-2.3858-0.61868-0.11396-3.885-0.16488-7.1251-0.1545"/>
    <path d="m166.29 210.8c-3.2402 0.0108-6.4552 0.0812-6.9497 0.19868-0.72657 0.17269-0.83433 0.40747-1.1145 2.4354-0.23882 1.7309-0.18427 2.2976 0.2364 2.3916 0.89306 0.19935 14.092 0.15881 14.715-0.0453 0.36665-0.12029 0.60291-0.87192 0.78072-2.4402 0.23505-2.0718 0.19208-2.2506-0.5423-2.3858-0.61868-0.11396-3.885-0.16488-7.1251-0.1545" fill="#545454"/>
  </g>
  <g stroke-width="1.347">
    <path d="m186.61 211.76-2.8575 4e-3c-5.2385 0-6.5009 0.0384-7.062 0.22091-0.56116 0.18252-0.72212 0.6075-0.91919 2.409-0.21377 1.9532-0.15787 2.2297 0.48452 2.36 0.40706 0.0826 3.6599 0.15127 7.3867 0.15369 5.497 3e-3 6.7756-0.0383 7.3401-0.22603 0.56452-0.18777 0.70677-0.61382 0.83177-2.3636 0.16891-2.366 0.54284-2.5493-5.2041-2.5582l-1e-5 5e-5"/>
    <path d="m186.48 210.8-2.8575 4e-3c-5.2385 0-6.5009 0.0384-7.062 0.22091-0.56116 0.18252-0.72212 0.6075-0.91919 2.409-0.21377 1.9532-0.15787 2.2297 0.48452 2.36 0.40706 0.0826 3.6599 0.15127 7.3867 0.15369 5.497 3e-3 6.7756-0.0383 7.3401-0.22603 0.56452-0.18777 0.70677-0.61382 0.83177-2.3636 0.16891-2.366 0.54284-2.5493-5.2041-2.5582l-1e-5 5e-5" fill="#545454"/>
  </g>
  <g stroke-width="1.347">
    <path d="m233.44 211.76c-5.7474 9e-3 -5.3838 0.19222-5.3489 2.5582 0.0259 1.7498 0.14871 2.1774 0.69788 2.3636 0.54918 0.18616 1.8337 0.23061 7.2478 0.23061 3.7227 0 6.9352-0.069 7.3954-0.15369 0.74974-0.13807 0.80537-0.31951 0.69775-2.36-0.0952-1.8034-0.23115-2.2305-0.78315-2.4134-0.552-0.18292-1.8109-0.2209-7.0495-0.2209l-2.8573-4e-3v-4e-5"/>
    <path d="m233.32 210.8c-5.7474 9e-3 -5.3838 0.19222-5.3489 2.5582 0.0259 1.7498 0.14871 2.1774 0.69788 2.3636 0.54918 0.18616 1.8337 0.23061 7.2478 0.23061 3.7227 0 6.9352-0.069 7.3954-0.15369 0.74974-0.13807 0.80537-0.31951 0.69775-2.36-0.0952-1.8034-0.23115-2.2305-0.78315-2.4134-0.552-0.18292-1.8109-0.2209-7.0495-0.2209l-2.8573-4e-3v-4e-5" fill="#545454"/>
  </g>
  <g stroke-width="1.347">
    <path d="m273.42 211.76-2.8567 4e-3c-5.2386 0-6.4929 0.0384-7.0162 0.22091-0.52331 0.18252-0.59618 0.6075-0.41986 2.409 0.19114 1.9532 0.30429 2.2297 0.97361 2.36 0.42417 0.0826 3.6912 0.15127 7.4186 0.15369 5.4976 3e-3 6.7676-0.0383 7.2933-0.22603 0.52574-0.18777 0.57962-0.61382 0.34174-2.3636-0.32153-2.366 0.0144-2.5493-5.7344-2.5582v5e-5"/>
    <path d="m273.29 210.8-2.8567 4e-3c-5.2386 0-6.4929 0.0384-7.0162 0.22091-0.52331 0.18252-0.59618 0.6075-0.41986 2.409 0.19114 1.9532 0.30429 2.2297 0.97361 2.36 0.42417 0.0826 3.6912 0.15127 7.4186 0.15369 5.4976 3e-3 6.7676-0.0383 7.2933-0.22603 0.52574-0.18777 0.57962-0.61382 0.34174-2.3636-0.32153-2.366 0.0144-2.5493-5.7344-2.5582v5e-5" fill="#545454"/>
  </g>
  <g stroke-width="1.347">
    <path d="m286.46 211.76c-7.2403 0.0244-6.426 0.31304-5.9391 2.7192 0.34807 1.7194 0.56332 2.1792 1.0876 2.2886 0.84592 0.17659 23.384 0.18077 24.167 4e-3 0.46417-0.10452 0.51698-0.59012 0.2267-2.3199-0.32557-1.9401-0.46081-2.1918-1.2057-2.4273-0.76806-0.24273-1.668-0.26064-11.939-0.26064-2.6322 0-4.726-9e-3 -6.3966-4e-3v1e-5"/>
    <path d="m286.33 210.8c-7.2403 0.0244-6.426 0.31304-5.9391 2.7192 0.34807 1.7194 0.56332 2.1792 1.0876 2.2886 0.84592 0.17659 23.384 0.18077 24.167 4e-3 0.46417-0.10452 0.51698-0.59012 0.2267-2.3199-0.32557-1.9401-0.46081-2.1918-1.2057-2.4273-0.76806-0.24273-1.668-0.26064-11.939-0.26064-2.6322 0-4.726-9e-3 -6.3966-4e-3v1e-5" fill="#545454"/>
  </g>
  <g stroke-width="1.347">
    <path d="m131.8 211.76c-3.2087 0-6.4276 0.0501-6.9802 0.14575-0.78126 0.13523-0.8862 0.31385-1.3702 2.3857-0.36639 1.5683-0.3909 2.3199-0.066 2.4402 0.49462 0.18306 13.154 0.25809 14.504 0.0859 0.58918-0.0752 0.76106-0.4301 1.1563-2.4412 0.42363-2.1557 0.39763-2.335-0.32733-2.4707-0.51159-0.0956-3.7088-0.14575-6.9175-0.14575"/>
    <path d="m131.67 210.8c-3.2087 0-6.4276 0.0501-6.9802 0.14575-0.78126 0.13523-0.8862 0.31385-1.3702 2.3857-0.36639 1.5683-0.3909 2.3199-0.066 2.4402 0.49462 0.18306 13.154 0.25809 14.504 0.0859 0.58918-0.0752 0.76106-0.4301 1.1563-2.4412 0.42363-2.1557 0.39763-2.335-0.32733-2.4707-0.51159-0.0956-3.7088-0.14575-6.9175-0.14575" fill="#545454"/>
  </g>
  <g stroke-width="1.347">
    <path d="m198.49 211.76c-5.5418 0.0135-5.2572 0.21283-5.4214 2.6164-0.1157 1.6922-0.0261 2.1155 0.50567 2.3011 0.53651 0.1871 1.8145 0.23061 7.2287 0.23061 3.7227 0 6.9408-0.069 7.4084-0.15369 0.76307-0.13834 0.83204-0.31965 0.89616-2.4359 0.0634-2.0953 7e-3 -2.2772-0.73977-2.4125-0.45367-0.0823-3.5717-0.14574-7.1252-0.14574h-2.7523"/>
    <path d="m198.36 210.8c-5.5418 0.0135-5.2572 0.21283-5.4214 2.6164-0.1157 1.6922-0.0261 2.1155 0.50567 2.3011 0.53651 0.1871 1.8145 0.23061 7.2287 0.23061 3.7227 0 6.9408-0.069 7.4084-0.15369 0.76307-0.13834 0.83204-0.31965 0.89616-2.4359 0.0634-2.0953 7e-3 -2.2772-0.73977-2.4125-0.45367-0.0823-3.5717-0.14574-7.1252-0.14574h-2.7523" fill="#545454"/>
  </g>
  <g stroke-width="1.347">
    <path d="m218.8 211.76c-3.5537 0-6.6752 0.0634-7.1334 0.14575-0.75365 0.13537-0.82113 0.31492-0.87623 2.408-0.0533 2.0262 0.024 2.3052 0.67862 2.4359 0.41394 0.0826 3.6725 0.15127 7.3995 0.15369 5.4974 3e-3 6.7723-0.0382 7.3214-0.22602 0.54243-0.18548 0.65585-0.60885 0.63605-2.3011-0.0322-2.7446 0.35507-2.6164-8.0257-2.6164"/>
    <path d="m218.67 210.8c-3.5537 0-6.6752 0.0634-7.1334 0.14575-0.75365 0.13537-0.82113 0.31492-0.87623 2.408-0.0533 2.0262 0.024 2.3052 0.67862 2.4359 0.41394 0.0826 3.6725 0.15127 7.3995 0.15369 5.4974 3e-3 6.7723-0.0383 7.3214-0.22602 0.54243-0.18548 0.65585-0.60885 0.63605-2.3011-0.0322-2.7446 0.35507-2.6164-8.0257-2.6164" fill="#545454"/>
  </g>
  <g stroke-width="1.347">
    <path d="m253.43 211.76c-3.2087 0-6.4129 0.0501-6.9379 0.14575-0.74193 0.13523-0.795 0.31385-0.6774 2.3857 0.089 1.5683 0.28273 2.3199 0.64251 2.4402 0.72846 0.24341 14.002 0.24341 14.694 0 0.34173-0.12028 0.42215-0.87191 0.27492-2.4402-0.19451-2.0718-0.27438-2.2506-1.0368-2.3857-0.53933-0.0956-3.7511-0.14575-6.9598-0.14575"/>
    <path d="m253.3 210.8c-3.2087 0-6.4129 0.0501-6.9379 0.14575-0.74193 0.13523-0.795 0.31385-0.6774 2.3857 0.089 1.5683 0.28273 2.3199 0.64251 2.4402 0.72846 0.24341 14.002 0.24341 14.694 0 0.34173-0.12028 0.42215-0.87191 0.27492-2.4402-0.19451-2.0718-0.27438-2.2506-1.0368-2.3857-0.53933-0.0956-3.7511-0.14575-6.9598-0.14575" fill="#545454"/>
  </g>
  <g stroke-width="1.347">
    <path d="m64.896 217.48c-10.767 0-12.285 0.0248-12.592 0.22697-0.19262 0.12648-0.7356 1.2081-1.2149 2.4066-0.77358 1.9347-0.79527 2.2123-0.18508 2.3458 0.9429 0.20623 23.038 0.21027 24.22 4e-3 0.81345-0.14143 0.94506-0.32894 1.6319-2.3505 0.40747-1.1995 0.66407-2.2802 0.56507-2.4066-0.15827-0.20219-1.6572-0.22697-12.425-0.22697l-2.7e-5 6e-5"/>
    <path d="m64.767 216.52c-10.767 0-12.285 0.0248-12.592 0.22697-0.19262 0.12648-0.7356 1.2081-1.2149 2.4066-0.77358 1.9347-0.79527 2.2123-0.18508 2.3458 0.9429 0.20623 23.038 0.21027 24.22 4e-3 0.81345-0.14143 0.94506-0.32894 1.6319-2.3505 0.40747-1.1995 0.66407-2.2802 0.56507-2.4066-0.15827-0.20219-1.6572-0.22697-12.425-0.22697l-2.7e-5 6e-5" fill="#545454"/>
  </g>
  <g stroke-width="1.347">
    <path d="m104.85 217.48c-4.9222 0-7.2319 0.0509-7.6235 0.17242-0.39157 0.1215-0.7585 0.86019-1.2127 2.4014-0.58581 1.988-0.5815 2.2717 0.0439 2.4055 0.39669 0.0849 3.6803 0.15544 7.4569 0.15787 5.5707 3e-3 6.8743-0.0393 7.4824-0.23222 0.60817-0.19289 0.83272-0.62663 1.2891-2.4047 0.38012-1.4814 0.41232-2.2081 0.0923-2.3279-0.32005-0.11975-2.6062-0.17242-7.5284-0.17242"/>
    <path d="m104.72 216.52c-4.9222 0-7.2319 0.0509-7.6235 0.17242-0.39157 0.1215-0.7585 0.86019-1.2127 2.4014-0.58581 1.988-0.5815 2.2717 0.0439 2.4055 0.39669 0.0849 3.6803 0.15544 7.4569 0.15787 5.5707 3e-3 6.8743-0.0393 7.4824-0.23222 0.60817-0.19289 0.83272-0.62663 1.2891-2.4047 0.38012-1.4814 0.41232-2.2081 0.0923-2.3279-0.32005-0.11975-2.6062-0.17242-7.5284-0.17242" fill="#545454"/>
  </g>
  <g stroke-width="1.347">
    <path d="m139.95 217.48c-6.3371 0-7.424 0.0296-7.6872 0.22697-0.16892 0.12648-0.50823 1.2081-0.76173 2.4066-0.40936 1.9347-0.37878 2.2123 0.25647 2.3458 0.40369 0.0849 3.6932 0.15544 7.47 0.15787 5.5709 3e-3 6.871-0.0393 7.4631-0.23222 0.58298-0.1898 0.77937-0.61909 1.0709-2.2991 0.19666-1.1335 0.18171-2.1737-0.0346-2.3291-0.36355-0.26118-0.91609-0.27694-7.777-0.27694"/>
    <path d="m139.82 216.52c-6.3371 0-7.424 0.0296-7.6872 0.22697-0.16892 0.12648-0.50823 1.2081-0.76173 2.4066-0.40936 1.9347-0.37878 2.2123 0.25647 2.3458 0.40369 0.0849 3.6932 0.15544 7.47 0.15787 5.5709 3e-3 6.871-0.0393 7.4631-0.23222 0.58298-0.1898 0.77937-0.61909 1.0709-2.2991 0.19666-1.1335 0.18171-2.1737-0.0346-2.3291-0.36355-0.26118-0.91609-0.27694-7.777-0.27694" fill="#545454"/>
  </g>
  <g stroke-width="1.347">
    <path d="m157.76 217.48c-6.8608 0-7.4187 0.0158-7.8723 0.27694-0.26981 0.15545-0.64252 1.1956-0.83582 2.3291-0.2865 1.6801-0.23761 2.1093 0.28005 2.2991 0.52398 0.19222 1.8145 0.2368 7.3018 0.2368 3.7728 0 7.0418-0.0709 7.5245-0.15787 0.78409-0.14143 0.87703-0.32893 1.1447-2.3504 0.15895-1.1996 0.19141-2.2802 0.0661-2.4066-0.19532-0.19733-1.2721-0.22697-7.6091-0.22697"/>
    <path d="m157.63 216.52c-6.8608 0-7.4187 0.0158-7.8723 0.27694-0.26981 0.15545-0.64252 1.1956-0.83582 2.3291-0.2865 1.6801-0.23761 2.1093 0.28005 2.2991 0.52398 0.19222 1.8145 0.2368 7.3018 0.2368 3.7728 0 7.0418-0.0708 7.5245-0.15787 0.78409-0.14143 0.87703-0.32893 1.1447-2.3504 0.15895-1.1996 0.19141-2.2802 0.0661-2.4066-0.19532-0.19733-1.2721-0.22697-7.6091-0.22697" fill="#545454"/>
  </g>
  <g stroke-width="1.347">
    <path d="m192.86 217.48c-4.9222 0-7.2214 0.0509-7.5878 0.17242-0.36638 0.1215-0.57907 0.84645-0.70852 2.3279-0.15544 1.778-0.0746 2.2137 0.46175 2.4047 0.53638 0.191 1.8342 0.2368 7.3215 0.2368 3.7729 0 7.0359-0.0708 7.5113-0.15787 0.77386-0.1417 0.84956-0.32853 0.95206-2.4055 0.0761-1.5429-0.0399-2.2856-0.38632-2.406-0.34644-0.12043-2.6419-0.17242-7.5641-0.17242"/>
    <path d="m192.73 216.52c-4.9222 0-7.2214 0.0509-7.5878 0.17242-0.36638 0.1215-0.57907 0.84645-0.70852 2.3279-0.15544 1.778-0.0746 2.2137 0.46175 2.4047 0.53638 0.191 1.8342 0.2368 7.3215 0.2368 3.7729 0 7.0359-0.0709 7.5113-0.15787 0.77386-0.1417 0.84956-0.32853 0.95206-2.4055 0.0761-1.5429-0.0399-2.2856-0.38632-2.406-0.34644-0.12043-2.6419-0.17242-7.5641-0.17242" fill="#545454"/>
  </g>
  <g stroke-width="1.347">
    <path d="m227.89 217.48c-6.2731 0-7.3515 0.0298-7.5738 0.22697-0.14251 0.12648-0.25768 1.2081-0.2628 2.4066-8e-3 1.9347 0.0797 2.2123 0.74274 2.3458 0.42134 0.0849 3.7254 0.15544 7.5028 0.15787 5.5716 3e-3 6.8628-0.0393 7.415-0.23222 0.55214-0.19289 0.65074-0.62663 0.5908-2.4047-0.05-1.4814-0.22899-2.2081-0.58366-2.3279-0.36126-0.12204-2.7126-0.17242-7.8309-0.17242"/>
    <path d="m227.77 216.52c-6.2731 0-7.3515 0.0298-7.5738 0.22697-0.14251 0.12648-0.25768 1.2081-0.2628 2.4066-8e-3 1.9347 0.0797 2.2123 0.74274 2.3458 0.42134 0.0849 3.7254 0.15544 7.5028 0.15787 5.5716 3e-3 6.8628-0.0393 7.415-0.23222 0.55214-0.19289 0.65074-0.62663 0.5908-2.4047-0.05-1.4814-0.22899-2.2081-0.58366-2.3279-0.36126-0.12204-2.7126-0.17242-7.8309-0.17242" fill="#545454"/>
  </g>
  <g stroke-width="1.347">
    <path d="m263.24 217.48c-6.337 0-7.4154 0.0296-7.6213 0.22697-0.13187 0.12648-0.15733 1.2081-0.0628 2.4066 0.15248 1.9347 0.26361 2.2123 0.93765 2.3458 0.42835 0.0849 3.7383 0.15544 7.5159 0.15787 5.5719 3e-3 6.8596-0.0393 7.3957-0.23222 0.52775-0.1898 0.59955-0.61909 0.40329-2.2991-0.13254-1.1335-0.44949-2.1737-0.71094-2.3291-0.4394-0.26118-0.99652-0.27694-7.8573-0.27694"/>
    <path d="m263.11 216.52c-6.337 0-7.4154 0.0296-7.6213 0.22697-0.13187 0.12648-0.15733 1.2081-0.0628 2.4066 0.15248 1.9347 0.26361 2.2123 0.93765 2.3458 0.42835 0.0849 3.7383 0.15544 7.5159 0.15787 5.5719 3e-3 6.8596-0.0393 7.3957-0.23222 0.52775-0.1898 0.59955-0.61909 0.40329-2.2991-0.13254-1.1335-0.44949-2.1737-0.71094-2.3291-0.4394-0.26118-0.99652-0.27694-7.8573-0.27694" fill="#545454"/>
  </g>
  <g stroke-width="1.347">
    <path d="m281.05 217.48c-6.8608 0-7.4142 0.0158-7.7919 0.27694-0.22468 0.15545-0.29539 1.1956-0.15948 2.3291 0.20138 1.6801 0.37487 2.1093 0.94761 2.2991 0.57275 0.18979 1.8834 0.2368 7.3706 0.2368 3.773 0 7.0212-0.0709 7.4786-0.15787 0.743-0.14143 0.78139-0.32893 0.46215-2.3504-0.18952-1.1996-0.47077-2.2802-0.63268-2.4066-0.2527-0.19733-1.338-0.22697-7.6749-0.22697"/>
    <path d="m280.92 216.52c-6.8608 0-7.4142 0.0158-7.7919 0.27694-0.22468 0.15545-0.29539 1.1956-0.15948 2.3291 0.20138 1.6801 0.37487 2.1093 0.94761 2.2991 0.57275 0.18979 1.8834 0.2368 7.3706 0.2368 3.773 0 7.0212-0.0708 7.4786-0.15787 0.743-0.14143 0.78139-0.32893 0.46215-2.3504-0.18952-1.1996-0.47077-2.2802-0.63268-2.4066-0.2527-0.19733-1.338-0.22697-7.6749-0.22697" fill="#545454"/>
  </g>
  <g stroke-width="1.347">
    <path d="m118.37 217.5c-3.1644 2.7e-4 -3.4308 0.0614-3.8311 0.28139-0.35871 0.1972-0.6871 1.0477-0.946 2.4211-0.32059 1.7004-0.28287 2.1652 0.20259 2.2771 0.3354 0.0773 3.7312 0.14278 7.5475 0.14399 5.3902 1e-3 7.0618-0.0446 7.4802-0.20434 0.36814-0.14049 0.66205-0.94842 0.92593-2.5472l0.37959-2.3131-7.5116-0.0408-4.2474-0.0182 3e-5 -1e-5"/>
    <path d="m118.24 216.54c-3.1644 2.7e-4 -3.4308 0.0614-3.8311 0.28139-0.35871 0.1972-0.6871 1.0477-0.946 2.4211-0.32059 1.7004-0.28287 2.1652 0.20259 2.2771 0.3354 0.0773 3.7312 0.14278 7.5475 0.14399 5.3902 1e-3 7.0618-0.0446 7.4802-0.20434 0.36814-0.14049 0.66205-0.94842 0.92593-2.5472l0.37959-2.3131-7.5116-0.0408-4.2474-0.0182 3e-5 -1e-5" fill="#545454"/>
  </g>
  <g stroke-width="1.347">
    <path d="m178.97 217.52c-1.0205-5.4e-4 -2.3182 5e-3 -3.9742 0.0136l-7.4458 0.0408-0.41622 2.3131c-0.28584 1.5988-0.27008 2.4067 0.0497 2.5472 0.72967 0.32072 14.236 0.29594 15.204-0.0279 0.5683-0.1902 0.72832-0.62326 0.88309-2.3358 0.13026-1.4408 0.0319-2.1563-0.32126-2.3287-0.34079-0.16635-0.91717-0.2205-3.9788-0.22238l2e-5 4e-5"/>
    <path d="m178.84 216.56c-1.0205-5.4e-4 -2.3182 5e-3 -3.9742 0.0136l-7.4458 0.0408-0.41622 2.3131c-0.28584 1.5988-0.27008 2.4067 0.0497 2.5472 0.72967 0.32072 14.236 0.29594 15.204-0.0279 0.5683-0.1902 0.72832-0.62326 0.88309-2.3358 0.13026-1.4408 0.0319-2.1563-0.32126-2.3287-0.34079-0.16635-0.91717-0.2205-3.9788-0.22238l2e-5 4e-5" fill="#545454"/>
  </g>
  <g stroke-width="1.347">
    <path d="m242.02 217.52c-3.0616 1e-3 -3.6409 0.056-3.9908 0.22239-0.36247 0.17242-0.49906 0.88794-0.44612 2.3287 0.063 1.7124 0.19976 2.1455 0.75782 2.3358 0.95004 0.32381 14.455 0.3486 15.202 0.0279 0.32732-0.14049 0.38659-0.94842 0.18629-2.5472l-0.29216-2.3131-7.4435-0.0408c-1.6556-9e-3 -2.9528-0.0143-3.9734-0.0136l-4e-5 -8e-5"/>
    <path d="m241.9 216.56c-3.0616 1e-3 -3.6409 0.056-3.9908 0.22239-0.36247 0.17242-0.49906 0.88794-0.44612 2.3287 0.063 1.7124 0.19976 2.1455 0.75782 2.3358 0.95004 0.32381 14.455 0.3486 15.202 0.0279 0.32732-0.14049 0.38659-0.94842 0.18629-2.5472l-0.29216-2.3131-7.4435-0.0408c-1.6556-9e-3 -2.9528-0.0143-3.9734-0.0136l-4e-5 -8e-5" fill="#545454"/>
  </g>
  <g stroke-width="1.347">
    <path d="m302.45 217.52c-1.0354-4e-4 -2.3675 4e-3 -4.0764 0.0136l-7.5137 0.0408 0.25553 2.3131c0.17821 1.5988 0.42875 2.4067 0.78934 2.5472 0.40989 0.15976 2.0788 0.2061 7.4692 0.20434 3.8165-1e-3 7.2158-0.0665 7.5553-0.14399 0.49893-0.11382 0.54096-0.55901 0.23532-2.323-0.20649-1.1921-0.56937-2.2788-0.8156-2.4207-0.30496-0.17565-0.79285-0.2302-3.899-0.23155l-4e-5 3e-5"/>
    <path d="m302.32 216.56c-1.0354-4e-4 -2.3675 4e-3 -4.0764 0.0136l-7.5137 0.0408 0.25553 2.3131c0.17821 1.5988 0.42875 2.4067 0.78934 2.5472 0.40989 0.15976 2.0788 0.2061 7.4692 0.20434 3.8165-1e-3 7.2158-0.0665 7.5553-0.14399 0.49893-0.11382 0.54096-0.55901 0.23532-2.323-0.20649-1.1921-0.56937-2.2788-0.8156-2.4207-0.30496-0.17565-0.79285-0.2302-3.899-0.23155l-4e-5 3e-5" fill="#545454"/>
  </g>
  <g stroke-width="1.347">
    <path d="m79.538 217.58-0.92337 2.3956c-0.70691 1.8392-0.81103 2.4569-0.42471 2.5482 0.27977 0.0661 3.609 0.12083 7.3954 0.12083s7.1504-0.0545 7.4721-0.12083c0.44397-0.0913 0.73196-0.70906 1.1918-2.5482l0.59645-2.3956h-15.307"/>
    <path d="m79.409 216.6-0.92337 2.3956c-0.70691 1.8392-0.81103 2.4569-0.42471 2.5482 0.27977 0.0661 3.609 0.12083 7.3954 0.12083s7.1504-0.0546 7.4721-0.12083c0.44397-0.0913 0.73196-0.70906 1.1918-2.5482l0.59645-2.3956h-15.307" fill="#545454"/>
  </g>
  <g stroke-width="1.347">
    <path d="m202.84 217.58-0.22764 2.3956c-0.17282 1.8392-0.0975 2.4569 0.31519 2.5482 0.2989 0.0661 3.644 0.12083 7.4306 0.12083s7.1345-0.0545 7.437-0.12083c0.41744-0.0913 0.52601-0.70906 0.45179-2.5482l-0.0991-2.3956h-15.307"/>
    <path d="m202.71 216.6-0.22764 2.3956c-0.17282 1.8392-0.0975 2.4569 0.31519 2.5482 0.2989 0.0661 3.644 0.12083 7.4306 0.12083s7.1345-0.0546 7.437-0.12083c0.41744-0.0913 0.52601-0.70906 0.45179-2.5482l-0.0991-2.3956h-15.307" fill="#545454"/>
  </g>
  <g stroke-width="1.347">
    <path d="m293.14 223.22c-7.0051-2.7e-4 -14.041 0.0624-14.395 0.19114-0.34039 0.12352-0.39642 0.88242-0.19141 2.448 0.2065 1.5771 0.46391 2.345 0.8412 2.4713 0.40289 0.13483 4.2088 0.18615 14.391 0.18615 11.515 0 13.941-0.0399 14.432-0.22427 0.46929-0.17659 0.4767-0.67808 0.0519-2.4709-0.29109-1.2283-0.68859-2.3113-0.88511-2.4103-0.25553-0.12877-7.2382-0.19087-14.243-0.19114"/>
    <path d="m293.01 222.26c-7.0051-2.7e-4 -14.041 0.0624-14.395 0.19114-0.34039 0.12352-0.39642 0.88242-0.19141 2.448 0.2065 1.5771 0.46391 2.345 0.8412 2.4713 0.40289 0.13483 4.2088 0.18615 14.391 0.18615 11.515 0 13.941-0.0399 14.432-0.22427 0.46929-0.17659 0.4767-0.67808 0.0519-2.4709-0.29109-1.2283-0.68859-2.3113-0.88511-2.4103-0.25553-0.12877-7.2382-0.19087-14.243-0.19114" fill="#545454"/>
  </g>
  <g stroke-width="1.347">
    <path d="m65.206 223.22c-10.574 0-14.488 0.0451-14.922 0.17713-0.82342 0.25054-2.5899 4.6634-1.961 4.9194 0.33217 0.13524 4.2568 0.18615 14.96 0.18615 13.898 0 14.538-0.0135 15.064-0.2958 0.71324-0.38376 2.008-4.3263 1.5507-4.7024-0.33621-0.27641-0.96108-0.28436-14.69-0.28436"/>
    <path d="m65.077 222.26c-10.574 0-14.488 0.0451-14.922 0.17713-0.82342 0.25054-2.5899 4.6634-1.961 4.9194 0.33217 0.13524 4.2568 0.18615 14.96 0.18615 13.898 0 14.538-0.0135 15.064-0.2958 0.71324-0.38376 2.008-4.3263 1.5507-4.7024-0.33621-0.27641-0.96108-0.28436-14.69-0.28436" fill="#545454"/>
  </g>
  <g stroke-width="1.347">
    <path d="m89.843 223.22c-6.7009 0-7.2669 0.0167-7.7676 0.28435-0.29715 0.15895-0.83945 1.2122-1.207 2.3408s-0.51509 2.1994-0.31978 2.3617c0.32988 0.27398 0.89023 0.2958 7.6735 0.2958 5.1058 0 7.4889-0.0582 7.8914-0.18615 0.3971-0.12621 0.77493-0.89427 1.2286-2.4713 0.4503-1.5656 0.51334-2.3245 0.19235-2.448s-2.6474-0.17713-7.6914-0.17713"/>
    <path d="m89.714 222.26c-6.7009 0-7.2669 0.0167-7.7676 0.28435-0.29715 0.15895-0.83945 1.2122-1.207 2.3408s-0.51509 2.1994-0.31978 2.3617c0.32988 0.27398 0.89023 0.2958 7.6735 0.2958 5.1058 0 7.4889-0.0582 7.8914-0.18615 0.3971-0.12621 0.77493-0.89427 1.2286-2.4713 0.4503-1.5656 0.51334-2.3245 0.19235-2.448s-2.6474-0.17713-7.6914-0.17713" fill="#545454"/>
  </g>
  <g stroke-width="1.347">
    <path d="m108.08 223.22c-5.044 0-7.3961 0.0521-7.7925 0.17713-0.39642 0.125-0.76213 0.88242-1.2062 2.448-0.44734 1.5771-0.50822 2.345-0.18333 2.4713 0.32934 0.12796 2.6792 0.18615 7.785 0.18615 6.7832 0 7.3561-0.0218 7.8424-0.2958 0.28812-0.16231 0.75082-1.2271 1.0295-2.3617 0.2787-1.1346 0.33675-2.1819 0.13026-2.3408-0.34766-0.26765-0.90411-0.28435-7.6052-0.28435"/>
    <path d="m107.95 222.26c-5.044 0-7.3961 0.0521-7.7925 0.17713-0.39642 0.125-0.76213 0.88242-1.2062 2.448-0.44734 1.5771-0.50822 2.345-0.18333 2.4713 0.32934 0.12796 2.6792 0.18615 7.785 0.18615 6.7832 0 7.3561-0.0218 7.8424-0.2958 0.28812-0.16231 0.75082-1.2271 1.0295-2.3617 0.2787-1.1346 0.33675-2.1819 0.13026-2.3408-0.34766-0.26765-0.90411-0.28435-7.6052-0.28435" fill="#545454"/>
  </g>
  <g stroke-width="1.347">
    <path d="m125.6 223.22c-6.7009 0-7.2656 0.0167-7.744 0.28435-0.28395 0.15895-0.73869 1.2122-1.0125 2.3408-0.27384 1.1286-0.3323 2.1994-0.12338 2.3617 0.35264 0.27398 0.91475 0.2958 7.698 0.2958 5.1058 0 7.4841-0.0582 7.8759-0.18615 0.39184-0.12797 0.70071-0.89427 1.0232-2.4713 0.32018-1.5656 0.32018-2.3245-0.0108-2.448-0.33096-0.12352-2.6622-0.17713-7.706-0.17713"/>
    <path d="m125.47 222.26c-6.7009 0-7.2656 0.0167-7.744 0.28435-0.28395 0.15895-0.73869 1.2122-1.0125 2.3408-0.27384 1.1286-0.3323 2.1994-0.12338 2.3617 0.35264 0.27398 0.91475 0.2958 7.698 0.2958 5.1058 0 7.4841-0.0582 7.8759-0.18615 0.39184-0.12797 0.70071-0.89427 1.0232-2.4713 0.32018-1.5656 0.32018-2.3245-0.0108-2.448-0.33096-0.12352-2.6622-0.17713-7.706-0.17713" fill="#545454"/>
  </g>
  <g stroke-width="1.347">
    <path d="m161.5 223.22c-5.044 0-7.3896 0.0521-7.7706 0.17713-0.38094 0.125-0.65263 0.88242-0.90236 2.448-0.25148 1.5771-0.217 2.345 0.12352 2.4713 0.3451 0.12796 2.7022 0.18615 7.8082 0.18615 6.7832 0 7.3534-0.0218 7.8057-0.2958 0.26791-0.16231 0.59847-1.2271 0.73627-2.3617 0.13779-1.1346 0.0657-2.1819-0.16043-2.3408-0.38093-0.26765-0.9394-0.28435-7.6404-0.28435"/>
    <path d="m161.37 222.26c-5.044 0-7.3896 0.0521-7.7706 0.17713-0.38094 0.125-0.65263 0.88242-0.90236 2.448-0.25148 1.5771-0.217 2.345 0.12352 2.4713 0.3451 0.12796 2.7022 0.18615 7.8082 0.18615 6.7832 0 7.3534-0.0218 7.8057-0.2958 0.26791-0.16231 0.59847-1.2271 0.73627-2.3617 0.13779-1.1346 0.0657-2.1819-0.16043-2.3408-0.38093-0.26765-0.9394-0.28435-7.6404-0.28435" fill="#545454"/>
  </g>
  <g stroke-width="1.347">
    <path d="m179.29 223.22c-6.7687 0-7.53 0.0221-7.9353 0.26576-0.2465 0.14831-0.52951 1.2667-0.63067 2.4868-0.14911 1.7996-0.0582 2.2608 0.45502 2.3773 0.69451 0.15774 13.863 0.20812 14.998 0.0573 0.59376-0.0789 0.73021-0.43737 0.88915-2.4157 0.10197-1.2681 0.0815-2.4084-0.052-2.5384-0.20811-0.20272-1.3009-0.23316-7.7236-0.23316l-1e-5 2e-5"/>
    <path d="m179.17 222.26c-6.7687 0-7.53 0.0221-7.9353 0.26576-0.2465 0.14831-0.52951 1.2667-0.63067 2.4868-0.14911 1.7996-0.0582 2.2608 0.45502 2.3773 0.69451 0.15774 13.863 0.20812 14.998 0.0572 0.59376-0.0789 0.73021-0.43737 0.88915-2.4157 0.10197-1.2681 0.0815-2.4084-0.052-2.5384-0.20811-0.20272-1.3009-0.23316-7.7236-0.23316l-1e-5 2e-5" fill="#545454"/>
  </g>
  <g stroke-width="1.347">
    <path d="m197.28 223.22c-5.044 0-7.3853 0.0521-7.7559 0.17713-0.74233 0.25054-1.0816 4.6634-0.36989 4.9194 0.35575 0.12796 2.7177 0.18615 7.8235 0.18615 6.7832 0 7.3515-0.0218 7.7811-0.2958 0.25445-0.16231 0.49651-1.2271 0.54002-2.3617 0.0435-1.1346-0.11558-2.1819-0.35494-2.3408-0.40329-0.26765-0.9631-0.28435-7.664-0.28435"/>
    <path d="m197.15 222.26c-5.044 0-7.3853 0.0521-7.7559 0.17713-0.74233 0.25054-1.0816 4.6634-0.36989 4.9194 0.35575 0.12796 2.7177 0.18615 7.8235 0.18615 6.7832 0 7.3515-0.0218 7.7811-0.2958 0.25445-0.16231 0.49651-1.2271 0.54002-2.3617 0.0435-1.1346-0.11558-2.1819-0.35494-2.3408-0.40329-0.26765-0.9631-0.28435-7.664-0.28435" fill="#545454"/>
  </g>
  <g stroke-width="1.347">
    <path d="m214.8 223.22c-6.7009 0-7.2621 0.0167-7.6849 0.28435-0.25109 0.15895-0.48748 1.2122-0.52735 2.3408-0.0399 1.1286 0.12352 2.1994 0.36611 2.3617 0.40935 0.27398 0.97604 0.2958 7.7593 0.2958 5.1059 0 7.4721-0.0582 7.8372-0.18615 0.73061-0.25593 0.71633-4.669-8e-3 -4.9194-0.36127-0.125-2.6988-0.17713-7.7428-0.17713"/>
    <path d="m214.67 222.26c-6.7009 0-7.2621 0.0167-7.6849 0.28435-0.25109 0.15895-0.48748 1.2122-0.52735 2.3408-0.0399 1.1286 0.12352 2.1994 0.36611 2.3617 0.40935 0.27398 0.97604 0.2958 7.7593 0.2958 5.1059 0 7.4721-0.0582 7.8372-0.18615 0.73061-0.25593 0.71633-4.669-8e-3 -4.9194-0.36127-0.125-2.6988-0.17713-7.7428-0.17713" fill="#545454"/>
  </g>
  <g stroke-width="1.347">
    <path d="m233.04 223.22c-5.044 0-7.381 0.0521-7.7411 0.17713-0.72159 0.25054-0.69398 4.6634 0.0389 4.9194 0.36504 0.12743 2.6834 0.18615 7.6073 0.18615 5.8535 0 7.2008-0.045 7.759-0.2434 0.54877-0.19504 0.65262-0.63605 0.5753-2.3622-0.0521-1.1645-0.29809-2.2331-0.55186-2.3927-0.42552-0.26765-0.98668-0.28435-7.6876-0.28435"/>
    <path d="m232.91 222.26c-5.044 0-7.381 0.0521-7.7411 0.17713-0.72159 0.25054-0.69398 4.6634 0.0389 4.9194 0.36504 0.12743 2.6834 0.18615 7.6073 0.18615 5.8535 0 7.2008-0.045 7.759-0.2434 0.54877-0.19504 0.65262-0.63605 0.5753-2.3622-0.0521-1.1645-0.29809-2.2331-0.55186-2.3927-0.42552-0.26765-0.98668-0.28435-7.6876-0.28435" fill="#545454"/>
  </g>
  <g stroke-width="1.347">
    <path d="m250.56 223.22c-6.7009 0-7.2606 0.0167-7.6613 0.28435-0.23788 0.15895-0.38673 1.2122-0.33271 2.3408 0.054 1.1286 0.30644 2.1994 0.56237 2.3617 0.43225 0.27398 1.0007 0.2958 7.7839 0.2958 5.1059 0 7.4672-0.0582 7.8219-0.18615 0.70934-0.25593 0.32827-4.669-0.41649-4.9194-0.37163-0.125-2.7135-0.17713-7.7575-0.17713"/>
    <path d="m250.44 222.26c-6.7009 0-7.2606 0.0167-7.6613 0.28435-0.23788 0.15895-0.38673 1.2122-0.33271 2.3408 0.054 1.1286 0.30644 2.1994 0.56237 2.3617 0.43225 0.27398 1.0007 0.2958 7.7839 0.2958 5.1059 0 7.4672-0.0582 7.8219-0.18615 0.70933-0.25593 0.32827-4.669-0.41649-4.9194-0.37163-0.125-2.7135-0.17713-7.7575-0.17713" fill="#545454"/>
  </g>
  <g stroke-width="1.347">
    <path d="m135.79 223.3-0.61423 2.4611c-0.46957 1.8896-0.4922 2.5243-0.0885 2.6182 0.29243 0.068 3.6745 0.12406 7.5129 0.12406s7.2409-0.0562 7.558-0.12406c0.43764-0.0939 0.64642-0.72859 0.86464-2.6182l0.28179-2.4611h-15.515"/>
    <path d="m135.66 222.34-0.61423 2.4611c-0.46957 1.8896-0.4922 2.5243-0.0885 2.6182 0.29243 0.068 3.6745 0.12406 7.5129 0.12406s7.2409-0.0562 7.558-0.12406c0.43764-0.0939 0.64642-0.72859 0.86464-2.6182l0.28179-2.4611h-15.515" fill="#545454"/>
  </g>
  <g stroke-width="1.347">
    <path d="m260.76 223.3 0.10049 2.4611c0.0791 1.8896 0.24084 2.5243 0.67188 2.6182 0.31223 0.068 3.7106 0.12406 7.549 0.12406s7.2246-0.0562 7.522-0.12406c0.41043-0.0939 0.43482-0.72859 0.1044-2.6182l-0.43293-2.4611h-15.515"/>
    <path d="m260.63 222.34 0.10049 2.4611c0.0791 1.8896 0.24084 2.5243 0.67188 2.6182 0.31223 0.068 3.7106 0.12406 7.549 0.12406s7.2246-0.0562 7.522-0.12406c0.41043-0.0939 0.43482-0.72859 0.1044-2.6182l-0.43293-2.4611h-15.515" fill="#545454"/>
  </g>
  <g stroke-width="1.347">
    <path d="m151.29 229.12c-3.6039-7e-3 -7.2388 0.0556-7.6651 0.19639-0.60737 0.20057-1.6679 4.9454-1.1436 5.1442 0.15679 0.0594 3.7836 0.0873 8.0584 0.0637l7.7715-0.0392 0.48047-2.4783c0.32369-1.6781 0.32247-2.5165 6e-5 -2.6617-0.31574-0.1421-3.8978-0.21848-7.5018-0.22508h1e-5"/>
    <path d="m151.16 228.16c-3.6039-7e-3 -7.2388 0.0556-7.6651 0.19639-0.60737 0.20057-1.6679 4.9454-1.1436 5.1442 0.15679 0.0594 3.7836 0.0873 8.0584 0.0637l7.7715-0.0392 0.48047-2.4783c0.32369-1.6781 0.32247-2.5165 6e-5 -2.6617-0.31574-0.1421-3.8978-0.21848-7.5018-0.22508h1e-5" fill="#545454"/>
  </g>
  <g stroke-width="1.347">
    <path d="m241.5 229.12c-3.5784 0.0154-7.1289 0.0837-7.4202 0.18683-0.55968 0.19828-0.64979 4.943-0.0912 5.1393 0.56102 0.19734 15.559 0.12339 15.897-0.0785 0.53099-0.31654-0.14601-4.9983-0.73492-5.1279-0.45434-0.1-4.0731-0.13511-7.6512-0.11975"/>
    <path d="m241.37 228.16c-3.5784 0.0154-7.1289 0.0837-7.4202 0.18683-0.55968 0.19828-0.64979 4.943-0.0912 5.1393 0.56102 0.19734 15.559 0.12339 15.897-0.0785 0.53099-0.31654-0.14601-4.9983-0.73492-5.1279-0.45434-0.1-4.0731-0.13511-7.6512-0.11975" fill="#545454"/>
  </g>
  <g stroke-width="1.347">
    <path d="m67.2 229.12c-13.933 0-18.818 0.0446-19.265 0.18198-0.83608 0.25741-2.6516 4.7929-2.0154 5.056 0.34025 0.14077 5.2976 0.19128 19.589 0.19128 18.463 0 19.158-0.0108 19.69-0.30415 0.30469-0.16757 0.85171-1.2829 1.2229-2.4855 0.54298-1.759 0.55618-2.204 0.05806-2.4001-0.53705-0.21148-2.8966-0.2395-19.281-0.2395"/>
    <path d="m67.071 228.16c-13.933 0-18.818 0.0446-19.265 0.18198-0.83608 0.25741-2.6516 4.7929-2.0154 5.056 0.34025 0.14077 5.2976 0.19128 19.589 0.19128 18.463 0 19.158-0.0108 19.69-0.30415 0.30469-0.16757 0.85171-1.2829 1.2229-2.4855 0.54298-1.759 0.55618-2.204 0.05806-2.4001-0.53705-0.21148-2.8966-0.2395-19.281-0.2395" fill="#545454"/>
  </g>
  <g stroke-width="1.347">
    <path d="m97.011 229.12c-5.8617 0-7.2249 0.0403-7.8531 0.2395-0.61881 0.19625-0.87878 0.64117-1.4165 2.4001-0.3676 1.2027-0.5058 2.3179-0.30402 2.4855 0.33877 0.28165 0.90734 0.30415 7.7846 0.30415 5.1767 0 7.5918-0.0598 7.9977-0.19128 0.40585-0.13146 0.77089-0.91919 1.2048-2.5402 0.43064-1.609 0.48196-2.3889 0.15437-2.5158-0.33028-0.12797-2.6368-0.18198-7.5676-0.18198"/>
    <path d="m96.881 228.16c-5.8617 0-7.2249 0.0403-7.8531 0.2395-0.61881 0.19625-0.87878 0.64117-1.4165 2.4001-0.3676 1.2027-0.5058 2.3179-0.30402 2.4855 0.33877 0.28165 0.90734 0.30415 7.7846 0.30415 5.1767 0 7.5918-0.0598 7.9977-0.19128 0.40585-0.13146 0.77089-0.91919 1.2048-2.5402 0.43064-1.609 0.48196-2.3889 0.15437-2.5158-0.33028-0.12797-2.6368-0.18198-7.5676-0.18198" fill="#545454"/>
  </g>
  <g stroke-width="1.347">
    <path d="m115.02 229.12c-4.9308 0-7.2661 0.054-7.6643 0.18198-0.6172 0.19828-2.0852 4.943-1.5837 5.1393 0.14709 0.0577 3.7106 0.1079 7.9179 0.1079 7.1104 0 7.6916-0.022 8.181-0.30415 0.29068-0.16757 0.74516-1.2829 1.0164-2.4855 0.39683-1.759 0.37299-2.204-0.14143-2.4001-0.52237-0.19922-1.8642-0.2395-7.726-0.2395"/>
    <path d="m114.89 228.16c-4.9308 0-7.2661 0.054-7.6643 0.18198-0.6172 0.19828-2.0852 4.943-1.5837 5.1393 0.14709 0.0577 3.7106 0.1079 7.9179 0.1079 7.1104 0 7.6916-0.022 8.181-0.30415 0.29068-0.16757 0.74516-1.2829 1.0164-2.4855 0.39683-1.759 0.37299-2.204-0.14143-2.4001-0.52237-0.19922-1.8642-0.2395-7.726-0.2395" fill="#545454"/>
  </g>
  <g stroke-width="1.347">
    <path d="m133.09 229.12c-6.8639 0-7.4326 0.017-7.9134 0.2923-0.28516 0.16326-0.72791 1.2457-0.98613 2.4056-0.25957 1.1661-0.29917 2.2605-0.0846 2.4273 0.36221 0.28166 0.93253 0.30415 7.8099 0.30415 5.1767 0 7.5868-0.0598 7.9818-0.19127 0.71715-0.23882 1.5633-4.5152 0.98682-4.9456-0.36868-0.27532-0.93051-0.2923-7.7944-0.2923"/>
    <path d="m132.96 228.16c-6.8639 0-7.4326 0.017-7.9134 0.2923-0.28516 0.16326-0.72791 1.2457-0.98613 2.4056-0.25957 1.1661-0.29917 2.2605-0.0846 2.4273 0.36221 0.28166 0.93253 0.30415 7.8099 0.30415 5.1767 0 7.5868-0.0598 7.9818-0.19127 0.71715-0.23882 1.5633-4.5152 0.98682-4.9456-0.36868-0.27532-0.93051-0.2923-7.7944-0.2923" fill="#545454"/>
  </g>
  <g stroke-width="1.347">
    <path d="m169.11 229.12c-6.6324 0-7.2002 0.0177-7.657 0.2923-0.71607 0.4305-1.2553 4.7068-0.61558 4.9456 0.35237 0.13147 2.7432 0.19128 7.9198 0.19128 6.8772 0 7.455-0.0225 7.9084-0.30415 0.26994-0.16757 0.58581-1.2829 0.70772-2.4855 0.17834-1.759 0.0994-2.204-0.43953-2.4001-0.54769-0.19949-1.8967-0.2395-7.8239-0.2395"/>
    <path d="m168.98 228.16c-6.6324 0-7.2002 0.0177-7.657 0.2923-0.71607 0.4305-1.2553 4.7068-0.61558 4.9456 0.35237 0.13147 2.7432 0.19128 7.9198 0.19128 6.8772 0 7.455-0.0225 7.9084-0.30415 0.26994-0.16757 0.58581-1.2829 0.70772-2.4855 0.17834-1.759 0.0994-2.204-0.43953-2.4001-0.54769-0.19949-1.8967-0.2395-7.8239-0.2395" fill="#545454"/>
  </g>
  <g stroke-width="1.347">
    <path d="m187.42 229.12c-5.8617 0-7.2166 0.0403-7.8036 0.2395-0.57813 0.19625-0.74596 0.64117-0.91905 2.4001-0.1184 1.2027-0.0253 2.3179 0.21121 2.4855 0.39669 0.28111 0.97145 0.30415 7.6818 0.30415 3.9848 0 7.5506-0.0458 7.9386-0.0982 0.60157-0.0812 0.73209-0.4538 0.85804-2.5411 0.10143-1.6807-5e-3 -2.4805-0.36154-2.6079-0.35668-0.12797-2.6745-0.18198-7.6053-0.18198"/>
    <path d="m187.29 228.16c-5.8617 0-7.2166 0.0403-7.8036 0.2395-0.57813 0.19625-0.74596 0.64117-0.91905 2.4001-0.1184 1.2027-0.0253 2.3179 0.21121 2.4855 0.39669 0.28111 0.97145 0.30415 7.6818 0.30415 3.9848 0 7.5506-0.0458 7.9386-0.0982 0.60157-0.0812 0.73209-0.4538 0.85804-2.5411 0.10143-1.6807-5e-3 -2.4805-0.36154-2.6079-0.35668-0.12797-2.6745-0.18198-7.6053-0.18198" fill="#545454"/>
  </g>
  <g stroke-width="1.347">
    <path d="m205.44 229.12c-4.931 0-7.2549 0.054-7.6266 0.18198-0.74772 0.25741-1.0054 4.7929-0.27883 5.056 0.36329 0.13147 2.7589 0.19128 7.9357 0.19128 6.8772 0 7.453-0.0225 7.883-0.30415 0.25606-0.16757 0.47926-1.2829 0.50121-2.4855 0.0322-1.759-0.0838-2.204-0.63888-2.4001-0.56372-0.19922-1.9138-0.2395-7.7756-0.2395"/>
    <path d="m205.31 228.16c-4.931 0-7.2549 0.054-7.6266 0.18198-0.74772 0.25741-1.0054 4.7929-0.27883 5.056 0.36329 0.13147 2.7589 0.19128 7.9357 0.19128 6.8772 0 7.453-0.0225 7.883-0.30415 0.25606-0.16757 0.47926-1.2829 0.50121-2.4855 0.0322-1.759-0.0838-2.204-0.63888-2.4001-0.56372-0.19922-1.9138-0.2395-7.7756-0.2395" fill="#545454"/>
  </g>
  <g stroke-width="1.347">
    <path d="m223.68 229.12c-5.8617 0-7.2133 0.0403-7.7836 0.2395-0.57032 0.19922-0.69263 0.64117-0.71957 2.4001-0.0185 1.2027 0.16744 2.3179 0.41771 2.4855 0.42067 0.28165 0.99557 0.30415 7.8728 0.30415 5.1766 0 7.5744-0.0598 7.9422-0.19128 0.73546-0.26306 0.62999-4.7986-0.10911-5.056-0.36746-0.12797-2.6896-0.18198-7.6205-0.18198"/>
    <path d="m223.55 228.16c-5.8617 0-7.2133 0.0403-7.7836 0.2395-0.57032 0.19922-0.69263 0.64117-0.71957 2.4001-0.0185 1.2027 0.16744 2.3179 0.41771 2.4855 0.42067 0.28165 0.99557 0.30415 7.8728 0.30415 5.1766 0 7.5744-0.0598 7.9422-0.19128 0.73546-0.26306 0.62999-4.7986-0.10911-5.056-0.36746-0.12797-2.6896-0.18198-7.6205-0.18198" fill="#545454"/>
  </g>
  <g stroke-width="1.347">
    <path d="m259.76 229.12c-6.8639 0-7.4278 0.017-7.8285 0.2923-0.62676 0.4305-0.27964 4.7068 0.40962 4.9456 0.37918 0.13134 2.7704 0.19128 7.8904 0.19128 5.1201 0 7.5008-0.0599 7.8572-0.19128 0.64777-0.23882 0.25216-4.5151-0.44949-4.9456-0.44855-0.27533-1.0154-0.2923-7.8793-0.2923"/>
    <path d="m259.64 228.16c-6.8639 0-7.4278 0.017-7.8285 0.2923-0.62676 0.4305-0.27964 4.7068 0.40962 4.9456 0.37918 0.13134 2.7704 0.19128 7.8904 0.19128 5.1201 0 7.5008-0.0599 7.8572-0.19128 0.64777-0.23882 0.25216-4.5151-0.44949-4.9456-0.44855-0.27533-1.0154-0.2923-7.8793-0.2923" fill="#545454"/>
  </g>
  <g stroke-width="1.347">
    <path d="m289.67 229.12c-10.161 0-18.78 0.0399-19.154 0.0911-0.58204 0.0796-0.64616 0.45569-0.41083 2.5972 0.15261 1.3886 0.42282 2.5796 0.59375 2.6381 0.17094 0.0585 9.0792 0.0862 19.796 0.0637l19.476-0.0392-0.37083-2.4783c-0.25256-1.6781-0.5419-2.5165-0.91408-2.6617-0.44747-0.17458-3.8159-0.21081-19.016-0.21081h4e-5"/>
    <path d="m289.54 228.16c-10.161 0-18.78 0.0399-19.154 0.0911-0.58204 0.0796-0.64616 0.45569-0.41083 2.5972 0.15261 1.3886 0.42282 2.5796 0.59375 2.6381 0.17094 0.0585 9.0792 0.0862 19.796 0.0637l19.476-0.0392-0.37083-2.4783c-0.25256-1.6781-0.5419-2.5165-0.91408-2.6617-0.44747-0.17458-3.8159-0.21081-19.016-0.21081h4e-5" fill="#545454"/>
  </g>
  <g stroke-width="1.347">
    <path d="m53.258 235.18c-5.5922 0-6.9455 0.0426-7.599 0.24623-1.1815 0.36827-3.3705 5.8328-2.4734 6.2108 0.89346 0.37649 14.04 0.37649 15.221 0 0.66623-0.21256 0.96661-0.7294 1.8356-3.1245 0.85966-2.3696 0.9332-2.8794 0.42727-3.0862-0.49812-0.20366-1.8189-0.24623-7.4112-0.24623"/>
    <path d="m53.129 234.22c-5.5922 0-6.9455 0.0426-7.599 0.24623-1.1815 0.36827-3.3705 5.8328-2.4734 6.2108 0.89346 0.37649 14.04 0.37649 15.221 0 0.66623-0.21256 0.96661-0.7294 1.8356-3.1245 0.85966-2.3696 0.9332-2.8794 0.42727-3.0862-0.49812-0.20366-1.8189-0.24623-7.4112-0.24623" fill="#545454"/>
  </g>
  <g stroke-width="1.347">
    <path d="m71.241 235.18c-4.8271 0-7.1526 0.056-7.5678 0.1871-0.41528 0.13106-0.90518 1.0566-1.6617 3.1653-0.96971 2.703-1.008 3.0375-0.35642 3.1855 0.40194 0.0913 3.6946 0.16973 7.3565 0.17242 6.0408 4e-3 6.7188-0.0238 7.6339-0.31937 0.92606-0.29917 1.0726-0.54109 1.9051-3.1286 0.74233-2.3073 0.79123-2.8098 0.27802-3.0163s-1.8455-0.24623-7.5874-0.24623"/>
    <path d="m71.112 234.22c-4.8271 0-7.1526 0.056-7.5678 0.1871-0.41528 0.13106-0.90518 1.0566-1.6617 3.1653-0.96971 2.703-1.008 3.0375-0.35642 3.1855 0.40194 0.0913 3.6946 0.16973 7.3565 0.17242 6.0408 4e-3 6.7188-0.0238 7.6339-0.31937 0.92606-0.29917 1.0726-0.54109 1.9051-3.1286 0.74233-2.3073 0.79123-2.8098 0.27802-3.0163s-1.8455-0.24623-7.5874-0.24623" fill="#545454"/>
  </g>
  <g stroke-width="1.347">
    <path d="m89.29 235.18c-5.7417 0-7.1066 0.0422-7.7451 0.24623-0.64696 0.2069-0.92 0.71445-1.6759 3.0862-1.1516 3.6131-1.6575 3.383 7.3655 3.383 3.5853 0 6.8588-0.0791 7.3686-0.17242 0.85615-0.15679 0.97361-0.36503 1.7679-3.1856 0.59443-2.1105 0.70475-3.0365 0.36679-3.1703-0.33796-0.13376-2.6209-0.1871-7.448-0.1871"/>
    <path d="m89.161 234.22c-5.7417 0-7.1066 0.0422-7.7451 0.24623-0.64696 0.2069-0.92 0.71445-1.6759 3.0862-1.1516 3.6131-1.6575 3.383 7.3655 3.383 3.5853 0 6.8588-0.0791 7.3686-0.17242 0.85615-0.15679 0.97361-0.36503 1.7679-3.1856 0.59443-2.1105 0.70475-3.0365 0.36679-3.1703-0.33796-0.13376-2.6209-0.1871-7.448-0.1871" fill="#545454"/>
  </g>
  <g stroke-width="1.347">
    <path d="m109.72 235.18c-7.8065 0-9.3586 0.0369-10.005 0.24623-0.63834 0.2069-0.89131 0.71661-1.5492 3.0862-0.66501 2.3951-0.69572 2.9119-0.16541 3.1245 0.94021 0.37676 18.291 0.3816 19.867 5e-3 1.0248-0.24475 1.0752-0.34066 1.7154-3.1296 0.54459-2.3718 0.54971-2.8794 0.0162-3.0862-0.53988-0.20932-2.0732-0.24623-9.8797-0.24623l-1e-5 4e-5"/>
    <path d="m109.59 234.22c-7.8065 0-9.3586 0.0369-10.005 0.24623-0.63834 0.2069-0.89131 0.71661-1.5492 3.0862-0.66501 2.3951-0.69572 2.9119-0.16541 3.1245 0.94021 0.37676 18.291 0.3816 19.867 5e-3 1.0248-0.24475 1.0752-0.34066 1.7154-3.1296 0.54459-2.3718 0.54971-2.8794 0.0162-3.0862-0.53988-0.20932-2.0732-0.24623-9.8797-0.24623l-1e-5 4e-5" fill="#545454"/>
  </g>
  <g stroke-width="1.347">
    <path d="m167.24 235.18c-39.56 0-44.249 0.0244-44.922 0.24623-0.62784 0.2069-0.85427 0.71445-1.3916 3.0862-0.63187 2.7888-0.62527 2.8849 0.28786 3.1296 0.83743 0.22441 5.8654 0.2535 45.154 0.2535 29.618 0 44.504-0.0599 45.088-0.17241 0.81534-0.15679 0.87852-0.36504 0.93859-3.1857 0.045-2.1105-0.0858-3.0365-0.45852-3.1703-0.40302-0.14453-10.936-0.1871-44.696-0.1871"/>
    <path d="m167.11 234.22c-39.56 0-44.249 0.0244-44.922 0.24623-0.62784 0.2069-0.85427 0.71445-1.3916 3.0862-0.63187 2.7888-0.62527 2.8849 0.28786 3.1296 0.83743 0.22441 5.8654 0.2535 45.154 0.2535 29.618 0 44.504-0.0599 45.088-0.17241 0.81534-0.15679 0.87852-0.36504 0.93859-3.1857 0.045-2.1105-0.0858-3.0365-0.45852-3.1703-0.40302-0.14453-10.936-0.1871-44.696-0.1871" fill="#545454"/>
  </g>
  <g stroke-width="1.347">
    <path d="m224.86 235.18c-7.8065 0-9.349 0.0369-9.9405 0.24623-1.0406 0.36827-1.1393 5.8328-0.0976 6.2108 1.0416 0.37797 18.389 0.3816 19.868 5e-3 0.96108-0.24475 0.9864-0.34066 0.9006-3.1296-0.073-2.3718-0.19989-2.8794-0.78732-3.0862-0.5943-0.20932-2.1372-0.24623-9.9438-0.24623v4e-5"/>
    <path d="m224.73 234.22c-7.8065 0-9.349 0.0369-9.9405 0.24623-1.0406 0.36827-1.1393 5.8328-0.0976 6.2108 1.0416 0.37797 18.389 0.3816 19.868 5e-3 0.96108-0.24475 0.9864-0.34066 0.9006-3.1296-0.073-2.3718-0.19989-2.8794-0.78732-3.0862-0.5943-0.20932-2.1372-0.24623-9.9438-0.24623v4e-5" fill="#545454"/>
  </g>
  <g stroke-width="1.347">
    <path d="m245.18 235.18c-5.7419 0-7.0918 0.0422-7.6582 0.24623-0.57275 0.20636-0.66839 0.70893-0.59053 3.0163 0.12366 3.6628-0.39157 3.453 8.462 3.453 3.6543 0 6.9275-0.0787 7.4062-0.17241 0.80093-0.15679 0.84484-0.36504 0.64508-3.1857-0.14952-2.1105-0.36544-3.0365-0.75068-3.1703-0.37743-0.13106-2.6867-0.1871-7.514-0.1871"/>
    <path d="m245.05 234.22c-5.7419 0-7.0918 0.0422-7.6582 0.24623-0.57275 0.20636-0.66839 0.70893-0.59053 3.0163 0.12366 3.6628-0.39157 3.453 8.462 3.453 3.6543 0 6.9275-0.0787 7.4062-0.17241 0.80093-0.15679 0.84484-0.36504 0.64508-3.1857-0.14952-2.1105-0.36544-3.0365-0.75068-3.1703-0.37743-0.13106-2.6867-0.1871-7.514-0.1871" fill="#545454"/>
  </g>
  <g stroke-width="1.347">
    <path d="m260.82 235.18c-5.991 0.0315-5.8143 0.34645-5.5909 3.3325 0.25809 3.448 0.0837 3.383 8.8514 3.383 4.097 0 7.5532-0.14184 8.0281-0.32436 0.72603-0.2791 0.79486-0.66326 0.52775-3.0087-0.18992-1.668-0.51213-2.7966-0.87056-3.0228-0.39952-0.25216-2.8127-0.35965-7.9844-0.35965h-2.9616"/>
    <path d="m260.69 234.22c-5.991 0.0315-5.8143 0.34645-5.5909 3.3325 0.25809 3.448 0.0837 3.383 8.8514 3.383 4.097 0 7.5532-0.14184 8.0281-0.32436 0.72603-0.2791 0.79486-0.66326 0.52775-3.0087-0.18992-1.668-0.51213-2.7966-0.87056-3.0228-0.39952-0.25216-2.8127-0.35965-7.9844-0.35965h-2.9616" fill="#545454"/>
  </g>
  <g stroke-width="1.347">
    <path d="m282.68 235.34c-5.3014 0-7.7341 0.0548-8.0905 0.18723-0.35789 0.13309-0.40544 1.0249-0.17174 3.0076 0.28018 2.3765 0.45421 2.8922 1.068 3.1046 0.60844 0.21054 1.9891 0.25849 7.9267 0.25849 4.097 0 7.5571-0.0768 8.0377-0.17242 0.78625-0.15652 0.81359-0.36409 0.38336-3.1056-0.32167-2.0496-0.61585-2.9591-1.0116-3.0926-0.39575-0.13348-2.8406-0.18723-8.1419-0.18723"/>
    <path d="m282.55 234.38c-5.3014 0-7.7341 0.0548-8.0905 0.18723-0.35789 0.13309-0.40544 1.0249-0.17174 3.0076 0.28018 2.3765 0.45421 2.8922 1.068 3.1046 0.60844 0.21054 1.9891 0.25849 7.9267 0.25849 4.097 0 7.5571-0.0768 8.0377-0.17242 0.78625-0.15652 0.81359-0.36409 0.38336-3.1056-0.32167-2.0496-0.61585-2.9591-1.0116-3.0926-0.39575-0.13348-2.8406-0.18723-8.1419-0.18723" fill="#545454"/>
  </g>
  <g stroke-width="1.347">
    <path d="m298.9 235.18c-5.9884 0.0315-5.7844 0.34645-5.3038 3.3325 0.55496 3.448 0.37487 3.383 9.1428 3.383 4.097 0 7.5409-0.14184 8.0001-0.32436 0.70192-0.2791 0.73775-0.66326 0.26873-3.0087-0.33365-1.668-0.75284-2.7966-1.1309-3.0228-0.42121-0.25216-2.8436-0.35965-8.0152-0.35965h-2.9616"/>
    <path d="m298.77 234.22c-5.9884 0.0315-5.7844 0.34645-5.3038 3.3325 0.55496 3.448 0.37487 3.383 9.1428 3.383 4.097 0 7.5409-0.14184 8.0001-0.32436 0.70192-0.2791 0.73775-0.66326 0.26873-3.0087-0.33365-1.668-0.75284-2.7966-1.1309-3.0228-0.42121-0.25216-2.8436-0.35965-8.0152-0.35965h-2.9616" fill="#545454"/>
  </g>
  <path d="m62.221 35.638h236.48a4.9019 4.9019 0 0 1 4.9019 4.9019v140.49a4.9019 4.9019 0 0 1-4.9019 4.9019h-236.48a4.9019 4.9019 0 0 1-4.9019-4.9019v-140.49a4.9019 4.9019 0 0 1 4.9019-4.9019" fill="url(#fm)" opacity=".703" stroke="url(#fn)" stroke-width="1.347"/>
  <path d="m67.744 200.1h227.68c2.7157 0 7.5959 0.98843 7.5959 2.2162s-2.1862 2.2162-4.9019 2.2162h-233.07c-2.7157 0-4.9019-0.98843-4.9019-2.2162s4.8802-2.2162 7.5959-2.2162z" stroke-width="1.347"/>
  <path d="m326.93 274.98c0.4798 0 2.5301-0.3478 3.0364-1.0532 0.85103-1.1855-1.7366-6.9066 0.40571-2.0342s-0.82961 14.836-9.7884 14.836c-97.738-0.0552-196.45 0.11045-294.18-0.083-6.992-0.30496-5.9467-14.54-5.9467-14.54s0.30038 2.8377 2.0356 2.8377c105.53 0.0461 304.44 0.0361 304.44 0.0361z" opacity=".642" stroke-width="1.347"/>
  <path d="m139.03 246.74h59.268c1.5857 0 2.8264 1.1305 2.8624 2.534l0.33674 13.117c0.036 1.4034-1.2766 2.534-2.8624 2.534h-61.962c-1.5857 0-3.1116-1.1475-2.8624-2.534l2.3573-13.117c0.24919-1.3863 1.2766-2.534 2.8624-2.534z" opacity=".372" stroke-width="1.347"/>
  <path transform="matrix(1.347 0 0 1.347 -376.97 -123.77)" d="m383.07 275.06h44c1.1772 0 2.0983 0.8393 2.125 1.8812l0.25 9.7377c0.0267 1.0419-0.9477 1.8812-2.125 1.8812h-46c-1.1772 0-2.31-0.8519-2.125-1.8812l1.75-9.7377c0.185-1.0292 0.9477-1.8812 2.125-1.8812z" fill="#333" filter="url(#fl)" opacity=".372"/>
</svg>
