<?xml version="1.0" encoding="UTF-8"?>
<svg width="800" height="500" version="1.0" xmlns="http://www.w3.org/2000/svg" xmlns:cc="http://web.resource.org/cc/" xmlns:dc="http://purl.org/dc/elements/1.1/" xmlns:rdf="http://www.w3.org/1999/02/22-rdf-syntax-ns#">
  <title>USB type-B plug</title>
  <metadata>
    <rdf:RDF>
      <cc:Work rdf:about="">
        <dc:format>image/svg+xml</dc:format>
        <dc:type rdf:resource="http://purl.org/dc/dcmitype/StillImage"/>
        <dc:title>USB type-B plug</dc:title>
        <cc:license rdf:resource="http://creativecommons.org/publicdomain/zero/1.0/"/>
        <dc:source>Inductiveload, Public domain, via Wikimedia Commons</dc:source>
        <dc:creator>
          <cc:Agent>
            <dc:title>seth.fischer.nz</dc:title>
          </cc:Agent>
        </dc:creator>
      </cc:Work>
      <cc:License rdf:about="http://creativecommons.org/publicdomain/zero/1.0/">
        <cc:permits rdf:resource="http://creativecommons.org/ns#Reproduction"/>
        <cc:permits rdf:resource="http://creativecommons.org/ns#Distribution"/>
        <cc:permits rdf:resource="http://creativecommons.org/ns#DerivativeWorks"/>
      </cc:License>
    </rdf:RDF>
  </metadata>
  <g transform="translate(273.6 395.99)">
    <g transform="translate(20.778 10.431)">
      <g transform="translate(24.337 5.9569)">
        <polygon points="-205.72 4.302 -227.34 16.822 -227.36 16.842 -228.38 16.242 -228.36 16.222 -228.36 15.862 -207.06 3.542" fill="#fcb424"/>
        <polygon points="-208.98 2.422 -207.06 3.542 -228.36 15.862 -238.38 10.112 -238.4 10.092 -217.04 -2.248 -213.72 -0.328 -208.98 2.432" fill="#fcb424"/>
        <polygon points="-207.34 40.752 -208.96 42.912 -208.98 42.921 -213.74 40.142 -202.98 33.982 -202.98 38.242 -202.98 38.242 -207.3 40.772" fill="#efefef"/>
        <polygon points="-202.98 32.842 -202.98 33.982 -213.74 40.142 -213.76 40.131 -211.98 38.062 -212 38.042" fill="#efefef"/>
        <polygon points="-202.98 19.282 -202.98 32.842 -212 38.042 -226.02 29.902 -205.36 17.921 -205.32 17.962 -203.28 19.112" fill="#efefef"/>
        <polygon points="-203.28 18.732 -203.28 18.742 -203.28 19.112 -205.32 17.962 -205.36 17.921 -226.02 29.902 -226.06 29.872 -227.76 32.052 -227.76 32.062 -238.82 25.671 -226.32 18.562 -226.32 17.432 -226.32 17.421 -226.34 17.421 -227.36 16.842 -227.34 16.822 -205.72 4.302 -202.98 5.902 -202.98 18.512" fill="#efefef"/>
        <polygon points="-212 38.042 -211.98 38.062 -213.76 40.131 -213.76 40.152 -227.76 32.052 -226.06 29.872 -226.02 29.902" fill="#efefef"/>
        <polygon points="-212 38.042 -211.98 38.062 -213.76 40.131 -213.76 40.152 -227.76 32.052 -226.06 29.872 -226.02 29.902" fill="#efefef"/>
        <polygon points="-203.28 18.732 -203.28 18.742 -203.28 19.112 -205.32 17.962 -205.36 17.921 -226.02 29.902 -226.06 29.872 -227.76 32.052 -227.76 32.062 -238.82 25.671 -226.32 18.562 -226.32 17.432 -226.32 17.421 -226.34 17.421 -227.36 16.842 -227.34 16.822 -205.72 4.302 -202.98 5.902 -202.98 18.512" fill="#efefef"/>
        <polygon points="-202.98 19.282 -202.98 32.842 -212 38.042 -226.02 29.902 -205.36 17.921 -205.32 17.962 -203.28 19.112" fill="#efefef"/>
        <polygon points="-207.34 40.752 -208.96 42.912 -208.98 42.921 -213.74 40.142 -202.98 33.982 -202.98 38.242 -202.98 38.242 -207.3 40.772" fill="#efefef"/>
        <polygon points="-202.98 32.842 -202.98 33.982 -213.74 40.142 -213.76 40.131 -211.98 38.062 -212 38.042" fill="#efefef"/>
        <polygon points="-238.4 10.092 -238.38 10.112 -238.38 10.462 -240.36 9.322 -240.4 9.282 -251.04 15.442 -251.08 15.421 -252.76 17.592 -252.78 17.612 -257.5 14.892 -222.44 -5.358 -217.04 -2.248" fill="#efefef"/>
        <polygon points="-223.46 -5.948 -222.44 -5.358 -257.5 14.892 -257.56 14.862 -255.78 12.742" fill="#efefef"/>
        <polygon points="-227.76 -8.438 -223.46 -5.948 -255.78 12.742 -260.76 9.862 -260.76 9.832 -228.48 -8.798 -228.46 -8.838" fill="#efefef"/>
        <polygon points="-226.34 17.421 -237.1 23.522 -251.04 15.442 -240.4 9.282 -240.36 9.322 -238.38 10.462 -228.38 16.242 -227.36 16.842" fill="#efefef"/>
        <polygon points="-237.1 23.522 -237.06 23.542 -237.06 23.542 -238.84 25.662 -238.84 25.682 -252.76 17.592 -251.08 15.421 -251.04 15.442" fill="#efefef"/>
        <polygon points="-237.1 23.522 -237.06 23.542 -237.06 23.542 -238.84 25.662 -238.84 25.682 -252.76 17.592 -251.08 15.421 -251.04 15.442" fill="#efefef"/>
        <polygon points="-226.34 17.421 -237.1 23.522 -251.04 15.442 -240.4 9.282 -240.36 9.322 -238.38 10.462 -228.38 16.242 -227.36 16.842" fill="#efefef"/>
        <polygon points="-227.76 -8.438 -223.46 -5.948 -255.78 12.742 -260.76 9.862 -260.76 9.832 -228.48 -8.798 -228.46 -8.838" fill="#efefef"/>
        <polygon points="-238.4 10.092 -238.38 10.112 -238.38 10.462 -240.36 9.322 -240.4 9.282 -251.04 15.442 -251.08 15.421 -252.76 17.592 -252.78 17.612 -257.5 14.892 -222.44 -5.358 -217.04 -2.248" fill="#efefef"/>
        <polygon points="-223.46 -5.948 -222.44 -5.358 -257.5 14.892 -257.56 14.862 -255.78 12.742" fill="#efefef"/>
        <polygon points="-260.76 9.812 -260.76 -27.448 -260.74 -27.478 -257.52 -25.598 -252.78 -22.898 -238.8 -14.798 -228.46 -8.838 -228.48 -8.798 -260.76 9.832" fill="#efefef"/>
        <path d="m-267.04 27.492-0.01 0.021c-1.35-0.801-2.5-2.37-2.99-3.98-0.17-0.56-0.26-1.13-0.25-1.67h-0.01v-56.64l0.12-0.9 0.3-0.72 0.54-0.48 10.85-6.34 0.02 0.04 0.65-0.18 0.78 0.06 0.84 0.36 22.75 13.14 0.29 0.16v0.02l21.47 12.38 1.22 0.7 0.84 0.61 0.77 0.83 0.72 0.96 0.01 0.01 10.85 18.83 0.54 1.08 0.31 1.15 0.11 1.01v56.651c-0.06 1.979-1.47 2.989-3.23 1.85l-67.49-38.952zm3.53-16.09v0.02l0.02-0.01 5.93 3.46 0.05 0.03 0.02-0.01 4.71 2.72 0.02-0.02 13.92 8.09-0.02 0.02 0.03-0.02 0.02-0.011 11.05 6.391 0.01-0.01 13.99 8.1-0.02 0.02 0.03-0.02 0.02-0.01 4.76 2.779 0.01-0.01 5.99 3.49v-40.499l-2.75-1.6-1.33-0.76-1.92-1.12-0.01 0.01-4.74-2.76-3.32-1.92-5.4-3.11-1.02-0.59-4.3-2.49-0.69-0.4-10.35-5.96-13.98-8.1-4.73-2.7-3.23-1.88-2.77-1.6v40.48z" fill="#efefef"/>
        <polygon points="-155.04 7.532 -155.04 34.702 -155.16 35.612 -155.52 36.442 -156.12 37.222 -156.84 37.772 -157.68 38.122 -158.58 38.242 -159.54 38.122 -160.38 37.772 -160.74 37.402 -161.04 36.862 -161.1 36.152 -161.1 36.142 -161.1 8.962 -161.04 8.122 -160.74 7.282 -160.38 6.512 -159.84 5.722 -159.24 5.072 -158.58 4.592 -157.98 4.352 -157.32 4.282 -156.84 4.462 -156.12 5.012 -155.52 5.722 -155.16 6.562" fill="#d2d2d2"/>
        <path d="m-258.5-43.218-10.85 6.34-0.54 0.48-0.3 0.72-0.12 0.9v56.64h0.01c-0.01 0.54 0.08 1.11 0.25 1.67l-1.7 0.6-0.42-1.189-0.26 0.07c-0.26-0.94-0.42-1.91-0.46-2.891v-57.84l0.3-1.08 0.48-0.96 0.66-0.9 0.59-0.47 0.01-0.01 0.24-0.18 10.79-6.32 0.01 0.02 96.08-55.41 23.26-13.41c1.38-0.95 3.25-0.28 4.57 0.42v-0.01l22.79 13.15v0.28l-119.05 68.69 0.01 0.03-0.41 0.3-0.31 0.48-0.24 0.48-0.06 0.48v2.23l-0.23 0.08-0.03 0.01-22.78-13.12-0.84-0.36-0.78-0.06-0.65 0.18-0.02-0.04z" fill="#d2d2d2"/>
        <path d="m-155.04 7.532-0.12-0.97-0.35-0.84-0.61-0.71-0.72-0.55-0.48-0.18-0.65 0.07-0.61 0.24-0.66 0.48-0.6 0.65-0.54 0.79-0.36 0.77-0.3 0.84-0.06 0.84v27.19l0.06 0.71 0.3 0.54 0.36 0.37 0.84 0.35 0.96 0.12 0.9-0.12 0.84-0.35 0.72-0.55 0.61-0.78 0.35-0.83 0.12-0.91v-27.17zm-44.28 62.09-67.44-39c-2.74-1.729-4.79-4.5-5.66-7.609l0.26-0.07 0.42 1.189 1.7-0.6c0.49 1.61 1.64 3.18 2.99 3.98l0.01-0.021 67.49 38.95c1.76 1.14 3.17 0.13 3.23-1.85v-56.649l-0.11-1.01-0.31-1.15-0.54-1.08-10.85-18.83-0.01-0.01-0.72-0.96-0.77-0.83-0.84-0.61-1.22-0.7-21.47-12.4v-2.5l0.06-0.48 0.24-0.48 0.31-0.48 0.41-0.3-0.01-0.03 119.05-68.69 0.18-0.1 0.01-0.02 22.73 13.1c2.18 1.37 3.13 2.6 4.46 4.73l-0.02 0.01 10.92 18.91c1.28 2.32 1.75 3.6 1.93 6.24v56.69c-0.1 1.66-0.36 3.2-1.91 4.13l-0.02-0.04-11.19 6.47-108.03 62.46h-0.05c-1.84 0.86-3.5 0.63-5.23-0.36z" fill="#d2d2d2"/>
        <path d="m224.04-276.04c10.52 9.26 18.77 24.9 18.72 39.09-0.11-0.54-0.23-1.07-0.36-1.59-3.12-13.09-10.17-26.46-19.56-36.84l1.2-0.72v0.06z" fill="#212121"/>
        <path d="m261.98-256.64-1.17 0.76h-0.01c-4.29-13.32-12.28-26.08-22.12-35.34-0.41-0.39-0.83-0.79-1.27-1.19l0.01-0.01c12.29 7.02 21.79 22.08 24.58 35.77l-0.02 0.01z" fill="#212121"/>
        <path d="m428.1-373.18c6.311 10.43 12.75 32.59 0.03 40.9l-0.03-0.04-60.67 35.1h-0.01c-0.35-12.66-5.47-26.51-10.61-34.79-4.68-8.59-14.05-19.97-24.81-26.61l60.63-35.02c13.43-6.95 29.71 9.83 35.47 20.46z" fill="#212121"/>
        <path d="m227.6-315.67c4.58-0.87 9.57-0.06 13.79 1.58l10.061-5.8c-6.34-2.45-13.681-2.84-19.431 0.49l-0.01-0.02 10.09-5.76c1.78-1.01 3.63-1.68 5.53-2.05 10.46-2.07 22.27 4.76 29.86 11.65 0.43 0.4 0.859 0.8 1.27 1.2 9.8 9.19 17.83 22.02 22.12 35.34 1.27 3.92 2.21 7.89 2.77 11.82l9.98-5.85 0.05 0.03c0-0.02 0-0.03-0.01-0.05-2.67-18.22-13.25-37.02-27.12-49.09-8.78-7.85-23.62-15.19-34.47-8.76l-0.03-0.05 10.08-5.77c1.75-1.02 3.61-1.68 5.52-2.04 4.591-0.88 9.471-0.04 13.881 1.55l10.06-5.74c-6.5-2.49-13.69-2.93-19.47 0.44l-0.021-0.03 10.08-5.76c1.771-1 3.62-1.66 5.51-2.03 10.49-2.09 22.261 4.71 29.87 11.64 0.44 0.4 0.86 0.79 1.271 1.19 9.89 9.37 17.85 22.02 22.12 35.35 1.26 3.9 2.199 7.86 2.779 11.81l9.98-5.85 0.05 0.03c0-0.02 0-0.03-0.01-0.05-2.7-18.23-13.22-37-27.12-49.09-8.89-7.84-23.57-15.18-34.48-8.73l-0.02-0.03 13.2-7.62c8.66-4.49 18.1-2.2 26.67 3.1 10.76 6.64 20.13 18.02 24.81 26.61 5.141 8.28 10.261 22.13 10.61 34.79 0.3 10.09-2.43 19.42-10.58 24.58l-0.03-0.04-13.12 7.68-0.02-0.03c5.8-3.35 8.91-9.57 10.09-16.59l-10.04 5.8 0.01 0.02c-0.79 4.58-2.52 9.29-5.59 12.84-1.24 1.46-2.72 2.73-4.46 3.7l-0.03-0.04-9.55 5.57c10.45-6.49 11.561-22.68 9.07-33.95-3.39-18.05-14.55-36.67-28.98-48.06l-0.029-0.04-9.98 5.86c3.11 2.43 6.07 5.21 8.83 8.27 9.39 10.37 16.48 23.83 19.54 36.85 0.13 0.52 0.25 1.05 0.37 1.6 2.2 10.12 2.28 23.71-4.84 31.79-1.26 1.44-2.75 2.7-4.5 3.73l-0.03-0.04-9.04 5.26c5.19-3.44 8.061-9.5 9.17-15.99l-10.04 5.79 0.01 0.02c-0.85 4.74-2.52 9.27-5.59 12.77-1.25 1.45-2.75 2.72-4.52 3.77l-0.03-0.04-9.13 5.3c10.12-6.58 11.15-22.57 8.71-33.67-3.44-18.05-14.49-36.71-28.979-48.07l-0.021-0.04-9.99 5.8c3.11 2.47 6.061 5.26 8.8 8.3 9.391 10.38 16.4 23.64 19.57 36.82 0.13 0.51 0.25 1.03 0.36 1.56 2.189 10.19 2.319 23.72-4.811 31.85-1.26 1.45-2.76 2.73-4.52 3.78l-0.03-0.05-9.22 5.35c5.28-3.43 8.24-9.54 9.35-16.09l-10.04 5.73 0.011 0.03c-0.9 4.95-2.5 9.34-5.591 12.83-1.25 1.41-2.739 2.68-4.529 3.78l-0.021-0.04-9.47 5.49c10.46-6.47 11.42-22.54 9.05-33.88-3.42-18.05-14.52-36.66-28.979-48.06l-0.021-0.04-10 5.8c3.11 2.45 6.07 5.23 8.82 8.28 9.39 10.38 16.439 23.75 19.56 36.84 0.13 0.52 0.25 1.05 0.36 1.59 2.149 10.08 2.27 23.76-4.82 31.82-1.27 1.43-2.76 2.69-4.52 3.72l-0.021-0.04-4.439 2.63v-35.22l-0.181-1.85-0.47-1.81-0.79-1.68-10.68-18.36 0.01-0.01-0.97-1.49-1.32-1.32-1.56-1.02-40.5-23.42 9.479-5.49c1.76-0.99 3.62-1.65 5.53-2.02 4.58-0.89 9.439-0.14 13.82 1.58l10.05-5.81c-6.3-2.38-13.49-2.83-19.221 0.36l9.86-5.7c1.8-0.98 3.66-1.64 5.54-2.01 10.57-2.07 22.14 4.73 29.86 11.68 0.439 0.4 0.859 0.8 1.27 1.19 9.84 9.26 17.83 22.02 22.12 35.34 1.26 3.9 2.2 7.84 2.771 11.76l9.979-5.79 0.05 0.03c0-0.02 0-0.03-0.01-0.05-2.63-18.22-13.31-37.04-27.12-49.15-8.78-7.72-23.26-15-34.13-8.92l-0.02-0.04 9.729-5.56c1.714-1.03 3.594-1.71 5.554-2.07z" fill="#424242"/>
        <path d="m343.72-275.82 10.04-5.8c-1.18 7.02-4.29 13.24-10.09 16.59-1.63 0.93-3.46 1.64-5.521 2.08l-0.01-0.01c3.07-3.55 4.8-8.26 5.59-12.84l-9e-3 -0.02z" fill="#424242"/>
        <path d="m342.18-302.91c-2.9-13.92-12.18-28.55-24.6-35.83l-0.011 0.01c-7.609-6.93-19.38-13.73-29.87-11.64v-0.01c1.391-1.55 2.881-2.76 4.46-3.69 10.91-6.45 25.591 0.89 34.48 8.73 13.9 12.09 24.42 30.86 27.12 49.09l-0.04 0.02-11.53-6.65c-9e-3 -0.01-9e-3 -0.02-9e-3 -0.03z" fill="#424242"/>
        <path d="m342.18-302.88 11.53 6.65-9.98 5.85c-0.58-3.95-1.52-7.91-2.779-11.81l0.02-0.01 1.18-0.7 0.029 0.02z" fill="#424242"/>
        <path d="m342.16-302.9-1.18 0.7-0.02 0.01c-4.271-13.33-12.23-25.98-22.12-35.35-0.41-0.4-0.83-0.79-1.271-1.19l0.011-0.01c12.42 7.28 21.699 21.91 24.6 35.83l-0.02 0.01z" fill="#212121"/>
        <path d="m333.18-287.68c2.49 11.27 1.38 27.46-9.07 33.95-0.17 0.1-0.35 0.21-0.529 0.31-1.601 0.92-3.421 1.61-5.46 2.04l-0.03-0.03c7.12-8.08 7.04-21.67 4.84-31.79 0.13-14-8.28-30.06-18.73-39.16v-13.38c14.429 11.39 25.59 30.01 28.979 48.06z" fill="#424242"/>
        <path d="m304.2-322.36c10.45 9.1 18.86 25.16 18.73 39.16-0.12-0.55-0.24-1.08-0.37-1.6-3.06-13.02-10.15-26.48-19.54-36.85l1.18-0.77v0.06z" fill="#212121"/>
        <path d="m304.52-242.46c-1.85 1.23-3.99 2.13-6.439 2.6l-0.011-0.01c3.07-3.5 4.74-8.03 5.59-12.77l-0.01-0.02 10.04-5.79c-1.109 6.49-3.979 12.55-9.17 15.99z" fill="#424242"/>
        <path d="m302.1-279.75c-2.79-13.75-12.27-28.75-24.6-35.83-7.591-6.89-19.4-13.72-29.86-11.65 1.38-1.56 2.87-2.78 4.45-3.71 10.85-6.43 25.689 0.91 34.47 8.76 13.87 12.07 24.45 30.87 27.12 49.09l-0.04 0.02-11.53-6.65c-0.01-0.01-0.01-0.02-0.01-0.03z" fill="#424242"/>
        <path d="m302.1-279.72 11.53 6.65-9.98 5.85c-0.56-3.93-1.5-7.9-2.77-11.82h0.01l1.181-0.7 0.029 0.02z" fill="#424242"/>
        <path d="m304.2-335.74v13.32l-1.18 0.77c-2.76-3.06-5.72-5.84-8.83-8.27l9.98-5.86 0.03 0.04z" fill="#424242"/>
        <path d="m302.08-279.74-1.181 0.7h-0.01c-4.29-13.32-12.32-26.15-22.12-35.34-0.41-0.4-0.84-0.8-1.27-1.2 12.33 7.08 21.81 22.08 24.6 35.83l-0.019 0.01z" fill="#212121"/>
        <path d="m284.38-230.84c-1.81 1.19-3.92 2.07-6.35 2.56l-0.011-0.01c7.13-8.13 7-21.66 4.811-31.85 0.02-14.24-8.21-29.75-18.72-39.06v-13.38c14.489 11.36 25.539 30.02 28.979 48.07 2.442 11.1 1.411 27.09-8.709 33.67z" fill="#424242"/>
        <path d="m291.6-342.99-10.06 5.74c-4.41-1.59-9.29-2.43-13.881-1.55 1.351-1.57 2.851-2.81 4.471-3.75 5.78-3.37 12.97-2.93 19.47-0.44z" fill="#424242"/>
        <path d="m264.12-299.2c10.51 9.31 18.739 24.82 18.72 39.06-0.11-0.53-0.23-1.05-0.36-1.56-3.17-13.18-10.18-26.44-19.57-36.82l0.021-0.02 1.19-0.72v0.06h-1e-3z" fill="#212121"/>
        <path d="m264.26-219.21c-1.811 1.19-3.89 2.05-6.26 2.51l-0.011-0.01c3.091-3.49 4.69-7.88 5.591-12.83l-0.011-0.03 10.04-5.73c-1.108 6.55-4.068 12.66-9.349 16.09z" fill="#424242"/>
        <path d="m262-256.65c-2.79-13.69-12.29-28.75-24.58-35.77l-0.01 0.01c-7.721-6.95-19.29-13.75-29.86-11.68l-0.01-0.03c1.49-1.65 3.1-2.93 4.8-3.88 10.87-6.08 25.35 1.2 34.13 8.92 13.811 12.11 24.49 30.93 27.12 49.15l-0.04 0.02-11.55-6.72v-0.02z" fill="#424242"/>
        <path d="m262-256.63 11.55 6.72-9.979 5.79c-0.57-3.92-1.511-7.86-2.771-11.76h0.01l1.17-0.76 0.02 0.01z" fill="#424242"/>
        <path d="m264.12-312.58v13.32l-1.19 0.72-0.021 0.02c-2.739-3.04-5.689-5.83-8.8-8.3l9.99-5.8 0.021 0.04z" fill="#424242"/>
        <path d="m253.02-241.36c2.37 11.34 1.41 27.41-9.05 33.88-1.73 1.07-3.73 1.88-6.01 2.36l-0.021-0.01c7.09-8.06 6.97-21.74 4.82-31.82 0.05-14.19-8.2-29.83-18.72-39.09v-13.38c14.462 11.4 25.561 30.01 28.981 48.06z" fill="#424242"/>
        <path d="m251.46-319.89-10.061 5.8c-4.22-1.64-9.21-2.45-13.79-1.58 1.311-1.56 2.8-2.79 4.42-3.73 5.75-3.33 13.091-2.94 19.431-0.49z" fill="#424242"/>
        <path d="m-87.975-162.07 0.01 0.03c-4.06 2.4-5.12 5.78-3.22 8.68 0.68 1.06 1.76 2.05 3.22 2.91l30.07 17.33c5.52 3.22 14.52 3.25 20.03 0l110.28-63.66 0.029 0.04c1.44-0.89 2.511-1.88 3.2-2.93 1.9-2.91 0.86-6.22-3.229-8.63l-30.05-17.42-0.011 0.02c-5.91-3.14-14.14-3.19-20.04 0l-0.6 0.34-109.69 63.29zm-59.78 17.23 46.85-27.07 1.19-0.69 8.83-5.1 1.03-0.6 9.04-5.22 1.17-0.68 8.82-5.09 1.17-0.68 8.69-5.02 1.35-0.78 8.88-5.13 1.11-0.64 74.399-43 0.13-0.06 1.44-0.66-0.01-0.02 122.28-48.82c0.18-0.07 0.35-0.13 0.539-0.19 2.79-0.93 6.131-0.74 8.641 0.82l0.01-0.02 14.69 8.49 40.5 23.42 1.56 1.02 1.32 1.32 0.97 1.49-0.01 0.01 10.68 18.36 0.79 1.68 0.47 1.81 0.181 1.85v52.14c0.01 3.17-1.521 6.4-4.04 8.32l-0.03-0.04-103.41 81.52-0.03-0.04-1.26 0.9-0.24 0.12 0.011 0.02-65.48 37.75c1.44-1.11 1.91-2.87 1.87-4.64v-73.81c0.05-2.73-0.94-5.06-2.17-7.44l-1.79-3.12h-0.01l-0.36-0.47-0.42-0.43-0.479-0.23-0.421-0.13-0.34 0.12-0.02-0.06-1.98 1.2-0.3 0.24-0.12 0.42v0.54l0.12 0.54 0.3 0.6-0.01 0.01 1.81 3.11c1.261 1.94 2.15 5.07 2.23 7.38v0.9h-1.57l-3.06 1.74-1.46 0.09c-0.13-2.33-1.021-4.58-2.141-6.62l-1.8-3.19c-0.489-0.72-1.069-1.4-2.04-1.14l-0.029-0.04-1.94 1.18-0.31 0.3-0.12 0.42v0.48l0.12 0.6 0.27 0.47-0.02 0.01 1.85 3.18c1.29 2.15 2.14 4.94 2.22 7.44v0.9h-1.55l-3.07 1.68-1.449 0.09c-0.131-2.39-1.04-4.49-2.15-6.63l-1.79-3.12h-0.01l-0.36-0.53-0.42-0.37-0.479-0.29-0.421-0.07-0.35 0.13-0.03-0.05-1.96 1.18-0.3 0.24-0.12 0.42v0.55l0.12 0.53 0.26 0.48h-0.01l1.851 3.24c1.26 1.94 2.149 5.08 2.229 7.38v0.9h-1.57l-3.06 1.68-1.46 0.09c-0.13-2.34-1.05-4.57-2.14-6.63l-1.801-3.12-0.359-0.47-0.42-0.43-0.48-0.24-0.42-0.12-0.36 0.12-0.029-0.04-1.94 1.18-0.31 0.3-0.11 0.42v0.48l0.11 0.54 0.27 0.53-0.02 0.01 1.859 3.18h-0.01c1.29 2.15 2.14 4.94 2.22 7.44v0.84h-1.55l-3.07 1.74-1.449 0.09c-0.141-2.4-1.051-4.5-2.141-6.63h-0.01l-1.86-3.12-0.3-0.54-0.479-0.36-0.42-0.3-0.42-0.06-0.351 0.06-0.03-0.05-1.96 1.25-0.3 0.25-0.12 0.41v0.48l0.12 0.61 0.26 0.47-0.02 0.01 1.86 3.17c1.189 1.92 2.25 5.18 2.159 7.44v0.91h-1.5l-3.06 1.67-1.46 0.09c-0.13-2.34-1.05-4.57-2.14-6.63l-1.86-3.12-0.36-0.48-0.42-0.42-0.42-0.24-0.42-0.12-0.36 0.12-0.029-0.04-1.94 1.18-0.31 0.3-0.11 0.36v0.54l0.11 0.54 0.27 0.53-0.02 0.01 1.859 3.19c1.181 1.95 2.23 5.07 2.15 7.37v73.86l-0.061 1.27-0.3 1.19-0.42 0.96-0.6 0.85-0.61 0.46-0.16 0.13h-0.01l-52.68 30.36 0.02 0.03-10.64 6.1 0.01 0.03c-3.12 1.899-7.45 1.93-10.56-0.03h-0.01l-12.17-7.02-0.04-0.07 11.19-6.47 0.02 0.04c1.55-0.93 1.81-2.47 1.91-4.13v-56.69c-0.18-2.64-0.65-3.92-1.93-6.24l-10.92-18.91 0.02-0.01c-1.33-2.13-2.28-3.36-4.46-4.73l-22.73-13.1-0.01 0.02-0.18 0.1v-0.28l-22.79-13.15v0.01c-1.32-0.7-3.19-1.37-4.57-0.42l-23.26 13.41-0.02-0.03v-26.46c0.04-3.87 2.02-7.2 5.35-9.18l10.61-6.18 0.03 0.04z" fill="#424242"/>
        <path d="m224.04-289.42v13.32l-1.2 0.72c-2.75-3.05-5.71-5.83-8.82-8.28l10-5.8 0.02 0.04z" fill="#424242"/>
        <path d="m211.38-296.74-10.05 5.81c-4.381-1.72-9.24-2.47-13.82-1.58l-0.01-0.03c1.33-1.56 2.83-2.79 4.449-3.72 0.07-0.05 0.141-0.09 0.21-0.12 5.731-3.19 12.922-2.74 19.221-0.36z" fill="#424242"/>
        <path d="m72.416-208.3c4.09 2.41 5.13 5.72 3.229 8.63l-0.83-1.01-1.08-0.96-1.319-0.9-30.11-17.39-0.01 0.02c-5.2-3.04-14.08-3.17-19.47-0.26l-0.511-1.21v-2.94l-0.6-1.04 0.6-0.34c5.9-3.19 14.13-3.14 20.04 0l0.011-0.02 30.05 17.42z" fill="#424242"/>
        <path d="m42.295-219.91 0.01-0.02 30.11 17.39 1.319 0.9 1.08 0.96 0.83 1.01c-0.689 1.05-1.76 2.04-3.2 2.93l-0.029-0.04-110.28 63.66c-5.51 3.25-14.51 3.22-20.03 0l-30.07-17.33c-1.46-0.86-2.54-1.85-3.22-2.91l0.82-1.06 1.08-0.96 1.32-0.84-0.01-0.03 110.29-63.63c0.17-0.1 0.34-0.2 0.511-0.29 5.389-2.91 14.269-2.78 19.469 0.26z" fill="#424242"/>
        <path d="m54.105-53.158-1.689 1.02-0.03-0.04-1.94 1.2c1.4-0.96 1.921-3.18 1.94-4.74v-73.8c-0.08-2.31-0.97-5.44-2.23-7.38l-1.81-3.11 0.01-0.01-0.3-0.6-0.12-0.54v-0.54l0.12-0.42 0.3-0.24 1.98-1.2 0.02 0.06 0.34-0.12 0.421 0.13 0.479 0.23 0.42 0.43 0.36 0.47h0.01l1.79 3.12c1.229 2.38 2.22 4.71 2.17 7.44v73.81c0.04 1.77-0.43 3.53-1.87 4.64 0 0-0.01 0-0.01 0.01l-0.35 0.2-0.011-0.02z" fill="#212121"/>
        <path d="m48.465-49.848-0.11 0.07-0.08 0.04-3.68 2.08c1.28-0.99 1.82-3.1 1.72-4.57v-73.81c0-0.25 0-0.5-0.02-0.75l1.46-0.09 3.06-1.74h1.57v72.9c-0.02 1.56-0.54 3.78-1.94 4.74-0.029 0.03-0.06 0.05-0.1 0.07-0.06 0.04-0.12 0.08-0.19 0.11l-1.69 0.95z" fill="#424242"/>
        <path d="m44.085-47.398-1.7 1.08-0.03-0.04-1.859 1.1c1.38-1 1.819-3.06 1.859-4.64v-73.8c-0.08-2.5-0.93-5.29-2.22-7.44l-1.85-3.18 0.02-0.01-0.27-0.47-0.12-0.6v-0.48l0.12-0.42 0.31-0.3 1.94-1.18 0.029 0.04c0.971-0.26 1.551 0.42 2.04 1.14l1.8 3.19c1.12 2.04 2.011 4.29 2.141 6.62 0.02 0.25 0.02 0.5 0.02 0.75v73.81c0.101 1.47-0.439 3.58-1.72 4.57l-0.5 0.28-0.01-0.02z" fill="#212121"/>
        <path d="m42.355-122.8v72.9c-0.04 1.58-0.479 3.64-1.859 4.64l-0.181 0.1 0.011 0.01c-0.061 0.04-0.12 0.08-0.19 0.11l-5.7 3.27c1.46-1.12 1.88-2.84 1.87-4.64v-73.81c0.01-0.27 0-0.54-0.02-0.81l1.449-0.09 3.07-1.68h1.55z" fill="#424242"/>
        <path d="m28.275-128.56-0.26-0.48-0.12-0.53v-0.55l0.12-0.42 0.3-0.24 1.96-1.18 0.03 0.05 0.35-0.13 0.421 0.07 0.479 0.29 0.42 0.37 0.36 0.53h0.01l1.79 3.12c1.11 2.14 2.02 4.24 2.15 6.63 0.02 0.27 0.029 0.54 0.02 0.81v73.81c0.01 1.8-0.41 3.52-1.87 4.64l-0.03 0.02-0.329 0.19-0.011-0.02-1.689 1.02-0.03-0.04-2.04 1.27v-0.07h-0.01l0.6-0.42 0.601-0.84 0.42-1.02 0.3-1.14 0.13-1.32v-73.8c-0.08-2.3-0.97-5.44-2.229-7.38l-1.851-3.24h8e-3z" fill="#212121"/>
        <path d="m32.345-117.04v72.9l-0.13 1.32-0.3 1.14-0.42 1.02-0.601 0.84-0.6 0.42-0.05 0.03-0.471 0.29-5.37 3.08c1.45-1.11 1.921-2.87 1.87-4.65v-73.81c0.011-0.27 0-0.54-0.02-0.81l1.46-0.09 3.06-1.68h1.572z" fill="#424242"/>
        <path d="m24.045-35.818-1.7 1.08-0.03-0.04-1.859 1.1c1.38-1 1.819-3.06 1.859-4.64v-73.8c-0.08-2.5-0.93-5.29-2.22-7.44h0.01l-1.859-3.18 0.02-0.01-0.27-0.53-0.11-0.54v-0.48l0.11-0.42 0.31-0.3 1.94-1.18 0.029 0.04 0.36-0.12 0.42 0.12 0.48 0.24 0.42 0.43 0.359 0.47 1.801 3.12c1.09 2.06 2.01 4.29 2.14 6.63 0.02 0.27 0.03 0.54 0.02 0.81v73.81c0.051 1.78-0.42 3.54-1.87 4.65l-0.35 0.2-0.01-0.02z" fill="#212121"/>
        <path d="m-87.975-156.25 0.01 0.03-1.32 0.84-1.08 0.96-0.82 1.06c-1.9-2.9-0.84-6.28 3.22-8.68l-0.01-0.03 109.69-63.29 0.6 1.04v2.94l0.511 1.21c-0.171 0.09-0.341 0.19-0.511 0.29l-110.29 63.63z" fill="#424242"/>
        <path d="m22.315-111.28v72.96c-0.04 1.58-0.479 3.64-1.859 4.64l-0.181 0.1 0.011 0.01c-0.061 0.04-0.12 0.08-0.19 0.11l0.01 0.01-5.72 3.28c1.41-1.09 1.94-2.93 1.88-4.66v-73.87c0-0.25 0-0.51-0.02-0.75l1.449-0.09 3.07-1.74h1.55z" fill="#424242"/>
        <path d="m14.015-29.998-1.75 1.03-0.03-0.05-1.97 1.2-0.01-0.02 0.6-0.46 0.601-0.78 0.42-1.02 0.3-1.14 0.06-1.32v-73.8c0.091-2.26-0.97-5.52-2.159-7.44l-1.86-3.17 0.02-0.01-0.26-0.47-0.12-0.61v-0.48l0.12-0.41 0.3-0.25 1.96-1.25 0.03 0.05 0.351-0.06 0.42 0.06 0.42 0.3 0.479 0.36 0.3 0.54 1.86 3.12h0.01c1.09 2.13 2 4.23 2.141 6.63 0.02 0.24 0.02 0.5 0.02 0.75v73.87c0.061 1.73-0.47 3.57-1.88 4.66l-0.35 0.2-0.023-0.03z" fill="#212121"/>
        <path d="m9.025-27.088-4.659 2.67c1.449-1.11 1.92-2.87 1.869-4.65v-73.81c0.011-0.27 0-0.54-0.02-0.81l1.46-0.09 3.06-1.67h1.5v72.89l-0.06 1.32-0.3 1.14-0.42 1.02-0.601 0.78-0.6 0.46-0.18 0.14-1.049 0.61z" fill="#424242"/>
        <path d="m-1.775-111.17-0.27-0.53-0.11-0.54v-0.54l0.11-0.36 0.31-0.3 1.94-1.18 0.029 0.04 0.36-0.12 0.42 0.12 0.42 0.24 0.42 0.42 0.36 0.48 1.86 3.12c1.09 2.06 2.01 4.29 2.14 6.63 0.02 0.27 0.03 0.54 0.02 0.81v73.81c0.051 1.78-0.42 3.54-1.869 4.65l-0.351 0.2-0.01-0.02-1.76 1.08-0.03-0.04-1.98 1.21-0.01-0.02 0.61-0.46 0.6-0.85 0.42-0.96 0.3-1.19 0.061-1.27v-73.86c0.08-2.3-0.97-5.42-2.15-7.37l-1.859-3.19 0.019-0.01z" fill="#212121"/>
        <g fill="none" stroke="#000" stroke-linecap="round" stroke-linejoin="round" stroke-miterlimit="10">
          <polyline points="-140.46 -116.44 -163.72 -103.03 -259.8 -47.618" stroke-width="1.44"/>
          <polyline points="-90.185 -89.618 -112.92 -102.72 -112.98 -102.76" stroke-width="1.44"/>
          <path d="m-135.9-116.02c-1.32-0.7-3.19-1.37-4.57-0.42" stroke-width="1.44"/>
          <path d="m-74.825 1.102c0.01 0 0.01-0.01 0.02-0.01 1.55-0.93 1.81-2.47 1.91-4.13" stroke-width="1.44"/>
          <line x1="-74.825" x2="-85.745" y1="-65.968" y2="-84.878" stroke-width="1.44"/>
          <path d="m-72.895-59.728c-0.18-2.64-0.65-3.92-1.93-6.24" stroke-width="1.44"/>
          <path d="m-85.685-84.818c-0.01-0.02-0.03-0.05-0.04-0.07-1.33-2.13-2.28-3.36-4.46-4.73" stroke-width="1.44"/>
          <polyline points="-72.895 -3.038 -72.895 -59.678 -72.895 -59.728" stroke-width="1.44"/>
          <polyline points="-256.2 -42.938 -233.42 -29.818 -233.4 -29.798" stroke-width="1.44"/>
          <path d="m-199.32 69.622c1.73 0.99 3.39 1.221 5.23 0.36" stroke-width="1.44"/>
          <line x1="-266.77" x2="-199.32" y1="30.622" y2="69.622" stroke-width="1.44"/>
          <line x1="-76.865" x2="-188.34" y1="-.758" y2="63.562" stroke-width=".72"/>
          <polyline points="-158.7 9.562 -159.54 9.502 -160.38 9.262" stroke-width=".72"/>
          <polyline points="-155.4 8.362 -155.52 8.552 -156.12 8.962 -156.84 9.272" stroke-width=".72"/>
          <polyline points="-156.72 36.442 -156.12 36.142 -155.52 35.722 -155.34 35.421" stroke-width=".72"/>
          <polyline points="-160.26 36.512 -159.54 36.692 -158.58 36.742" stroke-width=".72"/>
          <line x1="-94.145" x2="-205.62" y1="-87.328" y2="-23.018" stroke-width=".72"/>
          <line x1="-139.87" x2="-251.34" y1="-113.74" y2="-49.408" stroke-width=".72"/>
          <polyline points="-160.38 37.772 -160.74 37.402 -161.04 36.862 -161.1 36.152" stroke-width="1.44"/>
          <polyline points="-161.1 8.962 -161.04 8.122 -160.74 7.282 -160.38 6.512 -159.84 5.722 -159.24 5.072 -158.58 4.592 -157.98 4.352 -157.32 4.282 -156.84 4.462" stroke-width="1.44"/>
          <line x1="-78.725" x2="-190.2" y1="-63.698" y2=".622" stroke-width=".72"/>
          <line x1="-89.645" x2="-201.06" y1="-82.538" y2="-18.218" stroke-width=".72"/>
          <line x1="-76.865" x2="-188.34" y1="-57.398" y2="6.922" stroke-width=".72"/>
          <polyline points="-155.04 7.532 -155.16 6.562 -155.52 5.722 -156.12 5.012 -156.84 4.462" stroke-width="1.44"/>
          <polyline points="-155.04 34.702 -155.04 7.532 -155.04 7.462" stroke-width="1.44"/>
          <polyline points="-160.38 37.772 -159.54 38.122 -158.58 38.242 -157.68 38.122 -156.84 37.772" stroke-width="1.44"/>
          <polyline points="-113.1 -102.88 -135.9 -116.03 -135.96 -116.07" stroke-width="1.44"/>
          <polyline points="-112.92 -102.7 -113.1 -102.6 -232.16 -33.908 -232.2 -33.878" stroke-width="1.44"/>
          <polyline points="-113.1 -102.88 -113.1 -102.6 -113.1 -102.57" stroke-width="1.44"/>
          <polyline points="-233.16 -29.908 -233.4 -29.828 -233.42 -29.818 -233.46 -29.798 -233.46 -29.798" stroke-width="1.44"/>
          <line x1="-113.1" x2="-232.45" y1="-102.88" y2="-33.988" stroke-width="1.44"/>
          <line x1="-233.16" x2="-211.7" y1="-29.618" y2="-17.238" stroke-width="1.44"/>
          <polyline points="-233.16 -29.618 -233.16 -29.638 -233.16 -29.908 -233.16 -32.138 -233.16 -32.198" stroke-width="1.44"/>
          <polyline points="-161.1 8.962 -161.1 36.142 -161.1 36.152" stroke-width="1.44"/>
          <polyline points="-271.08 -40.118 -271.08 -40.058 -270.96 -39.698" stroke-width=".72"/>
          <polyline points="-270.86 -41.128 -270.9 -41.018 -271.02 -40.718" stroke-width=".72"/>
          <polyline points="-260.22 -46.408 -260.22 -46.298 -260.1 -45.988" stroke-width=".72"/>
          <polyline points="-259.92 -47.378 -260.04 -47.308 -260.16 -47.008" stroke-width=".72"/>
          <polyline points="-256.02 -46.058 -256.14 -45.938 -256.14 -45.638" stroke-width=".72"/>
          <polyline points="-255.42 -46.948 -255.6 -46.828 -255.72 -46.598" stroke-width=".72"/>
          <polyline points="-194.04 69.982 -86.015 7.522 -74.825 1.052" stroke-width="1.44"/>
          <polyline points="-210.3 -19.658 -210.36 -19.538 -210.42 -19.238" stroke-width=".72"/>
          <polyline points="-209.7 -20.558 -209.82 -20.438 -210 -20.198" stroke-width=".72"/>
          <line x1="-205.38" x2="-206.28" y1="-15.698" y2="-15.218" stroke-width=".72"/>
          <line x1="-194.52" x2="-195.41" y1="3.142" y2="3.622" stroke-width=".72"/>
          <polyline points="-193.56 9.381 -193.74 9.381 -193.98 9.262" stroke-width=".72"/>
          <polyline points="-192.48 9.322 -192.66 9.392 -192.9 9.392" stroke-width=".72"/>
          <polyline points="-193.56 66.032 -193.74 66.032 -193.98 65.902" stroke-width=".72"/>
          <polyline points="-192.48 65.962 -192.66 66.032 -192.9 66.032" stroke-width=".72"/>
          <line x1="-199.55" x2="-199.55" y1="69.092" y2="68.902" stroke-width=".72"/>
          <line x1="-199.44" x2="-199.55" y1="69.381" y2="69.272" stroke-width=".72"/>
          <line x1="-199.32" x2="-199.32" y1="69.622" y2="69.512" stroke-width=".72"/>
          <line x1="-267.05" x2="-267.05" y1="30.092" y2="29.902" stroke-width=".72"/>
          <polyline points="-266.94 30.442 -267 30.381 -267 30.272" stroke-width=".72"/>
          <line x1="-266.77" x2="-266.89" y1="30.622" y2="30.622" stroke-width=".72"/>
          <line x1="-272.58" x2="-272.46" y1="20.542" y2="20.612" stroke-width=".72"/>
          <polyline points="-272.82 20.242 -272.76 20.362 -272.7 20.432" stroke-width=".72"/>
          <line x1="-272.58" x2="-272.46" y1="-36.098" y2="-36.038" stroke-width=".72"/>
          <polyline points="-272.82 -36.398 -272.76 -36.278 -272.7 -36.218" stroke-width=".72"/>
          <polyline points="-233.4 -32.258 -233.4 -29.828 -233.4 -29.798" stroke-width="1.44"/>
          <line x1="-237.37" x2="-252.37" y1="-34.538" y2="-43.228" stroke-width=".72"/>
          <polyline points="-272.28 -37.408 -272.4 -37.178 -272.46 -36.448" stroke-width=".72"/>
          <polyline points="-271.32 -39.158 -271.56 -38.968 -271.92 -38.438" stroke-width=".72"/>
          <line x1="-262.8" x2="-268.27" y1="-44.198" y2="-41.078" stroke-width=".72"/>
          <polyline points="-258.66 -46.118 -259.2 -46.118 -259.62 -45.938" stroke-width=".72"/>
          <polyline points="-256.68 -45.638 -257.22 -45.938 -257.58 -45.988" stroke-width=".72"/>
          <polyline points="-270.06 27.202 -269.76 27.562 -268.92 28.532 -268.14 29.242" stroke-width=".72"/>
          <polyline points="-272.34 22.112 -272.16 22.942 -271.74 24.131 -271.74 24.142 -271.5 24.692" stroke-width=".72"/>
          <line x1="-272.46" x2="-272.46" y1="-31.468" y2="16.112" stroke-width=".72"/>
          <line x1="-194.16" x2="-194.16" y1="61.282" y2="13.642" stroke-width=".72"/>
          <polyline points="-194.94 68.612 -194.52 67.772 -194.28 66.862 -194.28 66.742" stroke-width=".72"/>
          <polyline points="-198.6 69.381 -197.76 69.622 -196.86 69.692 -196.74 69.622" stroke-width=".72"/>
          <line x1="-263.11" x2="-203.46" y1="32.242" y2="66.692" stroke-width=".72"/>
          <polyline points="-208.92 -17.798 -209.4 -18.278 -209.94 -18.628" stroke-width=".72"/>
          <polyline points="-207.06 -15.638 -207.48 -16.238 -207.84 -16.718" stroke-width=".72"/>
          <line x1="-198.05" x2="-204.41" y1="-.098" y2="-11.138" stroke-width=".72"/>
          <polyline points="-194.94 5.672 -195.06 5.192 -195.48 4.402" stroke-width=".72"/>
          <polyline points="-194.22 8.422 -194.28 7.882 -194.46 7.102" stroke-width=".72"/>
          <line x1="-214.44" x2="-229.32" y1="-21.328" y2="-29.908" stroke-width=".72"/>
          <polyline points="-232.38 -33.988 -232.74 -33.698 -233.1 -33.278 -233.34 -32.738 -233.4 -32.258" stroke-width="1.44"/>
          <polyline points="-256.74 -47.798 -256.2 -47.678 -255.66 -47.378" stroke-width=".72"/>
          <polyline points="-259.14 -47.858 -258.96 -47.918 -258.12 -48.038 -258 -48.038" stroke-width=".72"/>
          <line x1="-251.23" x2="-236.28" y1="-44.858" y2="-36.278" stroke-width=".72"/>
          <polyline points="-270.6 -41.318 -259.82 -47.638 -259.74 -47.678" stroke-width="1.44"/>
          <line x1="-192.18" x2="-192.18" y1="13.772" y2="61.342" stroke-width=".72"/>
          <polyline points="-192.9 68.782 -193.38 69.512 -193.62 69.692" stroke-width=".72"/>
          <polyline points="-192.24 66.512 -192.24 66.932 -192.42 67.592" stroke-width=".72"/>
          <polyline points="-156.84 37.772 -156.12 37.222 -155.52 36.442 -155.16 35.612 -155.04 34.702" stroke-width="1.44"/>
          <polyline points="-206.28 -17.908 -205.68 -17.198 -205.32 -16.648" stroke-width=".72"/>
          <polyline points="-208.74 -20.258 -208.44 -20.068 -207.48 -19.228" stroke-width=".72"/>
          <line x1="-202.62" x2="-196.32" y1="-12.038" y2="-1.058" stroke-width=".72"/>
          <polyline points="-192.48 6.802 -192.24 8.012 -192.24 8.422" stroke-width=".72"/>
          <polyline points="-193.62 3.622 -193.38 4.102 -193.02 5.122" stroke-width=".72"/>
          <polyline points="-233.16 -32.138 -233.1 -32.618 -232.86 -33.098 -232.56 -33.578 -232.14 -33.878" stroke-width="1.44"/>
          <line x1="-228.18" x2="-213.37" y1="-31.598" y2="-23.018" stroke-width=".72"/>
          <line x1="26.345" x2="24.905" y1="-245.26" y2="-244.6" stroke-width="1.44"/>
          <line x1="324.11" x2="333.66" y1="-253.73" y2="-259.3" stroke-width="1.44"/>
          <line x1="120.18" x2="121.44" y1="-91.238" y2="-92.138" stroke-width="1.44"/>
          <polyline points="303.54 -241.89 304.52 -242.46 313.56 -247.72" stroke-width="1.44"/>
          <polyline points="283.5 -230.32 284.38 -230.84 293.52 -236.14" stroke-width="1.44"/>
          <polyline points="263.46 -218.74 264.26 -219.21 273.48 -224.56" stroke-width="1.44"/>
          <polyline points="243.42 -207.16 243.96 -207.48 253.44 -212.97" stroke-width="1.44"/>
          <line x1="228.96" x2="233.4" y1="-198.82" y2="-201.45" stroke-width="1.44"/>
          <polyline points="181.98 -290.49 172.5 -285 172.44 -284.97" stroke-width="1.44"/>
          <line x1="202.02" x2="192.16" y1="-302.08" y2="-296.38" stroke-width="1.44"/>
          <polyline points="222.06 -313.6 212.33 -308.04 211.98 -307.84" stroke-width="1.44"/>
          <line x1="242.1" x2="232.02" y1="-325.18" y2="-319.42" stroke-width="1.44"/>
          <line x1="262.14" x2="252.05" y1="-336.76" y2="-330.99" stroke-width="1.44"/>
          <line x1="282.18" x2="272.11" y1="-348.34" y2="-342.58" stroke-width="1.44"/>
          <line x1="305.33" x2="292.14" y1="-361.72" y2="-354.1" stroke-width="1.44"/>
          <polyline points="-202.98 18.921 -203.28 18.732 -203.34 18.692" stroke-width="1.44"/>
          <polyline points="-203.28 18.742 -203.28 18.732 -202.98 18.512" stroke-width="1.44"/>
          <line x1="-203.28" x2="-203.28" y1="18.742" y2="19.112" stroke-width="1.44"/>
          <line x1="-238.38" x2="-228.37" y1="10.112" y2="15.862" stroke-width="1.44"/>
          <line x1="-238.38" x2="-238.38" y1="10.112" y2="10.462" stroke-width="1.44"/>
          <polyline points="-228.36 15.862 -207.06 3.542 -207 3.512" stroke-width="1.44"/>
          <line x1="-228.37" x2="-228.37" y1="15.862" y2="16.222" stroke-width="1.44"/>
          <polyline points="-217.02 -2.258 -217.04 -2.248 -238.4 10.092 -238.44 10.112" stroke-width="1.44"/>
          <polyline points="-208.98 42.921 -208.96 42.912 -207.34 40.752 -207.3 40.702" stroke-width="1.44"/>
          <line x1="-207.3" x2="-202.98" y1="40.772" y2="43.222" stroke-width="1.44"/>
          <polyline points="-211.98 38.062 -213.76 40.131 -213.76 40.152 -213.78 40.171" stroke-width="1.44"/>
          <polyline points="-227.76 32.062 -227.76 32.052 -226.06 29.872 -226.02 29.842" stroke-width="1.44"/>
          <polyline points="-226.02 29.902 -212 38.042 -211.98 38.062" stroke-width="1.44"/>
          <polyline points="-263.52 -29.078 -260.74 -27.478 -257.52 -25.598" stroke-width="1.44"/>
          <polyline points="-260.76 -27.448 -260.76 9.812 -260.76 9.832 -260.76 9.862" stroke-width="1.44"/>
          <polyline points="-252.78 17.612 -252.76 17.592 -251.08 15.421 -251.04 15.381" stroke-width="1.44"/>
          <polyline points="-251.04 15.442 -237.1 23.522 -237.06 23.542" stroke-width="1.44"/>
          <polyline points="-237.06 23.542 -238.84 25.662 -238.84 25.682 -238.86 25.702" stroke-width="1.44"/>
          <line x1="-260.77" x2="-255.78" y1="9.862" y2="12.742" stroke-width="1.44"/>
          <polyline points="-255.78 12.742 -257.56 14.862 -257.56 14.872 -257.58 14.902" stroke-width="1.44"/>
          <polyline points="-257.52 14.902 -257.56 14.872 -263.5 11.412 -263.52 11.402 -263.58 11.362" stroke-width="1.44"/>
          <polyline points="-238.8 25.702 -238.84 25.682 -238.84 25.682 -252.76 17.592 -252.84 17.542" stroke-width="1.44"/>
          <polyline points="-213.72 40.171 -213.76 40.152 -213.76 40.152 -227.76 32.052 -227.82 32.012" stroke-width="1.44"/>
          <polyline points="-202.98 46.402 -208.96 42.912 -209.04 42.862" stroke-width="1.44"/>
          <polyline points="-202.98 5.902 -202.98 18.512 -202.98 18.921 -202.98 19.282 -202.98 32.842 -202.98 33.982 -202.98 38.242 -202.98 43.222 -202.98 46.402" stroke-width="1.44"/>
          <polyline points="-263.52 11.421 -263.52 11.402 -263.52 -29.078 -263.52 -29.138" stroke-width="1.44"/>
          <polyline points="-208.98 2.422 -207.06 3.542 -205.72 4.302 -202.98 5.902" stroke-width="1.44"/>
          <polyline points="-227.76 -8.438 -223.46 -5.948 -222.44 -5.358 -217.04 -2.248 -213.72 -0.328" stroke-width="1.44"/>
          <line x1="-252.78" x2="-238.8" y1="-22.898" y2="-14.798" stroke-width="1.44"/>
          <line x1="-208.13" x2="-197.28" y1="-14.128" y2="4.702" stroke-width="1.44"/>
          <polyline points="-197.28 4.702 -196.74 5.782 -196.44 6.932 -196.32 7.942" stroke-width="1.44"/>
          <polyline points="-196.32 7.942 -196.32 7.952 -196.32 64.592" stroke-width="1.44"/>
          <path d="m-196.32 64.592c-0.06 1.979-1.47 2.989-3.23 1.85" stroke-width="1.44"/>
          <polyline points="-199.56 66.442 -267.04 27.492 -267.12 27.442" stroke-width="1.44"/>
          <polyline points="-270.3 -34.778 -270.18 -35.678 -269.88 -36.398 -269.34 -36.878" stroke-width="1.44"/>
          <polyline points="-269.34 -36.878 -258.5 -43.218 -258.48 -43.228" stroke-width="1.44"/>
          <polyline points="-258.48 -43.178 -257.82 -43.358 -257.04 -43.298 -256.2 -42.938" stroke-width="1.44"/>
          <polyline points="-256.2 -42.938 -233.46 -29.798 -233.16 -29.638 -211.7 -17.238 -210.48 -16.538" stroke-width="1.44"/>
          <polyline points="-210.48 -16.538 -209.64 -15.928 -208.86 -15.098 -208.14 -14.138 -208.14 -14.128" stroke-width="1.44"/>
          <polyline points="-270.3 21.862 -270.3 -34.778 -270.3 -34.828" stroke-width="1.44"/>
          <path d="m-267.06 27.512c-1.35-0.801-2.5-2.37-2.99-3.98-0.17-0.56-0.26-1.13-0.25-1.67" stroke-width="1.44"/>
          <polyline points="-227.76 32.062 -238.82 25.671 -238.84 25.662 -238.86 25.642" stroke-width="1.44"/>
          <polyline points="-252.78 17.612 -257.5 14.892 -257.56 14.862 -257.58 14.842" stroke-width="1.44"/>
          <polyline points="-208.98 42.921 -213.74 40.142 -213.76 40.131 -213.78 40.112" stroke-width="1.44"/>
          <line x1="-213.73" x2="-208.98" y1="-.328" y2="2.432" stroke-width="1.44"/>
          <polyline points="-238.8 -14.798 -228.46 -8.838 -227.76 -8.438" stroke-width="1.44"/>
          <line x1="-257.52" x2="-252.78" y1="-25.598" y2="-22.898" stroke-width="1.44"/>
          <polyline points="-227.34 16.822 -205.72 4.302 -205.68 4.282" stroke-width="1.44"/>
          <line x1="-207.3" x2="-202.98" y1="40.772" y2="38.242" stroke-width="1.44"/>
          <polyline points="-228.48 -8.798 -260.76 9.832 -260.82 9.862" stroke-width="1.44"/>
          <polyline points="-257.52 14.902 -257.5 14.892 -222.44 -5.358 -222.42 -5.378" stroke-width="1.44"/>
          <polyline points="-255.78 12.742 -223.46 -5.948 -223.44 -5.968" stroke-width="1.44"/>
          <polyline points="-202.98 32.842 -212 38.042 -212.04 38.062" stroke-width="1.44"/>
          <polyline points="-205.32 17.962 -203.28 19.112 -202.98 19.282" stroke-width="1.44"/>
          <polyline points="-226.02 29.902 -205.36 17.921 -205.32 17.902" stroke-width="1.44"/>
          <polyline points="-202.98 33.982 -213.74 40.142 -213.76 40.152 -213.78 40.171" stroke-width="1.44"/>
          <polyline points="-226.32 17.421 -226.32 17.432 -226.32 18.562" stroke-width="1.44"/>
          <polyline points="-226.32 17.421 -226.34 17.421 -237.1 23.522 -237.12 23.542" stroke-width="1.44"/>
          <polyline points="-240.36 9.322 -238.38 10.462 -228.38 16.242 -227.36 16.842 -226.34 17.421 -226.32 17.432" stroke-width="1.44"/>
          <polyline points="-251.04 15.442 -240.4 9.282 -240.36 9.262" stroke-width="1.44"/>
          <polyline points="-226.32 18.562 -238.82 25.671 -238.84 25.682 -238.86 25.702" stroke-width="1.44"/>
          <polyline points="-263.52 11.421 -263.5 11.412 -260.76 9.812 -260.76 9.802" stroke-width="1.44"/>
          <path d="m-272.88 20.062v0.06c0.04 0.98 0.2 1.95 0.46 2.891 0.87 3.109 2.92 5.88 5.66 7.609" stroke-width="1.44"/>
          <polyline points="-270.6 -41.318 -270.84 -41.138 -270.86 -41.128 -271.44 -40.658 -272.1 -39.758 -272.58 -38.798 -272.88 -37.718 -272.88 -36.578 -272.88 -36.518 -272.88 20.062" stroke-width="1.44"/>
          <line x1="120.72" x2="120.3" y1="-177.7" y2="-177.46" stroke-width=".72"/>
          <line x1="122.58" x2="122.28" y1="-170.08" y2="-169.9" stroke-width=".72"/>
          <line x1="122.58" x2="122.28" y1="-96.278" y2="-96.098" stroke-width=".72"/>
          <line x1="120.9" x2="120.54" y1="-91.838" y2="-91.598" stroke-width=".72"/>
          <line x1="121.08" x2="120.72" y1="-91.898" y2="-91.658" stroke-width=".72"/>
          <polyline points="343.68 -264.99 343.7 -265 356.82 -272.68" stroke-width="1.44"/>
          <line x1="110.16" x2="109.74" y1="-196.06" y2="-195.82" stroke-width=".72"/>
          <line x1="227.52" x2="216.84" y1="-239.38" y2="-257.74" stroke-width="1.44"/>
          <polyline points="228.96 -234.04 228.78 -235.89 228.3 -237.7 227.52 -239.38" stroke-width="1.44"/>
          <path d="m157.86-293.43c-0.02-0.01-0.04-0.02-0.06-0.04-2.51-1.56-5.851-1.75-8.641-0.82-0.189 0.06-0.359 0.12-0.539 0.19" stroke-width="1.44"/>
          <polyline points="228.96 -181.9 228.96 -198.82 228.96 -234.04 228.96 -234.1" stroke-width="1.44"/>
          <path d="m224.88-173.56c0.01-0.01 0.02-0.02 0.03-0.02 2.52-1.92 4.05-5.15 4.04-8.32" stroke-width="1.44"/>
          <line x1="30.305" x2="30.605" y1="-244.06" y2="-244.24" stroke-width=".72"/>
          <line x1="104.46" x2="104.16" y1="-201.45" y2="-201.34" stroke-width=".72"/>
          <polyline points="264.12 -312.58 264.12 -299.26 264.12 -299.2" stroke-width="1.44"/>
          <path d="m264.12-299.2c10.51 9.31 18.739 24.82 18.72 39.06v0.19" stroke-width="1.44"/>
          <line x1="262.92" x2="264.12" y1="-298.54" y2="-299.26" stroke-width="1.44"/>
          <path d="m302.1-279.7v-0.02c-0.01-0.01-0.01-0.02-0.01-0.03-2.79-13.75-12.27-28.75-24.6-35.83" stroke-width="1.44"/>
          <polyline points="313.68 -273.04 313.64 -273.07 302.1 -279.72 302.08 -279.74 302.04 -279.76" stroke-width="1.44"/>
          <polyline points="300.9 -279.04 302.08 -279.74 302.1 -279.75 302.1 -279.76" stroke-width="1.44"/>
          <polyline points="148.62 -294.1 26.335 -245.28 26.275 -245.26" stroke-width="1.44"/>
          <polyline points="304.2 -335.74 304.2 -322.42 304.2 -322.36" stroke-width="1.44"/>
          <path d="m304.2-322.36c10.45 9.1 18.86 25.16 18.73 39.16v0.08" stroke-width="1.44"/>
          <polyline points="303 -321.64 303.02 -321.65 304.2 -322.42" stroke-width="1.44"/>
          <line x1="54.465" x2="54.116" y1="-53.338" y2="-53.138" stroke-width="1.44"/>
          <polyline points="120 -91.118 119.96 -91.098 54.475 -53.348" stroke-width="1.44"/>
          <polyline points="121.44 -92.078 121.48 -92.098 224.88 -173.62" stroke-width="1.44"/>
          <line x1="120.18" x2="119.94" y1="-91.238" y2="-91.118" stroke-width="1.44"/>
          <path d="m342.18-302.86v-0.02c-0.01-0.01-0.01-0.02-0.01-0.03-2.9-13.92-12.18-28.55-24.6-35.83" stroke-width="1.44"/>
          <polyline points="353.76 -296.2 353.72 -296.23 342.18 -302.88 342.16 -302.9 342.12 -302.92" stroke-width="1.44"/>
          <polyline points="340.98 -302.2 342.16 -302.9 342.18 -302.91 342.18 -302.92" stroke-width="1.44"/>
          <polyline points="122.94 -95.798 122.94 -95.378 122.88 -94.648" stroke-width=".72"/>
          <line x1="126.54" x2="222.9" y1="-99.278" y2="-175.24" stroke-width=".72"/>
          <path d="m262.02-256.6c0-0.01 0-0.02-0.01-0.03v-0.02c-2.79-13.69-12.29-28.75-24.58-35.77" stroke-width="1.44"/>
          <polyline points="273.6 -249.88 273.56 -249.91 262 -256.63 261.98 -256.64 261.96 -256.66" stroke-width="1.44"/>
          <polyline points="260.82 -255.88 261.98 -256.64 262 -256.65 262.02 -256.66" stroke-width="1.44"/>
          <line x1="122.82" x2="122.82" y1="-170.26" y2="-170.2" stroke-width=".72"/>
          <line x1="122.94" x2="123" y1="-170.32" y2="-170.26" stroke-width=".72"/>
          <line x1="122.82" x2="122.82" y1="-165.64" y2="-100.9" stroke-width=".72"/>
          <path d="m305.34-361.72c8.66-4.49 18.1-2.2 26.67 3.1 10.76 6.64 20.13 18.02 24.81 26.61 5.141 8.28 10.261 22.13 10.61 34.79 0.3 10.09-2.43 19.42-10.58 24.58-0.01 0.01-0.02 0.01-0.03 0.02" stroke-width="1.44"/>
          <polyline points="224.04 -289.42 224.04 -276.1 224.04 -276.04" stroke-width="1.44"/>
          <path d="m224.04-276.04c10.52 9.26 18.77 24.9 18.72 39.09v0.09" stroke-width="1.44"/>
          <line x1="222.84" x2="224.04" y1="-275.38" y2="-276.1" stroke-width="1.44"/>
          <line x1="-72.785" x2="-66.425" y1="-90.518" y2="-94.238" stroke-width=".72"/>
          <line x1="-62.165" x2="-55.805" y1="-72.098" y2="-75.818" stroke-width=".72"/>
          <polyline points="-72.665 -97.718 -71.935 -98.738 -70.865 -99.878 -70.085 -100.54" stroke-width=".72"/>
          <polyline points="-75.845 -90.578 -75.665 -91.468 -75.185 -93.038 -74.705 -94.298" stroke-width=".72"/>
          <polyline points="-146.64 -140.44 -145.86 -141.4 -144.78 -142.54 -144 -143.2" stroke-width=".72"/>
          <polyline points="-149.76 -133.3 -149.58 -134.2 -149.16 -135.7 -148.62 -136.95" stroke-width=".72"/>
          <polyline points="-61.625 7.642 -62.165 7.342 -63.365 6.262 -64.385 5.122" stroke-width=".72"/>
          <polyline points="-54.365 9.202 -55.135 9.392 -56.575 9.452 -58.015 9.272 -58.075 9.272" stroke-width=".72"/>
          <polyline points="-72.305 13.822 -72.785 13.462 -74.045 12.381 -75.005 11.242" stroke-width=".72"/>
          <polyline points="-65.045 15.322 -65.765 15.512 -67.205 15.572 -68.635 15.381 -68.705 15.381" stroke-width=".72"/>
          <polyline points="-75.785 11.722 -75.965 11.062 -75.965 10.402" stroke-width=".72"/>
          <polyline points="-74.395 14.192 -74.585 14.002 -75.185 13.222 -75.245 13.112" stroke-width=".72"/>
          <polyline points="121.2 -174.7 120.78 -175.78 120.42 -176.44" stroke-width=".72"/>
          <polyline points="122.1 -170.86 122.1 -171.22 121.8 -172.72" stroke-width=".72"/>
          <polyline points="-151.14 -140.56 -150.6 -141.88 -149.82 -143.07 -149.22 -143.73" stroke-width=".72"/>
          <polyline points="-150.78 -133.06 -151.26 -134.38 -151.56 -135.94 -151.62 -136.72" stroke-width=".72"/>
          <polyline points="-161.82 -134.44 -161.22 -135.76 -160.44 -136.9 -159.84 -137.56" stroke-width=".72"/>
          <polyline points="-161.46 -126.94 -161.88 -128.2 -162.18 -129.82 -162.24 -130.54" stroke-width=".72"/>
          <polyline points="-163.2 -127.6 -163.56 -128.56 -163.62 -128.86" stroke-width=".72"/>
          <polyline points="-161.22 -125.62 -161.7 -125.92 -162.24 -126.46" stroke-width=".72"/>
          <line x1="216.12" x2="214.55" y1="-257.26" y2="-256.36" stroke-width=".72"/>
          <line x1="118.26" x2="60.175" y1="-167.56" y2="-134.08" stroke-width=".72"/>
          <line x1="122.22" x2="122.22" y1="-100.6" y2="-165.4" stroke-width=".72"/>
          <line x1="226.68" x2="225.18" y1="-238.89" y2="-238.06" stroke-width=".72"/>
          <polyline points="211.38 -262.06 212.22 -261.93 212.52 -261.82" stroke-width=".72"/>
          <polyline points="208.98 -261.64 209.4 -261.82 210.06 -261.99" stroke-width=".72"/>
          <polyline points="156.24 -293.92 157.08 -293.8 157.38 -293.68" stroke-width=".72"/>
          <polyline points="153.78 -293.49 154.2 -293.68 154.92 -293.8" stroke-width=".72"/>
          <polyline points="121.92 -94.058 122.1 -94.718 122.17 -95.378" stroke-width=".72"/>
          <line x1="120.6" x2="120.79" y1="-91.598" y2="-91.718" stroke-width=".72"/>
          <line x1="122.88" x2="122.94" y1="-96.448" y2="-96.448" stroke-width=".72"/>
          <line x1="122.82" x2="122.88" y1="-96.398" y2="-96.328" stroke-width=".72"/>
          <polyline points="72.416 -208.3 42.366 -225.72 42.305 -225.76" stroke-width="1.44"/>
          <path d="m42.355-225.7c-5.91-3.14-14.14-3.19-20.04 0" stroke-width="1.44"/>
          <line x1="-87.965" x2="-57.895" y1="-150.45" y2="-133.12" stroke-width="1.44"/>
          <path d="m-57.895-133.12c5.52 3.22 14.52 3.25 20.03 0" stroke-width="1.44"/>
          <line x1="-37.865" x2="72.416" y1="-133.12" y2="-196.78" stroke-width="1.44"/>
          <path d="m72.416-196.72c0.01-0.01 0.02-0.01 0.029-0.02 1.44-0.89 2.511-1.88 3.2-2.93 1.9-2.91 0.86-6.22-3.229-8.63" stroke-width="1.44"/>
          <polyline points="-55.805 -68.558 -54.605 -68.678 -53.045 -69.098 -52.085 -69.398" stroke-width=".72"/>
          <polyline points="-63.545 -69.398 -62.705 -69.098 -61.135 -68.678 -59.825 -68.488" stroke-width=".72"/>
          <polyline points="-59.935 5.302 -61.135 5.122 -62.705 4.762 -63.665 4.402" stroke-width=".72"/>
          <polyline points="-52.205 4.462 -53.045 4.772 -54.605 5.122 -55.925 5.302" stroke-width=".72"/>
          <polyline points="22.315 -225.7 21.715 -225.36 -87.975 -162.07 -88.025 -162.04" stroke-width="1.44"/>
          <path d="m-87.965-162.04c-4.06 2.4-5.12 5.78-3.22 8.68 0.68 1.06 1.76 2.05 3.22 2.91" stroke-width="1.44"/>
          <path d="m42.355-219.88-0.06-0.03c-5.2-3.04-14.08-3.17-19.47-0.26-0.171 0.09-0.341 0.19-0.511 0.29" stroke-width="1.44"/>
          <line x1="72.416" x2="42.305" y1="-202.54" y2="-219.93" stroke-width="1.44"/>
          <polyline points="75.655 -199.66 75.645 -199.67 74.815 -200.68 73.735 -201.64 72.416 -202.54" stroke-width="1.44"/>
          <line x1="-87.965" x2="-87.965" y1="-157.78" y2="-160.66" stroke-width=".72"/>
          <line x1="22.315" x2="22.315" y1="-221.38" y2="-224.32" stroke-width=".72"/>
          <line x1="72.416" x2="72.416" y1="-204.04" y2="-206.92" stroke-width=".72"/>
          <line x1="42.355" x2="42.355" y1="-221.38" y2="-224.32" stroke-width=".72"/>
          <line x1="105.42" x2="-59.345" y1="-193.36" y2="-98.258" stroke-width=".72"/>
          <line x1="117.9" x2="111.79" y1="-181.3" y2="-191.86" stroke-width=".72"/>
          <polyline points="-87.965 -156.22 -89.285 -155.38 -90.365 -154.42 -91.185 -153.36 -91.205 -153.34" stroke-width="1.44"/>
          <polyline points="22.315 -219.88 -87.975 -156.25 -88.025 -156.22" stroke-width="1.44"/>
          <line x1="222.18" x2="216.05" y1="-241.54" y2="-252.1" stroke-width=".72"/>
          <polyline points="210.66 -259.84 209.58 -260.68 209.16 -260.92" stroke-width=".72"/>
          <polyline points="213.3 -256.84 212.94 -257.32 212.17 -258.34" stroke-width=".72"/>
          <line x1="204.36" x2="157.02" y1="-263.68" y2="-291.04" stroke-width=".72"/>
          <polyline points="150.24 -294.34 149.46 -294.34 149.16 -294.29 149.1 -294.28" stroke-width=".72"/>
          <polyline points="152.58 -293.56 152.22 -293.8 151.56 -294.04" stroke-width=".72"/>
          <polyline points="225.66 -234.99 225.24 -236.14 224.88 -236.74" stroke-width=".72"/>
          <polyline points="226.44 -231.1 226.44 -231.51 226.2 -233.01" stroke-width=".72"/>
          <line x1="226.44" x2="226.44" y1="-182.49" y2="-225.64" stroke-width=".72"/>
          <polyline points="226.32 -176.26 226.44 -176.86 226.44 -177.4" stroke-width=".72"/>
          <polyline points="225.36 -174.04 225.48 -174.15 225.96 -174.93 225.96 -174.99" stroke-width=".72"/>
          <polyline points="106.26 -199.54 105.24 -200.49 104.82 -200.74" stroke-width=".72"/>
          <polyline points="108.78 -196.54 108.48 -197.01 107.7 -198.04" stroke-width=".72"/>
          <line x1="100.08" x2="33.956" y1="-203.56" y2="-241.78" stroke-width=".72"/>
          <line x1="26.155" x2="-138.6" y1="-241.66" y2="-146.56" stroke-width=".72"/>
          <line x1="25.675" x2="25.375" y1="-244.84" y2="-244.72" stroke-width=".72"/>
          <polyline points="29.395 -244.3 28.916 -244.54 28.195 -244.72" stroke-width=".72"/>
          <line x1="104.82" x2="104.88" y1="-201.64" y2="-201.64" stroke-width=".72"/>
          <line x1="104.7" x2="104.76" y1="-201.58" y2="-201.51" stroke-width=".72"/>
          <line x1="30.775" x2="30.655" y1="-244.3" y2="-244.3" stroke-width=".72"/>
          <line x1="30.895" x2="30.956" y1="-244.36" y2="-244.3" stroke-width=".72"/>
          <line x1="-64.555" x2="100.14" y1="-103.9" y2="-199.06" stroke-width=".72"/>
          <polyline points="108.78 -198.51 109.5 -197.62 109.92 -196.95" stroke-width=".72"/>
          <polyline points="105.78 -201.16 106.14 -200.92 107.34 -200.01" stroke-width=".72"/>
          <line x1="34.675" x2="100.8" y1="-242.01" y2="-203.86" stroke-width=".72"/>
          <line x1="108.84" x2="204.42" y1="-203.92" y2="-259.24" stroke-width=".72"/>
          <line x1="222.48" x2="126.79" y1="-227.8" y2="-172.6" stroke-width=".72"/>
          <line x1="148.92" x2="35.036" y1="-291.58" y2="-246.04" stroke-width=".72"/>
          <line x1="29.395" x2="29.935" y1="-245.14" y2="-244.95" stroke-width=".72"/>
          <line x1="26.945" x2="27.175" y1="-245.38" y2="-245.43" stroke-width=".72"/>
          <line x1="112.68" x2="118.75" y1="-192.28" y2="-181.78" stroke-width=".72"/>
          <line x1="209.94" x2="114.25" y1="-253.66" y2="-198.45" stroke-width=".72"/>
          <line x1="124.98" x2="220.55" y1="-180.16" y2="-235.42" stroke-width=".72"/>
          <polyline points="122.76 -173.14 122.94 -171.82 122.94 -171.28" stroke-width=".72"/>
          <polyline points="121.5 -176.92 121.74 -176.38 122.22 -175.18" stroke-width=".72"/>
          <line x1="120.12" x2="120.18" y1="-177.34" y2="-177.34" stroke-width=".72"/>
          <line x1="120" x2="120.06" y1="-177.22" y2="-177.15" stroke-width=".72"/>
          <path d="m54.175-53.138c0.1-0.07 0.2-0.13 0.29-0.2 0-0.01 0.01-0.01 0.01-0.01 1.44-1.11 1.91-2.87 1.87-4.64" stroke-width="1.44"/>
          <polyline points="52.385 -52.118 52.416 -52.138 54.105 -53.158 54.175 -53.198" stroke-width="1.44"/>
          <line x1="48.465" x2="50.335" y1="-49.848" y2="-50.968" stroke-width="1.44"/>
          <line x1="50.445" x2="52.385" y1="-50.978" y2="-52.178" stroke-width="1.44"/>
          <path d="m52.385-55.718c-0.02 1.56-0.54 3.78-1.94 4.74-0.029 0.03-0.06 0.05-0.1 0.07-0.06 0.04-0.12 0.08-0.19 0.11" stroke-width="1.44"/>
          <line x1="48.275" x2="47.885" y1="-49.738" y2="-49.538" stroke-width="1.44"/>
          <polyline points="-101.76 -171.4 -100.9 -171.91 -99.965 -172.47" stroke-width="1.44"/>
          <polyline points="-91.745 -177.16 -90.885 -177.7 -89.935 -178.3" stroke-width="1.44"/>
          <polyline points="-81.725 -182.97 -80.815 -183.52 -79.925 -184.06" stroke-width="1.44"/>
          <polyline points="-61.685 -194.56 -60.965 -194.99 -59.885 -195.64" stroke-width="1.44"/>
          <polyline points="-51.665 -200.32 -50.735 -200.9 -49.865 -201.45" stroke-width="1.44"/>
          <polyline points="-71.705 -188.74 -70.825 -189.29 -69.895 -189.88" stroke-width="1.44"/>
          <polyline points="-59.885 -195.58 -59.615 -195.77 -59.465 -195.88" stroke-width="1.44"/>
          <polyline points="-49.435 -201.64 -49.625 -201.54 -49.915 -201.4" stroke-width="1.44"/>
          <polyline points="-69.475 -190.06 -69.655 -189.97 -69.955 -189.82" stroke-width="1.44"/>
          <polyline points="-89.935 -178.24 -89.855 -178.3 -89.515 -178.54" stroke-width="1.44"/>
          <polyline points="-79.925 -183.99 -79.645 -184.2 -79.505 -184.3" stroke-width="1.44"/>
          <path d="m52.385-129.52c-0.08-2.31-0.97-5.44-2.23-7.38" stroke-width="1.44"/>
          <path d="m54.175-139.24c1.229 2.38 2.22 4.71 2.17 7.44" stroke-width="1.44"/>
          <polyline points="-99.965 -172.42 -99.715 -172.6 -99.545 -172.72" stroke-width="1.44"/>
          <polyline points="50.345 -143.49 50.355 -143.5 50.695 -143.62 51.116 -143.49 51.595 -143.26 52.015 -142.83 52.375 -142.36" stroke-width="1.44"/>
          <line x1="48.355" x2="50.335" y1="-142.36" y2="-143.56" stroke-width="1.44"/>
          <polyline points="48.355 -140.02 48.055 -140.62 47.935 -141.16 47.935 -141.7 48.055 -142.12 48.355 -142.36" stroke-width="1.44"/>
          <path d="m40.315-137.74c0.971-0.26 1.551 0.42 2.04 1.14" stroke-width="1.44"/>
          <polyline points="38.345 -136.6 40.286 -137.78 40.315 -137.8" stroke-width="1.44"/>
          <polyline points="38.345 -134.26 38.305 -134.33 38.036 -134.8 37.916 -135.4 37.916 -135.88 38.036 -136.3 38.345 -136.6" stroke-width="1.44"/>
          <path d="m42.355-123.7c-0.08-2.5-0.93-5.29-2.22-7.44" stroke-width="1.44"/>
          <path d="m44.155-133.41c1.12 2.04 2.011 4.29 2.141 6.62 0.02 0.25 0.02 0.5 0.02 0.75" stroke-width="1.44"/>
          <polyline points="30.305 -131.91 30.655 -132.04 31.076 -131.97 31.555 -131.68 31.975 -131.31 32.335 -130.78" stroke-width="1.44"/>
          <polyline points="28.315 -130.78 30.275 -131.96 30.295 -131.97" stroke-width="1.44"/>
          <polyline points="28.315 -128.49 28.275 -128.56 28.015 -129.04 27.895 -129.57 27.895 -130.12 28.015 -130.54 28.315 -130.78" stroke-width="1.44"/>
          <polyline points="18.305 -122.68 18.265 -122.75 17.996 -123.28 17.885 -123.82 17.885 -124.3 17.996 -124.72 18.305 -125.02" stroke-width="1.44"/>
          <path d="m22.315-112.12c-0.08-2.5-0.93-5.29-2.22-7.44" stroke-width="1.44"/>
          <path d="m24.116-121.9c1.09 2.06 2.01 4.29 2.14 6.63 0.02 0.27 0.03 0.54 0.02 0.81" stroke-width="1.44"/>
          <path d="m32.345-117.94c-0.08-2.3-0.97-5.44-2.229-7.38" stroke-width="1.44"/>
          <path d="m34.135-127.66c1.11 2.14 2.02 4.24 2.15 6.63 0.02 0.27 0.029 0.54 0.02 0.81" stroke-width="1.44"/>
          <polyline points="20.275 -126.16 20.635 -126.28 21.055 -126.16 21.536 -125.92 21.956 -125.49 22.315 -125.02" stroke-width="1.44"/>
          <polyline points="18.305 -125.02 20.246 -126.2 20.275 -126.22" stroke-width="1.44"/>
          <polyline points="10.265 -120.4 10.616 -120.46 11.036 -120.4 11.456 -120.1 11.935 -119.74 12.235 -119.2" stroke-width="1.44"/>
          <polyline points="8.275 -119.2 10.235 -120.45 10.255 -120.46" stroke-width="1.44"/>
          <polyline points="8.275 -116.91 8.235 -116.98 7.975 -117.45 7.855 -118.06 7.855 -118.54 7.975 -118.95 8.275 -119.2" stroke-width="1.44"/>
          <path d="m4.076-110.32c1.09 2.06 2.01 4.29 2.14 6.63 0.02 0.27 0.03 0.54 0.02 0.81" stroke-width="1.44"/>
          <path d="m12.235-106.36c0.091-2.26-0.97-5.52-2.159-7.44" stroke-width="1.44"/>
          <path d="m14.105-116.08c1.09 2.13 2 4.23 2.141 6.63 0.02 0.24 0.02 0.5 0.02 0.75" stroke-width="1.44"/>
          <polyline points="0.235 -114.58 0.595 -114.7 1.015 -114.58 1.435 -114.34 1.855 -113.92 2.215 -113.44" stroke-width="1.44"/>
          <polyline points="-1.735 -113.44 0.206 -114.62 0.235 -114.64" stroke-width="1.44"/>
          <polyline points="-1.735 -111.1 -1.775 -111.17 -2.044 -111.7 -2.155 -112.24 -2.155 -112.78 -2.044 -113.14 -1.735 -113.44" stroke-width="1.44"/>
          <path d="m2.215-100.6c0.08-2.3-0.97-5.42-2.15-7.37" stroke-width="1.44"/>
          <line x1="52.385" x2="52.385" y1="-54.758" y2="-53.018" stroke-width=".72"/>
          <line x1="52.385" x2="52.385" y1="-139.06" y2="-132.7" stroke-width=".72"/>
          <line x1="50.345" x2="50.405" y1="-50.908" y2="-50.858" stroke-width=".72"/>
          <line x1="50.345" x2="50.345" y1="-141.7" y2="-138.28" stroke-width=".72"/>
          <line x1="48.355" x2="48.355" y1="-141.7" y2="-140.62" stroke-width=".72"/>
          <line x1="38.345" x2="40.315" y1="-44.018" y2="-45.218" stroke-width="1.44"/>
          <path d="m42.355-49.898c-0.04 1.58-0.479 3.64-1.859 4.64-0.051 0.04-0.11 0.08-0.17 0.11-0.061 0.04-0.12 0.08-0.19 0.11" stroke-width="1.44"/>
          <line x1="52.385" x2="54.175" y1="-142.36" y2="-139.24" stroke-width="1.44"/>
          <polyline points="50.155 -136.9 48.345 -140.01 48.305 -140.08" stroke-width="1.44"/>
          <line x1="38.345" x2="37.866" y1="-44.018" y2="-43.778" stroke-width="1.44"/>
          <polyline points="40.315 -45.158 40.496 -45.258 42.355 -46.358" stroke-width="1.44"/>
          <polyline points="52.385 -129.52 52.385 -128.62 52.385 -55.718" stroke-width="1.44"/>
          <line x1="56.345" x2="56.345" y1="-131.8" y2="-57.988" stroke-width="1.44"/>
          <polyline points="40.315 -45.158 40.326 -45.148 40.385 -45.098" stroke-width=".72"/>
          <line x1="40.315" x2="40.315" y1="-135.94" y2="-132.52" stroke-width=".72"/>
          <path d="m44.155-47.378c0.16-0.08 0.301-0.17 0.44-0.28 1.28-0.99 1.82-3.1 1.72-4.57" stroke-width="1.44"/>
          <polyline points="42.355 -46.298 42.385 -46.318 44.085 -47.398 44.155 -47.438" stroke-width="1.44"/>
          <line x1="42.355" x2="42.355" y1="-48.938" y2="-47.198" stroke-width=".72"/>
          <line x1="42.355" x2="42.355" y1="-133.3" y2="-126.94" stroke-width=".72"/>
          <line x1="38.345" x2="38.345" y1="-135.94" y2="-134.86" stroke-width=".72"/>
          <line x1="30.246" x2="30.116" y1="-39.368" y2="-39.278" stroke-width="1.44"/>
          <polyline points="32.345 -44.138 32.215 -42.818 31.916 -41.678 31.496 -40.658 30.895 -39.818 30.295 -39.398" stroke-width="1.44"/>
          <line x1="42.355" x2="44.155" y1="-136.6" y2="-133.41" stroke-width="1.44"/>
          <line x1="40.135" x2="38.286" y1="-131.14" y2="-134.32" stroke-width="1.44"/>
          <line x1="28.315" x2="27.845" y1="-38.198" y2="-37.958" stroke-width="1.44"/>
          <polyline points="28.315 -38.198 29.775 -39.078 30.246 -39.368 30.295 -39.398" stroke-width="1.44"/>
          <line x1="30.305" x2="32.345" y1="-39.328" y2="-40.598" stroke-width="1.44"/>
          <polyline points="42.355 -123.7 42.355 -122.8 42.355 -49.898" stroke-width="1.44"/>
          <line x1="46.315" x2="46.315" y1="-126.04" y2="-52.228" stroke-width="1.44"/>
          <line x1="30.305" x2="30.305" y1="-39.398" y2="-39.328" stroke-width=".72"/>
          <line x1="30.305" x2="30.305" y1="-130.12" y2="-126.7" stroke-width=".72"/>
          <polyline points="32.345 -40.538 32.375 -40.558 34.065 -41.578 34.135 -41.618" stroke-width="1.44"/>
          <line x1="32.345" x2="32.345" y1="-43.178" y2="-41.438" stroke-width=".72"/>
          <line x1="32.345" x2="32.345" y1="-127.54" y2="-121.12" stroke-width=".72"/>
          <path d="m34.435-41.768c1.46-1.12 1.88-2.84 1.87-4.64" stroke-width="1.44"/>
          <path d="m34.135-41.558c0.09-0.06 0.19-0.12 0.27-0.19" stroke-width="1.44"/>
          <line x1="28.315" x2="28.315" y1="-130.12" y2="-129.04" stroke-width=".72"/>
          <path d="m22.315-38.318c-0.04 1.58-0.479 3.64-1.859 4.64-0.051 0.04-0.11 0.08-0.17 0.11-0.061 0.04-0.12 0.08-0.19 0.11" stroke-width="1.44"/>
          <line x1="32.345" x2="34.135" y1="-130.78" y2="-127.66" stroke-width="1.44"/>
          <line x1="30.116" x2="28.265" y1="-125.32" y2="-128.56" stroke-width="1.44"/>
          <line x1="18.305" x2="17.826" y1="-32.438" y2="-32.198" stroke-width="1.44"/>
          <path d="m24.116-35.798c0.1-0.06 0.199-0.13 0.289-0.2 1.45-1.11 1.921-2.87 1.87-4.65" stroke-width="1.44"/>
          <line x1="18.305" x2="20.275" y1="-32.438" y2="-33.638" stroke-width="1.44"/>
          <polyline points="20.275 -33.578 20.456 -33.678 22.315 -34.778" stroke-width="1.44"/>
          <polyline points="32.345 -117.94 32.345 -117.04 32.345 -44.138" stroke-width="1.44"/>
          <line x1="36.305" x2="36.305" y1="-120.22" y2="-46.408" stroke-width="1.44"/>
          <line x1="22.315" x2="22.315" y1="-37.358" y2="-35.618" stroke-width=".72"/>
          <line x1="22.315" x2="22.315" y1="-121.72" y2="-115.36" stroke-width=".72"/>
          <polyline points="20.275 -33.578 20.286 -33.568 20.345 -33.518" stroke-width=".72"/>
          <line x1="20.275" x2="20.275" y1="-124.36" y2="-120.94" stroke-width=".72"/>
          <line x1="26.275" x2="26.275" y1="-114.45" y2="-40.648" stroke-width="1.44"/>
          <polyline points="22.315 -34.718 22.345 -34.738 24.045 -35.818 24.116 -35.858" stroke-width="1.44"/>
          <line x1="18.305" x2="18.305" y1="-124.36" y2="-123.28" stroke-width=".72"/>
          <polyline points="12.235 -32.558 12.175 -31.238 11.875 -30.098 11.456 -29.078 10.855 -28.298 10.255 -27.838 10.076 -27.698" stroke-width="1.44"/>
          <line x1="22.315" x2="24.116" y1="-125.02" y2="-121.9" stroke-width="1.44"/>
          <line x1="20.105" x2="18.246" y1="-119.56" y2="-122.74" stroke-width="1.44"/>
          <line x1="8.275" x2="7.805" y1="-26.618" y2="-26.378" stroke-width="1.44"/>
          <path d="m14.105-29.968c0.101-0.06 0.19-0.13 0.28-0.2 1.41-1.09 1.94-2.93 1.88-4.66" stroke-width="1.44"/>
          <polyline points="12.235 -28.948 12.265 -28.968 14.015 -29.998 14.095 -30.038" stroke-width="1.44"/>
          <polyline points="8.275 -26.618 9.025 -27.088 10.255 -27.878" stroke-width="1.44"/>
          <line x1="10.265" x2="12.235" y1="-27.818" y2="-29.018" stroke-width="1.44"/>
          <polyline points="22.315 -112.12 22.315 -111.28 22.315 -38.318" stroke-width="1.44"/>
          <line x1="12.235" x2="12.235" y1="-31.598" y2="-29.858" stroke-width=".72"/>
          <line x1="12.235" x2="12.235" y1="-115.95" y2="-109.6" stroke-width=".72"/>
          <line x1="10.265" x2="10.326" y1="-27.818" y2="-27.758" stroke-width=".72"/>
          <line x1="10.265" x2="10.265" y1="-118.6" y2="-115.18" stroke-width=".72"/>
          <line x1="16.265" x2="16.265" y1="-108.7" y2="-34.828" stroke-width="1.44"/>
          <line x1="8.275" x2="8.275" y1="-118.6" y2="-117.45" stroke-width=".72"/>
          <line x1="12.235" x2="14.095" y1="-119.2" y2="-116.08" stroke-width="1.44"/>
          <line x1="10.076" x2="8.215" y1="-113.8" y2="-116.97" stroke-width="1.44"/>
          <line x1="-2.155" x2="-1.735" y1="-20.618" y2="-20.918" stroke-width="1.44"/>
          <path d="m4.076-24.218c0.1-0.06 0.199-0.13 0.29-0.2 1.449-1.11 1.92-2.87 1.869-4.65" stroke-width="1.44"/>
          <polyline points="2.215 -23.138 2.246 -23.158 4.005 -24.238 4.076 -24.278" stroke-width="1.44"/>
          <line x1="-1.735" x2=".235" y1="-20.858" y2="-22.058" stroke-width="1.44"/>
          <line x1=".235" x2="2.215" y1="-21.988" y2="-23.198" stroke-width="1.44"/>
          <polyline points="2.215 -26.738 2.155 -25.468 1.855 -24.278 1.435 -23.318 0.835 -22.468 0.225 -22.008 0.065 -21.878" stroke-width="1.44"/>
          <polyline points="12.235 -106.36 12.235 -105.45 12.235 -32.558" stroke-width="1.44"/>
          <line x1="2.215" x2="2.215" y1="-25.778" y2="-24.038" stroke-width=".72"/>
          <line x1="2.215" x2="2.215" y1="-110.14" y2="-103.78" stroke-width=".72"/>
          <line x1=".235" x2=".305" y1="-21.988" y2="-21.928" stroke-width=".72"/>
          <line x1=".235" x2=".235" y1="-112.78" y2="-109.36" stroke-width=".72"/>
          <line x1="6.235" x2="6.235" y1="-102.88" y2="-29.078" stroke-width="1.44"/>
          <line x1="-1.735" x2="-1.735" y1="-112.78" y2="-111.7" stroke-width=".72"/>
          <line x1=".065" x2="-1.794" y1="-107.97" y2="-111.16" stroke-width="1.44"/>
          <line x1="2.215" x2="4.076" y1="-113.44" y2="-110.32" stroke-width="1.44"/>
          <line x1="2.215" x2="2.215" y1="-100.6" y2="-26.738" stroke-width="1.44"/>
          <polyline points="-50.705 -72.988 -50.465 -71.618 -50.395 -71.138" stroke-width=".72"/>
          <polyline points="-52.085 -76.658 -51.785 -76.118 -51.305 -74.968" stroke-width=".72"/>
          <line x1="-50.345" x2="-50.345" y1="-65.618" y2="-.878" stroke-width=".72"/>
          <polyline points="227.7 -231.22 227.28 -230.74 226.86 -230.43" stroke-width=".72"/>
          <polyline points="228.84 -233.38 228.84 -233.2 228.54 -232.36 228.48 -232.3" stroke-width=".72"/>
          <polyline points="227.7 -179.08 227.28 -178.66 226.86 -178.3" stroke-width=".72"/>
          <polyline points="228.84 -181.24 228.84 -181.06 228.54 -180.22 228.48 -180.15" stroke-width=".72"/>
          <polyline points="0.065 -21.878 0.055 -21.878 -52.625 8.482" stroke-width="1.44"/>
          <polyline points="50.155 -50.798 48.465 -49.848 48.355 -49.778 48.275 -49.738 44.595 -47.658 44.095 -47.378" stroke-width="1.44"/>
          <line x1="-1.685" x2="-46.505" y1="-98.318" y2="-72.448" stroke-width=".72"/>
          <polyline points="10.076 -27.698 9.025 -27.088 4.366 -24.418 4.015 -24.218" stroke-width="1.44"/>
          <polyline points="20.105 -33.448 14.385 -30.168 14.036 -29.968" stroke-width="1.44"/>
          <polyline points="30.116 -39.278 29.775 -39.078 24.405 -35.998 24.055 -35.798" stroke-width="1.44"/>
          <polyline points="40.135 -45.038 34.435 -41.768 34.405 -41.748 34.076 -41.558" stroke-width="1.44"/>
          <polyline points="216.9 -257.68 216.84 -257.75 215.88 -259.24 214.56 -260.56 213 -261.58" stroke-width="1.44"/>
          <line x1="27.845" x2="30.775" y1="-41.558" y2="-43.298" stroke-width=".72"/>
          <line x1="37.855" x2="40.855" y1="-47.318" y2="-49.118" stroke-width=".72"/>
          <line x1="47.885" x2="50.885" y1="-53.138" y2="-54.878" stroke-width=".72"/>
          <polyline points="-147.78 -144.82 -147.76 -144.84 -100.9 -171.91 -99.715 -172.6 -90.885 -177.7 -89.855 -178.3 -80.815 -183.52 -79.645 -184.2 -70.825 -189.29 -69.655 -189.97 -60.965 -194.99 -59.615 -195.77 -50.735 -200.9 -49.625 -201.54 24.775 -244.54" stroke-width="1.44"/>
          <line x1="-46.435" x2="-1.615" y1="1.342" y2="-24.578" stroke-width=".72"/>
          <polyline points="-52.555 8.482 -52.605 8.512 -63.245 14.612" stroke-width="1.44"/>
          <line x1="-60.895" x2="-54.835" y1="-92.078" y2="-81.518" stroke-width=".72"/>
          <polyline points="-51.185 7.102 -51.785 7.882 -52.085 8.062" stroke-width=".72"/>
          <polyline points="-50.395 4.402 -50.465 4.942 -50.645 5.672" stroke-width=".72"/>
          <polyline points="-64.805 -98.318 -64.085 -97.418 -63.725 -96.818" stroke-width=".72"/>
          <polyline points="-67.685 -101.08 -67.325 -100.84 -66.185 -99.878" stroke-width=".72"/>
          <line x1="-138.48" x2="-72.415" y1="-142.06" y2="-103.9" stroke-width=".72"/>
          <line x1="-158.4" x2="-147.78" y1="-138.7" y2="-144.88" stroke-width="1.44"/>
          <polyline points="392.64 -393.64 332 -358.62 331.98 -358.6" stroke-width="1.44"/>
          <line x1="-67.685" x2="-73.865" y1="-74.138" y2="-84.758" stroke-width=".72"/>
          <line x1="-79.975" x2="-146.16" y1="-90.878" y2="-129.1" stroke-width=".72"/>
          <line x1="-65.395" x2="-65.395" y1="-.938" y2="-65.738" stroke-width=".72"/>
          <line x1="-73.325" x2="-68.045" y1="8.182" y2="5.062" stroke-width=".72"/>
          <line x1="-81.125" x2="-77.765" y1="6.802" y2="8.782" stroke-width=".72"/>
          <line x1="-160.62" x2="-160.62" y1="-120.58" y2="-109.36" stroke-width=".72"/>
          <line x1="-152.7" x2="-157.98" y1="-129.76" y2="-126.7" stroke-width=".72"/>
          <polyline points="-144.3 -145.06 -143.64 -144.88 -143.04 -144.57" stroke-width=".72"/>
          <polyline points="-147.06 -145.12 -146.88 -145.24 -145.86 -145.36 -145.74 -145.36" stroke-width=".72"/>
          <path d="m-73.795 14.612c3.11 1.96 7.44 1.93 10.56 0.03 0.02-0.011 0.03-0.021 0.05-0.03" stroke-width="1.44"/>
          <polyline points="-85.975 7.592 -73.805 14.612 -73.795 14.612" stroke-width="1.44"/>
          <path d="m-158.4-138.7c-3.33 1.98-5.31 5.31-5.35 9.18" stroke-width="1.44"/>
          <path d="m233.4-201.4c0.01 0 0.01-0.01 0.021-0.01 1.76-1.03 3.25-2.29 4.52-3.72 7.09-8.06 6.97-21.74 4.82-31.82-0.11-0.54-0.23-1.07-0.36-1.59-3.12-13.09-10.17-26.46-19.56-36.84-2.75-3.05-5.71-5.83-8.82-8.28" stroke-width="1.44"/>
          <line x1="-163.74" x2="-163.74" y1="-129.52" y2="-103.06" stroke-width="1.44"/>
          <path d="m201.36-290.92c-0.01 0-0.02-0.01-0.029-0.01-4.381-1.72-9.24-2.47-13.82-1.58-1.91 0.37-3.771 1.03-5.53 2.02" stroke-width="1.44"/>
          <polyline points="211.38 -296.74 201.33 -290.93 201.3 -290.92" stroke-width="1.44"/>
          <path d="m187.5-292.54c1.33-1.56 2.83-2.79 4.449-3.72 0.07-0.05 0.141-0.09 0.21-0.12 5.73-3.19 12.921-2.74 19.221-0.36" stroke-width="1.44"/>
          <path d="m224.04-289.42c14.46 11.4 25.56 30.01 28.979 48.06 2.37 11.34 1.41 27.41-9.05 33.88-1.73 1.07-3.73 1.88-6.01 2.36" stroke-width="1.44"/>
          <polyline points="214.02 -283.66 224.02 -289.46 224.04 -289.47" stroke-width="1.44"/>
          <path d="m202.02-302.08c1.8-0.98 3.66-1.64 5.54-2.01 10.57-2.07 22.14 4.73 29.86 11.68 0.439 0.4 0.859 0.8 1.27 1.19 9.84 9.26 17.83 22.02 22.12 35.34 1.26 3.9 2.2 7.84 2.771 11.76" stroke-width="1.44"/>
          <polyline points="273.6 -235.3 263.56 -229.57 263.52 -229.54" stroke-width="1.44"/>
          <path d="m263.58-229.54c-0.9 4.95-2.5 9.34-5.591 12.83-1.25 1.41-2.739 2.68-4.529 3.78-0.011 0-0.011 0.01-0.021 0.01" stroke-width="1.44"/>
          <path d="m258-216.7c2.37-0.46 4.449-1.32 6.26-2.51 5.28-3.43 8.24-9.54 9.35-16.09" stroke-width="1.44"/>
          <polyline points="263.58 -244.12 273.56 -249.91 273.6 -249.93" stroke-width="1.44"/>
          <path d="m273.6-249.88c0-0.02 0-0.03-0.01-0.05-2.63-18.22-13.31-37.04-27.12-49.15-8.78-7.72-23.26-15-34.13-8.92-1.7 0.95-3.31 2.23-4.8 3.88" stroke-width="1.44"/>
          <path d="m273.48-224.49c0.01-0.01 0.021-0.01 0.03-0.02 1.76-1.05 3.26-2.33 4.52-3.78 7.13-8.13 7-21.66 4.811-31.85-0.11-0.53-0.23-1.05-0.36-1.56-3.17-13.18-10.18-26.44-19.57-36.82-2.739-3.04-5.689-5.83-8.8-8.3" stroke-width="1.44"/>
          <path d="m241.44-314.08c-0.01-0.01-0.03-0.01-0.04-0.01-4.22-1.64-9.21-2.45-13.79-1.58-1.96 0.36-3.84 1.04-5.55 2.07" stroke-width="1.44"/>
          <polyline points="251.46 -319.89 241.4 -314.09 241.38 -314.08" stroke-width="1.44"/>
          <path d="m227.58-315.64c0.01-0.01 0.02-0.02 0.029-0.03 1.311-1.56 2.8-2.79 4.42-3.73 5.75-3.33 13.091-2.94 19.431-0.49" stroke-width="1.44"/>
          <path d="m264.12-312.58c14.489 11.36 25.539 30.02 28.979 48.07 2.44 11.1 1.41 27.09-8.71 33.67-1.81 1.19-3.92 2.07-6.35 2.56" stroke-width="1.44"/>
          <polyline points="254.1 -306.82 264.1 -312.62 264.12 -312.64" stroke-width="1.44"/>
          <path d="m242.1-325.18c1.78-1.01 3.63-1.68 5.53-2.05 10.46-2.07 22.27 4.76 29.86 11.65 0.43 0.4 0.859 0.8 1.27 1.2 9.8 9.19 17.83 22.02 22.12 35.34 1.27 3.92 2.21 7.89 2.77 11.82" stroke-width="1.44"/>
          <polyline points="313.68 -258.45 303.64 -252.66 303.6 -252.64" stroke-width="1.44"/>
          <path d="m303.66-252.64c-0.85 4.74-2.52 9.27-5.59 12.77-1.25 1.45-2.75 2.72-4.52 3.77-0.01 0.01-0.021 0.01-0.03 0.02" stroke-width="1.44"/>
          <path d="m298.08-239.86c2.449-0.47 4.59-1.37 6.439-2.6 5.19-3.44 8.061-9.5 9.17-15.99" stroke-width="1.44"/>
          <polyline points="303.66 -267.22 313.64 -273.07 313.68 -273.09 313.68 -273.1" stroke-width="1.44"/>
          <path d="m313.68-273.04c0-0.02 0-0.03-0.01-0.05-2.67-18.22-13.25-37.02-27.12-49.09-8.78-7.85-23.62-15.19-34.47-8.76-1.58 0.93-3.07 2.15-4.45 3.71l-0.01 0.01" stroke-width="1.44"/>
          <path d="m281.58-337.24c-0.011 0-0.03-0.01-0.04-0.01-4.41-1.59-9.29-2.43-13.881-1.55-1.909 0.36-3.77 1.02-5.52 2.04" stroke-width="1.44"/>
          <polyline points="291.6 -342.99 291.6 -342.99 281.54 -337.25 281.52 -337.24" stroke-width="1.44"/>
          <path d="m267.66-338.8c1.351-1.57 2.851-2.81 4.471-3.75 5.779-3.37 12.97-2.93 19.47-0.44" stroke-width="1.44"/>
          <path d="m304.2-335.74c14.431 11.39 25.591 30.01 28.98 48.06 2.49 11.27 1.38 27.46-9.07 33.95-0.17 0.1-0.35 0.21-0.529 0.31-1.601 0.92-3.421 1.61-5.46 2.04" stroke-width="1.44"/>
          <polyline points="294.18 -329.92 304.17 -335.78 304.2 -335.8" stroke-width="1.44"/>
          <path d="m313.56-247.66c0.01-0.01 0.021-0.01 0.03-0.02 1.75-1.03 3.24-2.29 4.5-3.73 7.12-8.08 7.04-21.67 4.84-31.79-0.12-0.55-0.24-1.08-0.37-1.6-3.06-13.02-10.15-26.48-19.54-36.85-2.76-3.06-5.72-5.84-8.83-8.27" stroke-width="1.44"/>
          <polyline points="353.76 -281.62 343.72 -275.82 343.68 -275.8" stroke-width="1.44"/>
          <path d="m343.74-275.8c-0.79 4.58-2.52 9.29-5.59 12.84-1.24 1.46-2.72 2.73-4.46 3.7-0.01 0.01-0.02 0.01-0.03 0.02" stroke-width="1.44"/>
          <path d="m338.16-262.95c2.061-0.44 3.891-1.15 5.521-2.08 5.8-3.35 8.91-9.57 10.09-16.59" stroke-width="1.44"/>
          <polyline points="343.74 -290.38 353.72 -296.23 353.76 -296.25 353.76 -296.26" stroke-width="1.44"/>
          <path d="m353.76-296.2c0-0.02 0-0.03-0.01-0.05-2.7-18.23-13.22-37-27.12-49.09-8.89-7.84-23.57-15.18-34.48-8.73-1.579 0.93-3.069 2.14-4.46 3.69" stroke-width="1.44"/>
          <path d="m282.18-348.34c1.771-1 3.62-1.66 5.51-2.03 10.49-2.09 22.261 4.71 29.87 11.64 0.44 0.4 0.86 0.79 1.271 1.19 9.89 9.37 17.85 22.02 22.12 35.35 1.26 3.9 2.199 7.86 2.779 11.81" stroke-width="1.44"/>
          <path d="m428.1-332.26c0.011-0.01 0.021-0.01 0.03-0.02 12.72-8.31 6.28-30.47-0.03-40.9-5.76-10.63-22.04-27.41-35.47-20.46" stroke-width="1.44"/>
          <line x1="367.44" x2="428.11" y1="-297.22" y2="-332.32" stroke-width="1.44"/>
          <polyline points="213 -261.58 172.5 -285 157.8 -293.49" stroke-width="1.44"/>
          <line x1="60.305" x2="118.33" y1="-60.278" y2="-93.818" stroke-width=".72"/>
          <line x1="35.695" x2="38.635" y1="-128.56" y2="-130.3" stroke-width=".72"/>
          <line x1="25.675" x2="28.616" y1="-122.74" y2="-124.54" stroke-width=".72"/>
          <line x1="15.655" x2="18.595" y1="-116.97" y2="-118.72" stroke-width=".72"/>
          <line x1="7.805" x2="10.735" y1="-29.968" y2="-31.718" stroke-width=".72"/>
          <line x1="17.815" x2="20.755" y1="-35.738" y2="-37.538" stroke-width=".72"/>
          <line x1="45.715" x2="48.655" y1="-134.32" y2="-136.12" stroke-width=".72"/>
          <line x1="58.135" x2="116.1" y1="-141.52" y2="-175.06" stroke-width=".72"/>
          <line x1="10.735" x2="7.675" y1="-105.45" y2="-103.78" stroke-width=".72"/>
          <line x1="20.765" x2="17.695" y1="-111.28" y2="-109.54" stroke-width=".72"/>
          <line x1="30.775" x2="27.715" y1="-117.04" y2="-115.36" stroke-width=".72"/>
          <line x1="40.805" x2="37.735" y1="-122.8" y2="-121.12" stroke-width=".72"/>
          <line x1="50.815" x2="47.755" y1="-128.62" y2="-126.88" stroke-width=".72"/>
          <line x1="5.576" x2="8.576" y1="-111.22" y2="-112.95" stroke-width=".72"/>
          <line x1="-48.605" x2="-3.845" y1="-79.898" y2="-105.82" stroke-width=".72"/>
        </g>
      </g>
    </g>
  </g>
  <g transform="matrix(.81465 0 0 .81465 252.18 194.95)">
    <g transform="translate(20.778 10.431)">
      <g transform="translate(-226,-209)" fill="none" stroke="#000" stroke-linecap="round" stroke-linejoin="round" stroke-miterlimit="10">
        <polyline points="277.75 256.21 276.1 256.28 274.44 256.57 272.86 257 271.56 257.65" stroke-width="1.7676"/>
        <polyline points="252.19 274.79 252.19 268.77 252.19 267.86 252.19 267.8" stroke-width="1.7676"/>
        <path d="m252.19 274.79c-0.81 10.93-27.58 10.93-28.36 0" stroke-width="1.7676"/>
        <polyline points="267.53 225.03 267.53 227.73 267.53 227.77" stroke-width="1.7676"/>
        <polyline points="223.83 267.87 223.83 268.43 223.83 274.79" stroke-width="1.7676"/>
        <line x1="271.56" x2="271.56" y1="252.54" y2="255.92" stroke-width=".88381"/>
        <polyline points="271.56 257.65 252.19 268.77 252.12 268.81" stroke-width="1.7676"/>
        <polyline points="304.32 256.64 277.83 256.21 277.75 256.21" stroke-width="1.7676"/>
        <polyline points="277.75 249.3 276.1 249.37 274.44 249.59 272.86 250.09 271.56 250.74" stroke-width="1.7676"/>
        <line x1="277.83" x2="277.83" y1="251.1" y2="254.48" stroke-width=".88381"/>
        <polyline points="323.04 241.81 323.04 248.76 323.04 248.79" stroke-width="1.7676"/>
        <polyline points="327.15 244.18 327.15 251.06 327.15 251.1" stroke-width="1.7676"/>
        <line x1="339.17" x2="339.17" y1="237.2" y2="244.18" stroke-width="1.7676"/>
        <polyline points="327.15 244.18 327.11 244.16 323.05 241.79 322.97 241.74" stroke-width="1.7676"/>
        <polyline points="323.04 241.81 312.63 247.78 312.6 247.79" stroke-width="1.7676"/>
        <path d="m312.67 247.79c-0.01 0.01-0.02 0.01-0.03 0.01 0 0.01-0.02 0.01-0.03 0.01-2.5 1.42-5.44 1.92-8.29 1.92" stroke-width="1.7676"/>
        <polyline points="304.32 249.73 303.34 249.72 277.83 249.3 277.75 249.3" stroke-width="1.7676"/>
        <polyline points="271.56 250.74 270.78 251.18 249.74 263.23 249.67 263.26" stroke-width="1.7676"/>
        <polyline points="303.39 246.56 305.04 246.49 306.77 246.2 308.28 245.77 309.58 245.12" stroke-width="1.7676"/>
        <polyline points="309.58 245.12 315.12 241.87 319.09 239.54 319.15 239.51" stroke-width="1.7676"/>
        <polyline points="319.15 239.58 319.09 239.54 315.15 237.19 315.05 237.13" stroke-width="1.7676"/>
        <polyline points="315.12 237.2 315.15 237.19 327.11 230.24 327.15 230.22" stroke-width="1.7676"/>
        <polyline points="327.15 230.29 328.62 231.13 339.17 237.2" stroke-width="1.7676"/>
        <polyline points="339.17 237.2 327.11 244.16 327.07 244.18" stroke-width="1.7676"/>
        <polyline points="318.15 214.67 318.19 214.65 334.56 212.07" stroke-width="1.7676"/>
        <polyline points="334.56 212.07 330.11 221.54 330.1 221.58" stroke-width="1.7676"/>
        <polyline points="330.17 221.58 330.11 221.54 326.08 219.18 325.99 219.13" stroke-width="1.7676"/>
        <polyline points="326.07 219.2 279.4 246.09 279.34 246.13" stroke-width="1.7676"/>
        <line x1="291.09" x2="303.39" y1="246.35" y2="246.56" stroke-width="1.7676"/>
        <line x1="279.41" x2="291.07" y1="246.13" y2="246.35" stroke-width="1.7676"/>
        <polyline points="272.28 229.43 260.1 236.45 260.04 236.48" stroke-width="1.7676"/>
        <polyline points="260.11 236.48 260.06 236.51 259.04 237.2 258.32 237.99 257.81 238.93 257.59 239.79" stroke-width="1.7676"/>
        <line x1="257.59" x2="256.87" y1="239.79" y2="254.77" stroke-width="1.7676"/>
        <polyline points="256.87 254.77 257.24 254.55 318.15 219.27 322.19 216.93 322.25 216.9" stroke-width="1.7676"/>
        <polyline points="322.25 216.97 322.19 216.93 318.19 214.65 318.07 214.59" stroke-width="1.7676"/>
        <polyline points="248.88 259.38 248.92 259.35 249.89 258.66 250.68 257.86 251.11 256.93 251.33 256.07" stroke-width="1.7676"/>
        <line x1="251.33" x2="252.19" y1="256.07" y2="239.15" stroke-width="1.7676"/>
        <path d="m252.19 239.15v-0.08c0.09-1.959 1.79-3.38 3.32-4.39" stroke-width="1.7676"/>
        <polyline points="255.51 234.68 267.53 227.73 268.43 227.22 268.47 227.19" stroke-width="1.7676"/>
        <path d="m268.47 227.27c-0.02-0.02-0.03-0.04-0.04-0.05-1.84-2.28-0.56-4.47 1.76-5.71 3.45-1.82 7.78-1.77 11.31-0.22 2.21 1.31 3.09 2.65 3.09 3.86 0 3.53-7.51 6.08-12.31 4.28" stroke-width="1.7676"/>
        <line x1="245.93" x2="248.88" y1="261.03" y2="259.31" stroke-width="1.7676"/>
        <path d="m249.75 263.26c1.69 1.52 2.43 3.1 2.43 4.6 0 2.4-1.87 4.63-4.74 6.13-5.47 2.7-13.25 2.83-18.72 0.08-2.73-1.35-4.64-3.38-4.89-5.64-0.2-1.64 0.48-3.39 2.3-5.09 4.8-4.141 14.08-4.58 19.8-2.311" stroke-width="1.7676"/>
        <line x1="304.32" x2="304.32" y1="251.53" y2="254.91" stroke-width=".88381"/>
        <line x1="312.67" x2="312.67" y1="249.59" y2="252.97" stroke-width=".88381"/>
        <line x1="272.28" x2="272.28" y1="229.43" y2="236.41" stroke-width="1.7676"/>
        <polyline points="284.59 232.02 284.59 225.15 284.59 224.96" stroke-width="1.7676"/>
        <polyline points="326.07 219.2 326.07 226.16 326.07 226.19" stroke-width="1.7676"/>
        <polyline points="330.17 221.58 330.17 228.41 330.17 228.56" stroke-width="1.7676"/>
        <line x1="334.56" x2="334.56" y1="212.07" y2="219.06" stroke-width="1.7676"/>
        <polyline points="318.15 214.67 318.15 219.27 318.15 219.35" stroke-width="1.7676"/>
        <polyline points="315.12 237.2 315.12 241.87 315.12 241.95" stroke-width="1.7676"/>
        <line x1="257.59" x2="257.59" y1="241.67" y2="245.05" stroke-width="1.7676"/>
        <line x1="260.11" x2="260.11" y1="238.28" y2="241.74" stroke-width=".88381"/>
        <path d="m312.67 254.77c-0.01 0.01-0.02 0.01-0.03 0.01 0 0.011-0.02 0.011-0.03 0.011-2.31 1.229-5.71 2.04-8.29 1.85" stroke-width="1.7676"/>
        <polyline points="323.04 248.79 312.63 254.76 312.6 254.77" stroke-width="1.7676"/>
        <polyline points="327.15 251.1 327.11 251.07 323.04 248.76 322.97 248.72" stroke-width="1.7676"/>
        <polyline points="339.17 244.18 327.15 251.06 327.11 251.07 327.07 251.1" stroke-width="1.7676"/>
        <polyline points="326.07 226.19 291.09 246.35 291.07 246.35" stroke-width="1.7676"/>
        <polyline points="330.17 228.56 330.11 228.53 328.65 227.66 326.07 226.16 325.99 226.11" stroke-width="1.7676"/>
        <polyline points="334.56 219.06 330.17 228.41 330.11 228.53 330.1 228.56" stroke-width="1.7676"/>
        <line x1="257.59" x2="257.24" y1="246.78" y2="254.55" stroke-width="1.7676"/>
        <polyline points="260.11 243.47 260.06 243.5 259.04 244.18 258.32 244.98 257.81 245.84 257.59 246.78" stroke-width="1.7676"/>
        <polyline points="272.28 236.41 260.1 243.43 260.04 243.47" stroke-width="1.7676"/>
        <path d="m284.59 232.02c-0.54 4.86-8.71 5.58-12.31 4.39" stroke-width="1.7676"/>
      </g>
    </g>
  </g>
</svg>
