<?xml version="1.0" encoding="UTF-8"?>
<svg width="800" height="500" version="1.0" xmlns="http://www.w3.org/2000/svg" xmlns:cc="http://web.resource.org/cc/" xmlns:dc="http://purl.org/dc/elements/1.1/" xmlns:rdf="http://www.w3.org/1999/02/22-rdf-syntax-ns#">
  <title>USB type-A plug</title>
  <metadata>
    <rdf:RDF>
      <cc:Work rdf:about="">
        <dc:format>image/svg+xml</dc:format>
        <dc:type rdf:resource="http://purl.org/dc/dcmitype/StillImage"/>
        <dc:title>USB type-A plug</dc:title>
        <cc:license rdf:resource="http://creativecommons.org/publicdomain/zero/1.0/"/>
        <dc:source>Inductiveload, Public domain, via Wikimedia Commons</dc:source>
        <dc:creator>
          <cc:Agent>
            <dc:title>seth.fischer.nz</dc:title>
          </cc:Agent>
        </dc:creator>
      </cc:Work>
      <cc:License rdf:about="http://creativecommons.org/publicdomain/zero/1.0/">
        <cc:permits rdf:resource="http://creativecommons.org/ns#Reproduction"/>
        <cc:permits rdf:resource="http://creativecommons.org/ns#Distribution"/>
        <cc:permits rdf:resource="http://creativecommons.org/ns#DerivativeWorks"/>
      </cc:License>
    </rdf:RDF>
  </metadata>
  <g transform="translate(20.778 10.431)">
    <polygon points="95.583 337.56 95.583 341.04 86.552 346.24 83.543 344.51" fill="#efefef"/>
    <polygon points="95.583 337.56 83.543 344.51 78.532 341.61 90.603 334.68" fill="#efefef"/>
    <polygon points="107.47 344.44 107.46 344.46 104.44 346.19 95.583 341.04 95.583 337.56 90.603 334.68 90.603 331.83 91.142 331.56 92.043 331.38 92.943 331.32 93.903 331.38 94.742 331.56 95.523 331.92 95.532 331.9 114.83 343.07 109.95 345.88" fill="#efefef"/>
    <polygon points="104.44 346.19 95.403 351.36 86.552 346.24 95.583 341.04" fill="#efefef"/>
    <path d="m152.55 370.46-3.03 1.75-6.96-4.051v-2.699l-0.02-0.04 2.96-1.71c0.11-0.051 0.22-0.101 0.32-0.141 0.11-0.05 0.22-0.09 0.33-0.12 1.49-0.52 2.95-0.449 4.45 0.261l0.01-0.011 19.36 11.171-7.37 4.25v-2.86l-10.02-5.76-0.03-0.04z" fill="#efefef"/>
    <polygon points="149.52 372.21 140.55 377.38 133.56 373.35 142.56 368.16" fill="#efefef"/>
    <polygon points="117.84 446.52 117.84 452.82 112.87 449.92 116.22 445.62 116.24 445.6 117.84 444.71" fill="#efefef"/>
    <polygon points="116.24 445.6 116.22 445.62 112.87 449.92 112.86 449.92 112.86 449.93 112.86 451.08 102.96 445.38 115.5 438.12 115.5 435.84 117.84 434.46 117.84 444.71" fill="#efefef"/>
    <polygon points="115.5 435.84 115.5 438.12 102.96 445.38 102.96 444.24 102.92 444.21 106.44 439.92 115.45 434.67 115.5 434.7" fill="#efefef"/>
    <polygon points="103.43 427.71 113.49 433.54 115.45 434.67 106.44 439.92 92.403 431.82 92.353 431.82 92.363 431.81 92.392 431.79 101.46 426.6 101.47 426.58" fill="#efefef"/>
    <polygon points="101.47 426.58 101.46 426.6 92.392 431.79 92.363 431.81 92.353 431.82 88.932 436.12 88.923 436.13 88.923 437.28 77.943 430.92 100.29 417.98 110.34 423.78 103.43 427.71" fill="#efefef"/>
    <polygon points="106.44 439.92 102.92 444.21 88.932 436.12 92.353 431.82 92.403 431.82" fill="#efefef"/>
    <polygon points="100.29 417.98 77.943 430.92 77.943 429.78 77.903 429.76 81.363 425.46 97.282 416.24" fill="#efefef"/>
    <polygon points="97.282 416.24 81.363 425.46 67.383 417.36 67.333 417.36 67.343 417.35 67.372 417.33 83.282 408.18 83.293 408.16" fill="#efefef"/>
    <polygon points="67.343 417.35 67.333 417.36 63.912 421.66 63.903 421.68 63.903 422.82 57.843 419.34 80.242 406.4 83.293 408.16 83.282 408.18 67.372 417.33" fill="#efefef"/>
    <polygon points="81.363 425.46 77.903 429.76 63.912 421.66 67.333 417.36 67.383 417.36" fill="#efefef"/>
    <polygon points="80.242 406.4 57.843 419.34 57.843 418.2 57.802 418.18 61.323 413.88 77.233 404.67" fill="#efefef"/>
    <polygon points="77.233 404.67 61.323 413.88 47.343 405.78 47.293 405.78 47.302 405.77 47.333 405.75 63.242 396.6 63.253 396.59" fill="#efefef"/>
    <polygon points="47.302 405.77 47.293 405.78 43.872 410.08 43.863 410.1 43.863 411.24 32.823 404.88 45.363 397.62 45.363 395.34 53.202 390.79 63.253 396.59 63.242 396.6 47.333 405.75" fill="#efefef"/>
    <polygon points="61.323 413.88 57.802 418.18 43.872 410.08 47.293 405.78 47.343 405.78" fill="#efefef"/>
    <polygon points="45.363 395.34 45.363 397.62 32.823 404.88 32.823 403.74 32.782 403.71 36.302 399.42 45.313 394.17 45.363 394.2" fill="#efefef"/>
    <polygon points="43.353 393.04 45.313 394.17 36.302 399.42 22.262 391.32 22.213 391.32 22.222 391.31 22.253 391.29 31.323 386.1 31.333 386.08 33.293 387.21" fill="#efefef"/>
    <polygon points="31.333 386.08 31.323 386.1 22.253 391.29 22.222 391.31 22.213 391.32 18.793 395.62 18.782 395.63 18.782 396.78 8.943 391.08 8.943 391.05 31.323 378.18 31.333 378.16 40.193 383.28 33.293 387.21" fill="#efefef"/>
    <polygon points="36.302 399.42 32.782 403.71 18.793 395.62 22.213 391.32 22.262 391.32" fill="#efefef"/>
    <polygon points="31.333 378.16 31.323 378.18 8.943 391.05 8.943 389.94 8.903 389.92 12.363 385.62 12.333 385.6 28.323 376.44 28.333 376.43" fill="#efefef"/>
    <polygon points="117.84 446.52 117.84 452.82 112.87 449.92 116.22 445.62 116.24 445.6 117.84 444.71" fill="#efefef"/>
    <polygon points="116.24 445.6 116.22 445.62 112.87 449.92 112.86 449.92 112.86 449.93 112.86 451.08 102.96 445.38 115.5 438.12 115.5 435.84 117.84 434.46 117.84 444.71" fill="#efefef"/>
    <polygon points="67.343 417.35 67.333 417.36 63.912 421.66 63.903 421.68 63.903 422.82 57.843 419.34 80.242 406.4 83.293 408.16 83.282 408.18 67.372 417.33" fill="#efefef"/>
    <polygon points="81.363 425.46 77.903 429.76 63.912 421.66 67.333 417.36 67.383 417.36" fill="#efefef"/>
    <polygon points="80.242 406.4 57.843 419.34 57.843 418.2 57.802 418.18 61.323 413.88 77.233 404.67" fill="#efefef"/>
    <polygon points="77.233 404.67 61.323 413.88 47.343 405.78 47.293 405.78 47.302 405.77 47.333 405.75 63.242 396.6 63.253 396.59" fill="#efefef"/>
    <polygon points="47.302 405.77 47.293 405.78 43.872 410.08 43.863 410.1 43.863 411.24 32.823 404.88 45.363 397.62 45.363 395.34 53.202 390.79 63.253 396.59 63.242 396.6 47.333 405.75" fill="#efefef"/>
    <polygon points="61.323 413.88 57.802 418.18 43.872 410.08 47.293 405.78 47.343 405.78" fill="#efefef"/>
    <polygon points="115.5 435.84 115.5 438.12 102.96 445.38 102.96 444.24 102.92 444.21 106.44 439.92 115.45 434.67 115.5 434.7" fill="#efefef"/>
    <polygon points="103.43 427.71 113.49 433.54 115.45 434.67 106.44 439.92 92.403 431.82 92.353 431.82 92.363 431.81 92.392 431.79 101.46 426.6 101.47 426.58" fill="#efefef"/>
    <polygon points="101.47 426.58 101.46 426.6 92.392 431.79 92.363 431.81 92.353 431.82 88.932 436.12 88.923 436.13 88.923 437.28 77.943 430.92 100.29 417.98 110.34 423.78 103.43 427.71" fill="#efefef"/>
    <polygon points="106.44 439.92 102.92 444.21 88.932 436.12 92.353 431.82 92.403 431.82" fill="#efefef"/>
    <polygon points="100.29 417.98 77.943 430.92 77.943 429.78 77.903 429.76 81.363 425.46 97.282 416.24" fill="#efefef"/>
    <polygon points="97.282 416.24 81.363 425.46 67.383 417.36 67.333 417.36 67.343 417.35 67.372 417.33 83.282 408.18 83.293 408.16" fill="#efefef"/>
    <polygon points="31.333 386.08 31.323 386.1 22.253 391.29 22.222 391.31 22.213 391.32 18.793 395.62 18.782 395.63 18.782 396.78 8.943 391.08 8.943 391.05 31.323 378.18 31.333 378.16 40.193 383.28 33.293 387.21" fill="#efefef"/>
    <polygon points="45.363 395.34 45.363 397.62 32.823 404.88 32.823 403.74 32.782 403.71 36.302 399.42 45.313 394.17 45.363 394.2" fill="#efefef"/>
    <polygon points="36.302 399.42 32.782 403.71 18.793 395.62 22.213 391.32 22.262 391.32" fill="#efefef"/>
    <polygon points="31.333 378.16 31.323 378.18 8.943 391.05 8.943 389.94 8.903 389.92 12.363 385.62 12.333 385.6 28.323 376.44 28.333 376.43" fill="#efefef"/>
    <polygon points="43.353 393.04 45.313 394.17 36.302 399.42 22.262 391.32 22.213 391.32 22.222 391.31 22.253 391.29 31.323 386.1 31.333 386.08 33.293 387.21" fill="#efefef"/>
    <polygon points="28.333 376.43 28.323 376.44 12.333 385.6 7.383 382.74 7.333 382.74 7.343 382.73 7.372 382.71 23.282 373.56 23.302 373.53" fill="#efefef"/>
    <polygon points="12.333 385.6 12.363 385.62 8.903 389.92 3.912 387.04 7.333 382.74 7.383 382.74" fill="#efefef"/>
    <path d="m60.662 439.91-53.58-30.949v0.01l-0.01-0.01c-1.8-1.2-3.17-3.38-3.17-5.58v-16.321l0.01-0.02 4.99 2.88 0.04 0.02v1.14l9.84 5.699v-1.149l0.01-0.01 13.99 8.09 0.04 0.029v1.141l11.04 6.359v-1.14l0.01-0.02 13.93 8.1 0.04 0.02v1.141l6.06 3.479v-1.14l0.01-0.021 13.99 8.101 0.04 0.02v1.141l10.98 6.359v-1.149l0.01-0.01 13.99 8.09 0.04 0.029v1.141l9.9 5.7v-1.15l0.01-0.01 4.97 2.899v16.311c0.05 2.1-1.46 2.899-3.24 1.93l-53.52-30.91-0.42-0.24z" fill="#efefef"/>
    <polygon points="142.56 365.46 142.56 368.16 133.56 373.35 131.16 371.96 142.54 365.42" fill="#fcb424"/>
    <path d="m162.6 376.26v2.86l-7.02 4.039 0.01 0.021c-1.53 0.82-3.52 0.85-5.03-0.01l12.04-6.91z" fill="#fcb424"/>
    <path d="m149.52 372.21 3.03-1.75 0.03 0.04 10.02 5.76-12.04 6.91c-0.01 0-0.01-0.011-0.02-0.011l-9.99-5.779 8.97-5.17z" fill="#fcb424"/>
    <path d="m104.44 346.19 3.02-1.729 0.01-0.021 2.48 1.44-9.51 5.479 0.01 0.021c-1.7 0.819-3.35 0.77-5.05-0.021l9.04-5.169z" fill="#fcb424"/>
    <polygon points="45.313 394.17 43.353 393.04 50.193 389.06 53.202 390.79 45.363 395.34 45.363 394.2" fill="#fcb424"/>
    <polygon points="50.193 389.06 43.353 393.04 33.293 387.21 40.193 383.28 40.202 383.28" fill="#fcb424"/>
    <path d="m117.84 425.46-113.85-65.771c1.69-0.46 3-0.83 4.65 0.01l107.46 62.04c1.441 0.971 1.591 2.11 1.741 3.721z" fill="#d2d2d2"/>
    <path d="m7.083 408.97v-0.01l53.58 30.96v2.64l-56.7-32.76c-1.77-1.91-3.22-5.67-3.24-8.28v-37.33c0.04-1.58 0.57-3.25 1.88-4.05 0.38-0.24 0.83-0.39 1.36-0.45v0.01c0.01 0 0.02-0.01 0.03-0.01l113.85 65.771c1.88 2.41 3.06 5.22 3.18 8.279v37.261c-0.08 1.649-0.46 3.159-1.67 3.989l-0.25 0.141c-0.35 0.21-0.77 0.35-1.26 0.43l-56.76-32.76v-2.65l53.52 30.91c1.78 0.97 3.29 0.17 3.24-1.93v-37.251c0-0.3-0.03-0.601-0.07-0.891-0.32-1.909-1.59-3.71-3.17-4.75l-4.26-2.46-10.05-5.8-3.01-1.74-13.99-8.08-3.05-1.76-3.01-1.729-13.98-8.08-10.05-5.8-3.01-1.73-9.99-5.78h-0.01l-8.86-5.12-3-1.729-5.03-2.9-16.16-9.33c-1.71-1-3.29-0.109-3.24 1.86v37.321c0 2.2 1.37 4.38 3.17 5.58l0.01 8e-3z" fill="#d2d2d2"/>
    <path d="m7.343 382.73-0.01 0.01-3.42 4.301-0.01-0.011v-20.97c-0.05-1.97 1.53-2.86 3.24-1.86l16.16 9.33-0.02 0.03-15.91 9.15-0.03 0.02z" fill="#d2d2d2"/>
    <path d="m145.5 362.76 0.32 0.81c-0.1 0.04-0.21 0.09-0.32 0.141l-2.96 1.71-11.38 6.54-0.66-0.38-0.01 0.01c-1.33-0.82-1.23-2.07 0.07-2.9v0.01l14.52-8.46 0.42 0.721v1.798z" fill="#d2d2d2"/>
    <path d="m150.61 363.7-0.01 0.011c-1.5-0.71-2.96-0.78-4.45-0.261-0.11 0.03-0.22 0.07-0.33 0.12l-0.32-0.81v-1.8l-0.42-0.721 0.39-0.22 0.03 0.04c1.72-0.79 3.38-0.83 5.1 0l19.98 11.521c1.31 0.96 1.42 2.029 0 2.939l-0.61 0.351-19.36-11.17z" fill="#d2d2d2"/>
    <path d="m158.1 333.15v0.03c-3.07-0.63-6.59 0.43-9.36 1.9l9.33-5.421 0.04 0.021-0.01 0.02v3.45z" fill="#d2d2d2"/>
    <polygon points="168.07 335.43 165.09 337.18 158.1 333.15 158.1 329.7 158.11 329.68" fill="#d2d2d2"/>
    <polygon points="90.603 331.83 90.603 334.68 78.532 341.61 76.052 340.18 90.423 331.92" fill="#d2d2d2"/>
    <path d="m90.603 331.8v0.03l-0.18 0.09-14.37 8.26-0.69-0.4-0.01 0.011c-1.25-0.82-1.3-2.08 0.07-2.891l14.61-8.47 0.39 0.67v1.86l0.18 0.84z" fill="#d2d2d2"/>
    <path d="m95.532 331.9-0.01 0.021-0.78-0.36-0.84-0.18-0.96-0.061-0.9 0.061-0.9 0.18-0.54 0.271v-0.03l-0.18-0.84v-1.86l-0.39-0.67 0.36-0.22 0.03-0.011 0.02 0.051c1.71-0.82 3.37-0.79 5.08 0.01l19.92 11.52c1.41 0.73 1.46 2.23 0 2.931l-0.61 0.359-19.3-11.172z" fill="#d2d2d2"/>
    <path d="m165.09 337.18 2.98-1.75-9.96-5.75-0.04-0.021-9.33 5.421c2.77-1.471 6.29-2.53 9.36-1.9v-0.03l6.99 4.03zm4.879 37.691 0.61-0.351c1.42-0.91 1.31-1.979 0-2.939l-19.98-11.521c-1.72-0.83-3.38-0.79-5.1 0l-0.03-0.04-0.39 0.22-14.52 8.46v-0.01c-1.3 0.83-1.4 2.08-0.07 2.9l0.01-0.01 0.66 0.38 2.4 1.39 6.99 4.03 9.99 5.779c0.01 0 0.01 0.011 0.02 0.011 1.51 0.859 3.5 0.83 5.03 0.01l-0.01-0.021 7.02-4.039 7.37-4.249zm-69.52-23.491-0.01-0.021 9.51-5.479 4.88-2.811 0.61-0.359c1.46-0.7 1.41-2.2 0-2.931l-19.92-11.52c-1.71-0.8-3.37-0.83-5.08-0.01l-0.02-0.051-0.03 0.011-0.36 0.22-14.61 8.47c-1.37 0.811-1.32 2.07-0.07 2.891l0.01-0.011 0.69 0.4 2.48 1.43 5.01 2.9 3.01 1.729 8.85 5.12c1.701 0.792 3.351 0.842 5.05 0.022zm-96.46 8.31c-0.01 0-0.02 0.01-0.03 0.01v-0.01c-0.53 0.061-0.98 0.21-1.36 0.45l-0.01-0.02 107.81-62.221 12.48-7.2c1.63-0.79 3.04-0.399 4.56 0.421l107.4 62.039c3.67 2.221 6.32 6.811 6.42 11.101v37.26c0.08 1.561-0.47 3.29-1.83 4.18l-0.03-0.04-15.02 8.671-105.03 60.659c1.21-0.83 1.59-2.34 1.67-3.989v-37.261c-0.12-3.06-1.3-5.869-3.18-8.279-0.15-1.61-0.3-2.75-1.74-3.721l-107.46-62.04c-1.65-0.84-2.96-0.47-4.65-0.01z" fill="#d2d2d2"/>
    <path d="m744.66 22.856c6.4 10.07 12.681 32.98 0.03 40.9l-0.03-0.04-89.1 51.48h-0.04c-0.36-12.65-5.46-26.49-10.58-34.74-4.75-8.66-14.11-20.05-24.88-26.65l89.2-51.41c13.181-7.06 29.831 9.87 35.4 20.46z" fill="#212121"/>
    <path d="m530.24 98.026 10.061-5.75c-6.57-2.45-13.46-2.92-19.19 0.31l-0.03-0.05 9.8-5.6c1.78-1 3.631-1.66 5.521-2.04 10.51-2.07 22.26 4.75 29.89 11.66 0.431 0.4 0.851 0.79 1.25 1.18 9.84 9.35 17.83 22.06 22.101 35.39 1.239 3.86 2.17 7.78 2.729 11.68l10.03-5.73c-2.79-19.17-14.271-39.18-29.521-51.12-8.6-6.84-21.699-12.53-31.689-6.95l-0.01-0.02 9.739-5.63c1.721-1.01 3.591-1.68 5.521-2.04 4.61-0.88 9.6-0.08 13.88 1.61l10.06-5.81c-6.55-2.4-13.439-2.87-19.18 0.34l-0.02-0.03 9.779-5.65c1.801-0.97 3.65-1.63 5.53-2 10.521-2.09 21.86 4.58 29.68 11.49 0.5 0.43 0.98 0.87 1.45 1.31 9.91 9.45 17.851 22.06 22.101 35.41 1.239 3.87 2.159 7.79 2.729 11.72l10.03-5.79c-2.78-19.14-14.29-39.18-29.521-51.12-8.68-6.95-21.989-12.66-32.02-6.74l-0.021-0.04 12.601-7.26c8.67-4.42 18.04-2.18 26.54 3.05 10.77 6.6 20.13 17.99 24.88 26.65 5.12 8.25 10.22 22.09 10.58 34.74 0.3 10.08-2.42 19.4-10.55 24.52l-0.03-0.04-12.54 7.32c5.76-3.35 9.05-9.78 10.08-16.62l-0.03-0.04-9.99 5.86c-0.819 4.6-2.51 9.3-5.569 12.84h-0.011c-1.229 1.46-2.72 2.72-4.47 3.7l-0.03-0.04-10.02 5.88-0.02-0.03c10.05-5.75 11.81-20.12 10.1-31.05-2.75-19.12-14.32-39.19-29.521-51.12l-10.029 5.73-0.05 0.03h0.06c3.1 2.44 6.04 5.21 8.79 8.25 9.39 10.36 16.479 23.72 19.59 36.81 0.15 0.6 0.29 1.22 0.42 1.85 2.12 10.11 2.19 23.56-4.859 31.57-1.261 1.42-2.74 2.67-4.471 3.7l-0.029-0.04-10.021 5.88-0.02-0.04c5.859-3.32 8.81-9.37 10.1-16.58l-0.03-0.04-9.99 5.8c-0.779 4.59-2.52 9.32-5.6 12.89-1.24 1.47-2.72 2.73-4.45 3.71l-0.029-0.04-10.021 5.88-0.02-0.04c10.09-5.7 11.72-20.11 10.1-31.1-2.77-19.1-14.35-39.14-29.52-51.06l-10.03 5.73-0.05 0.03h0.06c3.1 2.43 6.03 5.2 8.76 8.22 9.41 10.37 16.45 23.73 19.62 36.84 0.15 0.61 0.29 1.23 0.42 1.86 2.11 10.12 2.17 23.45-4.85 31.5-1.26 1.44-2.74 2.71-4.48 3.76l-0.029-0.04-9.261 5.35c5.28-3.43 8.19-9.52 9.32-16.09l-0.03-0.04-9.989 5.8c-0.761 4.61-2.521 9.3-5.58 12.84-1.271 1.48-2.78 2.76-4.53 3.76l-0.03-0.04-9.109 5.29c9.43-6.17 10.8-20.2 9.17-30.91-2.88-19.12-14.32-38.73-29.46-50.76l-10.04 5.79 0.02 0.03c3.13 2.46 6.061 5.22 8.771 8.21 7.88 8.67 13.93 19.29 17.689 30.13 0.891 2.65 1.7 5.58 2.32 8.64 2.149 10.57 2.09 22.73-4.42 30.9v-34.44c0.21-3.59-2.19-7.44-5.28-9.18l-61.12-35.29 10.061-5.75c1.779-1.03 3.64-1.69 5.54-2.06 4.569-0.89 9.38-0.07 13.859 1.57l10.061-5.75c-6.48-2.55-13.681-2.9-19.471 0.47l-0.029-0.05 10.08-5.76c1.779-1.01 3.63-1.67 5.52-2.04 10.51-2.08 22.25 4.74 29.88 11.66 0.43 0.39 0.851 0.79 1.26 1.18 9.75 9.18 17.79 22.03 22.07 35.34 1.26 3.9 2.2 7.83 2.771 11.73l10.02-5.73c-2.79-19.2-14.27-39.12-29.52-51.12-8.61-6.87-21.7-12.56-31.681-6.96l-0.04-0.06 9.761-5.58c1.75-1.02 3.609-1.68 5.52-2.04 4.586-0.88 9.487-0.06 13.876 1.55z" fill="#424242"/>
    <path d="m642.45 130.34 0.03 0.04c-1.03 6.84-4.32 13.27-10.08 16.62-1.64 0.95-3.47 1.65-5.51 2.04 3.06-3.54 4.75-8.24 5.569-12.84l9.991-5.86z" fill="#424242"/>
    <path d="m630.95 109.23 11.53 6.69-10.03 5.79c-0.57-3.93-1.49-7.85-2.729-11.72l0.04-0.01 1.17-0.76 0.019 0.01z" fill="#424242"/>
    <path d="m630.95 109.21c-2.88-14-12.21-28.74-24.77-35.95l-0.011 0.01c-7.819-6.91-19.159-13.58-29.68-11.49l-0.01-0.04c1.38-1.54 2.88-2.76 4.46-3.68 10.03-5.92 23.34-0.21 32.02 6.74 15.23 11.94 26.74 31.98 29.521 51.12l-11.53-6.69v-0.02z" fill="#424242"/>
    <path d="m630.93 109.22-1.17 0.76-0.04 0.01c-4.25-13.35-12.19-25.96-22.101-35.41-0.47-0.44-0.95-0.88-1.45-1.31l0.011-0.01c12.56 7.21 21.89 21.95 24.77 35.95l-0.02 0.01z" fill="#212121"/>
    <path d="m622.44 127.5c1.71 10.93-0.05 25.3-10.1 31.05-1.61 0.94-3.44 1.64-5.5 2.07 7.05-8.01 6.979-21.46 4.859-31.57 0.17-14.17-8.25-30.16-18.78-39.35v-13.32c15.2 11.93 26.771 32 29.521 51.12z" fill="#424242"/>
    <path d="m592.92 89.696c10.53 9.19 18.95 25.18 18.78 39.35-0.13-0.63-0.27-1.25-0.42-1.85-3.11-13.09-10.2-26.45-19.59-36.81l0.03-0.03 1.199-0.72v0.06h1e-3z" fill="#212121"/>
    <path d="m602.37 153.5 0.03 0.04c-1.29 7.21-4.24 13.26-10.1 16.58-1.601 0.91-3.431 1.61-5.5 2.08l-0.021-0.01c3.08-3.57 4.82-8.3 5.6-12.89l9.991-5.8z" fill="#424242"/>
    <path d="m590.87 132.39 11.53 6.69-10.03 5.73c-0.56-3.9-1.49-7.82-2.729-11.68l1.21-0.75 0.019 0.01z" fill="#424242"/>
    <path d="m590.87 132.37c-2.75-13.72-12.229-28.79-24.58-35.81-7.63-6.91-19.38-13.73-29.89-11.66 1.479-1.66 3.09-2.94 4.79-3.89 9.99-5.58 23.09 0.11 31.689 6.95 15.25 11.94 26.73 31.95 29.521 51.12l-11.53-6.69v-0.02z" fill="#424242"/>
    <path d="m592.92 76.376v13.26l-1.199 0.72-0.03 0.03c-2.75-3.04-5.69-5.81-8.79-8.25h-0.06l0.05-0.03 10.029-5.73z" fill="#424242"/>
    <path d="m590.85 132.38-1.21 0.75c-4.271-13.33-12.261-26.04-22.101-35.39-0.399-0.39-0.819-0.78-1.25-1.18 12.351 7.02 21.83 22.09 24.58 35.81l-0.019 0.01z" fill="#212121"/>
    <path d="m582.36 150.6c1.62 10.99-0.01 25.4-10.1 31.1-1.61 0.91-3.431 1.6-5.49 2.02 7.02-8.05 6.96-21.38 4.85-31.5 0.19-14.15-8.279-30.21-18.779-39.42v-13.26c15.169 11.92 26.749 31.96 29.519 51.06z" fill="#424242"/>
    <path d="m580.38 69.116-10.06 5.81c-4.28-1.69-9.27-2.49-13.88-1.61 1.46-1.64 3.06-2.92 4.76-3.86 5.741-3.21 12.63-2.74 19.18-0.34z" fill="#424242"/>
    <path d="m552.84 112.8c10.5 9.21 18.97 25.27 18.779 39.42-0.13-0.63-0.27-1.25-0.42-1.86-3.17-13.11-10.21-26.47-19.62-36.84l1.261-0.78v0.06z" fill="#212121"/>
    <path d="m553 192.79c-1.8 1.18-3.89 2.05-6.279 2.51 3.06-3.54 4.819-8.23 5.58-12.84l9.989-5.8 0.03 0.04c-1.129 6.57-4.04 12.66-9.32 16.09z" fill="#424242"/>
    <path d="m550.79 155.55 11.53 6.69-10.02 5.73c-0.57-3.9-1.511-7.83-2.771-11.73h0.01l1.23-0.7 0.021 0.01z" fill="#424242"/>
    <path d="m550.79 155.53c-2.68-13.51-12.35-28.98-24.59-35.81-7.63-6.92-19.37-13.74-29.88-11.66 1.48-1.66 3.1-2.94 4.8-3.9 9.98-5.6 23.07 0.09 31.681 6.96 15.25 12 26.729 31.92 29.52 51.12l-11.53-6.69c-1e-3 -0.01-1e-3 -0.01-1e-3 -0.02z" fill="#424242"/>
    <path d="m552.84 99.536v13.2l-1.261 0.78c-2.729-3.02-5.66-5.79-8.76-8.22h-0.06l0.05-0.03 10.031-5.73z" fill="#424242"/>
    <path d="m550.77 155.54-1.23 0.7h-0.01c-4.28-13.31-12.32-26.16-22.07-35.34-0.409-0.39-0.83-0.79-1.26-1.18 12.24 6.83 21.91 22.3 24.59 35.81l-0.02 0.01z" fill="#212121"/>
    <path d="m532.98 204.36c-1.69 1.09-3.64 1.93-5.88 2.46v-0.48c6.51-8.17 6.569-20.33 4.42-30.9h0.02c0.141-14.3-8.199-30.13-18.779-39.48v-13.32c15.14 12.03 26.58 31.64 29.46 50.76 1.63 10.71 0.26 24.74-9.17 30.91l-0.071 0.05z" fill="#424242"/>
    <path d="m540.3 92.276-10.061 5.75c-4.39-1.61-9.29-2.43-13.88-1.55 1.46-1.65 3.05-2.93 4.75-3.89 5.731-3.23 12.621-2.76 19.191-0.31z" fill="#424242"/>
    <path d="m512.76 135.96c10.58 9.35 18.92 25.18 18.779 39.48h-0.02c-0.62-3.06-1.43-5.99-2.32-8.64-3.76-10.84-9.81-21.46-17.689-30.13l1.25-0.77v0.06z" fill="#212121"/>
    <path d="m115.64 258.03-0.02-0.029 0.05-0.04 52.63-30.32 0.84-0.36 0.96-0.18 0.66-0.08 0.36-0.04 1.02-0.36 1.89-1.18 0.03 0.04c0.18-0.11 0.45-0.23 0.42-0.48v-0.06l-0.12-0.12h-0.3l-1.02 0.18-0.8 0.37-0.04-0.07 6.12-3.48 0.84-0.36 0.96-0.12 0.67-0.12 0.35-0.06 1.02-0.36 1.89-1.18 0.03 0.04c0.45-0.09 0.67-0.7 0-0.6l-1.02 0.12-0.83 0.39-0.01-0.03 6.12-3.48 0.84-0.36 0.96-0.18 0.66-0.08 0.36-0.04 1.02-0.36 1.98-1.2 0.03 0.04c0.33-0.24 0.59-0.6-0.03-0.64l-1.08 0.18-0.8 0.37-0.04-0.07 6.12-3.48 0.84-0.36 0.96-0.12 0.66-0.08 0.36-0.04 1.02-0.36 1.98-1.2 0.03 0.03 0.27-0.27 0.06-0.12v-0.12l-0.12-0.12h-0.24l-1.08 0.12-0.8 0.43-0.04-0.07 6.12-3.48 0.84-0.36 0.96-0.12 0.67-0.12 0.35-0.06 1.02-0.36 1.98-1.2 0.03 0.04c0.28-0.14 0.62-0.64-0.03-0.64l-1.08 0.18-0.83 0.39-0.01-0.03 6.12-3.54 0.84-0.36 0.96-0.12 0.66-0.08 0.36-0.04 1.02-0.36 1.98-1.2 0.03 0.03 0.09-0.09 0.12-0.06 0.12-0.24 0.06-0.06c-0.25-0.22-0.06-0.17-0.42-0.18l-1.08 0.18-0.8 0.37-0.04-0.07 84.3-48.6 1.8-0.84 1.8-0.47 0.06-0.01v-0.01l49.26-7.61 2.04-0.36 1.98-0.66 1.81-0.82-0.01-0.02 50.64-29.22c3.5-1.87 7.06-1.88 10.55-0.04 0.021 0.02 0.05 0.03 0.07 0.04l0.01-0.02 34.09 19.69 61.12 35.29c3.09 1.74 5.49 5.59 5.28 9.18v75.23c0.2 3.649-2.12 7.47-5.25 9.229l-0.03-0.04-50.58 29.28c-0.32 0.09-1.08 0.68-1.32 0.96l-0.02-0.01-13.06 28.21-0.78 1.439-1.021 1.261-1.199 1.14-1.29 0.88-0.03-0.04-83.81 48.41c1.31-0.979 1.82-2.78 1.79-4.61v-75.24c0-3.57-1.76-7.25-4.02-9.96v-0.011c-0.39-0.54-1.39-0.859-1.98-0.47l-0.03-0.04-1.95 1.18-0.06 0.061h-0.06l-0.12 0.18-0.12 0.12-0.06 0.18v0.24l0.06 0.18 0.06 0.24 0.12 0.23 0.18 0.189c2.42 2.98 3.86 6.101 4.02 9.96v0.96h-1.56l-3.06 1.74-1.46 0.04c-0.21-3.14-1.98-6.95-4-9.16-0.37-0.63-1.33-0.819-1.98-0.54l-0.03-0.04-1.46-2.529-20.02 11.55-20.04 11.58 1.47 2.54-0.03 0.02-1.95 1.181-0.36 0.359-0.06 0.18v0.24l0.06 0.181 0.06 0.239 0.12 0.24 0.18 0.24c2.21 2.58 3.94 6.479 4.02 9.899v75.301c-0.05 1.12-0.18 2.189-0.62 3.109-0.33 0.66-0.82 1.25-1.57 1.73l-0.03-0.04-52.62 30.41c-3.06 1.89-7.56 1.89-10.62 0l-26.58-15.351-0.02-0.029 15.02-8.671 0.03 0.04c1.36-0.89 1.91-2.619 1.83-4.18v-37.26c-0.1-4.29-2.75-8.88-6.42-11.101l-107.4-62.039c-1.52-0.82-2.93-1.211-4.56-0.421l-12.48 7.2v-30.72c0.021-3.966 1.871-7.077 5.24-9.147zm52.25 0.49c0.68 1.07 1.76 2.061 3.23 2.9l80.16 46.26c5.45 3.22 14.59 3.24 20.04 0l120.24-69.48 0.03 0.04c1.46-0.82 2.55-1.79 3.239-2.84 1.931-2.91 0.86-6.4-3.27-8.72l-80.15-46.28-0.01 0.02c-0.02-0.01-0.05-0.03-0.07-0.04-5.46-3.19-14.54-3.16-19.97 0.04l-0.03-0.04-0.59 0.34-119.62 69.12c-4.038 2.29-5.129 5.75-3.229 8.68zm230.81-49.18c-0.43-5.43-13.79-5.43-14.22 0 0.48 5.45 13.741 5.45 14.22 0zm-50.159-28.92c-0.36-5.49-13.78-5.4-14.16 0 0.48 5.4 13.72 5.46 14.16 0z" fill="#424242"/>
    <path d="m512.76 122.64v13.26l-1.25 0.77c-2.71-2.99-5.641-5.75-8.771-8.21l-0.02-0.03 10.041-5.79z" fill="#424242"/>
    <path d="m500.22 115.44-10.061 5.75c-4.479-1.64-9.29-2.46-13.859-1.57 1.34-1.55 2.84-2.78 4.449-3.71 5.79-3.37 12.99-3.02 19.471-0.47z" fill="#424242"/>
    <path d="m311.41 186.16-0.01 0.02c-0.02-0.01-0.05-0.02-0.07-0.04-5.81-3.16-14.18-3.13-19.97 0.04l-0.03-0.04 0.03-0.02v-4.32l-0.62-1.08 0.59-0.34 0.03 0.04c5.43-3.2 14.51-3.23 19.97-0.04 0.02 0.01 0.05 0.03 0.07 0.04l0.01-0.02 80.15 46.28c4.13 2.32 5.2 5.81 3.27 8.72l-0.029-0.02-0.841-1.08-1.08-0.96-1.319-0.84-80.151-46.34z" fill="#424242"/>
    <path d="m312.64 254.78-0.01-0.02 10.41-5.97v-0.03l4.07 2.31 0.04 0.03v-0.04l12.02-6.88v-6.98l-10.55-6.07 1.48-2.57 0.01-0.03 0.06 0.03v-0.15l4.39-9.35v-6.99l-16.37 2.58-0.04 0.02v4.6l-60.91 35.28 0.35-7.771 0.22-0.939 0.51-0.86 0.72-0.8 1.02-0.68-0.02-0.03 0.06-0.04 12.18-7.02c3.6 1.19 11.77 0.47 12.31-4.39v-6.87c0-1.21-0.88-2.55-3.09-3.86-3.53-1.55-7.86-1.6-11.31 0.22-2.32 1.24-3.6 3.43-1.76 5.71l-0.9 0.51-12.02 6.95c-1.53 1.01-3.23 2.43-3.32 4.39v0.08l-0.86 16.92-0.22 0.86-0.43 0.93-0.79 0.8-0.97 0.69-0.04-0.04-2.95 1.72c-5.72-2.27-15-1.83-19.8 2.311-1.82 1.7-2.5 3.45-2.3 5.09v6.36c0.78 10.93 27.55 10.93 28.36 0v-6.021l19.37-11.12 1.3-0.649 1.58-0.431 1.66-0.29 1.65-0.069h0.08l26.49 0.43c2.58 0.19 5.98-0.62 8.29-1.85 0.01 0 0.03 0 0.03-0.011zm82.161-19.4 0.029 0.02c-0.689 1.05-1.779 2.02-3.239 2.84l-0.03-0.04-120.24 69.48c-5.45 3.24-14.59 3.22-20.04 0l-80.16-46.26c-1.47-0.84-2.55-1.83-3.23-2.9l0.83-1.06 1.08-0.96 1.32-0.9 120.21-69.46 0.03 0.04c5.79-3.17 14.16-3.2 19.97-0.04 0.02 0.02 0.05 0.03 0.07 0.04l0.01-0.02 80.15 46.34 1.319 0.84 1.08 0.96 0.841 1.08z" fill="#424242"/>
    <path d="m384.48 209.34c0.43-5.43 13.79-5.43 14.22 0-0.48 5.45-13.741 5.45-14.22 0z" fill="#212121"/>
    <path d="m368.7 367.86c-0.58 0.431-1.31 0.721-2.22 0.771l-0.59 0.06c0.46-0.93 0.62-2.02 0.65-3.109v-75.301c-0.16-3.859-1.6-6.979-4.02-9.96l-0.18-0.189-0.12-0.23-0.06-0.24-0.06-0.18v-0.24l0.06-0.18 0.12-0.12 0.12-0.18h0.06l0.06-0.061 1.95-1.18 0.03 0.04c0.59-0.39 1.59-0.07 1.98 0.47v0.011c2.26 2.71 4.02 6.39 4.02 9.96v75.24c0.03 1.83-0.48 3.631-1.79 4.61 1e-3 -2e-3 1e-3 8e-3 -0.01 8e-3z" fill="#212121"/>
    <path d="m365.89 368.69c-0.33 0.681-0.82 1.271-1.54 1.73l-0.03-0.04-5.9 3.439c1.47-0.949 2.14-2.949 2.06-4.76v-75.3c0-0.24 0-0.49-0.02-0.74l1.46-0.04 3.06-1.74h1.56v74.341c-0.03 1.091-0.189 2.18-0.65 3.11z" fill="#424242"/>
    <path d="m360.48 369.06c0.08 1.811-0.59 3.811-2.06 4.76-0.05 0.04-0.11 0.07-0.16 0.101-0.51 0.31-1.11 0.479-1.8 0.479l-0.56 0.05c0.44-0.92 0.57-1.989 0.62-3.109v-75.3c-0.18-3.891-1.61-6.881-4.02-9.9v-0.01c-0.46-0.521-0.65-1.2 0-1.681v0.011l1.95-1.181 0.03 0.04c0.65-0.279 1.61-0.09 1.98 0.54 2.02 2.21 3.79 6.021 4 9.16 0.02 0.25 0.02 0.5 0.02 0.74v75.3z" fill="#212121"/>
    <path d="m355.9 374.45c-0.33 0.66-0.82 1.25-1.57 1.73l-0.03-0.05-5.64 3.3c1.31-0.99 1.85-2.82 1.8-4.61v-75.24c0-0.24-0.01-0.48-0.02-0.721l1.46-0.12 3.06-1.739h1.56v74.34c-0.051 1.121-0.18 2.19-0.62 3.11z" fill="#424242"/>
    <path d="m344.5 289.13-1.9704 1.1953h-0.06031l-0.18096 0.18196-0.12064 0.1709-0.06031 0.19v0.18196l0.12063 0.48154 0.12064 0.23122 0.18095 0.19001c2.5133 3.2974 3.8302 5.8308 4.0413 10.013v0.96509h-1.5683l-3.0762 1.6899-1.4677 0.06032c-0.22117-3.1768-2.0106-6.9366-4.0212-9.1684-0.38202-0.6635-1.317-0.82334-1.9905-0.54286l-0.03016-0.04021 0.03016-0.02011-1.4778-2.5535 20.126-11.611 1.4677 2.5424-1.9603 1.1873v-0.01105c-0.65345 0.48254-0.46244 1.1662 0 1.6899v0.01005c2.4228 3.036 3.8604 6.0419 4.0413 9.9525v0.96509h-1.5683l-3.0762 1.7482-1.4677 0.12064c-0.21112-3.3276-1.9302-6.7958-4.0212-9.288l-0.12063-0.18196-0.18096-0.12064-0.24127-0.12063-0.18095-0.11963-0.24128-0.06133-0.24127-0.06032h-0.42223l-0.18095 0.06032-0.1508 0.10154-0.03016 0.01005-0.0201-0.03921z" fill="#424242"/>
    <path d="m348.62 379.46c-0.58 0.439-1.3 0.72-2.18 0.76v-0.01l-0.58 0.06c0.46-0.95 0.61-2.07 0.64-3.17v-75.24c-0.21-4.16-1.52-6.68-4.02-9.96l-0.18-0.189-0.12-0.23-0.12-0.479v-0.181l0.06-0.189 0.12-0.17 0.18-0.181h0.06l1.96-1.189 0.02 0.04 0.03-0.01 0.15-0.101 0.18-0.06h0.42l0.24 0.06 0.24 0.061 0.18 0.119 0.24 0.12 0.18 0.12 0.12 0.181c2.08 2.479 3.79 5.93 4 9.239 0.01 0.24 0.02 0.48 0.02 0.721v75.24c0.05 1.79-0.49 3.62-1.8 4.61l-0.04 0.028z" fill="#212121"/>
    <path d="m345.86 380.27c-0.33 0.67-0.82 1.271-1.55 1.73l-0.03-0.04-5.9 3.439c1.47-0.95 2.14-2.95 2.06-4.77v-75.29c0.01-0.26 0-0.521-0.02-0.78l1.46-0.06 3.06-1.681h1.56v74.28c-0.031 1.102-0.18 2.222-0.64 3.172z" fill="#424242"/>
    <path d="m334.38 180.42c0.38-5.4 13.8-5.49 14.16 0-0.44 5.46-13.68 5.4-14.16 0z" fill="#212121"/>
    <path d="m340.44 380.63c0.08 1.819-0.59 3.819-2.06 4.77-0.05 0.04-0.11 0.07-0.16 0.101-0.51 0.31-1.11 0.479-1.8 0.479l-0.56 0.05c0.44-0.92 0.57-1.989 0.62-3.109v-75.3c-0.17-3.851-1.59-6.931-4.02-9.9v-0.01c-0.43-0.58-0.7-1.17 0-1.681v0.011l1.95-1.181 0.03 0.04c0.67-0.279 1.6-0.12 1.98 0.54 2 2.22 3.78 5.96 4 9.12 0.02 0.26 0.03 0.521 0.02 0.78v75.29z" fill="#212121"/>
    <polygon points="339.17 237.2 339.17 244.18 327.15 251.06 327.15 244.18 327.11 244.16" fill="#424242"/>
    <path d="m248.92 259.35 0.97-0.69 0.79-0.8 0.43-0.93 0.22-0.86 0.86-16.92v-0.08c0.09-1.959 1.79-3.38 3.32-4.39l12.02-6.95 0.9-0.51c-1.84-2.28-0.56-4.47 1.76-5.71 3.45-1.82 7.78-1.77 11.31-0.22 2.21 1.31 3.09 2.65 3.09 3.86 0 3.53-7.51 6.08-12.31 4.28l-12.18 7.02-0.06 0.03 0.02 0.03-1.02 0.69-0.72 0.79-0.51 0.94-0.22 0.86-0.72 14.979 0.37-0.22 60.91-35.28 4.04-2.34-4-2.28 16.37-2.58-4.45 9.47-4.03-2.36-0.01 0.02-46.67 26.89-0.06 0.04h0.07l11.66 0.22h0.02l12.3 0.21 1.65-0.07 1.73-0.29 1.51-0.43 1.3-0.649 5.54-3.25 3.97-2.33-3.94-2.351 11.96-6.95 0.04 0.05 1.47 0.84 10.55 6.07-12.06 6.959-4.06-2.369-0.01 0.02-10.41 5.97 0.01 0.021c0 0.01-0.02 0.01-0.03 0.01-2.5 1.42-5.44 1.92-8.29 1.92l-0.98-0.01-25.51-0.42h-0.08l-1.65 0.07-1.66 0.22-1.58 0.5-1.3 0.649-0.78 0.44-21.04 12.05-0.07 0.03h0.08c1.69 1.52 2.43 3.1 2.43 4.6 0 2.4-1.87 4.63-4.74 6.13-5.47 2.7-13.25 2.83-18.72 0.08-2.73-1.35-4.64-3.38-4.89-5.64-0.2-1.64 0.48-3.39 2.3-5.09 4.8-4.141 14.08-4.58 19.8-2.311l2.95-1.72 0.04 0.042z" fill="#424242"/>
    <path d="m335.91 385.96c-0.33455 0.6691-0.8313 1.2672-1.5916 1.7538l-0.03041-0.05069-5.7178 3.3455c1.3179-1.0138 1.8958-2.9603 1.8248-4.6736v-76.338c0-0.23216-0.01013-0.47648-0.02027-0.69952l1.4801-0.09124 3.1022-1.763h1.5815v75.365c-0.0517 1.1354-0.18349 2.2192-0.62855 3.1519z" fill="#424242"/>
    <path d="m324.52 300.43-2.0221 1.1658c-0.19602 0.20633-0.36109 0.30949-0.43331 0.619v0.18673l0.1238 0.49418 0.1238 0.23729 0.18571 0.19499c2.3832 3.0538 4.0339 6.3356 4.1474 10.276v0.99042h-1.6094l-3.157 1.7343-1.5063 0.13412c-0.22698-3.4458-1.9499-6.934-4.1268-9.5431v-0.01134c-0.48488-0.56743-1.3515-0.84495-2.0427-0.4849l-0.03095-0.04126 0.03095-0.02064-1.5166-2.6205 20.675-11.947 1.5166 2.6205-0.03094 0.02063-2.0118 1.2184v-0.01136c-0.72218 0.5272-0.44363 1.1359 0 1.7343v0.01031c2.507 3.0641 3.972 6.2417 4.1474 10.214v0.99042h-1.6094l-3.157 1.7941-1.5063 0.09285c-0.21665-3.353-2.0015-7.067-4.1267-9.5018l-0.12381-0.1857-0.1857-0.12381-0.49521-0.24761-0.1857-0.06189-0.2476-0.0619h-0.43331l-0.1857 0.0619-0.15476 0.10317-0.03094 0.01134-0.02064-0.04126z" fill="#424242"/>
    <polygon points="334.56 212.07 334.56 219.06 330.17 228.41 330.17 221.58 330.11 221.54" fill="#424242"/>
    <path d="m328.51 391.08c-0.57 0.42-1.26 0.68-2.11 0.649v0.01l-0.58 0.101c0.46-0.97 0.62-2.141 0.64-3.16v-75.24c-0.11-3.819-1.71-7-4.02-9.96l-0.18-0.189-0.12-0.23-0.12-0.479v-0.181c0.07-0.3 0.23-0.399 0.42-0.6l1.96-1.13 0.02 0.04 0.03-0.011 0.15-0.1 0.18-0.06h0.42l0.24 0.06 0.18 0.06 0.48 0.24 0.18 0.12 0.12 0.18c2.06 2.36 3.79 5.96 4 9.21 0.01 0.221 0.02 0.461 0.02 0.69v75.3c0.07 1.69-0.5 3.61-1.8 4.61-0.01 0.02-0.02 0.02-0.04 0.02-0.019 0.019-0.05 0.039-0.07 0.05z" fill="#212121"/>
    <polygon points="330.11 221.54 330.17 221.58 330.17 228.41 330.11 228.53 328.65 227.66 326.07 226.16 326.07 219.2 326.08 219.18" fill="#424242"/>
    <polygon transform="matrix(1.0172 0 0 1.0172 -4.9956 -4.0562)" points="327.11 230.24 315.15 237.19 315.12 237.2 315.12 241.87 309.58 245.12 308.28 245.77 306.77 246.2 305.04 246.49 303.39 246.56 291.09 246.35 326.07 226.19 326.07 226.16 328.65 227.66 330.11 228.53 330.1 228.56 328.62 231.13 327.15 230.29" fill="#424242"/>
    <polygon points="327.11 244.16 327.15 244.18 327.15 251.06 327.11 251.07 323.04 248.76 323.04 241.81 323.05 241.79" fill="#424242"/>
    <path d="m325.82 391.84c-0.33 0.7-0.83 1.29-1.55 1.68l-0.03-0.04-5.99 3.561-0.01-0.011c1.56-0.92 2.18-2.83 2.16-4.819v-75.29c0-0.24-0.01-0.471-0.02-0.71l1.46-0.13 3.06-1.681h1.56v74.28c-0.02 1.02-0.181 2.191-0.64 3.16z" fill="#424242"/>
    <polygon points="326.07 226.16 326.07 226.19 291.09 246.35 291.07 246.35 279.41 246.13 279.34 246.13 279.4 246.09 326.07 219.2" fill="#424242"/>
    <path d="m312.63 254.76 0.01 0.02c0 0.011-0.02 0.011-0.03 0.011-2.31 1.229-5.71 2.04-8.29 1.85v-6.91c2.85 0 5.79-0.5 8.29-1.92 0.01 0 0.03 0 0.03-0.01l-0.01-0.021 10.41-5.97v6.98l-10.41 5.97z" fill="#424242"/>
    <polygon points="322.19 216.93 318.15 219.27 318.15 214.67 318.19 214.65" fill="#424242"/>
    <path d="m320.4 392.21c0.02 1.989-0.6 3.899-2.16 4.819-0.52 0.29-1.13 0.48-1.86 0.53l-0.56 0.05c0.44-0.92 0.57-1.989 0.62-3.109v-75.301c-0.08-3.42-1.81-7.319-4.02-9.899l-0.18-0.24-0.12-0.24-0.06-0.239-0.06-0.181v-0.24l0.06-0.18 0.36-0.359 1.95-1.181 0.03 0.04c0.67-0.35 1.51-0.08 1.98 0.47v0.011c2.11 2.529 3.78 5.91 4 9.25 0.01 0.239 0.02 0.47 0.02 0.71v75.289z" fill="#212121"/>
    <polygon points="319.09 239.54 315.12 241.87 315.12 237.2 315.15 237.19" fill="#424242"/>
    <polygon transform="matrix(1.0479 0 0 1.0479 -12.975 -12.13)" points="304.32 254.91 304.32 256.64 277.83 256.21 277.75 256.21 276.1 256.28 274.44 256.57 272.86 257 271.56 255.92 271.56 252.54 270.78 251.18 271.56 250.74 272.86 250.09 274.44 249.59 276.1 249.37 277.75 249.3 277.83 249.3 303.34 249.72 304.32 249.73 304.32 251.53" fill="#424242"/>
    <path d="m291.36 184.68v1.44l-0.03 0.02-120.21 69.46-1.32 0.9-1.08 0.96-0.83 1.06c-1.9-2.93-0.81-6.39 3.23-8.68l119.62-69.12 0.62 1.08v2.88z" fill="#424242"/>
    <path d="m284.59 225.15v6.87c-0.54 4.86-8.71 5.58-12.31 4.39v-6.98c4.8 1.8 12.31-0.75 12.31-4.28z" fill="#424242"/>
    <path d="m252.28 267.82h-0.01034c0-1.552-0.76565-3.1867-2.5142-4.7594h-0.08277l0.07243-0.03104 21.769-12.468 0.80702 1.4071v3.4971l1.345 1.1174-1.345 0.67149-20.041 11.505v-0.9405z" fill="#424242"/>
    <polygon points="260.06 236.51 260.04 236.48 260.1 236.45 272.28 229.43 272.28 236.41 260.1 243.43 260.04 243.47 260.06 243.5 259.04 244.18 258.32 244.98 257.81 245.84 257.59 246.78 257.24 254.55 256.87 254.77 257.59 239.79 257.81 238.93 258.32 237.99 259.04 237.2" fill="#424242"/>
    <path d="m252.19 268.77v6.021c-0.81 10.93-27.58 10.93-28.36 0v-6.36c0.25 2.26 2.16 4.29 4.89 5.64 5.47 2.75 13.25 2.62 18.72-0.08 2.87-1.5 4.74-3.729 4.74-6.13h0.01v0.909z" fill="#424242"/>
    <g fill="none" stroke="#000" stroke-linecap="round" stroke-linejoin="round" stroke-miterlimit="10">
      <polyline points="169.98 374.88 169.97 374.87 150.61 363.7 150.54 363.66" stroke-width="1.44"/>
      <polyline points="145.5 363.71 142.54 365.42 131.16 371.96 131.1 372" stroke-width="1.44"/>
      <path d="m150.6 363.71c-1.5-0.71-2.96-0.78-4.45-0.261-0.11 0.03-0.22 0.07-0.33 0.12-0.1 0.04-0.21 0.09-0.32 0.141" stroke-width="1.44"/>
      <path d="m145.5 360.06c1.72-0.79 3.38-0.83 5.1 0" stroke-width="1.44"/>
      <polyline points="130.56 368.7 145.08 360.24 145.47 360.02 145.5 360" stroke-width="1.44"/>
      <path d="m130.56 371.63c-0.03-0.01-0.05-0.021-0.07-0.04-1.33-0.82-1.23-2.07 0.07-2.9" stroke-width="1.44"/>
      <polyline points="150.54 383.16 140.55 377.38 133.56 373.35 131.16 371.96 130.5 371.58" stroke-width="1.44"/>
      <path d="m155.64 383.16c-0.02 0.011-0.03 0.021-0.05 0.021-1.53 0.82-3.52 0.85-5.03-0.01-0.01 0-0.01-0.011-0.02-0.011" stroke-width="1.44"/>
      <line x1="150.6" x2="170.58" y1="360.06" y2="371.58" stroke-width="1.44"/>
      <polyline points="170.58 374.52 169.97 374.87 162.6 379.12 155.58 383.16" stroke-width="1.44"/>
      <path d="m170.58 371.58c1.31 0.96 1.42 2.029 0 2.939" stroke-width="1.44"/>
      <line x1="60.662" x2="7.083" y1="439.92" y2="408.96" stroke-width="1.44"/>
      <polyline points="60.662 442.56 60.662 439.92 60.662 439.91 60.662 439.85" stroke-width="1.44"/>
      <polyline points="61.083 440.16 61.083 442.56 61.083 442.8" stroke-width="1.44"/>
      <line x1="60.662" x2="61.083" y1="442.56" y2="442.56" stroke-width="1.44"/>
      <line x1="61.083" x2="117.84" y1="442.8" y2="475.56" stroke-width="1.44"/>
      <line x1="130.56" x2="130.56" y1="370.86" y2="369.42" stroke-width=".72"/>
      <line x1="145.5" x2="145.5" y1="362.76" y2="360.96" stroke-width=".72"/>
      <line x1="150.6" x2="150.6" y1="362.76" y2="360.96" stroke-width=".72"/>
      <line x1="170.58" x2="170.58" y1="373.74" y2="372.3" stroke-width=".72"/>
      <polyline points="168.12 335.46 168.07 335.43 158.11 329.68 158.07 329.66 158.04 329.63" stroke-width="1.44"/>
      <polyline points="165.12 337.2 165.09 337.18 158.1 333.15 158.04 333.12" stroke-width="1.44"/>
      <polyline points="148.52 335.21 148.74 335.08 158.07 329.66 158.1 329.63" stroke-width="1.44"/>
      <path d="m158.1 333.18c-3.07-0.63-6.59 0.43-9.36 1.9-0.08 0.04-0.15 0.079-0.22 0.119-0.15 0.08-0.3 0.171-0.44 0.25" stroke-width="1.44"/>
      <polyline points="158.1 329.7 158.1 333.15 158.1 333.18" stroke-width="1.44"/>
      <polyline points="158.1 341.28 165.09 337.18 168.07 335.43 168.12 335.4" stroke-width="1.44"/>
      <line x1="155.52" x2="150.48" y1="339.78" y2="336.84" stroke-width=".72"/>
      <path d="m117.84 425.46c1.88 2.41 3.06 5.22 3.18 8.279" stroke-width="1.44"/>
      <line x1="8.642" x2="116.1" y1="359.7" y2="421.74" stroke-width="1.44"/>
      <polyline points="117.84 431.88 117.84 434.46 117.84 444.71 117.84 446.52 117.84 452.82" stroke-width="1.44"/>
      <line x1="3.963" x2="60.662" y1="409.8" y2="442.56" stroke-width="1.44"/>
      <path d="m3.963 409.8c-1.77-1.91-3.22-5.67-3.24-8.28" stroke-width="1.44"/>
      <line x1="114.6" x2="61.023" y1="471.06" y2="440.1" stroke-width="1.44"/>
      <line x1="3.903" x2="3.903" y1="387" y2="366.12" stroke-width="1.44"/>
      <line x1="121.02" x2="121.02" y1="433.74" y2="471" stroke-width="1.44"/>
      <path d="m119.1 475.13c-0.35 0.21-0.77 0.35-1.26 0.43" stroke-width="1.44"/>
      <path d="m121.02 471c-0.08 1.649-0.46 3.159-1.67 3.989" stroke-width="1.44"/>
      <line x1=".722" x2=".722" y1="401.52" y2="364.26" stroke-width="1.44"/>
      <path d="m0.722 364.26v-0.07c0.04-1.58 0.57-3.25 1.88-4.05 0.38-0.24 0.83-0.39 1.36-0.45" stroke-width="1.44"/>
      <path d="m114.6 426.24c1.58 1.04 2.85 2.841 3.17 4.75 0.04 0.29 0.07 0.591 0.07 0.891" stroke-width="1.44"/>
      <polyline points="40.202 383.28 50.193 389.06 53.202 390.79 63.253 396.59 77.233 404.67 80.242 406.4 83.293 408.16 97.282 416.24 100.29 417.98 110.34 423.78 114.6 426.24" stroke-width="1.44"/>
      <polyline points="7.142 364.2 23.302 373.53 28.333 376.43 31.333 378.16 40.193 383.28" stroke-width="1.44"/>
      <path d="m3.903 366.12v-0.061c-0.05-1.97 1.53-2.86 3.24-1.86" stroke-width="1.44"/>
      <polyline points="122.88 290.7 110.4 297.9 2.593 360.12 2.583 360.12" stroke-width="1.44"/>
      <path d="m122.88 290.7c1.63-0.79 3.04-0.399 4.56 0.421" stroke-width="1.44"/>
      <polyline points="119.1 475.13 119.35 474.99 224.38 414.33 239.4 405.66" stroke-width="1.44"/>
      <path d="m241.26 401.52c0.08 1.561-0.47 3.29-1.83 4.18-0.01 0.011-0.02 0.011-0.03 0.021" stroke-width="1.44"/>
      <path d="m234.84 353.16c3.67 2.221 6.32 6.811 6.42 11.101" stroke-width="1.44"/>
      <line x1="241.26" x2="241.26" y1="364.26" y2="401.52" stroke-width="1.44"/>
      <line x1="127.44" x2="234.84" y1="291.12" y2="353.16" stroke-width="1.44"/>
      <line x1="6.302" x2="4.682" y1="364.74" y2="365.63" stroke-width=".72"/>
      <path d="m116.1 421.74c1.44 0.971 1.59 2.11 1.74 3.721" stroke-width="1.44"/>
      <line x1="237.3" x2="124.86" y1="403.8" y2="468.71" stroke-width=".72"/>
      <line x1="123.48" x2="12.483" y1="293.4" y2="357.48" stroke-width=".72"/>
      <polyline points="117.84 425.46 3.992 359.69 3.903 359.63" stroke-width="1.44"/>
      <path d="m3.963 359.7c0.01 0 0.02-0.01 0.03-0.01 1.69-0.46 3-0.83 4.65 0.01" stroke-width="1.44"/>
      <line x1="237.3" x2="124.86" y1="366.54" y2="431.46" stroke-width=".72"/>
      <line x1="230.88" x2="119.94" y1="355.44" y2="419.46" stroke-width=".72"/>
      <polyline points="114.84 343.08 114.83 343.07 95.532 331.9 95.463 331.86" stroke-width="1.44"/>
      <polyline points="90.423 331.92 76.052 340.18 76.023 340.2" stroke-width="1.44"/>
      <polyline points="95.523 331.92 94.742 331.56 93.903 331.38 92.943 331.32 92.043 331.38 91.142 331.56 90.603 331.83 90.423 331.92" stroke-width="1.44"/>
      <path d="m90.423 328.26c0.01 0 0.01-0.01 0.02-0.01 1.71-0.82 3.37-0.79 5.08 0.01" stroke-width="1.44"/>
      <polyline points="115.44 342.71 114.83 343.07 109.95 345.88 100.44 351.36" stroke-width="1.44"/>
      <path d="m115.44 339.78c1.41 0.73 1.46 2.23 0 2.931" stroke-width="1.44"/>
      <line x1="95.523" x2="115.44" y1="328.26" y2="339.78" stroke-width="1.44"/>
      <polyline points="75.423 336.9 90.032 328.43 90.392 328.21 90.423 328.2" stroke-width="1.44"/>
      <path d="m100.5 351.36c-0.02 0.011-0.03 0.021-0.05 0.021-1.7 0.819-3.35 0.77-5.05-0.021" stroke-width="1.44"/>
      <path d="m75.423 339.84c-0.02-0.021-0.05-0.03-0.07-0.05-1.25-0.82-1.3-2.08 0.07-2.891" stroke-width="1.44"/>
      <polyline points="95.403 351.36 86.552 346.24 83.543 344.51 78.532 341.61 76.052 340.18 75.363 339.78" stroke-width="1.44"/>
      <line x1="75.423" x2="75.423" y1="339.06" y2="337.56" stroke-width=".72"/>
      <line x1="90.423" x2="90.423" y1="330.96" y2="329.1" stroke-width=".72"/>
      <line x1="95.523" x2="95.523" y1="330.96" y2="329.1" stroke-width=".72"/>
      <line x1="115.44" x2="115.44" y1="341.94" y2="340.44" stroke-width=".72"/>
      <line x1="338.38" x2="344.28" y1="385.4" y2="381.96" stroke-width="1.44"/>
      <polyline points="470.76 121.68 460.7 127.43 460.68 127.44" stroke-width="1.44"/>
      <line x1="198.36" x2="192.24" y1="210.24" y2="213.72" stroke-width="1.44"/>
      <line x1="471.24" x2="521.82" y1="285.6" y2="256.32" stroke-width="1.44"/>
      <path d="m521.82 256.38c0.01-0.01 0.021-0.01 0.03-0.021 3.13-1.76 5.45-5.58 5.25-9.229" stroke-width="1.44"/>
      <line x1="655.56" x2="744.66" y1="115.2" y2="63.716" stroke-width="1.44"/>
      <polyline points="527.1 247.13 527.1 206.82 527.1 206.34 527.1 171.96" stroke-width="1.44"/>
      <path d="m527.1 171.96v-0.06c0.21-3.59-2.19-7.44-5.28-9.18" stroke-width="1.44"/>
      <polyline points="642.48 115.92 632.45 121.71 632.4 121.74" stroke-width="1.44"/>
      <polyline points="632.46 136.2 642.45 130.34 642.48 130.32" stroke-width="1.44"/>
      <polyline points="550.92 75.356 541.18 80.986 540.84 81.176" stroke-width="1.44"/>
      <line x1="368.71" x2="452.52" y1="367.85" y2="319.44" stroke-width="1.44"/>
      <line x1="368.28" x2="368.7" y1="368.1" y2="367.86" stroke-width="1.44"/>
      <line x1="224.4" x2="250.98" y1="414.36" y2="429.71" stroke-width="1.44"/>
      <path d="m250.98 429.71c3.06 1.89 7.56 1.89 10.62 0" stroke-width="1.44"/>
      <polyline points="452.52 319.5 452.55 319.48 453.84 318.6 455.04 317.46 456.06 316.2 456.84 314.76" stroke-width="1.44"/>
      <polyline points="456.84 314.76 469.9 286.55 470.04 286.26" stroke-width="1.44"/>
      <polyline points="521.82 162.72 460.7 127.43 426.61 107.74 426.54 107.7" stroke-width="1.44"/>
      <path d="m469.92 286.56c0.24-0.28 1-0.87 1.32-0.96" stroke-width="1.44"/>
      <line x1="572.28" x2="582.3" y1="181.74" y2="175.86" stroke-width="1.44"/>
      <polyline points="168.3 227.64 115.67 257.96 115.62 258" stroke-width="1.44"/>
      <path d="m115.68 258c-0.01 0.01-0.03 0.02-0.04 0.029-3.37 2.07-5.22 5.181-5.24 9.15" stroke-width="1.44"/>
      <line x1="110.4" x2="110.4" y1="267.18" y2="297.9" stroke-width="1.44"/>
      <polyline points="359.52 138.84 310.26 146.45 310.2 146.46" stroke-width="1.44"/>
      <polyline points="310.26 146.46 310.2 146.47 308.4 146.94 306.6 147.78" stroke-width="1.44"/>
      <polyline points="365.4 136.98 365.35 137 363.54 137.82 361.56 138.48 359.52 138.84" stroke-width="1.44"/>
      <line x1="415.98" x2="365.34" y1="107.76" y2="136.98" stroke-width="1.44"/>
      <path d="m426.6 107.76c-0.021-0.01-0.05-0.02-0.07-0.04-3.49-1.84-7.05-1.83-10.55 0.04" stroke-width="1.44"/>
      <line x1="328.62" x2="334.26" y1="391.01" y2="387.71" stroke-width="1.44"/>
      <polyline points="328.2 391.26 328.51 391.08 328.58 391.04" stroke-width="1.44"/>
      <line x1="490.8" x2="480.72" y1="110.1" y2="115.86" stroke-width="1.44"/>
      <line x1="208.38" x2="202.26" y1="204.48" y2="207.96" stroke-width="1.44"/>
      <polyline points="709.26 2.396 620.06 53.806 620.04 53.816" stroke-width="1.44"/>
      <line x1="632.4" x2="644.94" y1="147" y2="139.68" stroke-width="1.44"/>
      <polyline points="570.96 63.776 561.18 69.426 560.88 69.596" stroke-width="1.44"/>
      <line x1="358.42" x2="364.32" y1="373.82" y2="370.38" stroke-width="1.44"/>
      <polyline points="552.18 193.26 553 192.79 562.26 187.44" stroke-width="1.44"/>
      <line x1="178.32" x2="172.2" y1="221.82" y2="225.3" stroke-width="1.44"/>
      <polyline points="318.18 397.08 318.25 397.04 324.24 393.48" stroke-width="1.44"/>
      <polyline points="510.84 98.516 501.08 104.1 500.76 104.28" stroke-width="1.44"/>
      <line x1="218.4" x2="212.28" y1="198.66" y2="202.2" stroke-width="1.44"/>
      <line x1="33.302" x2="43.323" y1="387.24" y2="393.06" stroke-width="1.44"/>
      <polyline points="43.323 393.06 43.353 393.04 50.193 389.06 50.222 389.04" stroke-width="1.44"/>
      <polyline points="109.98 345.9 109.95 345.88 107.47 344.44 107.4 344.4" stroke-width="1.44"/>
      <polyline points="40.202 383.28 40.193 383.28 33.293 387.21 33.242 387.24" stroke-width="1.44"/>
      <polyline points="107.46 344.46 104.44 346.19 95.403 351.36" stroke-width="1.44"/>
      <line x1="103.44" x2="113.46" y1="427.74" y2="433.56" stroke-width="1.44"/>
      <polyline points="113.46 433.56 113.49 433.54 117.77 430.99 117.78 430.98" stroke-width="1.44"/>
      <polyline points="110.34 423.78 103.43 427.71 103.38 427.74" stroke-width="1.44"/>
      <line x1="152.58" x2="162.6" y1="370.5" y2="376.26" stroke-width="1.44"/>
      <polyline points="162.6 376.26 150.56 383.17 150.48 383.21" stroke-width="1.44"/>
      <polyline points="140.52 377.4 140.55 377.38 149.52 372.21 152.55 370.46 152.55 370.45 152.58 370.44" stroke-width="1.44"/>
      <polyline points="162.6 376.26 162.6 379.12 162.6 379.13" stroke-width="1.44"/>
      <line x1="142.56" x2="142.56" y1="365.46" y2="368.16" stroke-width="1.44"/>
      <polyline points="45.363 395.34 53.202 390.79 53.222 390.78" stroke-width="1.44"/>
      <line x1="18.782" x2="18.782" y1="395.63" y2="396.78" stroke-width="1.44"/>
      <line x1="32.823" x2="32.823" y1="403.74" y2="404.88" stroke-width="1.44"/>
      <polyline points="45.363 394.2 45.363 395.34 45.363 397.62 45.363 397.68" stroke-width="1.44"/>
      <polyline points="36.302 399.42 45.313 394.17 45.363 394.13" stroke-width="1.44"/>
      <line x1="22.213" x2="22.202" y1="391.32" y2="391.32" stroke-width="1.44"/>
      <polyline points="31.323 386.1 22.253 391.29 22.222 391.31" stroke-width="1.44"/>
      <line x1="57.843" x2="57.843" y1="418.2" y2="419.34" stroke-width="1.44"/>
      <line x1="32.823" x2="45.363" y1="404.88" y2="397.62" stroke-width="1.44"/>
      <polyline points="45.363 394.2 45.313 394.17 43.353 393.04 33.293 387.21 31.333 386.08 31.262 386.04" stroke-width="1.44"/>
      <line x1="43.863" x2="43.863" y1="410.1" y2="411.24" stroke-width="1.44"/>
      <polyline points="61.323 413.88 77.233 404.67 77.282 404.63" stroke-width="1.44"/>
      <line x1="47.293" x2="47.282" y1="405.78" y2="405.78" stroke-width="1.44"/>
      <polyline points="63.242 396.6 47.333 405.75 47.302 405.77" stroke-width="1.44"/>
      <line x1="117.84" x2="116.24" y1="444.71" y2="445.6" stroke-width="1.44"/>
      <polyline points="57.843 419.34 80.242 406.4 80.282 406.38" stroke-width="1.44"/>
      <polyline points="112.86 451.08 112.86 449.93 112.86 449.92 112.86 449.88" stroke-width="1.44"/>
      <polyline points="142.56 368.16 149.52 372.21 149.58 372.24" stroke-width="1.44"/>
      <polyline points="43.863 410.1 43.872 410.08 47.293 405.78 47.302 405.77 47.343 405.71" stroke-width="1.44"/>
      <line x1="22.262" x2="36.302" y1="391.32" y2="399.42" stroke-width="1.44"/>
      <polyline points="36.302 399.42 32.782 403.71 32.762 403.74" stroke-width="1.44"/>
      <polyline points="18.782 395.63 18.793 395.62 22.213 391.32 22.222 391.31 22.262 391.26" stroke-width="1.44"/>
      <polyline points="7.383 382.74 12.333 385.6 12.363 385.62" stroke-width="1.44"/>
      <polyline points="106.44 439.92 102.92 444.21 102.9 444.24" stroke-width="1.44"/>
      <line x1="92.363" x2="92.403" y1="431.81" y2="431.76" stroke-width="1.44"/>
      <polyline points="88.923 436.13 88.932 436.12 92.353 431.82" stroke-width="1.44"/>
      <line x1="67.383" x2="81.363" y1="417.36" y2="425.46" stroke-width="1.44"/>
      <polyline points="81.363 425.46 77.903 429.76 77.883 429.78" stroke-width="1.44"/>
      <line x1="67.343" x2="67.383" y1="417.35" y2="417.3" stroke-width="1.44"/>
      <polyline points="63.903 421.68 63.912 421.66 67.333 417.36" stroke-width="1.44"/>
      <line x1="47.343" x2="61.323" y1="405.78" y2="413.88" stroke-width="1.44"/>
      <polyline points="61.323 413.88 57.802 418.18 57.782 418.2" stroke-width="1.44"/>
      <polyline points="117.84 452.82 112.87 449.92 112.86 449.92 112.8 449.88" stroke-width="1.44"/>
      <polyline points="112.86 449.93 112.87 449.92 116.22 445.62 116.24 445.6 116.28 445.56" stroke-width="1.44"/>
      <polyline points="8.943 389.94 8.903 389.92 3.912 387.04 3.903 387.03 3.843 387" stroke-width="1.44"/>
      <polyline points="32.823 403.74 32.782 403.71 18.793 395.62 18.722 395.58" stroke-width="1.44"/>
      <polyline points="57.843 418.2 57.802 418.18 43.872 410.08 43.802 410.04" stroke-width="1.44"/>
      <polyline points="77.943 429.78 77.903 429.76 63.912 421.66 63.843 421.62" stroke-width="1.44"/>
      <polyline points="102.96 444.24 102.92 444.21 88.932 436.12 88.863 436.08" stroke-width="1.44"/>
      <line x1="92.403" x2="106.44" y1="431.82" y2="439.92" stroke-width="1.44"/>
      <line x1="116.28" x2="117.84" y1="445.62" y2="446.52" stroke-width="1.44"/>
      <line x1="7.333" x2="7.323" y1="382.74" y2="382.74" stroke-width="1.44"/>
      <polyline points="23.282 373.56 7.372 382.71 7.343 382.73" stroke-width="1.44"/>
      <polyline points="90.603 334.68 78.532 341.61 78.483 341.63" stroke-width="1.44"/>
      <path d="m117.84 469.13c0.05 2.1-1.46 2.899-3.24 1.93" stroke-width="1.44"/>
      <polyline points="114.6 471.06 61.083 440.15 60.662 439.91 7.083 408.96" stroke-width="1.44"/>
      <line x1="117.84" x2="117.84" y1="452.82" y2="469.13" stroke-width="1.44"/>
      <path d="m7.142 409.02c-0.02-0.02-0.04-0.03-0.06-0.05l-0.01-0.01c-1.8-1.2-3.17-3.38-3.17-5.58" stroke-width="1.44"/>
      <polyline points="3.903 403.38 3.903 403.37 3.903 387.06 3.903 387.03 3.903 387" stroke-width="1.44"/>
      <line x1="32.823" x2="43.863" y1="404.88" y2="411.24" stroke-width="1.44"/>
      <line x1="77.943" x2="88.923" y1="430.92" y2="437.28" stroke-width="1.44"/>
      <polyline points="31.323 378.18 8.943 391.05 8.883 391.08" stroke-width="1.44"/>
      <polyline points="95.583 341.04 86.552 346.24 86.523 346.26" stroke-width="1.44"/>
      <polyline points="28.323 376.44 12.333 385.6 12.302 385.62" stroke-width="1.44"/>
      <polyline points="95.583 337.56 83.543 344.51 83.523 344.52" stroke-width="1.44"/>
      <polyline points="8.943 389.94 8.943 391.05 8.943 391.08" stroke-width="1.44"/>
      <line x1="8.943" x2="18.782" y1="391.08" y2="396.78" stroke-width="1.44"/>
      <line x1="102.96" x2="112.86" y1="445.38" y2="451.08" stroke-width="1.44"/>
      <polyline points="95.583 341.04 104.44 346.19 104.46 346.2" stroke-width="1.44"/>
      <line x1="95.583" x2="95.583" y1="337.56" y2="341.04" stroke-width="1.44"/>
      <line x1="90.603" x2="95.583" y1="334.68" y2="337.56" stroke-width="1.44"/>
      <polyline points="90.603 331.8 90.603 331.83 90.603 334.68" stroke-width="1.44"/>
      <polyline points="12.363 385.62 8.903 389.92 8.883 389.94" stroke-width="1.44"/>
      <polyline points="3.903 387.06 3.912 387.04 7.333 382.74 7.343 382.73 7.383 382.68" stroke-width="1.44"/>
      <line x1="88.923" x2="88.923" y1="436.13" y2="437.28" stroke-width="1.44"/>
      <line x1="115.5" x2="117.84" y1="435.84" y2="434.46" stroke-width="1.44"/>
      <line x1="102.96" x2="102.96" y1="444.24" y2="445.38" stroke-width="1.44"/>
      <polyline points="115.5 434.7 115.5 435.84 115.5 438.12 115.5 438.18" stroke-width="1.44"/>
      <polyline points="106.44 439.92 115.45 434.67 115.5 434.63" stroke-width="1.44"/>
      <polyline points="115.5 434.7 115.45 434.67 113.49 433.54 103.43 427.71 101.47 426.58 101.4 426.54" stroke-width="1.44"/>
      <polyline points="101.46 426.6 92.392 431.79 92.363 431.81 92.353 431.82 92.343 431.82" stroke-width="1.44"/>
      <line x1="77.943" x2="77.943" y1="429.78" y2="430.92" stroke-width="1.44"/>
      <polyline points="83.282 408.18 67.372 417.33 67.343 417.35 67.333 417.36 67.323 417.36" stroke-width="1.44"/>
      <polyline points="81.363 425.46 97.282 416.24 97.323 416.21" stroke-width="1.44"/>
      <polyline points="77.943 430.92 100.29 417.98 100.32 417.96" stroke-width="1.44"/>
      <line x1="102.96" x2="115.5" y1="445.38" y2="438.12" stroke-width="1.44"/>
      <line x1="57.843" x2="63.903" y1="419.34" y2="422.82" stroke-width="1.44"/>
      <line x1="63.903" x2="63.903" y1="421.68" y2="422.82" stroke-width="1.44"/>
      <polyline points="142.56 368.16 133.56 373.35 133.5 373.38" stroke-width="1.44"/>
      <path d="m348.54 180.42c-0.44 5.46-13.68 5.4-14.16 0 0.379-5.4 13.799-5.49 14.16 0z" stroke-width="1.44"/>
      <line x1="224.22" x2="224.22" y1="196.32" y2="196.02" stroke-width=".72"/>
      <polyline points="366.54 365.58 366.54 291.24 366.54 290.34" stroke-width="1.44"/>
      <path d="m366.54 290.34v-0.061c-0.16-3.859-1.6-6.979-4.02-9.96" stroke-width="1.44"/>
      <path d="m366.48 278.04c2.26 2.71 4.02 6.39 4.02 9.96" stroke-width="1.44"/>
      <path d="m364.32 370.44c0.01-0.01 0.02-0.01 0.03-0.02 0.72-0.46 1.21-1.05 1.54-1.73 0.46-0.93 0.62-2.02 0.65-3.109" stroke-width="1.44"/>
      <path d="m370.5 363.24c0.03 1.83-0.48 3.631-1.79 4.61 0 0 0 0.01-0.01 0.01-0.58 0.431-1.31 0.721-2.22 0.771" stroke-width="1.44"/>
      <path d="m356.52 296.04c-0.18-3.891-1.61-6.881-4.02-9.9" stroke-width="1.44"/>
      <path d="m354.3 376.2c0.01-0.01 0.02-0.01 0.03-0.02 0.75-0.48 1.24-1.07 1.57-1.73 0.44-0.92 0.57-1.989 0.62-3.109" stroke-width="1.44"/>
      <path d="m360.48 369.06c0.08 1.811-0.59 3.811-2.06 4.76-0.05 0.04-0.11 0.07-0.16 0.101-0.51 0.31-1.11 0.479-1.8 0.479" stroke-width="1.44"/>
      <polyline points="326.4 391.74 325.82 391.84 325.68 391.86" stroke-width="1.44"/>
      <polyline points="336.42 385.98 335.86 386.03 335.7 386.04" stroke-width="1.44"/>
      <polyline points="356.46 374.4 355.9 374.45 355.74 374.46" stroke-width="1.44"/>
      <polyline points="346.44 380.21 345.86 380.27 345.72 380.28" stroke-width="1.44"/>
      <polyline points="366.48 368.63 365.89 368.69 365.76 368.7" stroke-width="1.44"/>
      <path d="m320.4 392.21c0.02 1.989-0.6 3.899-2.16 4.819-0.52 0.29-1.13 0.48-1.86 0.53" stroke-width="1.44"/>
      <polyline points="316.38 397.56 315.82 397.61 315.66 397.62" stroke-width="1.44"/>
      <path d="m314.22 399.36c0.01-0.01 0.02-0.01 0.03-0.02 0.75-0.48 1.24-1.07 1.57-1.73 0.44-0.92 0.57-1.989 0.62-3.109" stroke-width="1.44"/>
      <path d="m384.48 209.34c0.43-5.43 13.79-5.43 14.22 0-0.48 5.45-13.741 5.45-14.22 0z" stroke-width="1.44"/>
      <line x1="592.32" x2="602.34" y1="170.16" y2="164.28" stroke-width="1.44"/>
      <path d="m476.28 119.64c0.01-0.01 0.01-0.01 0.021-0.02 1.34-1.55 2.84-2.78 4.449-3.71 5.79-3.37 12.99-3.02 19.471-0.47" stroke-width="1.44"/>
      <polyline points="208.38 204.48 209.22 204.12 210.18 204" stroke-width="1.44"/>
      <polyline points="170.1 227.1 170.76 227.02 171.12 226.98 172.14 226.62" stroke-width="1.44"/>
      <polyline points="172.14 226.62 174.03 225.44 174.06 225.42" stroke-width="1.44"/>
      <path d="m174.06 225.48c0.18-0.11 0.45-0.23 0.42-0.48v-0.06l-0.12-0.12h-0.3" stroke-width="1.44"/>
      <polyline points="180.12 221.34 180.79 221.22 181.14 221.16 182.16 220.8" stroke-width="1.44"/>
      <path d="m184.08 219.66c0.45-0.09 0.67-0.7 0-0.6" stroke-width="1.44"/>
      <polyline points="190.14 215.52 190.8 215.44 191.16 215.4 192.18 215.04" stroke-width="1.44"/>
      <path d="m194.16 213.9c0.01-0.01 0.02-0.02 0.03-0.02 0.33-0.24 0.59-0.6-0.03-0.64" stroke-width="1.44"/>
      <polyline points="200.16 209.76 200.82 209.68 201.18 209.64 202.2 209.28" stroke-width="1.44"/>
      <polyline points="204.18 208.14 204.21 208.11 204.48 207.84 204.54 207.72 204.54 207.6 204.48 207.54 204.42 207.48 204.18 207.48" stroke-width="1.44"/>
      <polyline points="210.18 204 210.85 203.88 211.2 203.82 212.22 203.46" stroke-width="1.44"/>
      <path d="m214.2 202.32c0.01 0 0.02-0.01 0.03-0.02 0.28-0.14 0.62-0.64-0.03-0.64" stroke-width="1.44"/>
      <path d="m224.22 196.56 0.12-0.12 0.12-0.06 0.12-0.24 0.06-0.06c-0.25-0.22-0.06-0.17-0.42-0.18" stroke-width="1.44"/>
      <polyline points="220.2 198.18 220.86 198.1 221.22 198.06 222.24 197.7" stroke-width="1.44"/>
      <line x1="364.98" x2="361.92" y1="291.24" y2="292.98" stroke-width=".72"/>
      <polyline points="362.52 280.32 362.34 280.13 362.22 279.9 362.16 279.66 362.1 279.48 362.1 279.24 362.16 279.06 362.28 278.94 362.4 278.76 362.46 278.76 362.52 278.7" stroke-width="1.44"/>
      <line x1="366.48" x2="366.48" y1="286.56" y2="280.86" stroke-width=".72"/>
      <line x1="366.48" x2="366.48" y1="367.98" y2="366.84" stroke-width=".72"/>
      <polyline points="370.5 363.24 370.5 288.06 370.5 288" stroke-width="1.44"/>
      <line x1="362.04" x2="365.04" y1="368.16" y2="366.36" stroke-width=".72"/>
      <path d="m364.5 277.56c0.59-0.39 1.59-0.07 1.98 0.47" stroke-width="1.44"/>
      <line x1="331.98" x2="334.98" y1="385.5" y2="383.7" stroke-width=".72"/>
      <line x1="342" x2="345" y1="379.74" y2="377.94" stroke-width=".72"/>
      <line x1="263.82" x2="263.82" y1="354.18" y2="420.36" stroke-width=".72"/>
      <line x1="248.76" x2="248.76" y1="420.3" y2="354.06" stroke-width=".72"/>
      <line x1="244.86" x2="117.3" y1="347.34" y2="273.71" stroke-width=".72"/>
      <line x1="267.78" x2="312.54" y1="422.58" y2="396.66" stroke-width=".72"/>
      <line x1="321.96" x2="324.96" y1="391.26" y2="389.52" stroke-width=".72"/>
      <line x1="352.02" x2="355.02" y1="373.92" y2="372.18" stroke-width=".72"/>
      <line x1="454.74" x2="454.74" y1="310.08" y2="243.84" stroke-width=".72"/>
      <polyline points="453.9 318.12 453.3 318.9 453 319.13" stroke-width=".72"/>
      <polyline points="454.68 315.42 454.62 315.96 454.44 316.74" stroke-width=".72"/>
      <line x1="374.46" x2="450.84" y1="360.96" y2="316.86" stroke-width=".72"/>
      <line x1="364.5" x2="364.5" y1="281.76" y2="278.88" stroke-width=".72"/>
      <path d="m348.62 379.46c-0.58 0.439-1.3 0.72-2.18 0.76" stroke-width="1.44"/>
      <path d="m350.46 374.82c0.05 1.79-0.49 3.62-1.8 4.61" stroke-width="1.44"/>
      <line x1="350.46" x2="350.46" y1="374.82" y2="299.64" stroke-width="1.44"/>
      <polyline points="356.52 371.34 356.52 297 356.52 296.1 356.52 296.04" stroke-width="1.44"/>
      <line x1="354.48" x2="354.48" y1="287.52" y2="284.7" stroke-width=".72"/>
      <line x1="360.48" x2="360.48" y1="369.06" y2="293.82" stroke-width="1.44"/>
      <line x1="352.5" x2="352.5" y1="285.66" y2="284.82" stroke-width=".72"/>
      <path d="m354.48 283.32c0.65-0.279 1.61-0.09 1.98 0.54" stroke-width="1.44"/>
      <polyline points="362.52 278.7 364.47 277.52 364.5 277.5" stroke-width="1.44"/>
      <path d="m352.5 286.13c-0.46-0.521-0.65-1.2 0-1.681" stroke-width="1.44"/>
      <line x1="356.46" x2="356.46" y1="292.38" y2="286.62" stroke-width=".72"/>
      <line x1="356.46" x2="356.46" y1="373.8" y2="372.66" stroke-width=".72"/>
      <line x1="362.52" x2="362.52" y1="279.9" y2="279.06" stroke-width=".72"/>
      <path d="m356.46 283.86c2.02 2.21 3.79 6.021 4 9.16 0.02 0.25 0.02 0.5 0.02 0.74v0.06" stroke-width="1.44"/>
      <line x1="391.56" x2="391.56" y1="231" y2="228.06" stroke-width=".72"/>
      <polyline points="525.6 250.32 525.12 250.74 524.52 251.16" stroke-width=".72"/>
      <polyline points="527.04 247.92 526.98 248.1 526.62 249.06 526.56 249.12" stroke-width=".72"/>
      <polyline points="523.2 254.94 522.6 255.78 522.3 255.96" stroke-width=".72"/>
      <polyline points="523.98 252.24 523.92 252.78 523.74 253.56" stroke-width=".72"/>
      <polyline points="522.72 170.7 523.2 171.84 523.62 173.4 523.86 174.42" stroke-width=".72"/>
      <polyline points="518.16 164.4 518.82 165 519.9 166.2 520.74 167.22" stroke-width=".72"/>
      <polyline points="471.42 282.36 471.3 282.48 470.88 283.08" stroke-width=".72"/>
      <line x1="472.98" x2="472.14" y1="281.04" y2="281.52" stroke-width=".72"/>
      <polyline points="525.6 175.08 525.12 175.56 524.52 175.92" stroke-width=".72"/>
      <polyline points="527.04 172.68 526.98 172.92 526.62 173.82 526.56 173.94" stroke-width=".72"/>
      <polyline points="518.34 162.48 517.68 162.66 517.08 162.96" stroke-width=".72"/>
      <polyline points="521.1 162.42 520.92 162.36 519.9 162.24 519.78 162.24" stroke-width=".72"/>
      <polyline points="472.62 284.16 471.96 285 471.72 285.18" stroke-width=".72"/>
      <polyline points="473.34 281.46 473.34 282 473.16 282.78" stroke-width=".72"/>
      <polyline points="468.72 202.92 469.56 204.12 470.16 205.5 470.4 206.34" stroke-width=".72"/>
      <polyline points="462.36 198.48 463.56 198.9 465.06 199.62 465.84 200.16" stroke-width=".72"/>
      <line x1="455.82" x2="455.04" y1="313.86" y2="314.4" stroke-width=".72"/>
      <polyline points="457.2 312.36 456.84 312.9 456.6 313.08" stroke-width=".72"/>
      <polyline points="472.14 199.92 472.62 201.06 473.04 202.62 473.22 203.58" stroke-width=".72"/>
      <polyline points="467.52 193.62 468.24 194.22 469.32 195.36 470.16 196.44" stroke-width=".72"/>
      <polyline points="471.42 207.12 471.3 207.24 470.88 207.9" stroke-width=".72"/>
      <polyline points="472.98 205.8 472.2 206.28 472.2 206.34" stroke-width=".72"/>
      <line x1="457.14" x2="456.9" y1="313.86" y2="314.46" stroke-width=".72"/>
      <line x1="457.44" x2="457.38" y1="312.3" y2="313.02" stroke-width=".72"/>
      <line x1="470.34" x2="470.1" y1="285.42" y2="286.02" stroke-width=".72"/>
      <line x1="470.64" x2="470.52" y1="283.86" y2="284.58" stroke-width=".72"/>
      <polyline points="254.22 426.54 253.02 426.35 251.46 426 250.5 425.63" stroke-width=".72"/>
      <polyline points="261.96 425.7 261.12 426 259.56 426.35 258.24 426.54" stroke-width=".72"/>
      <polyline points="453.42 233.88 453.9 235.02 454.32 236.52 454.56 237.54" stroke-width=".72"/>
      <polyline points="448.86 227.58 449.52 228.18 450.6 229.32 451.44 230.4" stroke-width=".72"/>
      <polyline points="262.98 428.34 262.38 429.12 262.14 429.35" stroke-width=".72"/>
      <polyline points="263.76 425.63 263.7 426.18 263.52 426.96" stroke-width=".72"/>
      <polyline points="249.6 428.34 250.2 429.12 250.5 429.35" stroke-width=".72"/>
      <polyline points="248.82 425.63 248.88 426.18 249.06 426.96" stroke-width=".72"/>
      <line x1="455.82" x2="455.04" y1="238.68" y2="239.16" stroke-width=".72"/>
      <polyline points="457.2 237.12 456.84 237.66 456.6 237.9" stroke-width=".72"/>
      <polyline points="455.52 231.36 456.36 232.56 456.96 233.94 457.2 234.78" stroke-width=".72"/>
      <polyline points="449.16 226.92 450.36 227.34 451.86 228.06 452.64 228.6" stroke-width=".72"/>
      <polyline points="254.22 351.3 253.02 351.12 251.46 350.76 250.5 350.46" stroke-width=".72"/>
      <polyline points="261.96 350.46 261.12 350.76 259.56 351.12 258.24 351.3" stroke-width=".72"/>
      <polyline points="250.08 344.1 249.6 345.24 249.12 346.74 248.94 347.76" stroke-width=".72"/>
      <polyline points="254.64 337.8 253.98 338.4 252.9 339.54 252.06 340.62" stroke-width=".72"/>
      <polyline points="262.56 344.1 262.98 345.24 263.46 346.74 263.64 347.76" stroke-width=".72"/>
      <polyline points="257.94 337.8 258.6 338.4 259.68 339.54 260.52 340.62" stroke-width=".72"/>
      <polyline points="260.22 334.32 312.93 303.88 332.97 292.3 352.99 280.75 353.02 280.73 443.28 228.6" stroke-width=".72"/>
      <line x1="124.98" x2="252.42" y1="260.82" y2="334.38" stroke-width=".72"/>
      <line x1="469.86" x2="512.58" y1="190.2" y2="165.42" stroke-width=".72"/>
      <polyline points="461.94 195.6 461.1 196.74 460.86 197.16" stroke-width=".72"/>
      <polyline points="465 193.02 464.4 193.44 463.5 194.16" stroke-width=".72"/>
      <line x1="449.1" x2="458.52" y1="222.3" y2="202.02" stroke-width=".72"/>
      <line x1="512.58" x2="425.16" y1="160.98" y2="110.46" stroke-width=".72"/>
      <line x1="520.08" x2="477.24" y1="178.56" y2="203.22" stroke-width=".72"/>
      <line x1="473.4" x2="473.4" y1="210.06" y2="276.18" stroke-width=".72"/>
      <line x1="477.36" x2="520.14" y1="278.4" y2="253.68" stroke-width=".72"/>
      <line x1="334.92" x2="331.86" y1="308.58" y2="310.32" stroke-width=".72"/>
      <line x1="324.9" x2="321.84" y1="314.4" y2="316.08" stroke-width=".72"/>
      <line x1="468.72" x2="459.3" y1="212.4" y2="232.62" stroke-width=".72"/>
      <line x1="457.44" x2="457.44" y1="241.26" y2="307.38" stroke-width=".72"/>
      <line x1="470.64" x2="470.64" y1="278.88" y2="212.7" stroke-width=".72"/>
      <line x1="459.36" x2="468.78" y1="307.74" y2="287.46" stroke-width=".72"/>
      <line x1="524.04" x2="524.04" y1="246.96" y2="180.72" stroke-width=".72"/>
      <line x1="354.96" x2="351.9" y1="297" y2="298.74" stroke-width=".72"/>
      <line x1="312.48" x2="267.66" y1="321.54" y2="347.4" stroke-width=".72"/>
      <line x1="450.78" x2="374.34" y1="241.68" y2="285.78" stroke-width=".72"/>
      <path d="m314.4 306.48c0.67-0.35 1.51-0.08 1.98 0.47" stroke-width="1.44"/>
      <polyline points="312.42 307.62 314.37 306.44 314.4 306.42" stroke-width="1.44"/>
      <polyline points="312.42 309.3 312.24 309.06 312.12 308.82 312.06 308.58 312 308.4 312 308.16 312.06 307.98 312.42 307.62" stroke-width="1.44"/>
      <line x1="306.6" x2="222.3" y1="147.78" y2="196.38" stroke-width="1.44"/>
      <path d="m316.38 306.96c2.11 2.529 3.78 5.91 4 9.25 0.01 0.239 0.02 0.47 0.02 0.71" stroke-width="1.44"/>
      <path d="m316.44 319.2c-0.08-3.42-1.81-7.319-4.02-9.899" stroke-width="1.44"/>
      <line x1="171.12" x2="251.28" y1="261.42" y2="307.68" stroke-width="1.44"/>
      <path d="m251.28 307.68c5.45 3.22 14.59 3.24 20.04 0" stroke-width="1.44"/>
      <line x1="271.32" x2="391.56" y1="307.68" y2="238.2" stroke-width="1.44"/>
      <path d="m391.56 238.26c0.01-0.01 0.02-0.01 0.03-0.02 1.46-0.82 2.55-1.79 3.239-2.84 1.931-2.91 0.86-6.4-3.27-8.72" stroke-width="1.44"/>
      <polyline points="391.56 226.68 311.41 180.4 311.34 180.36" stroke-width="1.44"/>
      <polyline points="394.8 235.38 393.96 234.3 392.88 233.34 391.56 232.5" stroke-width="1.44"/>
      <polyline points="391.56 232.5 311.41 186.16 311.34 186.12" stroke-width="1.44"/>
      <line x1="316.38" x2="316.38" y1="315.54" y2="309.78" stroke-width=".72"/>
      <line x1="316.38" x2="316.38" y1="396.9" y2="395.76" stroke-width=".72"/>
      <line x1="314.4" x2="314.4" y1="310.68" y2="307.86" stroke-width=".72"/>
      <polyline points="320.4 392.21 320.4 316.98 320.4 316.92" stroke-width="1.44"/>
      <line x1="312.42" x2="312.42" y1="308.82" y2="307.98" stroke-width=".72"/>
      <polyline points="114.78 265.98 114.3 267.12 113.88 268.62 113.64 269.63" stroke-width=".72"/>
      <polyline points="119.4 259.68 118.68 260.28 117.6 261.42 116.76 262.5" stroke-width=".72"/>
      <line x1="231.42" x2="244.86" y1="414.84" y2="422.63" stroke-width=".72"/>
      <path d="m326.4 301.2c2.06 2.36 3.79 5.96 4 9.21 0.01 0.221 0.02 0.461 0.02 0.69" stroke-width="1.44"/>
      <polyline points="322.44 301.8 324.4 300.67 324.42 300.66" stroke-width="1.44"/>
      <polyline points="316.44 394.5 316.44 319.26 316.44 319.2" stroke-width="1.44"/>
      <line x1="124.98" x2="308.04" y1="256.26" y2="150.48" stroke-width=".72"/>
      <polyline points="530.88 86.936 521.08 92.536 520.8 92.696" stroke-width="1.44"/>
      <line x1="174.06" x2="174.06" y1="225.24" y2="224.94" stroke-width=".72"/>
      <line x1="113.46" x2="113.46" y1="291.54" y2="276" stroke-width=".72"/>
      <line x1="316.44" x2="356.7" y1="147.6" y2="141.36" stroke-width=".72"/>
      <polyline points="364.74 139.92 363.3 140.28 362.34 140.46" stroke-width=".72"/>
      <polyline points="369.54 138.12 369.06 138.36 367.26 139.14 367.26 139.08" stroke-width=".72"/>
      <line x1="374.64" x2="417.42" y1="135.24" y2="110.46" stroke-width=".72"/>
      <polyline points="111.9 270.36 112.38 270.78 112.98 271.2" stroke-width=".72"/>
      <polyline points="110.46 267.96 110.52 268.13 110.88 269.1 110.94 269.16" stroke-width=".72"/>
      <polyline points="117.6 257.52 116.58 257.63 116.28 257.76" stroke-width=".72"/>
      <polyline points="120.3 258.18 119.82 257.94 119.1 257.7" stroke-width=".72"/>
      <polyline points="182.16 220.8 184.05 219.62 184.08 219.6" stroke-width="1.44"/>
      <polyline points="184.08 219.06 183.06 219.18 182.23 219.57 182.16 219.6 181.38 220.26 180.78 221.16" stroke-width="1.44"/>
      <line x1="184.08" x2="184.08" y1="219.48" y2="219.12" stroke-width=".72"/>
      <line x1="192.18" x2="194.16" y1="215.04" y2="213.84" stroke-width="1.44"/>
      <line x1="194.16" x2="194.16" y1="213.66" y2="213.36" stroke-width=".72"/>
      <line x1="261.6" x2="314.22" y1="429.71" y2="399.3" stroke-width="1.44"/>
      <polyline points="214.2 201.66 213.12 201.84 212.29 202.23 212.22 202.26 211.44 202.92 210.84 203.82" stroke-width="1.44"/>
      <polyline points="218.4 198.66 219.24 198.3 220.2 198.18" stroke-width="1.44"/>
      <polyline points="178.32 221.82 179.16 221.46 180.12 221.34" stroke-width="1.44"/>
      <polyline points="188.34 216.06 189.18 215.7 190.14 215.52" stroke-width="1.44"/>
      <polyline points="194.16 213.24 193.08 213.42 192.28 213.79 192.28 213.8 192.18 213.84 191.4 214.5 190.8 215.4" stroke-width="1.44"/>
      <line x1="214.2" x2="214.2" y1="202.08" y2="201.78" stroke-width=".72"/>
      <line x1="212.22" x2="214.2" y1="203.46" y2="202.26" stroke-width="1.44"/>
      <line x1="204.18" x2="204.18" y1="207.9" y2="207.54" stroke-width=".72"/>
      <polyline points="204.18 207.48 203.1 207.6 202.3 208.03 202.2 208.08 201.42 208.74 200.82 209.64" stroke-width="1.44"/>
      <line x1="202.2" x2="204.18" y1="209.28" y2="208.08" stroke-width="1.44"/>
      <line x1="171.12" x2="171.12" y1="254.1" y2="251.21" stroke-width=".72"/>
      <line x1="291.36" x2="291.36" y1="184.68" y2="181.8" stroke-width=".72"/>
      <line x1="311.4" x2="311.4" y1="184.68" y2="181.8" stroke-width=".72"/>
      <polyline points="367.26 136.5 366.3 136.62 366 136.74" stroke-width=".72"/>
      <polyline points="370.02 137.16 369.54 136.92 368.76 136.68" stroke-width=".72"/>
      <polyline points="417.9 107.28 416.88 107.4 416.58 107.52" stroke-width=".72"/>
      <polyline points="420.6 107.94 420.12 107.7 419.34 107.52" stroke-width=".72"/>
      <polyline points="423.12 107.52 422.46 107.7 421.86 108" stroke-width=".72"/>
      <polyline points="425.88 107.46 425.7 107.4 424.68 107.28 424.62 107.28" stroke-width=".72"/>
      <polyline points="308.46 147.3 307.5 147.42 307.2 147.54" stroke-width=".72"/>
      <polyline points="311.22 147.96 310.74 147.72 309.96 147.48" stroke-width=".72"/>
      <polyline points="360.24 139.2 360.12 139.08 359.94 138.96 359.82 138.9" stroke-width=".72"/>
      <polyline points="360.96 140.34 360.78 139.92 360.72 139.86" stroke-width=".72"/>
      <polyline points="310.98 146.82 310.86 146.7 310.68 146.58 310.56 146.52" stroke-width=".72"/>
      <polyline points="311.76 147.96 311.52 147.54 311.46 147.48" stroke-width=".72"/>
      <path d="m330.42 386.4c0.07 1.69-0.5 3.61-1.8 4.61-0.01 0.02-0.02 0.02-0.04 0.02-0.02 0.021-0.05 0.04-0.07 0.051-0.57 0.42-1.26 0.68-2.11 0.649" stroke-width="1.44"/>
      <path d="m324.24 393.54c0.01-0.011 0.02-0.011 0.03-0.021 0.72-0.39 1.22-0.979 1.55-1.68 0.46-0.97 0.62-2.141 0.64-3.16" stroke-width="1.44"/>
      <path d="m322.44 303.48-0.18-0.189-0.12-0.23-0.12-0.479v-0.181c0.07-0.3 0.23-0.399 0.42-0.6v-0.01" stroke-width="1.44"/>
      <path d="m326.46 313.44c-0.11-3.819-1.71-7-4.02-9.96" stroke-width="1.44"/>
      <polyline points="326.46 388.68 326.46 314.4 326.46 313.5 326.46 313.44" stroke-width="1.44"/>
      <polyline points="330.42 386.4 330.42 311.16 330.42 311.1" stroke-width="1.44"/>
      <line x1="593.52" x2="580.92" y1="50.756" y2="58.016" stroke-width="1.44"/>
      <polyline points="277.75 256.21 276.1 256.28 274.44 256.57 272.86 257 271.56 257.65" stroke-width="1.2"/>
      <polyline points="252.19 274.79 252.19 268.77 252.19 267.86 252.19 267.8" stroke-width="1.2"/>
      <path d="m252.19 274.79c-0.81 10.93-27.58 10.93-28.36 0" stroke-width="1.2"/>
      <polyline points="267.53 225.03 267.53 227.73 267.53 227.77" stroke-width="1.2"/>
      <polyline points="223.83 267.87 223.83 268.43 223.83 274.79" stroke-width="1.2"/>
      <line x1="271.56" x2="271.56" y1="252.54" y2="255.92" stroke-width=".6"/>
      <polyline points="271.56 257.65 252.19 268.77 252.12 268.81" stroke-width="1.2"/>
      <polyline points="304.32 256.64 277.83 256.21 277.75 256.21" stroke-width="1.2"/>
      <polyline points="277.75 249.3 276.1 249.37 274.44 249.59 272.86 250.09 271.56 250.74" stroke-width="1.2"/>
      <line x1="277.83" x2="277.83" y1="251.1" y2="254.48" stroke-width=".6"/>
      <polyline points="323.04 241.81 323.04 248.76 323.04 248.79" stroke-width="1.2"/>
      <polyline points="327.15 244.18 327.15 251.06 327.15 251.1" stroke-width="1.2"/>
      <line x1="339.17" x2="339.17" y1="237.2" y2="244.18" stroke-width="1.2"/>
      <polyline points="327.15 244.18 327.11 244.16 323.05 241.79 322.97 241.74" stroke-width="1.2"/>
      <polyline points="323.04 241.81 312.63 247.78 312.6 247.79" stroke-width="1.2"/>
      <path d="m312.67 247.79c-0.01 0.01-0.02 0.01-0.03 0.01 0 0.01-0.02 0.01-0.03 0.01-2.5 1.42-5.44 1.92-8.29 1.92" stroke-width="1.2"/>
      <polyline points="304.32 249.73 303.34 249.72 277.83 249.3 277.75 249.3" stroke-width="1.2"/>
      <polyline points="271.56 250.74 270.78 251.18 249.74 263.23 249.67 263.26" stroke-width="1.2"/>
      <polyline points="303.39 246.56 305.04 246.49 306.77 246.2 308.28 245.77 309.58 245.12" stroke-width="1.2"/>
      <polyline points="309.58 245.12 315.12 241.87 319.09 239.54 319.15 239.51" stroke-width="1.2"/>
      <polyline points="319.15 239.58 319.09 239.54 315.15 237.19 315.05 237.13" stroke-width="1.2"/>
      <polyline points="315.12 237.2 315.15 237.19 327.11 230.24 327.15 230.22" stroke-width="1.2"/>
      <polyline points="327.15 230.29 328.62 231.13 339.17 237.2" stroke-width="1.2"/>
      <polyline points="339.17 237.2 327.11 244.16 327.07 244.18" stroke-width="1.2"/>
      <polyline points="318.15 214.67 318.19 214.65 334.56 212.07" stroke-width="1.2"/>
      <polyline points="334.56 212.07 330.11 221.54 330.1 221.58" stroke-width="1.2"/>
      <polyline points="330.17 221.58 330.11 221.54 326.08 219.18 325.99 219.13" stroke-width="1.2"/>
      <polyline points="326.07 219.2 279.4 246.09 279.34 246.13" stroke-width="1.2"/>
      <line x1="291.09" x2="303.39" y1="246.35" y2="246.56" stroke-width="1.2"/>
      <line x1="279.41" x2="291.07" y1="246.13" y2="246.35" stroke-width="1.2"/>
      <polyline points="272.28 229.43 260.1 236.45 260.04 236.48" stroke-width="1.2"/>
      <polyline points="260.11 236.48 260.06 236.51 259.04 237.2 258.32 237.99 257.81 238.93 257.59 239.79" stroke-width="1.2"/>
      <line x1="257.59" x2="256.87" y1="239.79" y2="254.77" stroke-width="1.2"/>
      <polyline points="256.87 254.77 257.24 254.55 318.15 219.27 322.19 216.93 322.25 216.9" stroke-width="1.2"/>
      <polyline points="322.25 216.97 322.19 216.93 318.19 214.65 318.07 214.59" stroke-width="1.2"/>
      <polyline points="248.88 259.38 248.92 259.35 249.89 258.66 250.68 257.86 251.11 256.93 251.33 256.07" stroke-width="1.2"/>
      <line x1="251.33" x2="252.19" y1="256.07" y2="239.15" stroke-width="1.2"/>
      <path d="m252.19 239.15v-0.08c0.09-1.959 1.79-3.38 3.32-4.39" stroke-width="1.2"/>
      <polyline points="255.51 234.68 267.53 227.73 268.43 227.22 268.47 227.19" stroke-width="1.2"/>
      <path d="m268.47 227.27c-0.02-0.02-0.03-0.04-0.04-0.05-1.84-2.28-0.56-4.47 1.76-5.71 3.45-1.82 7.78-1.77 11.31-0.22 2.21 1.31 3.09 2.65 3.09 3.86 0 3.53-7.51 6.08-12.31 4.28" stroke-width="1.2"/>
      <line x1="245.93" x2="248.88" y1="261.03" y2="259.31" stroke-width="1.2"/>
      <path d="m249.75 263.26c1.69 1.52 2.43 3.1 2.43 4.6 0 2.4-1.87 4.63-4.74 6.13-5.47 2.7-13.25 2.83-18.72 0.08-2.73-1.35-4.64-3.38-4.89-5.64-0.2-1.64 0.48-3.39 2.3-5.09 4.8-4.141 14.08-4.58 19.8-2.311" stroke-width="1.2"/>
      <line x1="304.32" x2="304.32" y1="251.53" y2="254.91" stroke-width=".6"/>
      <line x1="312.67" x2="312.67" y1="249.59" y2="252.97" stroke-width=".6"/>
      <line x1="272.28" x2="272.28" y1="229.43" y2="236.41" stroke-width="1.2"/>
      <polyline points="284.59 232.02 284.59 225.15 284.59 224.96" stroke-width="1.2"/>
      <polyline points="326.07 219.2 326.07 226.16 326.07 226.19" stroke-width="1.2"/>
      <polyline points="330.17 221.58 330.17 228.41 330.17 228.56" stroke-width="1.2"/>
      <line x1="334.56" x2="334.56" y1="212.07" y2="219.06" stroke-width="1.2"/>
      <polyline points="318.15 214.67 318.15 219.27 318.15 219.35" stroke-width="1.2"/>
      <polyline points="315.12 237.2 315.12 241.87 315.12 241.95" stroke-width="1.2"/>
      <line x1="257.59" x2="257.59" y1="241.67" y2="245.05" stroke-width=".6"/>
      <line x1="260.11" x2="260.11" y1="238.28" y2="241.74" stroke-width=".6"/>
      <path d="m312.67 254.77c-0.01 0.01-0.02 0.01-0.03 0.01 0 0.011-0.02 0.011-0.03 0.011-2.31 1.229-5.71 2.04-8.29 1.85" stroke-width="1.2"/>
      <polyline points="323.04 248.79 312.63 254.76 312.6 254.77" stroke-width="1.2"/>
      <polyline points="327.15 251.1 327.11 251.07 323.04 248.76 322.97 248.72" stroke-width="1.2"/>
      <polyline points="339.17 244.18 327.15 251.06 327.11 251.07 327.07 251.1" stroke-width="1.2"/>
      <polyline points="326.07 226.19 291.09 246.35 291.07 246.35" stroke-width="1.2"/>
      <polyline points="330.17 228.56 330.11 228.53 328.65 227.66 326.07 226.16 325.99 226.11" stroke-width="1.2"/>
      <polyline points="334.56 219.06 330.17 228.41 330.11 228.53 330.1 228.56" stroke-width="1.2"/>
      <line x1="257.59" x2="257.24" y1="246.78" y2="254.55" stroke-width="1.2"/>
      <polyline points="260.11 243.47 260.06 243.5 259.04 244.18 258.32 244.98 257.81 245.84 257.59 246.78" stroke-width="1.2"/>
      <polyline points="272.28 236.41 260.1 243.43 260.04 243.47" stroke-width="1.2"/>
      <path d="m284.59 232.02c-0.54 4.86-8.71 5.58-12.31 4.39" stroke-width="1.2"/>
      <polyline points="592.92 76.376 582.89 82.106 582.84 82.136" stroke-width="1.44"/>
      <path d="m582.9 82.136c3.1 2.44 6.04 5.21 8.79 8.25 9.39 10.36 16.479 23.72 19.59 36.81 0.15 0.6 0.29 1.22 0.42 1.85 2.12 10.11 2.19 23.56-4.859 31.57-1.261 1.42-2.74 2.67-4.471 3.7-0.01 0.01-0.02 0.01-0.029 0.02" stroke-width="1.44"/>
      <path d="m606.84 160.62c2.06-0.43 3.89-1.13 5.5-2.07 10.05-5.75 11.81-20.12 10.1-31.05-2.75-19.12-14.32-39.19-29.521-51.12" stroke-width="1.44"/>
      <polyline points="602.4 139.08 592.37 144.81 592.32 144.84" stroke-width="1.44"/>
      <polyline points="592.38 159.3 602.37 153.5 602.4 153.48" stroke-width="1.44"/>
      <path d="m542.82 105.3c3.1 2.43 6.03 5.2 8.76 8.22 9.41 10.37 16.45 23.73 19.62 36.84 0.15 0.61 0.29 1.23 0.42 1.86 2.11 10.12 2.17 23.45-4.85 31.5-1.26 1.44-2.74 2.71-4.48 3.76-0.01 0.01-0.02 0.01-0.029 0.02" stroke-width="1.44"/>
      <path d="m566.76 183.72h0.01c2.06-0.42 3.88-1.11 5.49-2.02 10.09-5.7 11.72-20.11 10.1-31.1-2.77-19.1-14.35-39.14-29.52-51.06" stroke-width="1.44"/>
      <polyline points="552.84 99.536 542.81 105.27 542.76 105.3" stroke-width="1.44"/>
      <polyline points="552.3 182.46 562.29 176.66 562.32 176.64" stroke-width="1.44"/>
      <path d="m562.32 176.7c-1.13 6.57-4.04 12.66-9.32 16.09-1.8 1.18-3.89 2.05-6.279 2.51" stroke-width="1.44"/>
      <path d="m533.05 204.31c9.43-6.17 10.8-20.2 9.17-30.91-2.88-19.12-14.32-38.73-29.46-50.76" stroke-width="1.44"/>
      <path d="m527.1 206.82c2.24-0.53 4.189-1.37 5.88-2.46" stroke-width="1.44"/>
      <path d="m502.74 128.46c3.13 2.46 6.061 5.22 8.771 8.21 7.88 8.67 13.93 19.29 17.689 30.13 0.891 2.65 1.7 5.58 2.32 8.64 2.149 10.57 2.09 22.73-4.42 30.9" stroke-width="1.44"/>
      <path d="m552.3 168v-0.03c-0.57-3.9-1.511-7.83-2.771-11.73-4.28-13.31-12.32-26.16-22.07-35.34-0.409-0.39-0.83-0.79-1.26-1.18-7.63-6.92-19.37-13.74-29.88-11.66-1.89 0.37-3.74 1.03-5.52 2.04" stroke-width="1.44"/>
      <polyline points="562.32 162.24 552.3 167.97 552.24 168" stroke-width="1.44"/>
      <path d="m496.32 108.06c1.48-1.66 3.1-2.94 4.8-3.9 9.98-5.6 23.07 0.09 31.681 6.96 15.25 12 26.729 31.92 29.52 51.12" stroke-width="1.44"/>
      <path d="m542.16 199.08c0.01-0.01 0.021-0.01 0.03-0.02 1.75-1 3.26-2.28 4.53-3.76 3.06-3.54 4.819-8.23 5.58-12.84" stroke-width="1.44"/>
      <polyline points="512.76 122.64 502.72 128.43 502.68 128.46" stroke-width="1.44"/>
      <path d="m644.94 139.74c0.01-0.01 0.02-0.01 0.03-0.02 8.13-5.12 10.85-14.44 10.55-24.52-0.36-12.65-5.46-26.49-10.58-34.74-4.75-8.66-14.11-20.05-24.88-26.65-8.5-5.23-17.87-7.47-26.54-3.05" stroke-width="1.44"/>
      <path d="m512.76 135.96c10.58 9.35 18.92 25.18 18.779 39.48" stroke-width="1.44"/>
      <polyline points="511.5 136.68 511.51 136.67 512.76 135.9" stroke-width="1.44"/>
      <polyline points="512.76 122.64 512.76 135.9 512.76 135.96" stroke-width="1.44"/>
      <path d="m550.8 155.58c0-0.01 0-0.02-0.011-0.03v-0.02c-2.68-13.51-12.35-28.98-24.59-35.81-0.08-0.05-0.16-0.1-0.24-0.14" stroke-width="1.44"/>
      <polyline points="549.54 156.24 550.77 155.54 550.79 155.53 550.8 155.52" stroke-width="1.44"/>
      <polyline points="562.32 162.24 550.79 155.55 550.77 155.54 550.74 155.52" stroke-width="1.44"/>
      <path d="m552.84 112.8c10.5 9.21 18.97 25.27 18.779 39.42v0.06" stroke-width="1.44"/>
      <line x1="551.58" x2="552.84" y1="113.52" y2="112.74" stroke-width="1.44"/>
      <path d="m592.38 144.84c0-0.01 0-0.02-0.01-0.03-0.56-3.9-1.49-7.82-2.729-11.68-4.271-13.33-12.261-26.04-22.101-35.39-0.399-0.39-0.819-0.78-1.25-1.18-7.63-6.91-19.38-13.73-29.89-11.66-1.89 0.38-3.74 1.04-5.521 2.04" stroke-width="1.44"/>
      <polyline points="552.84 99.536 552.84 112.74 552.84 112.8" stroke-width="1.44"/>
      <path d="m590.88 132.42c0-0.01 0-0.02-0.01-0.03v-0.02c-2.75-13.72-12.229-28.79-24.58-35.81-0.08-0.05-0.17-0.09-0.25-0.14" stroke-width="1.44"/>
      <polyline points="589.62 133.14 589.64 133.13 590.85 132.38 590.87 132.37 590.88 132.36" stroke-width="1.44"/>
      <path d="m536.4 84.896c1.479-1.66 3.09-2.94 4.79-3.89 9.99-5.58 23.09 0.11 31.689 6.95 15.25 11.94 26.73 31.95 29.521 51.12" stroke-width="1.44"/>
      <path d="m602.4 153.54c-1.29 7.21-4.24 13.26-10.1 16.58-1.601 0.91-3.431 1.61-5.5 2.08" stroke-width="1.44"/>
      <polyline points="602.4 139.08 590.87 132.39 590.85 132.38 590.82 132.36" stroke-width="1.44"/>
      <path d="m582.3 175.92c0.01-0.01 0.02-0.01 0.029-0.02 1.73-0.98 3.21-2.24 4.45-3.71 3.08-3.57 4.82-8.3 5.6-12.89" stroke-width="1.44"/>
      <path d="m592.92 89.696c10.53 9.19 18.95 25.18 18.78 39.35v0.13" stroke-width="1.44"/>
      <polyline points="592.92 76.376 592.92 89.636 592.92 89.696" stroke-width="1.44"/>
      <line x1="591.72" x2="592.92" y1="90.356" y2="89.636" stroke-width="1.44"/>
      <path d="m632.46 121.74c0-0.01 0-0.02-0.01-0.03-0.57-3.93-1.49-7.85-2.729-11.72-4.25-13.35-12.19-25.96-22.101-35.41-0.47-0.44-0.95-0.88-1.45-1.31-7.819-6.91-19.159-13.58-29.68-11.49-1.88 0.37-3.729 1.03-5.53 2" stroke-width="1.44"/>
      <path d="m576.48 61.736c1.38-1.54 2.88-2.76 4.46-3.68 10.03-5.92 23.34-0.21 32.02 6.74 15.23 11.94 26.74 31.98 29.521 51.12" stroke-width="1.44"/>
      <path d="m630.96 109.26c0-0.01 0-0.02-0.01-0.03v-0.02c-2.88-14-12.21-28.74-24.77-35.95" stroke-width="1.44"/>
      <polyline points="642.48 115.92 630.95 109.23 630.93 109.22 630.9 109.2" stroke-width="1.44"/>
      <polyline points="629.76 109.98 630.93 109.22 630.95 109.21 630.96 109.2" stroke-width="1.44"/>
      <path d="m626.89 149.04c3.06-3.54 4.75-8.24 5.569-12.84" stroke-width="1.44"/>
      <path d="m622.38 152.76c0.011-0.01 0.021-0.01 0.03-0.02 1.75-0.98 3.24-2.24 4.47-3.7" stroke-width="1.44"/>
      <path d="m642.48 130.38c-1.03 6.84-4.32 13.27-10.08 16.62-1.64 0.95-3.47 1.65-5.51 2.04h-0.011" stroke-width="1.44"/>
      <polyline points="580.38 69.116 570.32 74.926 570.3 74.936" stroke-width="1.44"/>
      <path d="m709.26 2.396c13.18-7.06 29.83 9.87 35.399 20.46 6.4 10.07 12.681 32.98 0.03 40.9-0.01 0.01-0.021 0.01-0.03 0.02" stroke-width="1.44"/>
      <polyline points="348.24 379.68 348.62 379.46 348.66 379.43 354.3 376.13" stroke-width="1.44"/>
      <path d="m570.36 74.936c-0.01-0.01-0.03-0.01-0.04-0.01-4.28-1.69-9.27-2.49-13.88-1.61-1.93 0.36-3.8 1.03-5.521 2.04" stroke-width="1.44"/>
      <path d="m556.44 73.316c1.46-1.64 3.06-2.92 4.76-3.86 5.74-3.21 12.63-2.74 19.18-0.34" stroke-width="1.44"/>
      <path d="m516.36 96.476c1.46-1.65 3.05-2.93 4.75-3.89 5.73-3.23 12.62-2.76 19.19-0.31" stroke-width="1.44"/>
      <path d="m530.28 98.036c-0.01 0-0.03-0.01-0.04-0.01-4.39-1.61-9.29-2.43-13.88-1.55-1.91 0.36-3.77 1.02-5.52 2.04" stroke-width="1.44"/>
      <polyline points="540.3 92.276 530.24 98.026 530.22 98.036" stroke-width="1.44"/>
      <polyline points="224.22 195.9 223.14 196.08 222.34 196.45 222.34 196.46 222.24 196.5 221.46 197.16 220.86 198.06" stroke-width="1.44"/>
      <path d="m490.2 121.2c-0.01 0-0.03-0.01-0.04-0.01-4.479-1.64-9.29-2.46-13.859-1.57-1.9 0.37-3.761 1.03-5.54 2.06" stroke-width="1.44"/>
      <polyline points="500.22 115.44 490.16 121.19 490.14 121.2" stroke-width="1.44"/>
      <line x1="222.24" x2="224.22" y1="197.7" y2="196.5" stroke-width="1.44"/>
      <polyline points="198.36 210.24 199.2 209.88 200.16 209.76" stroke-width="1.44"/>
      <polyline points="532.14 204.84 532.98 204.36 533.05 204.31 542.16 199.02" stroke-width="1.44"/>
      <line x1="188.34" x2="182.22" y1="216.06" y2="219.54" stroke-width="1.44"/>
      <polyline points="168.3 227.64 169.14 227.28 170.1 227.1" stroke-width="1.44"/>
      <polyline points="174.06 224.82 173.04 225 172.24 225.37 172.24 225.38 172.14 225.42 171.36 226.08 170.76 226.98" stroke-width="1.44"/>
      <polyline points="171.12 249.84 290.74 180.72 291.33 180.38 291.36 180.36" stroke-width="1.44"/>
      <path d="m171.12 261.42c-1.47-0.84-2.55-1.83-3.23-2.9-1.9-2.93-0.81-6.39 3.23-8.68" stroke-width="1.44"/>
      <path d="m291.36 180.42c5.43-3.2 14.51-3.23 19.97-0.04 0.02 0.01 0.05 0.03 0.07 0.04" stroke-width="1.44"/>
      <polyline points="167.88 258.54 167.89 258.52 168.72 257.46 169.8 256.5 171.12 255.6" stroke-width="1.44"/>
      <polyline points="171.12 255.6 291.33 186.14 291.36 186.12" stroke-width="1.44"/>
      <path d="m291.36 186.18c5.79-3.17 14.16-3.2 19.97-0.04 0.02 0.02 0.05 0.03 0.07 0.04" stroke-width="1.44"/>
      <line x1="326.4" x2="326.4" y1="309.71" y2="304.02" stroke-width=".72"/>
      <line x1="326.4" x2="326.4" y1="391.13" y2="390" stroke-width=".72"/>
      <line x1="324.42" x2="324.42" y1="304.86" y2="302.04" stroke-width=".72"/>
      <line x1="322.44" x2="322.44" y1="303" y2="302.16" stroke-width=".72"/>
      <polyline points="344.46 289.13 344.49 289.12 344.64 289.02 344.82 288.96 345.24 288.96 345.48 289.02 345.72 289.08 345.9 289.2 346.14 289.32 346.32 289.44 346.44 289.62" stroke-width="1.44"/>
      <polyline points="342.48 290.28 344.44 289.09 344.46 289.08" stroke-width="1.44"/>
      <polyline points="342.48 291.9 342.3 291.71 342.18 291.48 342.06 291 342.06 290.82 342.12 290.63 342.24 290.46 342.42 290.28 342.48 290.28" stroke-width="1.44"/>
      <path d="m334.44 294.9c0.67-0.279 1.6-0.12 1.98 0.54" stroke-width="1.44"/>
      <polyline points="332.46 296.04 334.41 294.86 334.44 294.84" stroke-width="1.44"/>
      <path d="m332.46 297.71c-0.43-0.58-0.7-1.17 0-1.681" stroke-width="1.44"/>
      <polyline points="324.42 300.71 324.45 300.7 324.6 300.6 324.78 300.54 325.2 300.54 325.44 300.6 325.62 300.66 326.1 300.9 326.28 301.02 326.4 301.2" stroke-width="1.44"/>
      <line x1="336.42" x2="336.42" y1="303.96" y2="298.2" stroke-width=".72"/>
      <line x1="336.42" x2="336.42" y1="385.38" y2="384.24" stroke-width=".72"/>
      <line x1="334.44" x2="334.44" y1="299.1" y2="296.28" stroke-width=".72"/>
      <line x1="340.44" x2="340.44" y1="380.63" y2="305.4" stroke-width="1.44"/>
      <line x1="332.46" x2="332.46" y1="297.24" y2="296.4" stroke-width=".72"/>
      <path d="m336.42 295.44c2 2.22 3.78 5.96 4 9.12 0.02 0.26 0.03 0.521 0.02 0.78v0.06" stroke-width="1.44"/>
      <polyline points="346.5 377.1 346.5 302.82 346.5 301.92" stroke-width="1.44"/>
      <path d="m336.48 307.62c-0.17-3.851-1.59-6.931-4.02-9.9" stroke-width="1.44"/>
      <path d="m334.26 387.78c0.01-0.01 0.02-0.01 0.03-0.02 0.75-0.48 1.24-1.07 1.57-1.73 0.44-0.92 0.57-1.989 0.62-3.109" stroke-width="1.44"/>
      <path d="m340.44 380.63c0.08 1.819-0.59 3.819-2.06 4.77-0.05 0.04-0.11 0.07-0.16 0.101-0.51 0.31-1.11 0.479-1.8 0.479" stroke-width="1.44"/>
      <path d="m346.44 289.62c2.08 2.479 3.79 5.93 4 9.239 0.01 0.24 0.02 0.48 0.02 0.721v0.06" stroke-width="1.44"/>
      <polyline points="336.48 382.92 336.48 308.58 336.48 307.68 336.48 307.62" stroke-width="1.44"/>
      <line x1="342.48" x2="342.48" y1="291.42" y2="290.63" stroke-width=".72"/>
      <line x1="346.44" x2="346.44" y1="298.13" y2="292.44" stroke-width=".72"/>
      <line x1="346.44" x2="346.44" y1="379.56" y2="378.42" stroke-width=".72"/>
      <line x1="344.46" x2="344.46" y1="293.34" y2="290.46" stroke-width=".72"/>
      <line x1="344.94" x2="341.88" y1="302.82" y2="304.5" stroke-width=".72"/>
      <line x1="612.36" x2="622.38" y1="158.58" y2="152.7" stroke-width="1.44"/>
      <polyline points="352.5 284.46 354.45 283.28 354.48 283.26" stroke-width="1.44"/>
      <path d="m346.5 301.92v-0.061c-0.21-4.16-1.52-6.68-4.02-9.96" stroke-width="1.44"/>
      <path d="m344.28 382.02c0.01-0.01 0.02-0.01 0.03-0.02 0.73-0.46 1.22-1.061 1.55-1.73 0.46-0.95 0.61-2.07 0.64-3.17" stroke-width="1.44"/>
    </g>
  </g>
</svg>
