<?xml version="1.0" encoding="UTF-8"?>
<svg width="285.22" height="209" version="1.2" viewBox="0 0 228.17 167.2" xmlns="http://www.w3.org/2000/svg" xmlns:cc="http://creativecommons.org/ns#" xmlns:dc="http://purl.org/dc/elements/1.1/" xmlns:rdf="http://www.w3.org/1999/02/22-rdf-syntax-ns#">
  <title>Arduino Uno</title>
  <metadata>
    <rdf:RDF>
      <cc:Work rdf:about="">
        <dc:format>image/svg+xml</dc:format>
        <dc:type rdf:resource="http://purl.org/dc/dcmitype/StillImage"/>
        <dc:title>Arduino Uno</dc:title>
        <cc:license rdf:resource="http://creativecommons.org/licenses/by-sa/4.0/"/>
        <dc:source>PhilippHenkel, CC BY-SA 4.0, via Wikimedia Commons</dc:source>
        <dc:creator>
          <cc:Agent>
            <dc:title>seth.fischer.nz</dc:title>
          </cc:Agent>
        </dc:creator>
      </cc:Work>
      <cc:License rdf:about="http://creativecommons.org/licenses/by-sa/4.0/">
        <cc:permits rdf:resource="http://creativecommons.org/ns#Reproduction"/>
        <cc:permits rdf:resource="http://creativecommons.org/ns#Distribution"/>
        <cc:requires rdf:resource="http://creativecommons.org/ns#Notice"/>
        <cc:requires rdf:resource="http://creativecommons.org/ns#Attribution"/>
        <cc:permits rdf:resource="http://creativecommons.org/ns#DerivativeWorks"/>
        <cc:requires rdf:resource="http://creativecommons.org/ns#ShareAlike"/>
      </cc:License>
    </rdf:RDF>
  </metadata>
  <path id="pcb-outline" d="m207.73 8.001 4.3023 4.2972v32.229l7.1695 7.162v92.389l-7.1695 7.163v4.337c0 1.5567-1.2658 2.822-2.8224 2.822h-180.79c-1.5586 0-2.8224-1.2643-2.8224-2.819v-144.76c0-1.5567 1.2638-2.819 2.8224-2.819h179.31m-0.21611 50.134c-3e-3 2.4918 2.0147 4.515 4.5084 4.519 2.4957 0.0035 4.5204-2.0123 4.5264-4.5041v-0.01542c3e-3 -2.4918-2.0147-4.515-4.5094-4.519-2.4947-0.0038-4.5204 2.0113-4.5254 4.5031zm0 78.782c-3e-3 2.4918 2.0147 4.515 4.5084 4.519 2.4957 3e-3 4.5204-2.0103 4.5264-4.5031v-0.0155c3e-3 -2.4917-2.0147-4.515-4.5094-4.519-2.4947-7e-3 -4.5204 2.0103-4.5254 4.5031zm-143.41-121.75c-0.0039 2.4908 2.0147 4.515 4.5094 4.519 2.4937 0.0038 4.5204-2.0113 4.5244-4.5031v-0.01595c0.0039-2.4918-2.0157-4.515-4.5104-4.518-2.4947-0.0029-4.5204 2.0133-4.5234 4.5051zm-3.5852 136.08c-0.0029 2.4908 2.0157 4.5131 4.5104 4.517 2.4947 3e-3 4.5204-2.0123 4.5234-4.5041v-0.012c0.0039-2.4928-2.0157-4.515-4.5104-4.519-2.4947-3e-3 -4.5194 2.0103-4.5234 4.5011z" fill="#0f7391" stroke-width="3"/>
  <circle cx="88.415" cy="20.96" r=".72" fill="none" stroke="#fff" stroke-width=".72"/>
  <text transform="rotate(-90)" x="-25" y="109.4" fill="#fff" font-family="OCRA" font-size="4px">13</text>
  <text transform="rotate(-90)" x="-25" y="116.6" fill="#fff" font-family="OCRA" font-size="4px">12</text>
  <text transform="rotate(-90)" x="-29.5" y="123.8" fill="#fff" font-family="OCRA" font-size="4px">~ 11</text>
  <text transform="rotate(-90)" x="-29.5" y="131" fill="#fff" font-family="OCRA" font-size="4px">~ 10</text>
  <text transform="rotate(-90)" x="-27" y="138" fill="#fff" font-family="OCRA" font-size="4px">~ 9</text>
  <text transform="rotate(-90)" x="-22" y="145.4" fill="#fff" font-family="OCRA" font-size="4px">8</text>
  <text transform="rotate(-90)" x="-23" y="156.9" fill="#fff" font-family="OCRA" font-size="4px">7</text>
  <text transform="rotate(-90)" x="-27" y="164" fill="#fff" font-family="OCRA" font-size="4px">~ 6</text>
  <text transform="rotate(-90)" x="-27" y="171.4" fill="#fff" font-family="OCRA" font-size="4px">~ 5</text>
  <text transform="rotate(-90)" x="-22.7" y="178.6" fill="#fff" font-family="OCRA" font-size="4px">4</text>
  <text transform="rotate(-90)" x="-27.5" y="185.8" fill="#fff" font-family="OCRA" font-size="4px">~ 3</text>
  <text transform="rotate(-90)" x="-22.7" y="193" fill="#fff" font-family="OCRA" font-size="4px">2</text>
  <text x="96.2" y="43.5" fill="#fff" font-family="OCRA" font-size="4px">L</text>
  <text transform="rotate(-90)" x="-147.5" y="135" fill="#fff" font-family="OCRA" font-size="4px">5V</text>
  <text transform="rotate(-90)" x="-147.5" y="171" fill="#fff" font-family="OCRA" font-size="4px">A0</text>
  <text x="183" y="138" fill="#fff" font-family="OCRA" font-size="4px">ANALOG IN</text>
  <text transform="rotate(-90)" x="-30" y="95" fill="#fff" font-family="OCRA" font-size="4px">AREF</text>
  <text x="198.9" y="72.6" fill="#fff" font-family="OCRA" font-size="4px">1</text>
  <text transform="rotate(-90)" x="-29" y="102" fill="#fff" font-family="OCRA" font-size="4px">GND</text>
  <text x="92.3" y="57.3" fill="#fff" font-family="OCRA" font-size="4px">TX</text>
  <text x="92.5" y="64.2" fill="#fff" font-family="OCRA" font-size="4px">RX</text>
  <text transform="rotate(-90)" x="-147.5" y="121" fill="#fff" font-family="OCRA" font-size="4px">RESET</text>
  <text transform="rotate(-90)" x="-147.5" y="128" fill="#fff" font-family="OCRA" font-size="4px">3V3</text>
  <text transform="rotate(-90)" x="-147.5" y="178.2" fill="#fff" font-family="OCRA" font-size="4px">A1</text>
  <text transform="rotate(-90)" x="-147.5" y="185.4" fill="#fff" font-family="OCRA" font-size="4px">A2</text>
  <text transform="rotate(-90)" x="-147.5" y="192.6" fill="#fff" font-family="OCRA" font-size="4px">A3</text>
  <text transform="rotate(-90)" x="-147.5" y="199.8" fill="#fff" font-family="OCRA" font-size="4px">A4</text>
  <text transform="rotate(-90)" x="-147.5" y="207" fill="#fff" font-family="OCRA" font-size="4px">A5</text>
  <text transform="rotate(-90)" x="-147.5" y="156.7" fill="#fff" font-family="OCRA" font-size="4px">VIN</text>
  <text transform="rotate(-90)" x="-147.5" y="142" fill="#fff" font-family="OCRA" font-size="4px">GND</text>
  <text transform="rotate(-90)" x="-147.5" y="149.3" fill="#fff" font-family="OCRA" font-size="4px">GND</text>
  <text x="153" y="35" fill="#fff" font-family="OCRA" font-size="4px">DIGITAL (PWM= ~)</text>
  <text transform="rotate(-90)" x="-147.5" y="114" fill="#fff" font-family="OCRA" font-size="4px">IOREF</text>
  <text transform="rotate(-90)" x="-91.1" y="201.6" fill="#fff" font-family="OCRA" font-size="4px">ICSP</text>
  <text x="67.2" y="40" fill="#fff" font-family="OCRA" font-size="4px">ICSP2</text>
  <text x="198.6" y="57.3" fill="#fff" font-family="OCRA" font-size="4px">ON</text>
  <rect id="usb-interface-chip" x="75.208" y="53.833" width="14.173" height="14.173" fill="#333"/>
  <rect id="microcontroller" x="104.62" y="104.84" width="105.12" height="15.84" fill="#333"/>
  <line x1="100.6" x2="207.5" y1="37.16" y2="37.16" fill="none" stroke="#fff" stroke-linecap="round" stroke-width=".864"/>
  <line x1="167.87" x2="207.5" y1="134.21" y2="134.21" fill="none" stroke="#fff" stroke-linecap="round" stroke-width=".864"/>
  <text x="144" y="138" fill="#fff" font-family="OCRA" font-size="4px">POWER</text>
  <line x1="122.97" x2="158.89" y1="134.21" y2="134.21" fill="none" stroke="#fff" stroke-linecap="round" stroke-width=".864"/>
  <text transform="rotate(-90)" x="-22.7" y="207.5" fill="#fff" font-family="OCRA" font-size="4px">0</text>
  <text transform="rotate(-90)" x="-22.7" y="200.3" fill="#fff" font-family="OCRA" font-size="4px">1</text>
  <text transform="rotate(-90)" x="-35.4" y="200.3" fill="#fff" font-family="OCRA" font-size="4px">TX0</text>
  <text transform="rotate(-90)" x="-35.4" y="207.5" fill="#fff" font-family="OCRA" font-size="4px">RX0</text>
  <path d="m199.91 26.007h-1.959c-0.125 0-0.236-0.068-0.297-0.179-0.061-0.11-0.053-0.243 0.018-0.347l0.978-1.459c0.125-0.188 0.438-0.188 0.563 0l0.93 1.394c0.066 0.062 0.113 0.152 0.113 0.253-8e-3 0.187-0.159 0.338-0.346 0.338z" fill="#fff"/>
  <path d="m205.21 23.88h1.955c0.125 0 0.238 0.068 0.301 0.178 0.063 0.111 0.053 0.244-0.02 0.348l-0.973 1.459c-0.125 0.188-0.438 0.188-0.563 0l-0.93-1.396c-0.07-0.063-0.113-0.151-0.113-0.252 4e-3 -0.185 0.156-0.337 0.343-0.337z" fill="#fff"/>
  <g id="uno-logo" transform="translate(7.8031,8)" fill="#fff">
    <circle cx="172.39" cy="32.522" r=".5"/>
    <circle cx="170.97" cy="32.522" r=".5"/>
    <circle cx="169.55" cy="32.5" r=".57"/>
    <circle cx="168.14" cy="32.5" r=".57"/>
    <circle cx="166.72" cy="32.5" r=".57"/>
    <circle cx="165.3" cy="32.5" r=".57"/>
    <circle cx="163.89" cy="32.5" r=".57"/>
    <circle cx="162.47" cy="32.5" r=".57"/>
    <circle cx="161.05" cy="32.5" r=".57"/>
    <circle cx="159.63" cy="32.5" r=".57"/>
    <circle cx="158.22" cy="32.5" r=".57"/>
    <circle cx="156.8" cy="32.5" r=".57"/>
    <circle cx="155.38" cy="32.5" r=".57"/>
    <circle cx="153.97" cy="32.522" r=".5"/>
    <circle cx="172.45" cy="47.404" r=".5"/>
    <circle cx="173.79" cy="47.137" r=".57"/>
    <circle cx="175.07" cy="46.628" r=".57"/>
    <circle cx="176.23" cy="45.894" r=".57"/>
    <circle cx="177.24" cy="44.959" r=".57"/>
    <circle cx="178.06" cy="43.855" r=".57"/>
    <circle cx="178.66" cy="42.62" r=".57"/>
    <circle cx="179.03" cy="41.295" r=".57"/>
    <circle cx="179.15" cy="39.925" r=".57"/>
    <circle cx="179.02" cy="38.557" r=".57"/>
    <circle cx="178.63" cy="37.236" r=".57"/>
    <circle cx="178.02" cy="36.008" r=".57"/>
    <circle cx="177.18" cy="34.914" r=".57"/>
    <circle cx="176.17" cy="33.99" r=".57"/>
    <circle cx="175" cy="33.269" r=".57"/>
    <circle cx="173.71" cy="32.774" r=".57"/>
    <circle cx="172.36" cy="32.5" r=".57"/>
    <circle cx="170.99" cy="32.522" r=".57"/>
    <circle cx="152.41" cy="47.309" r=".57"/>
    <circle cx="151.08" cy="47.026" r=".57"/>
    <circle cx="149.82" cy="46.506" r=".57"/>
    <circle cx="148.68" cy="45.765" r=".57"/>
    <circle cx="147.7" cy="44.828" r=".57"/>
    <circle cx="146.9" cy="43.727" r=".57"/>
    <circle cx="146.3" cy="42.499" r=".57"/>
    <circle cx="145.96" cy="41.185" r=".57"/>
    <circle cx="145.85" cy="39.829" r=".57"/>
    <circle cx="146.9" cy="35.959" r=".57"/>
    <circle cx="146.3" cy="37.111" r=".57"/>
    <circle cx="145.9" cy="38.41" r=".57"/>
    <circle cx="147.7" cy="34.879" r=".57"/>
    <circle cx="148.84" cy="33.969" r=".57"/>
    <circle cx="150" cy="33.258" r=".57"/>
    <circle cx="151.27" cy="32.77" r=".57"/>
    <circle cx="152.61" cy="32.5" r=".57"/>
    <circle cx="153.97" cy="32.5" r=".57"/>
    <circle cx="172.39" cy="47.5" r=".57"/>
    <circle cx="170.97" cy="47.5" r=".57"/>
    <circle cx="169.55" cy="47.5" r=".57"/>
    <circle cx="168.14" cy="47.5" r=".57"/>
    <circle cx="166.72" cy="47.5" r=".57"/>
    <circle cx="165.3" cy="47.5" r=".57"/>
    <circle cx="163.89" cy="47.5" r=".57"/>
    <circle cx="162.47" cy="47.5" r=".57"/>
    <circle cx="161.05" cy="47.5" r=".57"/>
    <circle cx="159.63" cy="47.5" r=".57"/>
    <circle cx="158.22" cy="47.5" r=".57"/>
    <circle cx="156.8" cy="47.5" r=".57"/>
    <circle cx="155.38" cy="47.5" r=".57"/>
    <circle cx="153.97" cy="47.5" r=".57"/>
    <path d="m154.16 44.561c-0.994 0-1.742-0.206-2.244-0.618-0.485-0.401-0.799-0.879-0.936-1.434-0.07-0.28-0.119-0.58-0.15-0.899-0.027-0.319-0.045-0.661-0.045-1.025v-5.236h0.939v5.22c0 1.183 0.189 2.117 0.572 2.498 0.377 0.375 0.932 0.563 1.664 0.563 0.738 0 1.494-0.188 1.871-0.563 0.381-0.38 0.572-1.314 0.572-2.498v-5.22h0.959v5.236c0 1.088-0.125 1.896-0.377 2.424-0.499 1.035-1.32 1.552-2.825 1.552z"/>
    <path d="m166.25 44.39h-0.944l-4.742-7.433v7.446h-0.797v-9.054h0.88l4.659 7.455v-7.455h0.944z"/>
    <path d="m171.91 35.131c0.576 0 1.107 0.115 1.594 0.346 0.488 0.231 0.906 0.555 1.256 0.975 0.354 0.42 0.623 0.926 0.818 1.517 0.196 0.59 0.295 1.247 0.295 1.968 0 0.72-0.099 1.376-0.295 1.966-0.195 0.592-0.468 1.099-0.818 1.521s-0.77 0.749-1.256 0.979c-0.483 0.23-1.018 0.345-1.594 0.345-0.58 0-1.113-0.115-1.602-0.345-0.484-0.231-0.904-0.557-1.258-0.979s-0.629-0.93-0.823-1.521c-0.194-0.589-0.294-1.246-0.294-1.966 0-0.721 0.1-1.377 0.294-1.968s0.47-1.097 0.823-1.517 0.773-0.745 1.258-0.975c0.486-0.23 1.022-0.346 1.602-0.346zm-6e-3 8.561c0.41 0 0.789-0.085 1.135-0.256s0.646-0.418 0.896-0.74c0.251-0.323 0.447-0.716 0.588-1.179 0.141-0.464 0.211-0.991 0.211-1.581 0-0.591-0.07-1.118-0.211-1.582-0.141-0.463-0.335-0.856-0.585-1.179-0.248-0.322-0.545-0.568-0.888-0.736-0.346-0.167-0.719-0.252-1.125-0.252-0.412 0-0.793 0.084-1.141 0.252-0.352 0.168-0.65 0.412-0.904 0.732s-0.451 0.713-0.596 1.178c-0.144 0.467-0.216 0.995-0.216 1.586 0 0.59 0.07 1.117 0.214 1.581 0.141 0.463 0.336 0.856 0.588 1.179 0.25 0.322 0.551 0.569 0.896 0.74 0.346 0.171 0.726 0.257 1.138 0.257z"/>
  </g>
  <g id="analog-input-pins" transform="translate(165.45 148.63)">
    <rect x=".722" y="-.228" width="43.199" height="7.199" fill="#404040"/>
    <rect x="2.931" y="1.981" width="2.781" height="2.783"/>
    <polygon points="1.905 0.956 2.929 1.981 5.714 1.981 6.737 0.956" fill="#2a2a29"/>
    <polygon points="6.737 0.956 5.714 1.985 5.714 4.766 6.737 5.789" fill="#474747"/>
    <polygon points="6.737 5.789 5.712 4.766 2.929 4.766 1.905 5.789" fill="#595959"/>
    <polygon points="1.903 5.789 2.929 4.764 2.929 1.981 1.903 0.956" fill="#373737"/>
    <rect x="10.132" y="1.981" width="2.781" height="2.783"/>
    <polygon points="9.104 0.956 10.13 1.981 12.911 1.981 13.936 0.956" fill="#2a2a29"/>
    <polygon points="13.936 0.956 12.911 1.985 12.911 4.766 13.936 5.789" fill="#474747"/>
    <polygon points="13.936 5.789 12.911 4.766 10.13 4.766 9.104 5.789" fill="#595959"/>
    <polygon points="9.102 5.789 10.13 4.764 10.13 1.981 9.102 0.956" fill="#373737"/>
    <rect x="17.331" y="1.981" width="2.781" height="2.783"/>
    <polygon points="16.306 0.956 17.329 1.981 20.112 1.981 21.138 0.956" fill="#2a2a29"/>
    <polygon points="21.138 0.956 20.112 1.985 20.112 4.766 21.138 5.789" fill="#474747"/>
    <polygon points="21.138 5.789 20.112 4.766 17.329 4.766 16.306 5.789" fill="#595959"/>
    <polygon points="16.304 5.789 17.329 4.764 17.329 1.981 16.304 0.956" fill="#373737"/>
    <rect x="24.532" y="1.981" width="2.781" height="2.783"/>
    <polygon points="23.507 0.956 24.53 1.981 27.313 1.981 28.339 0.956" fill="#2a2a29"/>
    <polygon points="28.339 0.956 27.313 1.985 27.313 4.766 28.339 5.789" fill="#474747"/>
    <polygon points="28.337 5.789 27.311 4.766 24.53 4.766 23.507 5.789" fill="#595959"/>
    <polygon points="23.503 5.789 24.53 4.764 24.53 1.981 23.503 0.956" fill="#373737"/>
    <rect x="31.731" y="1.981" width="2.779" height="2.783"/>
    <polygon points="30.706 0.956 31.729 1.981 34.513 1.981 35.538 0.956" fill="#2a2a29"/>
    <polygon points="35.538 0.956 34.513 1.985 34.513 4.766 35.538 5.789" fill="#474747"/>
    <polygon points="35.536 5.789 34.513 4.766 31.729 4.766 30.706 5.789" fill="#595959"/>
    <polygon points="30.704 5.789 31.729 4.764 31.729 1.981 30.704 0.956" fill="#373737"/>
    <rect x="38.931" y="1.981" width="2.781" height="2.783"/>
    <polygon points="37.905 0.956 38.929 1.981 41.714 1.981 42.737 0.956" fill="#2a2a29"/>
    <polygon points="42.737 0.956 41.714 1.985 41.714 4.766 42.737 5.789" fill="#474747"/>
    <polygon points="42.737 5.789 41.712 4.766 38.929 4.766 37.905 5.789" fill="#595959"/>
    <polygon points="37.903 5.789 38.929 4.764 38.929 1.981 37.903 0.956" fill="#373737"/>
  </g>
  <g id="icsp1-pins" transform="rotate(-90 146.26 -56.218)">
    <polygon points="13.796 1.654 13.796 5.587 13.796 8.927 13.796 12.861 15.306 14.372 19.236 14.372 20.748 12.861 20.748 8.927 20.748 5.587 20.748 1.654 19.236 0.143 15.306 0.143" fill="#404040"/>
    <polygon points="6.611 1.654 6.611 5.587 6.611 8.927 6.611 12.861 8.125 14.372 12.057 14.372 13.566 12.861 13.566 8.927 13.566 5.587 13.566 1.654 12.057 0.143 8.125 0.143" fill="#404040"/>
    <polygon points="-0.565 1.654 -0.565 5.587 -0.565 8.927 -0.565 12.861 0.942 14.372 4.877 14.372 6.389 12.861 6.389 8.927 6.389 5.587 6.389 1.654 4.877 0.143 0.942 0.143" fill="#404040"/>
    <rect transform="rotate(-90)" x="-11.492" y="16.854" width="1.185" height="1.183" fill="#8c8663"/>
    <polygon points="18.035 11.486 18.594 12.046 18.594 9.748 18.035 10.306" fill="#b8af82"/>
    <polygon points="18.594 12.046 16.297 12.046 16.855 11.486 18.035 11.486" fill="#80795b"/>
    <polygon points="16.297 12.046 16.297 9.748 16.855 10.306 16.855 11.486" fill="#5e5b43"/>
    <polygon points="16.855 10.306 16.297 9.748 18.594 9.748 18.035 10.306" fill="#9a916c"/>
    <rect transform="rotate(-90)" x="-4.2905" y="16.855" width="1.185" height="1.183" fill="#8c8663"/>
    <polygon points="18.035 4.287 18.594 4.845 18.594 2.55 18.035 3.107" fill="#b8af82"/>
    <polygon points="18.594 4.845 16.297 4.845 16.855 4.287 18.035 4.287" fill="#80795b"/>
    <polygon points="16.297 4.845 16.297 2.55 16.855 3.107 16.855 4.287" fill="#5e5b43"/>
    <polygon points="16.855 3.107 16.297 2.55 18.594 2.55 18.035 3.107" fill="#9a916c"/>
    <rect transform="rotate(-90)" x="-11.49" y="9.656" width="1.185" height="1.184" fill="#8c8663"/>
    <polygon points="10.839 11.486 11.396 12.046 11.396 9.748 10.839 10.306" fill="#b8af82"/>
    <polygon points="11.396 12.046 9.099 12.046 9.655 11.486 10.839 11.486" fill="#80795b"/>
    <polygon points="9.099 12.046 9.099 9.748 9.655 10.306 9.655 11.486" fill="#5e5b43"/>
    <polygon points="9.655 10.306 9.099 9.748 11.396 9.748 10.839 10.306" fill="#9a916c"/>
    <rect transform="rotate(-90)" x="-4.2885" y="9.6545" width="1.185" height="1.184" fill="#8c8663"/>
    <polygon points="10.839 4.287 11.396 4.845 11.396 2.55 10.839 3.107" fill="#b8af82"/>
    <polygon points="11.396 4.845 9.099 4.845 9.655 4.287 10.839 4.287" fill="#80795b"/>
    <polygon points="9.099 4.845 9.099 2.55 9.655 3.107 9.655 4.287" fill="#5e5b43"/>
    <polygon points="9.655 3.107 9.099 2.55 11.396 2.55 10.839 3.107" fill="#9a916c"/>
    <rect transform="rotate(-90)" x="-11.49" y="2.4535" width="1.184" height="1.185" fill="#8c8663"/>
    <polygon points="3.639 11.486 4.196 12.046 4.196 9.748 3.639 10.306" fill="#b8af82"/>
    <polygon points="4.196 12.046 1.899 12.046 2.454 11.486 3.639 11.486" fill="#80795b"/>
    <polygon points="1.899 12.046 1.899 9.748 2.454 10.306 2.454 11.486" fill="#5e5b43"/>
    <polygon points="2.454 10.306 1.899 9.748 4.196 9.748 3.639 10.306" fill="#9a916c"/>
    <rect transform="rotate(-90)" x="-4.2884" y="2.4536" width="1.184" height="1.187" fill="#8c8663"/>
    <polygon points="3.639 4.287 4.196 4.846 4.196 2.55 3.639 3.107" fill="#b8af82"/>
    <polygon points="4.196 4.846 1.899 4.846 2.454 4.287 3.639 4.287" fill="#80795b"/>
    <polygon points="1.899 4.846 1.899 2.55 2.454 3.107 2.454 4.287" fill="#5e5b43"/>
    <polygon points="2.454 3.107 1.899 2.55 4.196 2.55 3.639 3.107" fill="#9a916c"/>
  </g>
  <g id="icsp2-pins" transform="rotate(180 44.441 17.588)">
    <polygon points="14.973 1.413 14.973 5.347 14.973 8.687 14.973 12.619 16.483 14.131 20.414 14.131 21.925 12.619 21.925 8.687 21.925 5.347 21.925 1.413 20.414 -0.098 16.483 -0.098" fill="#404040"/>
    <polygon points="7.789 1.413 7.789 5.347 7.789 8.687 7.789 12.619 9.302 14.131 13.234 14.131 14.743 12.619 14.743 8.687 14.743 5.347 14.743 1.413 13.234 -0.098 9.302 -0.098" fill="#404040"/>
    <polygon points="0.612 1.413 0.612 5.347 0.612 8.687 0.612 12.619 2.121 14.131 6.054 14.131 7.566 12.619 7.566 8.687 7.566 5.347 7.566 1.413 6.054 -0.098 2.121 -0.098" fill="#404040"/>
    <rect x="18.028" y="10.069" width="1.183" height="1.184" fill="#8c8663"/>
    <polygon points="19.209 11.25 19.769 11.808 19.769 9.51 19.209 10.069" fill="#b8af82"/>
    <polygon points="19.769 11.808 17.47 11.808 18.028 11.25 19.209 11.25" fill="#80795b"/>
    <polygon points="17.47 11.808 17.47 9.51 18.028 10.069 18.028 11.25" fill="#5e5b43"/>
    <polygon points="18.028 10.069 17.47 9.51 19.769 9.51 19.209 10.069" fill="#9a916c"/>
    <rect x="18.028" y="2.869" width="1.183" height="1.182" fill="#8c8663"/>
    <polygon points="19.209 4.05 19.769 4.608 19.769 2.311 19.209 2.869" fill="#b8af82"/>
    <polygon points="19.769 4.608 17.47 4.608 18.028 4.05 19.209 4.05" fill="#80795b"/>
    <polygon points="17.47 4.608 17.47 2.311 18.028 2.869 18.028 4.05" fill="#5e5b43"/>
    <polygon points="18.028 2.869 17.47 2.311 19.769 2.311 19.209 2.869" fill="#9a916c"/>
    <rect x="10.829" y="10.069" width="1.184" height="1.184" fill="#8c8663"/>
    <polygon points="12.012 11.25 12.569 11.808 12.569 9.51 12.012 10.069" fill="#b8af82"/>
    <polygon points="12.569 11.808 10.272 11.808 10.829 11.25 12.012 11.25" fill="#80795b"/>
    <polygon points="10.272 11.808 10.272 9.51 10.829 10.069 10.829 11.25" fill="#5e5b43"/>
    <polygon points="10.829 10.069 10.272 9.51 12.569 9.51 12.012 10.069" fill="#9a916c"/>
    <rect x="10.829" y="2.869" width="1.184" height="1.182" fill="#8c8663"/>
    <polygon points="12.012 4.05 12.569 4.608 12.569 2.311 12.012 2.869" fill="#b8af82"/>
    <polygon points="12.569 4.608 10.272 4.608 10.829 4.05 12.012 4.05" fill="#80795b"/>
    <polygon points="10.272 4.608 10.272 2.311 10.829 2.869 10.829 4.05" fill="#5e5b43"/>
    <polygon points="10.829 2.869 10.272 2.311 12.569 2.311 12.012 2.869" fill="#9a916c"/>
    <rect x="3.628" y="10.069" width="1.185" height="1.184" fill="#8c8663"/>
    <polygon points="4.813 11.25 5.371 11.808 5.371 9.51 4.813 10.069" fill="#b8af82"/>
    <polygon points="5.371 11.808 3.073 11.808 3.628 11.25 4.813 11.25" fill="#80795b"/>
    <polygon points="3.073 11.808 3.073 9.51 3.628 10.069 3.628 11.25" fill="#5e5b43"/>
    <polygon points="3.628 10.069 3.073 9.51 5.371 9.51 4.813 10.069" fill="#9a916c"/>
    <rect x="3.628" y="2.869" width="1.185" height="1.182" fill="#8c8663"/>
    <polygon points="4.813 4.05 5.371 4.608 5.371 2.311 4.813 2.869" fill="#b8af82"/>
    <polygon points="5.371 4.608 3.073 4.608 3.628 4.05 4.813 4.05" fill="#80795b"/>
    <polygon points="3.073 4.608 3.073 2.311 3.628 2.869 3.628 4.05" fill="#5e5b43"/>
    <polygon points="3.628 2.869 3.073 2.311 5.371 2.311 4.813 2.869" fill="#9a916c"/>
  </g>
  <g id="digital-0-7-pins" transform="rotate(180 105.04 9.286)">
    <rect x=".72" y="-.228" width="57.6" height="7.199" fill="#404040"/>
    <rect x="53.331" y="1.98" width="2.78" height="2.782"/>
    <polygon points="53.331 4.762 52.303 5.787 57.135 5.787 56.113 4.762" fill="#2a2a29"/>
    <polygon points="53.331 1.978 52.303 0.955 52.303 5.787 53.331 4.759" fill="#474747"/>
    <polygon points="56.113 1.978 57.135 0.955 52.304 0.955 53.331 1.978" fill="#595959"/>
    <polygon points="56.113 4.762 57.137 5.787 57.137 0.955 56.113 1.98" fill="#373737"/>
    <rect x="46.13" y="1.98" width="2.779" height="2.782"/>
    <polygon points="46.128 4.762 45.103 5.787 49.937 5.787 48.913 4.762" fill="#2a2a29"/>
    <polygon points="46.128 1.978 45.103 0.955 45.103 5.787 46.128 4.759" fill="#474747"/>
    <polygon points="48.913 1.978 49.937 0.955 45.105 0.955 46.13 1.978" fill="#595959"/>
    <polygon points="48.913 4.762 49.939 5.787 49.939 0.955 48.913 1.98" fill="#373737"/>
    <rect x="38.928" y="1.98" width="2.781" height="2.782"/>
    <polygon points="38.928 4.762 37.904 5.787 42.736 5.787 41.712 4.762" fill="#2a2a29"/>
    <polygon points="38.928 1.978 37.904 0.955 37.904 5.787 38.928 4.759" fill="#474747"/>
    <polygon points="41.712 1.978 42.736 0.955 37.907 0.955 38.929 1.978" fill="#595959"/>
    <polygon points="41.712 4.762 42.738 5.787 42.738 0.955 41.712 1.98" fill="#373737"/>
    <rect x="31.728" y="1.98" width="2.78" height="2.782"/>
    <polygon points="31.728 4.762 30.706 5.787 35.538 5.787 34.51 4.762" fill="#2a2a29"/>
    <polygon points="31.728 1.978 30.706 0.955 30.706 5.787 31.728 4.759" fill="#474747"/>
    <polygon points="34.51 1.978 35.538 0.955 30.706 0.955 31.73 1.978" fill="#595959"/>
    <polygon points="34.51 4.762 35.54 5.787 35.54 0.955 34.51 1.98" fill="#373737"/>
    <rect x="24.529" y="1.98" width="2.781" height="2.782"/>
    <polygon points="24.529 4.762 23.503 5.787 28.335 5.787 27.312 4.762" fill="#2a2a29"/>
    <polygon points="24.529 1.978 23.503 0.955 23.503 5.787 24.529 4.759" fill="#474747"/>
    <polygon points="27.312 1.978 28.335 0.955 23.505 0.955 24.532 1.978" fill="#595959"/>
    <polygon points="27.312 4.762 28.337 5.787 28.337 0.955 27.312 1.98" fill="#373737"/>
    <rect x="17.331" y="1.98" width="2.78" height="2.782"/>
    <polygon points="17.331 4.762 16.303 5.787 21.135 5.787 20.113 4.762" fill="#2a2a29"/>
    <polygon points="17.331 1.978 16.303 0.955 16.303 5.787 17.331 4.759" fill="#474747"/>
    <polygon points="20.113 1.978 21.135 0.955 16.304 0.955 17.331 1.978" fill="#595959"/>
    <polygon points="20.113 4.762 21.137 5.787 21.137 0.955 20.113 1.98" fill="#373737"/>
    <rect x="10.13" y="1.98" width="2.779" height="2.782"/>
    <polygon points="10.128 4.762 9.103 5.787 13.937 5.787 12.913 4.762" fill="#2a2a29"/>
    <polygon points="10.128 1.978 9.103 0.955 9.103 5.787 10.128 4.759" fill="#474747"/>
    <polygon points="12.913 1.978 13.937 0.955 9.105 0.955 10.13 1.978" fill="#595959"/>
    <polygon points="12.913 4.762 13.939 5.787 13.939 0.955 12.913 1.98" fill="#373737"/>
    <rect x="2.928" y="1.98" width="2.781" height="2.782"/>
    <polygon points="2.928 4.762 1.904 5.787 6.736 5.787 5.712 4.762" fill="#2a2a29"/>
    <polygon points="2.928 1.978 1.904 0.955 1.904 5.787 2.928 4.759" fill="#474747"/>
    <polygon points="5.712 1.978 6.736 0.955 1.907 0.955 2.929 1.978" fill="#595959"/>
    <polygon points="5.712 4.762 6.738 5.787 6.738 0.955 5.712 1.98" fill="#373737"/>
  </g>
  <g id="led-l" transform="rotate(-90,79.5,-59.328)">
    <line x1="-23.902" x2="-23.902" y1="-37.873" y2="-30.637" fill="none"/>
    <rect transform="rotate(-90)" x="30.528" y="-23.901" width="7.348" height="3.833" fill="#f2f2f2"/>
    <path d="m-23.902-33.129s0.467 0.645 0.426 0.867c-0.041 0.219 0.148 0.541 0 0.676l-0.424-0.018z" fill="#22b573" fill-opacity=".7"/>
    <rect transform="rotate(-90)" x="33.847" y="-22.437" width=".854" height=".961" fill="#fff"/>
    <rect transform="rotate(-90)" x="33.846" y="-22.461" width=".854" height=".049" fill="#b3b3b3"/>
    <polygon points="-23.476 -32.549 -23.582 -31.585 -22.849 -31.585 -22.954 -32.549" fill="#d1c690"/>
    <path d="m-23.279-32.488v-8e-3c0.035-0.266 0.104-0.447 0.162-0.598 0.08-0.209 0.782-0.559 0.696-0.828-0.012-0.027 0.011-0.06 0.043-0.066 0.035-8e-3 0.068 0.01 0.078 0.039 0.095 0.305-0.617 0.674-0.701 0.893-0.06 0.148-0.123 0.318-0.155 0.572-4e-3 0.029-0.033 0.055-0.068 0.049-0.03-1e-3 -0.055-0.025-0.055-0.053z" fill="#d1c690"/>
    <polygon points="-20.59 -35.969 -20.487 -36.933 -21.217 -36.933 -21.114 -35.969" fill="#d1c690"/>
    <path d="m-22.111-34.316c0-0.025 0.02-0.049 0.047-0.055 0.292-0.063 1.152-1.088 1.152-1.885 0-0.033 0.026-0.057 0.063-0.057 0.034 2e-3 0.063 0.025 0.063 0.057v2e-3c0 0.749-0.77 1.891-1.245 1.993-0.035 8e-3 -0.068-0.012-0.078-0.041-2e-3 -2e-3 -2e-3 -7e-3 -2e-3 -0.014z" fill="#d1c690"/>
    <path d="m-22.127-33.845s2e-3 -0.356-0.311-0.383v0.383z" fill="#d1c690"/>
    <path d="m-21.806-34.281s-0.306 0.158-0.351 0.053c-0.048-0.107-0.052-0.178 0.028-0.24 0.082-0.061 0.323 0.187 0.323 0.187z" fill="#d1c690"/>
    <path d="m-22.474-33.922c0.084 0.27-0.618 0.619-0.698 0.828-0.06 0.145-0.127 0.33-0.162 0.598h0.059c0.035-0.266 0.104-0.447 0.162-0.598 0.08-0.209 0.782-0.559 0.696-0.828z" fill="#9d956c"/>
    <polygon points="-21.169 -35.969 -21.272 -36.933 -21.217 -36.933 -21.114 -35.969" fill="#9d956c"/>
    <path d="m-22.119-34.371c0.291-0.062 1.212-1.07 1.149-1.885h0.06c0.06 0.877-0.86 1.826-1.152 1.887z" fill="#9d956c"/>
    <path d="m-22.492-34.227v0.381h0.057v-0.381z" fill="#9d956c"/>
    <path d="m-22.181-34.469c-0.08 0.063-0.076 0.131-0.031 0.238l0.06 2e-3c-0.049-0.107-0.052-0.179 0.028-0.24z" fill="#9d956c"/>
    <rect transform="rotate(-90)" x="32.176" y="-20.121" width="4.223" height=".051" fill="#fff" opacity=".5"/>
    <path d="m-20.069-36.916h-3.831v5.317l3.831 4e-3z" fill="#f2f2f2" opacity=".5"/>
    <path d="m-20.719-36.866h0.271c0.151 0.018 0.271-0.012 0.271 0.098v4.854c0 0.168-0.065 0.176-0.065-0.012v-4.346c0-0.457-0.105-0.518-0.197-0.518l-0.272 2e-3c-0.182 0-0.182-0.078-8e-3 -0.078z" fill="#fff" opacity=".55"/>
    <path d="m-23.678-31.74c-0.068 0-0.138 0.012-0.138-0.098v-4.817c0-0.168 0.065-0.176 0.065 8e-3 0 0.135 2e-3 3.138 2e-3 3.589-1e-3 0.595 0.071 1.318 0.071 1.318z" opacity=".03"/>
    <path d="m-23.902-37.874v0.771h0.521c0.125 0 0.213 0.08 0.268 0.188h3.047v-1.01h-3.834" fill="#d1c690"/>
    <rect transform="rotate(-90)" x="36.92" y="-20.121" width="1.006" height=".052" fill="#fff" opacity=".5"/>
    <path d="m-23.902-30.529h3.833v-1.071h-3.464c-0.056 0.104-0.146 0.191-0.271 0.191h-0.1v0.829" fill="#d1c690"/>
    <rect transform="rotate(-90)" x="31.6" y="-23.87" width="5.4546" height="3.7905" fill="#ff0" fill-opacity=".38298"/>
    <rect transform="rotate(-90)" x="30.53" y="-20.118" width="1.072" height=".052" fill="#fff" opacity=".5"/>
  </g>
  <g id="led-power-indicator" transform="rotate(-90 129.79 -93.778)">
    <line x1="-21.535" x2="-21.535" y1="-33.306" y2="-26.07" fill="none"/>
    <rect transform="rotate(-90)" x="25.961" y="-21.534" width="7.349" height="3.833" fill="#f2f2f2"/>
    <path d="m-21.533-28.561s0.467 0.646 0.426 0.865 0.148 0.541 0 0.678l-0.424-0.021z" fill="#22b573" fill-opacity=".7"/>
    <rect transform="rotate(-90)" x="29.278" y="-20.069" width=".854" height=".961" fill="#fff"/>
    <rect transform="rotate(-90)" x="29.279" y="-20.094" width=".854" height=".049" fill="#b3b3b3"/>
    <polygon points="-21.109 -27.981 -21.213 -27.018 -20.482 -27.018 -20.586 -27.981" fill="#d1c690"/>
    <path d="m-20.91-27.919v-8e-3c0.035-0.269 0.104-0.447 0.162-0.601 0.08-0.209 0.782-0.561 0.696-0.826-0.012-0.026 0.011-0.063 0.043-0.065 0.035-8e-3 0.068 0.011 0.078 0.039 0.095 0.306-0.617 0.674-0.701 0.894-0.06 0.147-0.123 0.317-0.155 0.571-4e-3 0.029-0.033 0.056-0.068 0.05-0.03-6e-3 -0.055-0.028-0.055-0.054z" fill="#d1c690"/>
    <polygon points="-18.221 -31.401 -18.118 -32.368 -18.848 -32.368 -18.745 -31.401" fill="#d1c690"/>
    <path d="m-19.742-29.749c0-0.025 0.021-0.049 0.047-0.055 0.292-0.063 1.152-1.088 1.152-1.885 0-0.033 0.026-0.062 0.063-0.062 0.034 2e-3 0.063 0.022 0.063 0.062v2e-3c0 0.748-0.77 1.891-1.245 1.992-0.035 8e-3 -0.068-0.016-0.078-0.041-2e-3 -3e-3 -2e-3 -7e-3 -2e-3 -0.013z" fill="#d1c690"/>
    <path d="m-19.758-29.278s2e-3 -0.354-0.311-0.383v0.383z" fill="#d1c690"/>
    <path d="m-19.439-29.712s-0.306 0.157-0.351 0.054c-0.048-0.107-0.052-0.179 0.028-0.24 0.084-0.062 0.323 0.186 0.323 0.186z" fill="#d1c690"/>
    <path d="m-20.107-29.354c0.084 0.271-0.618 0.617-0.698 0.826-0.06 0.146-0.127 0.33-0.162 0.601h0.059c0.035-0.269 0.104-0.447 0.162-0.601 0.08-0.209 0.782-0.561 0.696-0.826z" fill="#9d956c"/>
    <polygon points="-18.8 -31.401 -18.903 -32.368 -18.848 -32.368 -18.745 -31.401" fill="#9d956c"/>
    <path d="m-19.752-29.805c0.291-0.063 1.212-1.069 1.149-1.885h0.06c0.06 0.877-0.86 1.824-1.152 1.888z" fill="#9d956c"/>
    <path d="m-20.125-29.661v0.381h0.057v-0.381z" fill="#9d956c"/>
    <path d="m-19.814-29.901c-0.08 0.063-0.076 0.131-0.031 0.237l0.06 3e-3c-0.049-0.107-0.052-0.18 0.028-0.24z" fill="#9d956c"/>
    <rect transform="rotate(-90)" x="27.608" y="-17.751" width="4.225" height=".051" fill="#fff" opacity=".5"/>
    <path d="m-17.701-32.35h-3.831v5.316l3.831 4e-3z" fill="#f2f2f2" opacity=".5"/>
    <path d="m-18.352-32.298h0.271c0.151 0.019 0.271-0.013 0.271 0.099v4.854c0 0.168-0.065 0.176-0.065-0.014v-4.348c0-0.457-0.105-0.52-0.197-0.52l-0.272 4e-3c-0.182 0-0.182-0.075-8e-3 -0.075z" fill="#fff" opacity=".55"/>
    <path d="m-21.311-27.171c-0.068 0-0.138 0.013-0.138-0.099v-4.817c0-0.168 0.065-0.177 0.065 9e-3 0 0.137 2e-3 3.139 2e-3 3.59 1e-3 0.593 0.071 1.317 0.071 1.317z" opacity=".03"/>
    <path d="m-21.533-33.309v0.771h0.521c0.125 0 0.213 0.08 0.268 0.188h3.047v-1.01h-3.834" fill="#d1c690"/>
    <rect transform="rotate(-90)" x="32.351" y="-17.749" width="1.007" height=".052" fill="#fff" opacity=".5"/>
    <path d="m-21.533-25.96h3.833v-1.071h-3.464c-0.056 0.104-0.146 0.19-0.271 0.19h-0.1v0.83" fill="#d1c690"/>
    <rect transform="rotate(-90)" x="25.964" y="-17.751" width="1.07" height=".052" fill="#fff" opacity=".5"/>
    <rect transform="rotate(90)" x="-32.35" y="17.644" width="5.4556" height="3.8879" fill="#0f0" fill-opacity=".38298"/>
  </g>
  <g id="capacitor-2-power" transform="rotate(90 -7.876 115.19)">
    <rect transform="rotate(90)" x="8.5144" y="-20.426" width="1.272" height="1.039" fill="#ccc"/>
    <rect transform="rotate(90)" x="8.5138" y="-1.0358" width="1.272" height="1.037" fill="#ccc"/>
    <rect transform="rotate(90)" x="8.5123" y="-20.426" width=".203" height="1.039" opacity=".1"/>
    <rect transform="rotate(90)" x="8.5112" y="-1.0352" width=".203" height="1.037" opacity=".1"/>
    <rect transform="rotate(90)" x="9.5825" y="-20.426" width=".204" height="1.039" fill="#fff" opacity=".2"/>
    <rect transform="rotate(90)" x="9.5809" y="-1.0359" width=".204" height="1.037" fill="#fff" opacity=".2"/>
    <path d="m4.845 18.353h13.157c0.76 0 1.385-0.623 1.385-1.383v-15.58c0-0.764-0.625-1.387-1.385-1.387h-13.157l-3.81 3.811v10.731z" fill="#1a1a1a"/>
    <circle cx="10.211" cy="9.178" r="8.703" fill="#e6e6e6"/>
    <path d="m4.845 18.353h13.157c0.76 0 1.385-0.623 1.385-1.383v-15.58c0-0.764-0.625-1.387-1.385-1.387h-13.157l-3.81 3.811v10.731z" fill="#333"/>
    <path d="m1.036 3.997 3.811-3.811h13.156c0.76 0 1.385 0.623 1.385 1.387v-0.184c0-0.764-0.625-1.387-1.385-1.387h-13.158l-3.81 3.811v0.184z"/>
    <path d="m19.386 16.785c0 0.761-0.625 1.384-1.385 1.384h-13.157l-3.811-3.807v0.183l3.811 3.808h13.157c0.76 0 1.385-0.623 1.385-1.383z" fill="#fff" opacity=".1"/>
    <path d="m10.211 0.354c1.881 0 3.615 0.604 5.039 1.614 2.215 1.579 3.664 4.163 3.664 7.088 0 2.927-1.449 5.509-3.664 7.087-1.424 1.013-3.158 1.615-5.039 1.615-4.805 0-8.702-3.896-8.702-8.703 0-4.804 3.898-8.701 8.702-8.701z" fill="#e6e6e6"/>
    <path d="m18.915 9.178c0-2.926-1.449-5.509-3.664-7.088v14.175c2.214-1.577 3.664-4.16 3.664-7.087z"/>
    <path d="m1.509 8.934c0 4.807 3.897 8.703 8.702 8.703 1.881 0 3.615-0.604 5.039-1.616 2.215-1.578 3.664-4.161 3.664-7.087v0.244c0 2.927-1.449 5.51-3.664 7.087-1.424 1.014-3.158 1.615-5.039 1.615-4.805 0-8.702-3.896-8.702-8.702z" fill="#fff" opacity=".3"/>
    <path d="m18.915 9.407c0-2.925-1.449-5.508-3.664-7.088v-0.229c2.215 1.579 3.664 4.162 3.664 7.088z" fill="#fff" opacity=".5"/>
    <path d="m15.25 2.319c-1.424-1.012-3.158-1.615-5.039-1.615-4.805 0-8.702 3.898-8.702 8.703v-0.229c0-4.805 3.897-8.703 8.702-8.703 1.881 0 3.615 0.604 5.039 1.615z" opacity=".2"/>
  </g>
  <g id="capacitor-1-power" transform="rotate(90 -17.956 105.11)">
    <rect transform="rotate(90)" x="8.5139" y="-20.427" width="1.272" height="1.038" fill="#ccc"/>
    <rect transform="rotate(90)" x="8.5127" y="-1.0367" width="1.272" height="1.037" fill="#ccc"/>
    <rect transform="rotate(90)" x="8.5112" y="-20.426" width=".203" height="1.039" opacity=".1"/>
    <rect transform="rotate(90)" x="8.5116" y="-1.0356" width=".203" height="1.037" opacity=".1"/>
    <rect transform="rotate(90)" x="9.5824" y="-20.427" width=".204" height="1.039" fill="#fff" opacity=".2"/>
    <rect transform="rotate(90)" x="9.5808" y="-1.0368" width=".204" height="1.037" fill="#fff" opacity=".2"/>
    <path d="m4.846 18.353h13.157c0.76 0 1.385-0.623 1.385-1.383v-15.58c0-0.764-0.625-1.387-1.385-1.387h-13.157l-3.81 3.811v10.731z" fill="#1a1a1a"/>
    <circle cx="10.212" cy="9.178" r="8.703" fill="#e6e6e6"/>
    <path d="m4.846 18.353h13.157c0.76 0 1.385-0.623 1.385-1.383v-15.58c0-0.764-0.625-1.387-1.385-1.387h-13.157l-3.81 3.811v10.731z" fill="#333"/>
    <path d="m1.037 3.997 3.811-3.811h13.156c0.76 0 1.385 0.623 1.385 1.387v-0.184c0-0.764-0.625-1.387-1.385-1.387h-13.157l-3.81 3.811z"/>
    <path d="m19.387 16.785c0 0.761-0.625 1.384-1.385 1.384h-13.157l-3.811-3.807v0.183l3.811 3.808h13.157c0.76 0 1.385-0.623 1.385-1.383z" fill="#fff" opacity=".1"/>
    <path d="m10.212 0.354c1.881 0 3.615 0.604 5.039 1.614 2.215 1.579 3.664 4.163 3.664 7.088 0 2.927-1.449 5.509-3.664 7.087-1.424 1.013-3.158 1.615-5.039 1.615-4.805 0-8.702-3.896-8.702-8.703 0-4.804 3.898-8.701 8.702-8.701z" fill="#e6e6e6"/>
    <path d="m18.915 9.178c0-2.926-1.449-5.509-3.664-7.088v14.175c2.215-1.577 3.665-4.16 3.664-7.087z"/>
    <path d="m1.51 8.934c0 4.807 3.897 8.703 8.702 8.703 1.881 0 3.615-0.604 5.039-1.616 2.215-1.578 3.664-4.161 3.664-7.087v0.244c0 2.927-1.449 5.51-3.664 7.087-1.424 1.014-3.158 1.615-5.039 1.615-4.805 0-8.702-3.896-8.702-8.702z" fill="#fff" opacity=".3"/>
    <path d="m18.915 9.407c0-2.925-1.449-5.508-3.664-7.088v-0.229c2.215 1.579 3.664 4.162 3.664 7.088z" fill="#fff" opacity=".5"/>
    <path d="m15.251 2.319c-1.424-1.012-3.158-1.615-5.039-1.615-4.805 0-8.702 3.898-8.702 8.703v-0.229c0-4.805 3.897-8.703 8.702-8.703 1.881 0 3.615 0.604 5.039 1.615z" opacity=".2"/>
  </g>
  <g id="power-pins" transform="translate(100.66 148.63)">
    <rect x=".72" y="-.228" width="57.601" height="7.199" fill="#404040"/>
    <rect x="2.93" y="1.981" width="2.781" height="2.783"/>
    <polygon points="1.905 0.956 2.928 1.981 5.711 1.981 6.737 0.956" fill="#2a2a29"/>
    <polygon points="6.737 0.956 5.711 1.985 5.711 4.766 6.737 5.789" fill="#474747"/>
    <polygon points="6.736 5.789 5.71 4.766 2.928 4.766 1.905 5.789" fill="#595959"/>
    <polygon points="1.903 5.789 2.928 4.764 2.928 1.981 1.903 0.956" fill="#373737"/>
    <rect x="10.13" y="1.981" width="2.781" height="2.783"/>
    <polygon points="9.104 0.956 10.128 1.981 12.912 1.981 13.938 0.956" fill="#2a2a29"/>
    <polygon points="13.938 0.956 12.912 1.985 12.912 4.766 13.938 5.789" fill="#474747"/>
    <polygon points="13.936 5.789 12.911 4.766 10.128 4.766 9.104 5.789" fill="#595959"/>
    <polygon points="9.102 5.789 10.128 4.764 10.128 1.981 9.102 0.956" fill="#373737"/>
    <rect x="17.331" y="1.981" width="2.78" height="2.783"/>
    <polygon points="16.304 0.956 17.328 1.981 20.112 1.981 21.136 0.956" fill="#2a2a29"/>
    <polygon points="21.136 0.956 20.112 1.985 20.112 4.766 21.136 5.789" fill="#474747"/>
    <polygon points="21.135 5.789 20.11 4.766 17.328 4.766 16.304 5.789" fill="#595959"/>
    <polygon points="16.302 5.789 17.328 4.764 17.328 1.981 16.302 0.956" fill="#373737"/>
    <rect x="24.53" y="1.981" width="2.781" height="2.783"/>
    <polygon points="23.503 0.956 24.528 1.981 27.313 1.981 28.335 0.956" fill="#2a2a29"/>
    <polygon points="28.335 0.956 27.313 1.985 27.313 4.766 28.335 5.789" fill="#474747"/>
    <polygon points="28.335 5.789 27.311 4.766 24.528 4.766 23.503 5.789" fill="#595959"/>
    <polygon points="23.501 5.789 24.528 4.764 24.528 1.981 23.501 0.956" fill="#373737"/>
    <rect x="31.731" y="1.981" width="2.78" height="2.783"/>
    <polygon points="30.703 0.956 31.729 1.981 34.511 1.981 35.535 0.956" fill="#2a2a29"/>
    <polygon points="35.535 0.956 34.511 1.985 34.511 4.766 35.535 5.789" fill="#474747"/>
    <polygon points="35.535 5.789 34.51 4.766 31.729 4.766 30.703 5.789" fill="#595959"/>
    <polygon points="30.701 5.789 31.729 4.764 31.729 1.981 30.701 0.956" fill="#373737"/>
    <rect x="38.93" y="1.981" width="2.78" height="2.783"/>
    <polygon points="37.905 0.956 38.928 1.981 41.71 1.981 42.737 0.956" fill="#2a2a29"/>
    <polygon points="42.737 0.956 41.71 1.985 41.71 4.766 42.737 5.789" fill="#474747"/>
    <polygon points="42.735 5.789 41.71 4.766 38.928 4.766 37.905 5.789" fill="#595959"/>
    <polygon points="37.903 5.789 38.928 4.764 38.928 1.981 37.903 0.956" fill="#373737"/>
    <rect x="46.13" y="1.981" width="2.78" height="2.783"/>
    <polygon points="45.104 0.956 46.128 1.981 48.91 1.981 49.938 0.956" fill="#2a2a29"/>
    <polygon points="49.938 0.956 48.91 1.985 48.91 4.766 49.938 5.789" fill="#474747"/>
    <polygon points="49.936 5.789 48.91 4.766 46.128 4.766 45.104 5.789" fill="#595959"/>
    <polygon points="45.102 5.789 46.128 4.764 46.128 1.981 45.102 0.956" fill="#373737"/>
    <rect x="53.331" y="1.981" width="2.78" height="2.783"/>
    <polygon points="52.304 0.956 53.328 1.981 56.112 1.981 57.136 0.956" fill="#2a2a29"/>
    <polygon points="57.136 0.956 56.112 1.985 56.112 4.766 57.136 5.789" fill="#474747"/>
    <polygon points="57.135 5.789 56.11 4.766 53.328 4.766 52.304 5.789" fill="#595959"/>
    <polygon points="52.302 5.789 53.328 4.764 53.328 1.981 52.302 0.956" fill="#373737"/>
  </g>
  <g id="led-rx" transform="rotate(90,-5.1965,76.313)">
    <line x1="-21.535" x2="-21.535" y1="-37.083" y2="-29.847" fill="none"/>
    <rect transform="rotate(90)" x="-37.081" y="17.707" width="7.348" height="3.833" fill="#f2f2f2"/>
    <path d="m-21.541-32.333s0.467 0.645 0.426 0.867c-0.041 0.219 0.148 0.541 0 0.676l-0.424-0.018z" fill="#22b573" fill-opacity=".7"/>
    <rect transform="rotate(90)" x="-33.904" y="19.113" width=".854" height=".961" fill="#fff"/>
    <rect transform="rotate(90)" x="-33.906" y="20.05" width=".854" height=".049" fill="#b3b3b3"/>
    <polygon points="-21.115 -31.753 -21.219 -30.79 -20.488 -30.79 -20.592 -31.753" fill="#d1c690"/>
    <path d="m-20.918-31.692v-8e-3c0.035-0.266 0.104-0.447 0.162-0.598 0.08-0.209 0.782-0.559 0.696-0.828-0.012-0.027 0.011-0.06 0.043-0.066 0.035-8e-3 0.068 0.01 0.078 0.039 0.095 0.305-0.617 0.674-0.701 0.893-0.06 0.148-0.123 0.318-0.155 0.572-4e-3 0.029-0.033 0.055-0.068 0.049-0.03-3e-3 -0.055-0.026-0.055-0.053z" fill="#d1c690"/>
    <polygon points="-18.229 -35.173 -18.126 -36.139 -18.856 -36.139 -18.753 -35.173" fill="#d1c690"/>
    <path d="m-19.75-33.52c0-0.025 0.02-0.049 0.047-0.055 0.292-0.063 1.152-1.088 1.152-1.885 0-0.033 0.026-0.057 0.063-0.057 0.034 2e-3 0.063 0.025 0.063 0.057v2e-3c0 0.749-0.77 1.891-1.245 1.993-0.035 8e-3 -0.068-0.012-0.078-0.041-2e-3 -5e-3 -2e-3 -9e-3 -2e-3 -0.014z" fill="#d1c690"/>
    <path d="m-19.766-33.05s2e-3 -0.356-0.311-0.383v0.383z" fill="#d1c690"/>
    <path d="m-19.446-33.485s-0.306 0.158-0.351 0.053c-0.048-0.107-0.052-0.178 0.028-0.24 0.083-0.061 0.323 0.187 0.323 0.187z" fill="#d1c690"/>
    <path d="m-20.113-33.126c0.084 0.27-0.618 0.619-0.698 0.828-0.06 0.145-0.127 0.33-0.162 0.598h0.059c0.035-0.266 0.104-0.447 0.162-0.598 0.08-0.209 0.782-0.559 0.696-0.828z" fill="#9d956c"/>
    <polygon points="-18.808 -35.173 -18.909 -36.139 -18.856 -36.139 -18.753 -35.173" fill="#9d956c"/>
    <path d="m-19.759-33.577c0.291-0.062 1.212-1.07 1.149-1.885h0.06c0.06 0.877-0.86 1.826-1.152 1.887z" fill="#9d956c"/>
    <path d="m-20.133-33.433v0.381h0.057v-0.381z" fill="#9d956c"/>
    <path d="m-19.821-33.673c-0.08 0.063-0.076 0.131-0.031 0.238l0.06 2e-3c-0.049-0.107-0.052-0.179 0.028-0.24z" fill="#9d956c"/>
    <rect transform="rotate(90)" x="-35.602" y="17.705" width="4.223" height=".051" fill="#fff" opacity=".5"/>
    <path d="m-17.708-36.122h-3.831v5.317l3.831 4e-3z" fill="#f2f2f2" opacity=".5"/>
    <path d="m-18.36-36.071h0.271c0.151 0.018 0.271-0.012 0.271 0.098v4.854c0 0.168-0.065 0.176-0.065-0.012v-4.346c0-0.457-0.105-0.518-0.197-0.518l-0.272 2e-3c-0.18-1e-3 -0.18-0.078-8e-3 -0.078z" fill="#fff" opacity=".55"/>
    <path d="m-21.319-30.944c-0.068 0-0.138 0.012-0.138-0.098v-4.817c0-0.168 0.065-0.176 0.065 8e-3 0 0.135 2e-3 3.138 2e-3 3.589 3e-3 0.595 0.071 1.318 0.071 1.318z" opacity=".03"/>
    <path d="m-21.541-37.08v0.771h0.521c0.125 0 0.213 0.08 0.268 0.188h3.047v-1.01h-3.834" fill="#d1c690"/>
    <rect transform="rotate(90)" x="-37.13" y="17.703" width="1.006" height=".052" fill="#fff" opacity=".5"/>
    <path d="m-21.541-29.733h3.833v-1.072h-3.464c-0.056 0.105-0.146 0.191-0.271 0.191h-0.1v0.83" fill="#d1c690"/>
    <rect transform="rotate(90)" x="-30.806" y="17.704" width="1.072" height=".052" fill="#fff" opacity=".5"/>
  </g>
  <g id="led-tx" transform="rotate(90,-1.9565,73.073)">
    <line x1="-21.535" x2="-21.535" y1="-37.083" y2="-29.847" fill="none"/>
    <rect transform="rotate(90)" x="-37.08" y="17.708" width="7.348" height="3.833" fill="#f2f2f2"/>
    <path d="m-21.541-32.333s0.467 0.645 0.426 0.867c-0.041 0.219 0.148 0.541 0 0.676l-0.424-0.018z" fill="#22b573" fill-opacity=".7"/>
    <rect transform="rotate(90)" x="-33.904" y="19.113" width=".854" height=".961" fill="#fff"/>
    <rect transform="rotate(90)" x="-33.904" y="20.051" width=".854" height=".049" fill="#b3b3b3"/>
    <polygon points="-21.115 -31.753 -21.219 -30.79 -20.488 -30.79 -20.592 -31.753" fill="#d1c690"/>
    <path d="m-20.918-31.692v-8e-3c0.035-0.266 0.104-0.447 0.162-0.598 0.08-0.209 0.782-0.559 0.696-0.828-0.012-0.027 0.011-0.06 0.043-0.066 0.035-8e-3 0.068 0.01 0.078 0.039 0.095 0.305-0.617 0.674-0.701 0.893-0.06 0.148-0.123 0.318-0.155 0.572-4e-3 0.029-0.033 0.055-0.068 0.049-0.029-3e-3 -0.055-0.026-0.055-0.053z" fill="#d1c690"/>
    <polygon points="-18.229 -35.173 -18.126 -36.139 -18.856 -36.139 -18.753 -35.173" fill="#d1c690"/>
    <path d="m-19.75-33.52c0-0.025 0.02-0.049 0.047-0.055 0.292-0.063 1.152-1.088 1.152-1.885 0-0.033 0.026-0.057 0.063-0.057 0.034 2e-3 0.063 0.025 0.063 0.057v2e-3c0 0.749-0.77 1.891-1.245 1.993-0.035 8e-3 -0.068-0.012-0.078-0.041-2e-3 -5e-3 -2e-3 -9e-3 -2e-3 -0.014z" fill="#d1c690"/>
    <path d="m-19.764-33.05s2e-3 -0.356-0.311-0.383v0.383z" fill="#d1c690"/>
    <path d="m-19.445-33.485s-0.306 0.158-0.351 0.053c-0.048-0.107-0.052-0.178 0.028-0.24 0.082-0.061 0.323 0.187 0.323 0.187z" fill="#d1c690"/>
    <path d="m-20.113-33.126c0.084 0.27-0.618 0.619-0.698 0.828-0.06 0.145-0.127 0.33-0.162 0.598h0.059c0.035-0.266 0.104-0.447 0.162-0.598 0.08-0.209 0.782-0.559 0.696-0.828z" fill="#9d956c"/>
    <polygon points="-18.806 -35.173 -18.91 -36.139 -18.856 -36.139 -18.753 -35.173" fill="#9d956c"/>
    <path d="m-19.758-33.577c0.291-0.062 1.212-1.07 1.149-1.885h0.06c0.06 0.877-0.86 1.826-1.152 1.887z" fill="#9d956c"/>
    <path d="m-20.131-33.433v0.381h0.057v-0.381z" fill="#9d956c"/>
    <path d="m-19.82-33.673c-0.08 0.063-0.076 0.131-0.031 0.238l0.06 2e-3c-0.049-0.107-0.052-0.179 0.028-0.24z" fill="#9d956c"/>
    <rect transform="rotate(90)" x="-35.601" y="17.706" width="4.223" height=".051" fill="#fff" opacity=".5"/>
    <path d="m-17.708-36.122h-3.831v5.317l3.831 4e-3z" fill="#f2f2f2" opacity=".5"/>
    <path d="m-18.359-36.071h0.271c0.151 0.018 0.271-0.012 0.271 0.098v4.854c0 0.168-0.065 0.176-0.065-0.012v-4.346c0-0.457-0.105-0.518-0.197-0.518l-0.272 2e-3c-0.181-1e-3 -0.181-0.078-8e-3 -0.078z" fill="#fff" opacity=".55"/>
    <path d="m-21.317-30.944c-0.068 0-0.138 0.012-0.138-0.098v-4.817c0-0.168 0.065-0.176 0.065 8e-3 0 0.135 2e-3 3.138 2e-3 3.589 1e-3 0.595 0.071 1.318 0.071 1.318z" opacity=".03"/>
    <path d="m-21.541-37.08v0.771h0.521c0.125 0 0.213 0.08 0.268 0.188h3.047v-1.01h-3.834" fill="#d1c690"/>
    <rect transform="rotate(90)" x="-37.13" y="17.705" width="1.006" height=".052" fill="#fff" opacity=".5"/>
    <path d="m-21.541-29.733h3.833v-1.072h-3.464c-0.056 0.105-0.146 0.191-0.271 0.191h-0.1v0.83" fill="#d1c690"/>
    <rect transform="rotate(90)" x="-30.805" y="17.707" width="1.072" height=".052" fill="#fff" opacity=".5"/>
  </g>
  <g id="voltage-regulator" transform="rotate(90 -13.543 72.171)">
    <rect transform="rotate(90)" x="1.1922" y="-32.445" width="4.896" height="3.458" fill="#999"/>
    <rect transform="rotate(90)" x="1.1927" y="-25.891" width="4.896" height="3.459" fill="#999"/>
    <rect transform="rotate(90)" x="1.1922" y="-19.334" width="4.896" height="3.455" fill="#999"/>
    <rect transform="rotate(90)" x="1.1922" y="-32.445" width=".146" height="3.458" fill="#fff" opacity=".2"/>
    <rect transform="rotate(90)" x="1.1927" y="-25.891" width=".146" height="3.459" fill="#fff" opacity=".2"/>
    <rect transform="rotate(90)" x="1.1922" y="-19.334" width=".146" height="3.455" fill="#fff" opacity=".2"/>
    <rect transform="rotate(90)" x="16.03" y="-29.264" width="5.285" height="10.207" fill="#999"/>
    <rect transform="rotate(90)" x="21.154" y="-29.264" width=".161" height="10.207" fill="#fff" opacity=".2"/>
    <rect transform="rotate(90)" x="6.088" y="-33.742" width="9.943" height="19.16" fill="#303030"/>
    <polygon points="33.744 16.031 14.582 16.031 15.301 15.31 33.021 15.31" fill="#1f1f1f"/>
    <polygon points="33.744 6.088 14.582 6.088 15.301 6.811 33.021 6.811" fill="#1f1f1f"/>
    <polygon points="33.744 16.031 33.744 6.088 33.021 6.811 33.021 15.31"/>
    <polygon points="14.582 16.031 14.582 6.088 15.301 6.811 15.301 15.31" fill="#3d3d3d"/>
    <circle cx="31.582" cy="8.251" r=".72" fill="#1f1f1f"/>
  </g>
  <g id="power-port" transform="rotate(180 -37.8 87.532)">
    <rect x="-134" y="26.131" width="32.972" height="23.732" fill="#232323"/>
    <rect x="-133.57" y="47.644" width="31.937" height="1.646" fill="#494949"/>
    <rect x="-133.57" y="42.273" width="31.936" height="5.369" fill="#3d3d3d" fill-opacity=".3"/>
    <rect x="-133.57" y="26.648" width="32.973" height="1.619"/>
    <rect x="-133.57" y="28.221" width="32.973" height="5.826" fill="#0f0f0f" fill-opacity=".4"/>
    <rect x="-134" y="26.133" width=".592" height="23.73" opacity=".2"/>
    <line x1="-131.19" x2="-131.19" y1="26.131" y2="49.863" fill="none" opacity=".5" stroke="#000" stroke-miterlimit="10" stroke-width=".25"/>
    <rect x="-104.53" y="26.109" width="1.287" height="23.729" opacity=".25"/>
    <path d="m-103.52 45.54v-15.08h-13.296c-4.166 0-7.541 3.375-7.541 7.541 0 4.164 3.375 7.541 7.541 7.541z" opacity=".25" stroke="#565656" stroke-miterlimit="10" stroke-width=".25"/>
    <path d="m-103.52 45.54v-15.08h-13.296c-4.166 0-7.541 3.375-7.541 7.541 0 4.164 3.375 7.541 7.541 7.541z" fill="#232323"/>
    <rect x="-104.25" y="25.242" width="7.688" height="25.514" fill="#232323"/>
    <rect x="-135.7" y="35.142" width="1.701" height="5.713" fill="#6d6d6d"/>
    <rect x="-134.98" y="32.387" width=".976" height="11.226" fill="#494949"/>
    <rect x="-103.52" y="49.291" width="6.266" height="1.051" fill="#494949"/>
    <rect x="-103.52" y="25.603" width="6.267" height="1.051"/>
  </g>
  <g id="usb-connector" transform="rotate(-90 43.541 30.448)">
    <path d="m43.103 14.31v2.956h-4.074l-2e-3 -2.956v-1.928h3.17c0.502 0 0.908 0.406 0.908 0.907 0 0 0 1.021-2e-3 1.021z" fill="#999"/>
    <path d="m43.103 13.189h-4.076v-0.807h3.318c0.403 0 0.758 0.56 0.758 0.807z" fill="#808080"/>
    <rect transform="rotate(-90)" x="-39.153" y="6.553" width="36.682" height="32.479" fill="#b3b3b3"/>
    <rect transform="rotate(-90)" x="-2.4725" y="6.5525" width="7.565" height="32.479" fill="#999"/>
    <rect transform="rotate(-90)" x="-39.154" y="6.554" width="44.247" height="2.046" fill="#ccc" opacity=".5"/>
    <rect transform="rotate(-90)" x="-39.153" y="36.985" width="44.247" height="2.047" opacity=".2"/>
    <path d="m2.476 14.308v2.956h4.077v-4.884h-3.172c-0.502 0-0.905 0.406-0.905 0.907z" fill="#b3b3b3"/>
    <path d="m2.476 13.187h4.077v-0.807h-3.319c-0.404 0-0.758 0.56-0.758 0.807z" fill="#e6e6e6"/>
  </g>
  <g id="reset-switch" transform="translate(16.585 16.956)">
    <polygon transform="rotate(-90,7.299,6.521)" points="3.229 29.526 3.229 35.772 19.208 35.772 19.208 15.015 3.229 15.015 3.229 21.262 3.597 21.262 3.597 29.526" fill="#ccc"/>
    <polygon transform="rotate(-90,7.299,6.521)" points="21.768 21.262 21.768 15.015 5.908 15.015 5.908 35.772 21.768 35.772 21.768 29.526 21.399 29.526 21.399 21.262" fill="#ccc"/>
    <circle transform="rotate(-90)" cx="-1.324" cy="26.173" r="5.117" fill="#641d1c"/>
    <path d="m31.288 1.074c0-2.827-2.289-5.118-5.114-5.118-2.826 0-5.12 2.289-5.12 5.118v0.249c0-2.827 2.292-5.118 5.12-5.118 2.825 0 5.114 2.291 5.114 5.118z" opacity=".2"/>
    <circle transform="rotate(-90)" cx="-1.323" cy="26.173" r="4.93" fill="#852725"/>
    <circle transform="rotate(-90)" cx="-1.439" cy="26.173" r="4.929" fill="#852725"/>
    <path d="m26.29 6.252c2.724 0 4.931-2.206 4.931-4.931 0-2.724-2.207-4.929-4.931-4.929h-0.233c2.724 0 4.931 2.208 4.931 4.929 0 2.725-2.207 4.931-4.931 4.931z" opacity=".1"/>
    <path d="m26.29-3.607c-2.725 0-4.93 2.208-4.93 4.929 0 2.725 2.205 4.931 4.93 4.931h-0.233c-2.724 0-4.931-2.206-4.931-4.931 0-2.724 2.207-4.929 4.931-4.929z" fill="#fff" opacity=".2"/>
    <rect transform="scale(-1)" x="-22.038" y="-10.591" width="6.248" height=".371" fill="#fff" opacity=".2"/>
    <rect transform="scale(-1)" x="-36.547" y="-10.591" width="6.244" height=".371" fill="#fff" opacity=".2"/>
    <rect transform="scale(-1)" x="-30.302" y="-10.222" width="8.266" height=".368" fill="#fff" opacity=".2"/>
    <rect transform="scale(-1)" x="-22.038" y="7.567" width="6.248" height=".368" opacity=".2"/>
    <rect transform="scale(-1)" x="-36.546" y="7.563" width="6.244" height=".369" opacity=".2"/>
    <rect transform="scale(-1)" x="-30.304" y="7.196" width="8.267" height=".369" opacity=".2"/>
    <rect x="36.573" y="6.322" width="2.75" height="2.251" fill="#e6e6e6"/>
    <rect x="36.573" y="-5.929" width="2.75" height="2.252" fill="#e6e6e6"/>
    <rect x="13.198" y="-.47" width="2.75" height="3.417" fill="#e6e6e6"/>
    <rect x="13.198" y="6.322" width="2.75" height="2.251" fill="#e6e6e6"/>
    <rect x="13.198" y="-5.929" width="2.75" height="2.252" fill="#e6e6e6"/>
    <rect x="13.198" y="-.47" width=".334" height="3.417" fill="#fff" opacity=".2"/>
    <rect x="13.198" y="6.322" width=".334" height="2.251" fill="#fff" opacity=".2"/>
    <rect x="13.198" y="-5.929" width=".334" height="2.252" fill="#fff" opacity=".2"/>
    <rect x="39.263" y="6.303" width=".104" height="2.251" opacity=".2"/>
    <rect x="39.263" y="-5.948" width=".104" height="2.252" opacity=".2"/>
    <rect x="36.589" y="6.335" width=".334" height="2.251" opacity=".1"/>
    <rect x="36.589" y="-5.916" width=".334" height="2.252" opacity=".1"/>
  </g>
  <text x="35.3" y="31.4" fill="#fff" font-family="OCRA" font-size="4px">RESET</text>
  <g id="digital-8-13-pins" transform="translate(75.443 11.601)">
    <rect x="-.049" y="-.001" width="72" height="7.199" fill="#404040"/>
    <rect x="2.162" y="2.208" width="2.779" height="2.782"/>
    <polygon points="1.137 1.183 2.16 2.208 4.943 2.208 5.969 1.183" fill="#2a2a29"/>
    <polygon points="5.969 1.183 4.943 2.211 4.943 4.992 5.969 6.015" fill="#474747"/>
    <polygon points="5.969 6.015 4.943 4.992 2.16 4.992 1.137 6.015" fill="#595959"/>
    <polygon points="1.135 6.015 2.16 4.99 2.16 2.208 1.135 1.183" fill="#373737"/>
    <rect x="9.363" y="2.208" width="2.781" height="2.782"/>
    <polygon points="8.336 1.183 9.359 2.208 12.142 2.208 13.168 1.183" fill="#2a2a29"/>
    <polygon points="13.168 1.183 12.142 2.211 12.142 4.992 13.168 6.015" fill="#474747"/>
    <polygon points="13.168 6.015 12.14 4.992 9.359 4.992 8.336 6.015" fill="#595959"/>
    <polygon points="8.334 6.015 9.359 4.99 9.359 2.208 8.334 1.183" fill="#373737"/>
    <rect x="16.562" y="2.208" width="2.779" height="2.782"/>
    <polygon points="15.535 1.183 16.558 2.208 19.344 2.208 20.369 1.183" fill="#2a2a29"/>
    <polygon points="20.369 1.183 19.344 2.211 19.344 4.992 20.369 6.015" fill="#474747"/>
    <polygon points="20.367 6.015 19.344 4.992 16.558 4.992 15.535 6.015" fill="#595959"/>
    <polygon points="15.535 6.015 16.558 4.99 16.558 2.208 15.535 1.183" fill="#373737"/>
    <rect x="23.763" y="2.208" width="2.781" height="2.782"/>
    <polygon points="22.736 1.183 23.762 2.208 26.545 2.208 27.568 1.183" fill="#2a2a29"/>
    <polygon points="27.568 1.183 26.545 2.211 26.545 4.992 27.568 6.015" fill="#474747"/>
    <polygon points="27.568 6.015 26.543 4.992 23.762 4.992 22.736 6.015" fill="#595959"/>
    <polygon points="22.734 6.015 23.762 4.99 23.762 2.208 22.734 1.183" fill="#373737"/>
    <rect x="30.963" y="2.208" width="2.779" height="2.782"/>
    <polygon points="29.935 1.183 30.961 2.208 33.744 2.208 34.767 1.183" fill="#2a2a29"/>
    <polygon points="34.767 1.183 33.744 2.211 33.744 4.992 34.767 6.015" fill="#474747"/>
    <polygon points="34.765 6.015 33.742 4.992 30.961 4.992 29.935 6.015" fill="#595959"/>
    <polygon points="29.933 6.015 30.961 4.99 30.961 2.208 29.933 1.183" fill="#373737"/>
    <rect x="38.164" y="2.208" width="2.779" height="2.782"/>
    <polygon points="37.137 1.183 38.16 2.208 40.943 2.208 41.97 1.183" fill="#2a2a29"/>
    <polygon points="41.97 1.183 40.943 2.211 40.943 4.992 41.97 6.015" fill="#474747"/>
    <polygon points="41.97 6.015 40.94 4.992 38.16 4.992 37.137 6.015" fill="#595959"/>
    <polygon points="37.135 6.015 38.16 4.99 38.16 2.208 37.135 1.183" fill="#373737"/>
    <rect x="45.361" y="2.208" width="2.78" height="2.782"/>
    <polygon points="44.339 1.183 45.359 2.208 48.141 2.208 49.17 1.183" fill="#2a2a29"/>
    <polygon points="49.17 1.183 48.141 2.211 48.141 4.992 49.17 6.015" fill="#474747"/>
    <polygon points="49.168 6.015 48.139 4.992 45.359 4.992 44.339 6.015" fill="#595959"/>
    <polygon points="44.336 6.015 45.359 4.99 45.359 2.208 44.336 1.183" fill="#373737"/>
    <rect x="52.561" y="2.208" width="2.779" height="2.782"/>
    <polygon points="51.535 1.183 52.557 2.208 55.345 2.208 56.367 1.183" fill="#2a2a29"/>
    <polygon points="56.367 1.183 55.345 2.211 55.345 4.992 56.367 6.015" fill="#474747"/>
    <polygon points="56.367 6.015 55.345 4.992 52.557 4.992 51.535 6.015" fill="#595959"/>
    <polygon points="51.533 6.015 52.557 4.99 52.557 2.208 51.533 1.183" fill="#373737"/>
    <rect x="59.762" y="2.208" width="2.78" height="2.782"/>
    <polygon points="58.736 1.183 59.762 2.208 62.546 2.208 63.568 1.183" fill="#2a2a29"/>
    <polygon points="63.568 1.183 62.546 2.211 62.546 4.992 63.568 6.015" fill="#474747"/>
    <polygon points="63.565 6.015 62.543 4.992 59.762 4.992 58.736 6.015" fill="#595959"/>
    <polygon points="58.734 6.015 59.762 4.99 59.762 2.208 58.734 1.183" fill="#373737"/>
    <rect x="66.964" y="2.208" width="2.778" height="2.782"/>
    <polygon points="65.934 1.183 66.961 2.208 69.742 2.208 70.766 1.183" fill="#2a2a29"/>
    <polygon points="70.766 1.183 69.742 2.211 69.742 4.992 70.766 6.015" fill="#474747"/>
    <polygon points="70.764 6.015 69.742 4.992 66.961 4.992 65.934 6.015" fill="#595959"/>
    <polygon points="65.932 6.015 66.961 4.99 66.961 2.208 65.932 1.183" fill="#373737"/>
  </g>
</svg>
